<?xml version="1.0" encoding="UTF-8" standalone="no"?>
<!-- Created with Inkscape (http://www.inkscape.org/) -->

<svg
   xmlns:dc="http://purl.org/dc/elements/1.1/"
   xmlns:cc="http://creativecommons.org/ns#"
   xmlns:rdf="http://www.w3.org/1999/02/22-rdf-syntax-ns#"
   xmlns:svg="http://www.w3.org/2000/svg"
   xmlns="http://www.w3.org/2000/svg"
   xmlns:sodipodi="http://sodipodi.sourceforge.net/DTD/sodipodi-0.dtd"
   xmlns:inkscape="http://www.inkscape.org/namespaces/inkscape"
   width="81.945999cm"
   height="81.945999cm"
   viewBox="0 0 819.45999 819.45997"
   version="1.1"
   id="svg8"
   inkscape:version="0.92.2 (5c3e80d, 2017-08-06)"
   sodipodi:docname="DO(chevron).svg">
  <defs
     id="defs2" />
  <sodipodi:namedview
     id="base"
     pagecolor="#ffffff"
     bordercolor="#666666"
     borderopacity="1.0"
     inkscape:pageopacity="0.0"
     inkscape:pageshadow="2"
     inkscape:zoom="0.22456648"
     inkscape:cx="2889.5886"
     inkscape:cy="454.26417"
     inkscape:document-units="cm"
     inkscape:current-layer="layer1"
     showgrid="false"
     units="cm"
     inkscape:window-width="1920"
     inkscape:window-height="1001"
     inkscape:window-x="-9"
     inkscape:window-y="-9"
     inkscape:window-maximized="1" />
  <metadata
     id="metadata5">
    <rdf:RDF>
      <cc:Work
         rdf:about="">
        <dc:format>image/svg+xml</dc:format>
        <dc:type
           rdf:resource="http://purl.org/dc/dcmitype/StillImage" />
        <dc:title></dc:title>
      </cc:Work>
    </rdf:RDF>
  </metadata>
  <g
     inkscape:label="Layer 1"
     inkscape:groupmode="layer"
     id="layer1"
     transform="translate(0,522.46001)">
    <g
       transform="matrix(3.3012537,0,0,2.8369366,-52.541607,-318.39672)"
       id="g4685">
      <path
         style="fill:#ffffff"
         inkscape:connector-curvature="0"
         id="path2"
         d="M 73.828308,217.089 73.713355,-70.91097 209.71334,-70.96525 209.8283,217.03472 Z" />
      <path
         style="fill:#19408b"
         inkscape:connector-curvature="0"
         id="path4"
         d="m 73.802164,151.58901 68.025936,64.97285 67.97405,-65.02713 -0.0172,-43 -67.97405,65.02713 -68.025939,-64.97285 M 73.766242,61.589019 141.79218,126.56187 209.76623,61.534736 209.74907,18.53474 141.77502,83.561873 73.749079,18.589023 m -0.01876,-46.999996 68.025941,64.972853 67.97405,-65.027137 -0.0172,-42.999996 L 141.73905,-6.4381171 73.713116,-71.41097" />
      <path
         inkscape:connector-curvature="0"
         id="path4539"
         d="m 138.29593,54.283351 c 1.64529,4.624928 6.63641,2.135226 6.36737,0.159248 -2.00382,0.465781 -4.75959,0.114619 -6.36737,-0.159248 z"
         style="fill:#ffffff;fill-opacity:1;stroke:#fffff9;stroke-width:19.88532066;stroke-miterlimit:4;stroke-dasharray:none;stroke-opacity:1" />
      <path
         inkscape:connector-curvature="0"
         id="path4595"
         d="m 83.888113,-33.319029 c 19.260087,18.39484 38.424667,36.8903624 57.817607,55.145518 19.26192,-18.077931 38.26891,-36.424686 57.38132,-54.660036 0.003,-4.609701 0.006,-9.219401 0.009,-13.829102 -16.76003,16.089508 -33.66929,32.023563 -50.36449,48.1804784 C 142.88037,2.5579112 135.48077,4.0430596 131.5085,-1.6301429 115.6362,-16.773344 99.779806,-31.933332 83.888113,-47.056212 c 0,4.579061 0,9.158122 0,13.737183 z"
         style="fill:#000000;fill-opacity:0.14085622;stroke:#000000;stroke-width:19.88532066;stroke-miterlimit:4;stroke-dasharray:none;stroke-opacity:1" />
      <path
         inkscape:connector-curvature="0"
         id="path4597"
         d="m 83.888113,56.654282 c 19.300877,18.433766 38.601857,36.867433 57.903057,55.300878 19.16941,-18.12916 38.19004,-36.41461 57.2635,-54.644507 0.006,-4.637319 0.013,-9.274639 0.0194,-13.911957 -17.17889,16.199767 -33.91288,32.909726 -51.49525,48.660321 -4.83837,1.716627 -11.23299,1.873774 -14.68665,-2.682801 -16.48792,-15.34816 -32.70372,-30.985172 -49.004087,-46.531617 0,4.603228 0,9.206455 0,13.809683 z"
         style="fill:#000000;fill-opacity:0.14085622;stroke:#000000;stroke-width:19.88532066;stroke-miterlimit:4;stroke-dasharray:none;stroke-opacity:1" />
      <path
         inkscape:connector-curvature="0"
         id="path4599"
         d="m 83.941193,146.78295 c 19.291257,18.38164 38.582097,36.76372 57.871977,55.14681 19.14542,-18.09045 38.12561,-36.28964 57.1949,-54.48268 0.0125,-4.6563 0.025,-9.31261 0.0375,-13.96892 -17.1041,16.08735 -33.66637,32.79128 -51.3484,48.24262 -5.26198,3.69138 -11.99142,1.06403 -15.78826,-3.45672 -16.19251,-14.89348 -32.078649,-30.11624 -47.987177,-45.31151 0.0065,4.61013 0.01295,9.22026 0.01942,13.8304 z"
         style="fill:#d4aa00;fill-opacity:0.14085622;stroke:#000000;stroke-width:19.88532066;stroke-miterlimit:4;stroke-dasharray:none;stroke-opacity:1" />
      <path
         inkscape:connector-curvature="0"
         id="path4601"
         d="m 197.53479,88.112187 c -16.24349,15.593143 -32.58446,31.084643 -48.84202,46.663183 -5.84431,0.98868 -13.23113,2.4897 -17.18458,-3.18907 -15.65047,-14.93616 -31.27545,-29.8991 -46.957233,-44.802391 0.318136,5.816201 -0.637243,12.176889 0.479198,17.651781 18.919165,18.08105 37.838555,36.16187 56.758425,54.2422 19.1045,-18.27292 38.20963,-36.5452 57.32047,-54.81151 0,-5.756296 0,-11.512596 0,-17.268895 -0.52475,0.5049 -1.0495,1.009801 -1.57426,1.514702 z"
         style="fill:#d4aa00;fill-opacity:0.14085622;stroke:#ffcc00;stroke-width:19.88532066;stroke-miterlimit:4;stroke-dasharray:none;stroke-opacity:1" />
      <path
         inkscape:connector-curvature="0"
         id="path4603"
         d="m 190.48301,184.93143 c -7.49079,7.14259 -14.9789,14.28808 -22.46808,21.43239 10.36471,0 20.72941,0 31.09412,0 0,-9.89346 0,-19.78693 0,-29.68039 -2.87535,2.74933 -5.75069,5.49867 -8.62604,8.248 z"
         style="fill:#d4aa00;fill-opacity:0.14085622;stroke:#ffcc00;stroke-width:19.88532066;stroke-miterlimit:4;stroke-dasharray:none;stroke-opacity:1" />
      <path
         inkscape:connector-curvature="0"
         id="path4605"
         d="m 84.550957,186.49404 c 0,6.62326 0,13.24652 0,19.86978 10.344856,-0.003 20.689723,0.008 31.034563,-0.0104 -10.32299,-9.86197 -20.622205,-19.74943 -31.034563,-29.51727 0,3.21928 0,6.43856 0,9.65785 z"
         style="fill:#d4aa00;fill-opacity:0.14085622;stroke:#ffcc00;stroke-width:19.88532066;stroke-miterlimit:4;stroke-dasharray:none;stroke-opacity:1" />
      <path
         inkscape:connector-curvature="0"
         id="path4607"
         d="M 196.17545,-0.67654898 C 180.27732,14.435328 164.43034,29.751556 148.45327,44.838313 142.60843,45.707772 135.32339,47.19589 131.37598,41.553669 115.77656,26.66909 100.1759,11.786351 84.582028,-3.1039561 c 0.0078,5.7726981 0.01553,11.5453962 0.0233,17.3180951 19.041562,18.146322 38.083202,36.292571 57.124992,54.438655 19.11104,-18.30581 38.24958,-36.582884 57.37873,-54.869763 0,-5.7498266 0,-11.4996532 0,-17.2494799 -0.97787,0.9299662 -1.95574,1.8599331 -2.9336,2.78989992 z"
         style="fill:#d4aa00;fill-opacity:0.14085622;stroke:#ffcc00;stroke-width:19.88532066;stroke-miterlimit:4;stroke-dasharray:none;stroke-opacity:1" />
      <path
         inkscape:connector-curvature="0"
         id="path4609"
         d="m 124.25816,-59.879396 c -7.60723,0.01603 -15.2144,0.05044 -22.82151,0.09451 13.40683,12.810473 26.81404,25.620548 40.22117,38.430713 13.42082,-12.798982 26.82316,-25.617332 40.23023,-38.430713 -19.20972,-0.117813 -38.41989,-0.124073 -57.62989,-0.09451 z"
         style="fill:#d4aa00;fill-opacity:0.14085622;stroke:#ffcc00;stroke-width:19.88532066;stroke-miterlimit:4;stroke-dasharray:none;stroke-opacity:1" />
      <path
         inkscape:connector-curvature="0"
         id="path4611"
         d="m 131.04584,-59.696855 c -9.70171,0.03123 -19.2928,0.116529 -28.94376,0.299056 13.19156,12.604582 26.38412,25.208117 39.57645,37.811887 13.15308,-12.619555 26.35036,-25.193015 39.53632,-37.778226 -16.65928,-0.290621 -33.42924,-0.381979 -50.16901,-0.332717 z"
         style="fill:#d4aa00;fill-opacity:0.14085622;stroke:#ffcc00;stroke-width:19.88532066;stroke-miterlimit:4;stroke-dasharray:none;stroke-opacity:1" />
      <path
         inkscape:connector-curvature="0"
         id="path4613"
         d="m 129.65672,-59.755113 c -9.29647,0.03773 -18.59291,0.101325 -27.88865,0.226558 9.05145,8.681418 18.11589,17.293894 27.19473,25.94154 -2.70133,-3.178506 -6.99475,-5.952368 -8.60269,-9.43053 1.4615,-5.865836 2.67274,-11.847466 6.93134,-16.419092 9.71395,0.01961 19.42789,0.03989 29.14184,0.06085 3.15503,5.299479 6.65649,10.474222 6.79303,16.8606 2.49485,-1.414614 5.86108,-5.461789 8.68964,-7.884575 3.14922,-3.007199 6.30035,-6.012381 9.45036,-9.018748 -17.23419,-0.350941 -34.47247,-0.393691 -51.7096,-0.3366 z m 23.45458,27.267228 c -3.32747,3.040573 -6.58485,7.109477 -11.65764,6.111094 -2.02466,2.014271 -9.09313,-3.519815 -5.45801,-0.512898 3.0057,2.811761 6.01285,7.683185 9.01274,2.182303 3.65381,-3.488943 7.30761,-6.977886 10.96142,-10.466829 -0.95284,0.895444 -1.90567,1.790887 -2.85851,2.68633 z"
         style="fill:#d4aa00;fill-opacity:0.14085622;stroke:#ffcc00;stroke-width:19.88532066;stroke-miterlimit:4;stroke-dasharray:none;stroke-opacity:1" />
      <path
         inkscape:connector-curvature="0"
         id="path4615"
         d="m 132.05305,-59.787478 c -10.11769,0.02158 -20.23549,0.07272 -30.3523,0.213611 8.80193,8.387224 17.59894,16.780028 26.39854,25.16995 -5.01856,-4.13156 -8.40171,-11.599556 -5.0482,-17.617431 4.14146,-3.363971 7.81483,-8.893454 13.91245,-7.415289 7.21624,0.293836 15.51907,-1.604226 21.18977,4.015505 5.60029,4.876684 5.15948,14.422104 -0.78013,18.919934 -5.22153,4.343286 -10.19588,11.787657 -17.98871,9.924536 -2.94368,-0.748797 -5.51305,-2.500129 -7.77159,-4.478081 3.35984,3.204288 6.71985,6.408395 10.0786,9.613828 13.35574,-12.641172 26.6308,-25.367267 39.9247,-38.073399 -16.38331,-0.248027 -33.0661,-0.293236 -49.56313,-0.273164 z"
         style="fill:#d4aa00;fill-opacity:0.14085622;stroke:#ffcc00;stroke-width:19.88532066;stroke-miterlimit:4;stroke-dasharray:none;stroke-opacity:1" />
      <path
         inkscape:connector-curvature="0"
         id="path4617"
         d="m 131.34749,-59.787478 c -9.9083,0.02334 -19.81677,0.05857 -29.72441,0.179951 13.38491,12.708531 26.76842,25.419088 40.02179,38.265003 13.29983,-12.762274 26.62852,-25.494478 39.97001,-38.213218 -16.75471,-0.218042 -33.51146,-0.24769 -50.26739,-0.231736 z m 11.17513,0.350841 c 6.86872,-0.509483 15.19717,0.823809 18.24504,7.934709 3.63439,6.324888 -0.81644,13.19745 -5.80867,17.175633 -4.49138,4.731032 -11.04065,9.927377 -17.888,6.746305 -6.19991,-3.257809 -11.54047,-8.611387 -14.83114,-14.771583 -3.30127,-9.396319 7.03411,-17.715252 15.85389,-17.031985 1.47573,-0.05149 2.95249,-0.04704 4.42888,-0.05308 z"
         style="fill:#d4aa00;fill-opacity:0.14085622;stroke:#ffcc00;stroke-width:19.88532066;stroke-miterlimit:4;stroke-dasharray:none;stroke-opacity:1" />
      <path
         inkscape:connector-curvature="0"
         id="path4619"
         d="m 130.91767,-59.800425 c -9.83146,0.02111 -19.66304,0.05552 -29.49397,0.164417 13.36338,12.781288 26.70274,25.588019 40.13832,38.293484 13.47689,-12.673552 26.83521,-25.472276 40.21987,-38.242994 -16.9538,-0.204497 -33.90937,-0.231925 -50.86422,-0.214907 z m 11.33309,0.367672 c 7.56693,-0.437254 17.61612,1.515707 19.54224,10.189932 1.83751,8.498628 -6.35721,14.231707 -11.88976,19.126676 -5.14097,4.861781 -13.23478,3.70887 -18.03402,-1.035694 -4.09386,-3.708463 -9.96288,-7.772495 -8.65132,-14.015324 -0.53899,-5.062136 1.62526,-10.309872 6.5139,-12.331432 3.82585,-2.087644 8.30062,-1.90517 12.51896,-1.934158 z"
         style="fill:#d4aa00;fill-opacity:0.14085622;stroke:#ffcc00;stroke-width:19.88532066;stroke-miterlimit:4;stroke-dasharray:none;stroke-opacity:1" />
      <path
         inkscape:connector-curvature="0"
         id="path4621"
         d="m 128.61714,-59.826317 c -9.14005,0.0158 -18.28013,0.03925 -27.41999,0.10098 13.4728,12.853955 26.91123,25.786204 40.51116,38.360804 13.52691,-12.68232 26.91444,-25.511933 40.3325,-38.309019 -17.80741,-0.147039 -35.61574,-0.165592 -53.42367,-0.152765 z m 13.2517,0.414278 c 7.45941,-0.239443 17.39359,1.551795 19.47239,10.02449 2.14659,8.94064 -6.39356,15.097957 -12.5915,19.799607 -4.99571,4.371338 -12.62188,2.864829 -16.80801,-1.882373 -5.89265,-4.379998 -10.42057,-11.944296 -7.62506,-19.366566 2.45734,-7.416098 10.76108,-8.817371 17.55218,-8.575158 z"
         style="fill:#d4aa00;fill-opacity:0.14085622;stroke:#ffcc00;stroke-width:19.88532066;stroke-miterlimit:4;stroke-dasharray:none;stroke-opacity:1" />
      <path
         inkscape:connector-curvature="0"
         id="path4623"
         d="m 141.31863,-47.377277 c -0.64128,2.973849 1.64517,7.295513 2.07915,2.084333 0.46139,-1.945026 -0.37097,-2.081459 -2.07915,-2.084333 z"
         style="fill:#d4aa00;fill-opacity:0.14085622;stroke:#ffcc00;stroke-width:19.88532066;stroke-miterlimit:4;stroke-dasharray:none;stroke-opacity:1" />
      <path
         inkscape:connector-curvature="0"
         id="path4625"
         d="m 128.83981,-59.812076 c -9.2091,0.01543 -18.41826,0.03726 -27.62713,0.106158 13.44869,12.833914 26.86956,25.697366 40.4076,38.437187 13.5362,-12.727432 26.96658,-25.566934 40.41147,-38.39058 -17.73021,-0.145612 -35.46121,-0.168195 -53.19194,-0.152765 z m 12.30016,0.375439 c 7.46288,-0.422086 17.01078,1.362296 19.46457,9.574989 2.73653,6.592011 -2.72967,14.515075 -9.80154,14.323645 -1.88129,7.961933 -12.79381,10.456268 -18.32531,4.676158 -5.94848,-4.738719 -11.31772,-13.062703 -7.34437,-20.672448 2.89341,-6.07464 9.66636,-8.367823 16.00665,-7.902344 z"
         style="fill:#d4aa00;fill-opacity:0.14085622;stroke:#ffcc00;stroke-width:19.88532066;stroke-miterlimit:4;stroke-dasharray:none;stroke-opacity:1" />
      <path
         inkscape:connector-curvature="0"
         id="path4627"
         d="m 127.05065,-59.856093 c -8.62908,0.01248 -17.2582,0.02743 -25.88716,0.07768 13.4777,12.847945 26.9659,25.685008 40.41147,38.566648 13.58843,-12.763777 27.07262,-25.637869 40.5746,-38.492855 -18.36585,-0.142947 -36.73258,-0.16081 -55.09891,-0.15147 z m 14.78583,0.42334 c 7.56734,-0.175891 17.55031,2.119002 19.1202,10.846303 1.44998,6.248666 -3.81098,12.724379 -10.17828,12.783051 -1.63919,7.574813 -11.75351,10.416826 -17.44109,5.375251 -7.00036,-4.721499 -12.89759,-14.662435 -7.43409,-22.626743 3.43689,-5.210739 10.11776,-6.479559 15.93326,-6.377862 z"
         style="fill:#d4aa00;fill-opacity:0.14085622;stroke:#ffcc00;stroke-width:19.88532066;stroke-miterlimit:4;stroke-dasharray:none;stroke-opacity:1" />
      <path
         inkscape:connector-curvature="0"
         id="path4629"
         d="m 126.86293,-59.914351 c -8.5825,0.02339 -17.16504,0.04834 -25.74734,0.112632 13.43482,12.940904 26.94303,25.805913 40.53576,38.580888 13.64313,-12.772367 27.11278,-25.728314 40.66781,-38.593834 -18.48509,-0.123078 -36.97081,-0.130878 -55.45623,-0.09969 z m 16.21379,0.535972 c 7.51501,-0.266543 16.85221,3.34584 17.60835,11.894075 0.90305,5.991801 -4.37775,11.811421 -10.39992,11.664075 -2.1799,7.899614 -12.96537,9.806847 -18.48843,4.213979 -6.30368,-5.203119 -11.36525,-15.626526 -4.92343,-22.654507 4.07041,-4.380214 10.53254,-5.160001 16.20343,-5.117622 z"
         style="fill:#d4aa00;fill-opacity:0.14085622;stroke:#ffcc00;stroke-width:19.88532066;stroke-miterlimit:4;stroke-dasharray:none;stroke-opacity:1" />
      <path
         inkscape:connector-curvature="0"
         id="path4645"
         d="m 85.125957,179.09874 c -0.01018,8.84643 -0.0037,17.69287 -0.0055,26.53931 9.555286,-0.003 19.110573,0.007 28.665853,-0.008 -9.53798,-9.09405 -19.105081,-18.17107 -28.65853,-27.17828 l -0.0013,0.4687 z"
         style="fill:#d4aa00;fill-opacity:0.14085622;stroke:#ffcc00;stroke-width:14.06104565;stroke-miterlimit:4;stroke-dasharray:none;stroke-opacity:1" />
      <path
         inkscape:connector-curvature="0"
         id="path4647"
         d="m 85.125957,179.09874 c -0.01018,8.84643 -0.0037,17.69287 -0.0055,26.53931 9.555286,-0.003 19.110573,0.007 28.665853,-0.008 -9.53798,-9.09405 -19.105081,-18.17107 -28.65853,-27.17828 l -0.0013,0.4687 z"
         style="fill:#d4aa00;fill-opacity:0.14085622;stroke:#ffcc00;stroke-width:14.06104565;stroke-miterlimit:4;stroke-dasharray:none;stroke-opacity:1" />
      <path
         inkscape:connector-curvature="0"
         id="path4649"
         d="m 85.125957,179.09874 c -0.01018,8.84643 -0.0037,17.69287 -0.0055,26.53931 9.555286,-0.003 19.110573,0.007 28.665853,-0.008 -9.53798,-9.09405 -19.105081,-18.17107 -28.65853,-27.17828 l -0.0013,0.4687 z"
         style="fill:#d4aa00;fill-opacity:0.14085622;stroke:#ffcc00;stroke-width:14.06104565;stroke-miterlimit:4;stroke-dasharray:none;stroke-opacity:1" />
      <path
         inkscape:connector-curvature="0"
         id="path4651"
         d="m 186.65201,189.60974 c -5.60122,5.3421 -11.20113,10.68565 -16.80185,16.02831 9.52935,0 19.0587,0 28.58805,0 0,-9.08506 0,-18.17012 0,-27.25518 -3.92873,3.74229 -7.85747,7.48458 -11.7862,11.22687 z"
         style="fill:#d4aa00;fill-opacity:0.14085622;stroke:#ffcc00;stroke-width:14.06104565;stroke-miterlimit:4;stroke-dasharray:none;stroke-opacity:1" />
      <path
         inkscape:connector-curvature="0"
         id="path4653"
         d="m 132.50875,-46.959112 c -2.44079,2.869099 0.46419,6.205926 3.01702,7.738173 2.32185,2.393675 5.9487,1.186485 8.94036,1.731977 3.08359,-1.275918 5.82257,-3.469286 6.93715,-6.711952 -0.99945,-3.658431 -5.57462,-4.074945 -8.31727,-6.152901 -2.59979,-2.649342 -5.12704,0.657862 -7.68146,1.733759 -0.96527,0.553648 -1.93053,1.107296 -2.8958,1.660944 z"
         style="fill:#d4aa00;fill-opacity:0.14085622;stroke:#ffcc00;stroke-width:14.06104565;stroke-miterlimit:4;stroke-dasharray:none;stroke-opacity:1" />
    </g>
  </g>
</svg>
