<?xml version="1.0" encoding="UTF-8" standalone="no"?>
<!-- Created with Inkscape (http://www.inkscape.org/) -->

<svg
   xmlns:dc="http://purl.org/dc/elements/1.1/"
   xmlns:cc="http://creativecommons.org/ns#"
   xmlns:rdf="http://www.w3.org/1999/02/22-rdf-syntax-ns#"
   xmlns:svg="http://www.w3.org/2000/svg"
   xmlns="http://www.w3.org/2000/svg"
   xmlns:sodipodi="http://sodipodi.sourceforge.net/DTD/sodipodi-0.dtd"
   xmlns:inkscape="http://www.inkscape.org/namespaces/inkscape"
   width="383.99591"
   height="367.95401"
   id="svg2"
   version="1.1"
   inkscape:version="0.92.2 (5c3e80d, 2017-08-06)"
   sodipodi:docname="SI-01.svg">
  <defs
     id="defs4" />
  <sodipodi:namedview
     id="base"
     pagecolor="#ffffff"
     bordercolor="#666666"
     borderopacity="1.0"
     inkscape:pageopacity="0.0"
     inkscape:pageshadow="2"
     inkscape:zoom="1.4"
     inkscape:cx="0.50246571"
     inkscape:cy="202.13135"
     inkscape:document-units="px"
     inkscape:current-layer="layer1"
     showgrid="false"
     fit-margin-top="0"
     fit-margin-left="0"
     fit-margin-right="0"
     fit-margin-bottom="0"
     inkscape:window-width="1920"
     inkscape:window-height="1001"
     inkscape:window-x="-9"
     inkscape:window-y="-9"
     inkscape:window-maximized="1" />
  <metadata
     id="metadata7">
    <rdf:RDF>
      <cc:Work
         rdf:about="">
        <dc:format>image/svg+xml</dc:format>
        <dc:type
           rdf:resource="http://purl.org/dc/dcmitype/StillImage" />
        <dc:title />
      </cc:Work>
    </rdf:RDF>
  </metadata>
  <g
     inkscape:label="Ebene 1"
     inkscape:groupmode="layer"
     id="layer1"
     transform="translate(3830.2469,-193.56492)">
    <text
       xml:space="preserve"
       style="font-style:normal;font-variant:normal;font-weight:normal;font-stretch:normal;line-height:0%;font-family:'Highway Gothic';-inkscape-font-specification:Sans;letter-spacing:0px;word-spacing:0px;fill:#000000;fill-opacity:1;stroke:none"
       x="-1009.2685"
       y="-237.92899"
       id="text7633"><tspan
         y="-237.92899"
         x="-1009.2685"
         sodipodi:role="line"
         id="tspan7635"
         style="font-size:144px;line-height:1.25"> </tspan></text>
    <text
       style="font-style:normal;font-weight:normal;font-size:40px;font-family:'Highway Gothic';fill:#000000"
       font-size="40px"
       font-style="normal"
       font-weight="normal"
       id="text3104"
       y="-224.74382"
       x="-1705.0358"
       xml:space="preserve" />
    <text
       style="font-style:normal;font-weight:normal;font-size:40px;font-family:'Highway Gothic';fill:#000000"
       xml:space="preserve"
       x="-226.46431"
       y="-299.02954"
       id="text3104-5"
       font-weight="normal"
       font-style="normal"
       font-size="40px" />
    <path
       id="path3983"
       d="m -3642.226,547.52091 c -106.567,-61.41198 -166.55,-169.41099 -170.979,-332.958 3.911,-1.008 10.773,2.434 17.998,4.999 42.987,15.264 115.842,17.226 150.981,-8.999 44.118,27.389 133.635,17.394 173.979,-3 -7.182,163.46499 -62.181,279.11102 -171.979,339.958 z m 168.978,-335.958 c -0.057,-0.61 -0.149,-1.184 -1,-1 -41.055,23.242 -127.081,28.06 -169.979,3 -39.338,27.177 -122.837,25.934 -166.979,4 6.785,158.52699 64.247,266.37799 168.979,326.95901 107.321,-59.32501 161.776,-176.851 168.979,-332.95901 z"
       inkscape:connector-curvature="0"
       style="clip-rule:evenodd;fill-rule:evenodd" />
    <path
       id="path3985"
       d="m -3642.226,544.52091 c -104.732,-60.58099 -162.195,-168.43199 -168.979,-326.95899 44.142,21.934 127.641,23.178 166.979,-4 42.897,25.06 128.924,20.242 169.979,-3 0.851,-0.184 0.943,0.39 1,1 -7.204,156.109 -61.659,273.63499 -168.979,332.95899 z m -153.981,-310.96099 c 2.224,127.637 44.556,218.091 118.985,274.966 8.097,6.18799 26.141,22.104 34.996,21.99701 8.876,-0.108 26.526,-15.525 34.995,-21.99701 76.793,-58.68201 115.174,-154.196 119.985,-280.965 -38.332,22.728 -118.19,24.536 -155.98,0 -34.529,25.929 -112.721,29.017 -152.981,5.999 l 0,0 z"
       inkscape:connector-curvature="0"
       style="clip-rule:evenodd;fill:#ffffff;fill-rule:evenodd" />
    <path
       id="path3987"
       d="m -3643.226,227.56092 c 37.79,24.536 117.648,22.728 155.98,0 -4.812,126.769 -43.192,222.284 -119.985,280.965 -8.469,6.47201 -26.119,21.88901 -34.995,21.99701 -8.854,0.10699 -26.898,-15.81 -34.996,-21.99701 -74.429,-56.875 -116.762,-147.329 -118.985,-274.966 40.26,23.018 118.452,19.93 152.981,-5.999 l 0,0 z m -143.982,18.997 c 4.795,134.85299 57.364,221.93501 143.982,274.96602 91.985,-50.66102 138.716,-146.58301 146.981,-280.96502 -39.638,19.356 -110.065,17.261 -146.981,-3 -34.129,21.661 -102.125,27.977 -143.982,8.999 z"
       inkscape:connector-curvature="0"
       style="clip-rule:evenodd;fill-rule:evenodd" />
    <path
       id="path3989"
       d="m -3645.226,237.55992 c 36.916,20.261 107.344,22.355 146.981,3 -8.266,134.382 -54.996,230.30401 -146.981,280.96499 -86.618,-53.03198 -139.187,-140.114 -143.982,-274.96699 41.857,18.978 109.853,12.662 143.982,-8.998 l 0,0 z"
       inkscape:connector-curvature="0"
       style="clip-rule:evenodd;fill:#ffffff;fill-rule:evenodd" />
    <path
       inkscape:connector-curvature="0"
       d="m -3650.8249,380.0676 c -10e-5,10.0433 -3.8096,18.4704 -11.4286,25.2814 -7.5036,6.8109 -16.8542,10.2164 -28.0518,10.2164 -11.1977,0 -20.606,-3.5786 -28.2253,-10.7359 -7.5036,-7.1573 -11.2554,-15.9307 -11.2554,-26.3204 0,-16.0461 4.0981,-31.6305 12.2943,-46.7532 8.1965,-15.238 18.99,-27.3015 32.3812,-36.1905 l 9.3506,15.4113 c -13.6221,10.5051 -23.088,22.3954 -28.3984,35.671 4.2715,-1.2698 8.8889,-1.9047 13.8528,-1.9048 10.7359,10e-5 19.9711,3.4633 27.7057,10.3896 7.8498,6.9265 11.7748,15.2381 11.7749,24.9351 m -18.355,-0.3463 c -10e-5,-4.5022 -2.078,-8.3694 -6.2338,-11.6018 -4.1559,-3.3477 -9.1198,-5.0216 -14.8918,-5.0216 -6.5801,-0.1154 -11.6594,1.3276 -15.2381,4.329 -3.5786,3.0015 -5.4257,7.0996 -5.5411,12.2944 0,4.733 2.0202,8.7734 6.0606,12.1212 4.0404,3.3478 8.9466,5.0216 14.7186,5.0216 5.6566,0 10.5627,-1.6738 14.7186,-5.0216 4.2713,-3.4632 6.4069,-7.5036 6.407,-12.1212"
       style="font-style:normal;font-variant:normal;font-weight:normal;font-stretch:normal;font-size:180px;line-height:125%;font-family:'Highway Gothic';-inkscape-font-specification:Sans;letter-spacing:0px;word-spacing:0px;fill:#000000;fill-opacity:1;stroke:none"
       id="path4127" />
    <path
       d="m -3553.4767,355.80473 v 0 c 0,-39.90243 -13.0719,-59.83888 -39.1611,-59.83888 -26.6191,0 -39.942,19.93645 -39.942,59.83888 0,40.44443 13.3229,60.65461 39.942,60.65461 26.0892,0 39.1611,-20.21018 39.1611,-60.65461 m -18.3943,2.68853 c 0,9.85995 -1.1545,18.28138 -3.473,25.26224 -3.5916,10.78215 -9.5383,16.18883 -17.8256,16.18883 -8.3185,0 -14.2287,-5.84018 -17.6978,-17.46684 -2.1613,-7.30552 -3.2255,-16.07713 -3.2255,-26.31851 0,-29.33609 6.9762,-44.0043 20.9233,-44.0043 14.2039,0 21.2986,15.45472 21.2986,46.33858"
       style="fill:#000000;fill-opacity:1;fill-rule:nonzero;stroke:none;stroke-width:1.69692528"
       id="path1306"
       inkscape:connector-curvature="0" />
  </g>
</svg>
