<?xml version="1.0" encoding="UTF-8" standalone="no"?>
<!-- Created with Inkscape (http://www.inkscape.org/) -->

<svg
   xmlns:dc="http://purl.org/dc/elements/1.1/"
   xmlns:cc="http://creativecommons.org/ns#"
   xmlns:rdf="http://www.w3.org/1999/02/22-rdf-syntax-ns#"
   xmlns:svg="http://www.w3.org/2000/svg"
   xmlns="http://www.w3.org/2000/svg"
   xmlns:sodipodi="http://sodipodi.sourceforge.net/DTD/sodipodi-0.dtd"
   xmlns:inkscape="http://www.inkscape.org/namespaces/inkscape"
   width="52.766384mm"
   height="60.872158mm"
   viewBox="0 0 186.9675 215.68875"
   id="svg5798"
   version="1.1"
   inkscape:version="0.91 r13725"
   sodipodi:docname="SI-05D.svg">
  <defs
     id="defs5800">
    <clipPath
       clipPathUnits="userSpaceOnUse"
       id="clipPath5110">
      <path
         d="m 294.638,95.569 155.424,0 0,178.399 -155.424,0 0,-178.399 z"
         id="path5112"
         inkscape:connector-curvature="0" />
    </clipPath>
  </defs>
  <sodipodi:namedview
     id="base"
     pagecolor="#ffffff"
     bordercolor="#666666"
     borderopacity="1.0"
     inkscape:pageopacity="0.0"
     inkscape:pageshadow="2"
     inkscape:zoom="0.35"
     inkscape:cx="-312.94483"
     inkscape:cy="307.84438"
     inkscape:document-units="px"
     inkscape:current-layer="layer1"
     showgrid="false"
     fit-margin-top="0"
     fit-margin-left="0"
     fit-margin-right="0"
     fit-margin-bottom="0"
     inkscape:window-width="1309"
     inkscape:window-height="744"
     inkscape:window-x="57"
     inkscape:window-y="24"
     inkscape:window-maximized="1" />
  <metadata
     id="metadata5803">
    <rdf:RDF>
      <cc:Work
         rdf:about="">
        <dc:format>image/svg+xml</dc:format>
        <dc:type
           rdf:resource="http://purl.org/dc/dcmitype/StillImage" />
        <dc:title></dc:title>
      </cc:Work>
    </rdf:RDF>
  </metadata>
  <g
     inkscape:label="Layer 1"
     inkscape:groupmode="layer"
     id="layer1"
     transform="translate(-252.23054,-624.51783)">
    <g
       transform="matrix(1.25,0,0,-1.25,-119.72446,963.32283)"
       id="g5106">
      <g
         id="g5108"
         clip-path="url(#clipPath5110)">
        <g
           id="g5114"
           transform="translate(309.626,270.929)">
          <path
             d="m 0,0 125.449,0 c 6.572,0 11.948,-5.376 11.948,-11.947 l 0,-148.426 c 0,-6.571 -5.376,-11.948 -11.948,-11.948 l -125.449,0 c -6.571,0 -11.947,5.377 -11.947,11.948 l 0,148.426 C -11.947,-5.376 -6.571,0 0,0"
             style="fill:#156a51;fill-opacity:1;fill-rule:evenodd;stroke:none"
             id="path5116"
             inkscape:connector-curvature="0" />
        </g>
        <g
           id="g5118"
           transform="translate(309.626,270.929)">
          <path
             d="m 0,0 125.449,0 c 6.572,0 11.948,-5.376 11.948,-11.947 l 0,-148.426 c 0,-6.571 -5.376,-11.948 -11.948,-11.948 l -125.449,0 c -6.571,0 -11.947,5.377 -11.947,11.948 l 0,148.426 C -11.947,-5.376 -6.571,0 0,0 Z"
             style="fill:none;stroke:#231f20;stroke-width:0.23;stroke-linecap:butt;stroke-linejoin:miter;stroke-miterlimit:22.9260006;stroke-dasharray:none;stroke-opacity:1"
             id="path5120"
             inkscape:connector-curvature="0" />
        </g>
        <g
           id="g5122"
           transform="translate(309.626,268.631)">
          <path
             d="m 0,0 c -5.307,0 -9.65,-4.342 -9.65,-9.65 l 0,-148.426 c 0,-5.307 4.343,-9.649 9.65,-9.649 l 125.449,0 c 5.308,0 9.65,4.342 9.65,9.649 l 0,148.426 c 0,5.308 -4.342,9.65 -9.65,9.65 L 0,0 Z m 0,-3.446 125.449,0 c 3.412,0 6.204,-2.792 6.204,-6.204 l 0,-148.426 c 0,-3.411 -2.792,-6.203 -6.204,-6.203 l -125.449,0 c -3.412,0 -6.203,2.792 -6.203,6.203 l 0,148.426 c 0,3.412 2.791,6.204 6.203,6.204"
             style="fill:#ffffff;fill-opacity:1;fill-rule:evenodd;stroke:none"
             id="path5124"
             inkscape:connector-curvature="0" />
        </g>
        <g
           id="g5126"
           transform="translate(323.15,220.989)">
          <path
             d="m 0,0 0,-103.875 9.799,0 0.009,16.123 c 0.004,1.8 0.98,3.372 2.43,4.22 l 21.065,12.161 0.66,-2.357 c 0.002,-0.006 0.005,-0.012 0.007,-0.018 l 0.002,-0.003 0,10e-4 c 0.007,-0.017 0.016,-0.034 0.026,-0.051 0.169,-0.293 0.543,-0.393 0.836,-0.224 0.118,0.069 0.205,0.17 0.256,0.287 l 4.13,8.735 0,0 c 0.083,0.176 0.082,0.388 -0.022,0.57 -0.105,0.181 -0.288,0.288 -0.482,0.304 l -9.63,0.791 c -0.126,0.014 -0.259,-0.011 -0.376,-0.079 -0.293,-0.169 -0.394,-0.543 -0.225,-0.836 0.01,-0.017 0.02,-0.032 0.031,-0.048 l 0.001,-0.002 c 0.004,-0.005 0.008,-0.011 0.012,-0.016 l 1.712,-1.75 -14.994,-8.656 c -0.525,-0.29 -1.13,-0.456 -1.773,-0.456 -2.026,0 -3.67,1.641 -3.675,3.667 l 0,71.512 3.795,-0.972 c 0.01,-0.001 0.02,-0.002 0.03,-0.004 l 0.005,0 c 0.03,-0.003 0.059,-0.004 0.09,-0.004 0.542,0 0.98,0.439 0.98,0.98 0,0.218 -0.071,0.42 -0.192,0.583 l 0,0 -8.8,12.712 0,0 C 5.53,13.552 5.234,13.719 4.9,13.719 c -0.335,0 -0.63,-0.167 -0.807,-0.424 l 0,0 -8.8,-12.712 0,0 C -4.828,0.42 -4.9,0.218 -4.9,0 c 0,-0.541 0.439,-0.98 0.98,-0.98 0.031,0 0.061,0.001 0.091,0.004 l 0.004,0 c 0.011,0.002 0.021,0.003 0.031,0.004 L 0,0 Z"
             style="fill:#ffffff;fill-opacity:1;fill-rule:evenodd;stroke:none"
             id="path5128"
             inkscape:connector-curvature="0" />
        </g>
        <g
           id="g5130"
           transform="translate(355.784,112.074)">
          <path
             d="M 0,0 -0.907,2.27 -1.897,0 0,0 Z m -1.783,4.58 1.67,0 3.258,-8.105 -1.727,0 -0.761,1.904 -3.21,0 -0.763,-1.904 -1.726,0 3.259,8.105 z"
             style="fill:#ffffff;fill-opacity:1;fill-rule:nonzero;stroke:none"
             id="path5132"
             inkscape:connector-curvature="0" />
        </g>
        <g
           id="g5134"
           transform="translate(364.27,110.599)">
          <path
             d="m 0,0 c 0.659,-0.405 1.427,-0.608 2.302,-0.608 1.183,0 1.775,0.395 1.775,1.183 0,0.854 -0.557,1.281 -1.67,1.281 C 1.996,1.856 1.505,1.75 0.932,1.54 l -1.646,0.657 0.341,3.858 5.333,0 0,-1.629 L 1.24,4.401 1.102,3.339 C 1.518,3.436 1.929,3.486 2.334,3.486 3.021,3.486 3.585,3.388 4.028,3.194 4.558,2.966 4.976,2.58 5.284,2.035 5.549,1.57 5.682,1.102 5.682,0.632 5.682,0.227 5.584,-0.181 5.39,-0.592 4.866,-1.699 3.828,-2.253 2.277,-2.253 c -0.518,0 -1.064,0.075 -1.637,0.227 -0.589,0.156 -1.097,0.364 -1.524,0.624 L 0,0 Z"
             style="fill:#ffffff;fill-opacity:1;fill-rule:nonzero;stroke:none"
             id="path5136"
             inkscape:connector-curvature="0" />
        </g>
        <g
           id="g5138"
           transform="translate(372.741,110.898)">
          <path
             d="m 0,0 c 0.308,-0.572 0.786,-0.859 1.434,-0.859 0.627,0 1.1,0.294 1.419,0.884 0.248,0.47 0.373,1.048 0.373,1.734 0,1.675 -0.611,2.513 -1.832,2.513 -1.172,0 -1.759,-0.846 -1.759,-2.537 C -0.365,1.027 -0.244,0.449 0,0 m -1.175,4.612 c 0.61,0.849 1.48,1.273 2.609,1.273 1.071,0 1.921,-0.438 2.554,-1.313 C 4.55,3.788 4.831,2.845 4.831,1.743 4.831,0.581 4.563,-0.386 4.028,-1.159 3.417,-2.04 2.553,-2.48 1.434,-2.48 c -1.134,0 -2.007,0.432 -2.617,1.297 -0.53,0.756 -0.795,1.729 -0.795,2.918 0,1.172 0.268,2.132 0.803,2.877"
             style="fill:#ffffff;fill-opacity:1;fill-rule:nonzero;stroke:none"
             id="path5140"
             inkscape:connector-curvature="0" />
        </g>
        <g
           id="g5142"
           transform="translate(380.359,110.898)">
          <path
             d="m 0,0 c 0.308,-0.572 0.786,-0.859 1.435,-0.859 0.627,0 1.1,0.294 1.419,0.884 0.248,0.47 0.372,1.048 0.372,1.734 0,1.675 -0.611,2.513 -1.832,2.513 -1.172,0 -1.759,-0.846 -1.759,-2.537 C -0.365,1.027 -0.243,0.449 0,0 m -1.175,4.612 c 0.61,0.849 1.481,1.273 2.61,1.273 1.07,0 1.921,-0.438 2.553,-1.313 C 4.55,3.788 4.831,2.845 4.831,1.743 4.831,0.581 4.563,-0.386 4.028,-1.159 3.418,-2.04 2.554,-2.48 1.435,-2.48 c -1.135,0 -2.007,0.432 -2.618,1.297 -0.53,0.756 -0.794,1.729 -0.794,2.918 0,1.172 0.267,2.132 0.802,2.877"
             style="fill:#ffffff;fill-opacity:1;fill-rule:nonzero;stroke:none"
             id="path5144"
             inkscape:connector-curvature="0" />
        </g>
        <g
           id="g5146"
           transform="translate(389.648,114.465)">
          <path
             d="m 0,0 1.629,0 0,-0.316 c 0.491,0.308 0.997,0.461 1.516,0.461 0.621,0 1.14,-0.229 1.556,-0.688 0.578,0.459 1.153,0.688 1.726,0.688 0.639,0 1.197,-0.167 1.678,-0.502 0.54,-0.378 0.811,-0.875 0.811,-1.491 l 0,-4.069 -1.605,0 0,3.656 c 0,0.227 -0.111,0.429 -0.333,0.607 -0.221,0.178 -0.453,0.265 -0.696,0.26 C 6.033,-1.399 5.798,-1.48 5.577,-1.637 5.338,-1.81 5.22,-2.018 5.22,-2.261 l 0,-3.656 -1.54,0 0,3.55 c 0,0.281 -0.101,0.513 -0.3,0.697 -0.2,0.184 -0.441,0.276 -0.722,0.276 -0.253,0 -0.488,-0.086 -0.705,-0.26 C 1.737,-1.827 1.629,-2.037 1.629,-2.286 l 0,-3.631 L 0,-5.917 0,0 Z"
             style="fill:#ffffff;fill-opacity:1;fill-rule:nonzero;stroke:none"
             id="path5148"
             inkscape:connector-curvature="0" />
        </g>
        <g
           id="g5150"
           transform="translate(318.986,253.035)">
          <path
             d="m 0,0 -3.234,0 0,2.34 8.702,0 0,-2.34 -3.21,0 0,-9.419 L 0,-9.419 0,0 Z"
             style="fill:#ffffff;fill-opacity:1;fill-rule:nonzero;stroke:none"
             id="path5152"
             inkscape:connector-curvature="0" />
        </g>
        <g
           id="g5154"
           transform="translate(330.981,244.157)">
          <path
             d="m 0,0 c -0.604,-0.439 -1.298,-0.659 -2.082,-0.659 -0.642,0 -1.148,0.067 -1.516,0.201 -0.518,0.188 -0.971,0.533 -1.359,1.034 -0.388,0.502 -0.582,1.023 -0.582,1.564 l 0,5.903 2.364,0 0,-4.986 c 0,-0.399 0.129,-0.735 0.388,-1.005 0.258,-0.27 0.592,-0.406 0.999,-0.406 0.408,0 0.776,0.114 1.106,0.341 0.376,0.259 0.564,0.584 0.564,0.976 l 0,5.08 2.341,0 0,-8.584 L 0,-0.541 0,0 Z"
             style="fill:#ffffff;fill-opacity:1;fill-rule:nonzero;stroke:none"
             id="path5156"
             inkscape:connector-curvature="0" />
        </g>
        <g
           id="g5158"
           transform="translate(334.191,252.2)">
          <path
             d="m 0,0 2.387,0 0,-0.458 c 0.666,0.446 1.419,0.67 2.258,0.67 0.839,0 1.56,-0.259 2.164,-0.777 0.635,-0.532 0.952,-1.211 0.952,-2.034 l 0,-5.986 -2.316,0 0,5.151 c 0,0.439 -0.14,0.784 -0.418,1.035 -0.278,0.251 -0.641,0.376 -1.087,0.376 -0.369,0 -0.714,-0.133 -1.035,-0.399 C 2.559,-2.705 2.387,-3.026 2.387,-3.386 l 0,-5.199 L 0,-8.585 0,0 Z"
             style="fill:#ffffff;fill-opacity:1;fill-rule:nonzero;stroke:none"
             id="path5160"
             inkscape:connector-curvature="0" />
        </g>
        <g
           id="g5162"
           transform="translate(346.932,255.193)">
          <path
             d="m 0,0 c 0.239,-0.247 0.359,-0.523 0.359,-0.829 0,-0.313 -0.12,-0.59 -0.359,-0.829 -0.239,-0.239 -0.516,-0.359 -0.829,-0.359 -0.345,0 -0.633,0.112 -0.865,0.336 -0.231,0.223 -0.346,0.507 -0.346,0.852 0,0.329 0.117,0.611 0.352,0.846 C -1.452,0.253 -1.17,0.37 -0.841,0.37 -0.52,0.37 -0.239,0.247 0,0 m 0.37,-11.965 c 0,-2.65 -1.454,-4.002 -4.362,-4.057 l 0,2.269 c 0.705,0.024 1.213,0.175 1.522,0.453 0.31,0.279 0.465,0.759 0.465,1.441 l 0,8.843 2.364,0 0.011,-8.949 z"
             style="fill:#ffffff;fill-opacity:1;fill-rule:nonzero;stroke:none"
             id="path5164"
             inkscape:connector-curvature="0" />
        </g>
        <g
           id="g5166"
           transform="translate(353.934,247.085)">
          <path
             d="m 0,0 c -0.714,0.243 -1.364,0.364 -1.952,0.364 -0.392,0 -0.733,-0.062 -1.023,-0.188 -0.384,-0.164 -0.576,-0.419 -0.576,-0.764 0,-0.329 0.219,-0.588 0.658,-0.776 0.345,-0.141 0.713,-0.212 1.105,-0.212 0.69,0 1.286,0.153 1.788,0.459 L 0,0 Z m 0,-3.175 c -0.698,-0.275 -1.45,-0.412 -2.258,-0.412 -0.957,0 -1.748,0.235 -2.375,0.706 -0.69,0.525 -1.035,1.251 -1.035,2.175 0,0.957 0.376,1.721 1.129,2.293 0.682,0.526 1.516,0.788 2.505,0.788 0.697,0 1.375,-0.11 2.034,-0.329 -0.039,0.768 -0.635,1.153 -1.788,1.153 -0.76,0 -1.528,-0.22 -2.304,-0.659 l -0.871,1.846 c 1.098,0.604 2.223,0.906 3.376,0.906 1.168,0 2.069,-0.294 2.704,-0.882 C 1.775,3.798 2.105,2.916 2.105,1.764 l 0,-5.233 -2.105,0 0,0.294 z"
             style="fill:#ffffff;fill-opacity:1;fill-rule:nonzero;stroke:none"
             id="path5168"
             inkscape:connector-curvature="0" />
        </g>
        <g
           id="g5170"
           transform="translate(376.009,163.684)">
          <path
             d="m 0,0 c -0.212,-4.077 -1.783,-6.115 -4.715,-6.115 -1.608,0 -2.842,0.639 -3.705,1.917 -0.744,1.105 -1.116,2.504 -1.116,4.198 0,1.623 0.364,2.987 1.093,4.092 0.847,1.286 2.042,1.929 3.587,1.929 2.163,0 3.629,-0.964 4.397,-2.893 L -2.646,2.305 c -0.337,0.901 -1.027,1.352 -2.069,1.352 -1.631,0 -2.446,-1.219 -2.446,-3.657 0,-1.011 0.149,-1.831 0.446,-2.458 0.4,-0.862 1.047,-1.293 1.941,-1.293 0.972,0 1.681,0.462 2.128,1.387 l -1.387,0 0,2.364 L 0,0 Z"
             style="fill:#ffffff;fill-opacity:1;fill-rule:nonzero;stroke:none"
             id="path5172"
             inkscape:connector-curvature="0" />
        </g>
        <g
           id="g5174"
           transform="translate(382.535,158.298)">
          <path
             d="m 0,0 c -0.603,-0.439 -1.297,-0.659 -2.081,-0.659 -0.643,0 -1.149,0.067 -1.517,0.2 -0.518,0.188 -0.97,0.534 -1.358,1.035 -0.389,0.502 -0.582,1.023 -0.582,1.564 l 0,5.903 2.363,0 0,-4.986 c 0,-0.399 0.129,-0.735 0.388,-1.005 0.259,-0.27 0.592,-0.406 1,-0.406 0.407,0 0.776,0.114 1.105,0.341 0.376,0.259 0.564,0.584 0.564,0.976 l 0,5.08 2.341,0 0,-8.584 L 0,-0.541 0,0 Z"
             style="fill:#ffffff;fill-opacity:1;fill-rule:nonzero;stroke:none"
             id="path5176"
             inkscape:connector-curvature="0" />
        </g>
        <g
           id="g5178"
           transform="translate(391.402,161.226)">
          <path
             d="m 0,0 c -0.714,0.243 -1.364,0.364 -1.952,0.364 -0.392,0 -0.733,-0.062 -1.024,-0.187 -0.383,-0.165 -0.576,-0.42 -0.576,-0.765 0,-0.329 0.22,-0.588 0.659,-0.776 0.345,-0.141 0.713,-0.212 1.105,-0.212 0.69,0 1.286,0.153 1.788,0.459 L 0,0 Z m 0,-3.175 c -0.698,-0.275 -1.45,-0.412 -2.258,-0.412 -0.957,0 -1.749,0.235 -2.375,0.706 -0.69,0.525 -1.035,1.251 -1.035,2.175 0,0.957 0.376,1.721 1.129,2.293 0.682,0.526 1.517,0.788 2.504,0.788 0.698,0 1.376,-0.11 2.035,-0.329 -0.04,0.768 -0.635,1.153 -1.788,1.153 -0.76,0 -1.528,-0.22 -2.304,-0.659 l -0.871,1.846 c 1.098,0.604 2.223,0.906 3.375,0.906 1.169,0 2.07,-0.294 2.705,-0.882 C 1.776,3.798 2.105,2.916 2.105,1.764 l 0,-5.233 -2.105,0 0,0.294 z"
             style="fill:#ffffff;fill-opacity:1;fill-rule:nonzero;stroke:none"
             id="path5180"
             inkscape:connector-curvature="0" />
        </g>
        <g
           id="g5182"
           transform="translate(394.494,166.341)">
          <path
             d="m 0,0 1.623,0 0,2.493 2.293,0.917 0,-3.41 2.199,0 0,-2.069 -2.199,0 0,-3.352 c 0,-0.706 0.294,-1.058 0.882,-1.058 0.517,0 0.964,0.207 1.34,0.623 L 5.527,-8.302 C 5.284,-8.412 5.041,-8.522 4.798,-8.632 4.61,-8.71 4.339,-8.753 3.986,-8.761 2.858,-8.792 2.117,-8.283 1.764,-7.232 1.662,-6.927 1.611,-6.644 1.611,-6.385 L 1.623,-2.069 0,-2.069 0,0 Z"
             style="fill:#ffffff;fill-opacity:1;fill-rule:nonzero;stroke:none"
             id="path5184"
             inkscape:connector-curvature="0" />
        </g>
        <g
           id="g5186"
           transform="translate(405.607,164.401)">
          <path
             d="m 0,0 c -0.729,0 -1.207,-0.396 -1.435,-1.188 l 2.787,0 C 1.07,-0.396 0.619,0 0,0 m 0.129,-6.832 c -1.176,0 -2.168,0.462 -2.974,1.388 -0.777,0.885 -1.165,1.92 -1.165,3.104 0,1.152 0.376,2.18 1.129,3.081 0.784,0.949 1.744,1.423 2.881,1.423 0.682,0 1.328,-0.212 1.94,-0.635 1.231,-0.847 1.834,-2.348 1.811,-4.504 l 0,-0.2 -5.315,0 c 0.086,-0.408 0.282,-0.757 0.588,-1.046 0.321,-0.314 0.69,-0.471 1.105,-0.471 0.541,0 0.977,0.263 1.306,0.788 L 3.046,-5.303 C 2.238,-6.323 1.266,-6.832 0.129,-6.832"
             style="fill:#ffffff;fill-opacity:1;fill-rule:nonzero;stroke:none"
             id="path5188"
             inkscape:connector-curvature="0" />
        </g>
        <g
           id="g5190"
           transform="translate(415.802,163.484)">
          <path
             d="m 0,0 c -0.259,0.549 -0.729,0.823 -1.411,0.823 -0.533,0 -0.964,-0.247 -1.293,-0.741 -0.291,-0.431 -0.436,-0.929 -0.436,-1.493 0,-0.573 0.149,-1.075 0.447,-1.505 0.338,-0.487 0.78,-0.729 1.329,-0.729 0.541,0 0.996,0.278 1.364,0.834 L 0,0 Z m 0,-5.339 c -0.517,-0.384 -1.097,-0.576 -1.74,-0.576 -1.082,0 -1.987,0.49 -2.716,1.47 -0.667,0.901 -1,1.912 -1,3.034 0,1.152 0.337,2.167 1.011,3.045 0.737,0.949 1.658,1.423 2.764,1.423 0.65,0 1.211,-0.192 1.681,-0.576 l 0,0.377 2.305,0 0,-11.207 L 0,-9.231 0,-5.339 Z"
             style="fill:#ffffff;fill-opacity:1;fill-rule:nonzero;stroke:none"
             id="path5192"
             inkscape:connector-curvature="0" />
        </g>
        <g
           id="g5194"
           transform="translate(424.633,158.298)">
          <path
             d="m 0,0 c -0.603,-0.439 -1.297,-0.659 -2.081,-0.659 -0.643,0 -1.149,0.067 -1.517,0.2 -0.518,0.188 -0.97,0.534 -1.358,1.035 -0.389,0.502 -0.582,1.023 -0.582,1.564 l 0,5.903 2.363,0 0,-4.986 c 0,-0.399 0.129,-0.735 0.388,-1.005 0.259,-0.27 0.592,-0.406 1,-0.406 0.407,0 0.776,0.114 1.105,0.341 0.376,0.259 0.564,0.584 0.564,0.976 l 0,5.08 2.341,0 0,-8.584 L 0,-0.541 0,0 Z"
             style="fill:#ffffff;fill-opacity:1;fill-rule:nonzero;stroke:none"
             id="path5196"
             inkscape:connector-curvature="0" />
        </g>
        <g
           id="g5198"
           transform="translate(431.854,164.401)">
          <path
             d="m 0,0 c -0.729,0 -1.207,-0.396 -1.435,-1.188 l 2.787,0 C 1.07,-0.396 0.619,0 0,0 m 0.129,-6.832 c -1.176,0 -2.168,0.462 -2.974,1.388 -0.777,0.885 -1.165,1.92 -1.165,3.104 0,1.152 0.376,2.18 1.129,3.081 0.784,0.949 1.744,1.423 2.881,1.423 0.682,0 1.328,-0.212 1.94,-0.635 1.231,-0.847 1.834,-2.348 1.811,-4.504 l 0,-0.2 -5.315,0 c 0.086,-0.408 0.282,-0.757 0.588,-1.046 0.321,-0.314 0.69,-0.471 1.105,-0.471 0.541,0 0.977,0.263 1.306,0.788 L 3.046,-5.303 C 2.238,-6.323 1.266,-6.832 0.129,-6.832"
             style="fill:#ffffff;fill-opacity:1;fill-rule:nonzero;stroke:none"
             id="path5200"
             inkscape:connector-curvature="0" />
        </g>
      </g>
    </g>
  </g>
</svg>
