<?xml version="1.0" encoding="UTF-8" standalone="no"?>
<!-- Created with Inkscape (http://www.inkscape.org/) -->

<svg
   xmlns:dc="http://purl.org/dc/elements/1.1/"
   xmlns:cc="http://creativecommons.org/ns#"
   xmlns:rdf="http://www.w3.org/1999/02/22-rdf-syntax-ns#"
   xmlns:svg="http://www.w3.org/2000/svg"
   xmlns="http://www.w3.org/2000/svg"
   xmlns:sodipodi="http://sodipodi.sourceforge.net/DTD/sodipodi-0.dtd"
   xmlns:inkscape="http://www.inkscape.org/namespaces/inkscape"
   version="1.0"
   width="97.99588"
   height="97.969254"
   viewBox="-0.512 -0.12 97.995895 97.969268"
   id="svg6273"
   xml:space="preserve"
   inkscape:version="0.48.2 r9819"
   sodipodi:docname="Colombia SI-12.svg"><metadata
   id="metadata9"><rdf:RDF><cc:Work
       rdf:about=""><dc:format>image/svg+xml</dc:format><dc:type
         rdf:resource="http://purl.org/dc/dcmitype/StillImage" /><dc:title></dc:title></cc:Work></rdf:RDF></metadata><sodipodi:namedview
   pagecolor="#ffffff"
   bordercolor="#666666"
   borderopacity="1"
   objecttolerance="10"
   gridtolerance="10"
   guidetolerance="10"
   inkscape:pageopacity="0"
   inkscape:pageshadow="2"
   inkscape:window-width="1280"
   inkscape:window-height="1004"
   id="namedview7"
   showgrid="false"
   inkscape:zoom="4.5313427"
   inkscape:cx="45.025605"
   inkscape:cy="24.303463"
   inkscape:window-x="-8"
   inkscape:window-y="-8"
   inkscape:window-maximized="1"
   inkscape:current-layer="svg6273"
   fit-margin-top="0"
   fit-margin-left="0"
   fit-margin-right="0"
   fit-margin-bottom="0"
   showguides="true"
   inkscape:guide-bbox="true" />
	<defs
   id="defs6275"><marker
   inkscape:stockid="Arrow1Send"
   orient="auto"
   refY="0"
   refX="0"
   id="Arrow1Send"
   style="overflow:visible"><path
     id="path4011"
     d="M 0,0 5,-5 -12.5,0 5,5 0,0 z"
     style="fill-rule:evenodd;stroke:#000000;stroke-width:1pt;marker-start:none"
     transform="matrix(-0.2,0,0,-0.2,-1.2,0)"
     inkscape:connector-curvature="0" /></marker><marker
   inkscape:stockid="Arrow1Mend"
   orient="auto"
   refY="0"
   refX="0"
   id="Arrow1Mend"
   style="overflow:visible"><path
     id="path4005"
     d="M 0,0 5,-5 -12.5,0 5,5 0,0 z"
     style="fill-rule:evenodd;stroke:#000000;stroke-width:1pt;marker-start:none"
     transform="matrix(-0.4,0,0,-0.4,-4,0)"
     inkscape:connector-curvature="0" /></marker><marker
   inkscape:stockid="Arrow2Send"
   orient="auto"
   refY="0"
   refX="0"
   id="Arrow2Send"
   style="overflow:visible"><path
     id="path4029"
     style="font-size:12px;fill-rule:evenodd;stroke-width:0.625;stroke-linejoin:round"
     d="M 8.7185878,4.0337352 -2.2072895,0.01601326 8.7185884,-4.0017078 c -1.7454984,2.3720609 -1.7354408,5.6174519 -6e-7,8.035443 z"
     transform="matrix(-0.3,0,0,-0.3,0.69,0)"
     inkscape:connector-curvature="0" /></marker><marker
   inkscape:stockid="Arrow2Mend"
   orient="auto"
   refY="0"
   refX="0"
   id="Arrow2Mend"
   style="overflow:visible"><path
     id="path4023"
     style="font-size:12px;fill-rule:evenodd;stroke-width:0.625;stroke-linejoin:round"
     d="M 8.7185878,4.0337352 -2.2072895,0.01601326 8.7185884,-4.0017078 c -1.7454984,2.3720609 -1.7354408,5.6174519 -6e-7,8.035443 z"
     transform="scale(-0.6,-0.6)"
     inkscape:connector-curvature="0" /></marker><inkscape:perspective
   sodipodi:type="inkscape:persp3d"
   inkscape:vp_x="0 : 255 : 1"
   inkscape:vp_y="0 : 1000 : 0"
   inkscape:vp_z="512 : 255 : 1"
   inkscape:persp3d-origin="256 : 170 : 1"
   id="perspective11" />
	
		
		
		
	<inkscape:perspective
   id="perspective3609"
   inkscape:persp3d-origin="0.5 : 0.33333333 : 1"
   inkscape:vp_z="1 : 0.5 : 1"
   inkscape:vp_y="0 : 1000 : 0"
   inkscape:vp_x="0 : 0.5 : 1"
   sodipodi:type="inkscape:persp3d" /><inkscape:perspective
   id="perspective5593"
   inkscape:persp3d-origin="0.5 : 0.33333333 : 1"
   inkscape:vp_z="1 : 0.5 : 1"
   inkscape:vp_y="0 : 1000 : 0"
   inkscape:vp_x="0 : 0.5 : 1"
   sodipodi:type="inkscape:persp3d" /><inkscape:perspective
   id="perspective5629"
   inkscape:persp3d-origin="0.5 : 0.33333333 : 1"
   inkscape:vp_z="1 : 0.5 : 1"
   inkscape:vp_y="0 : 1000 : 0"
   inkscape:vp_x="0 : 0.5 : 1"
   sodipodi:type="inkscape:persp3d" /><inkscape:perspective
   id="perspective5757"
   inkscape:persp3d-origin="0.5 : 0.33333333 : 1"
   inkscape:vp_z="1 : 0.5 : 1"
   inkscape:vp_y="0 : 1000 : 0"
   inkscape:vp_x="0 : 0.5 : 1"
   sodipodi:type="inkscape:persp3d" /><inkscape:perspective
   id="perspective5781"
   inkscape:persp3d-origin="0.5 : 0.33333333 : 1"
   inkscape:vp_z="1 : 0.5 : 1"
   inkscape:vp_y="0 : 1000 : 0"
   inkscape:vp_x="0 : 0.5 : 1"
   sodipodi:type="inkscape:persp3d" /><inkscape:perspective
   id="perspective6453"
   inkscape:persp3d-origin="0.5 : 0.33333333 : 1"
   inkscape:vp_z="1 : 0.5 : 1"
   inkscape:vp_y="0 : 1000 : 0"
   inkscape:vp_x="0 : 0.5 : 1"
   sodipodi:type="inkscape:persp3d" /><inkscape:perspective
   id="perspective6549"
   inkscape:persp3d-origin="0.5 : 0.33333333 : 1"
   inkscape:vp_z="1 : 0.5 : 1"
   inkscape:vp_y="0 : 1000 : 0"
   inkscape:vp_x="0 : 0.5 : 1"
   sodipodi:type="inkscape:persp3d" /><inkscape:perspective
   id="perspective2857"
   inkscape:persp3d-origin="0.5 : 0.33333333 : 1"
   inkscape:vp_z="1 : 0.5 : 1"
   inkscape:vp_y="0 : 1000 : 0"
   inkscape:vp_x="0 : 0.5 : 1"
   sodipodi:type="inkscape:persp3d" /><inkscape:perspective
   id="perspective6613"
   inkscape:persp3d-origin="0.5 : 0.33333333 : 1"
   inkscape:vp_z="1 : 0.5 : 1"
   inkscape:vp_y="0 : 1000 : 0"
   inkscape:vp_x="0 : 0.5 : 1"
   sodipodi:type="inkscape:persp3d" /></defs>
	
<path
   inkscape:connector-curvature="0"
   d="m 5.988501,-0.1200002 85.226892,0 c 3.48237,0 6.2685,2.2581244 6.2685,5.6435004 l 0,86.2310138 c 0,3.610625 -2.78688,6.094751 -6.2685,6.094751 l -85.226892,0 c -3.713625,0 -6.500501,-2.483126 -6.500501,-6.094751 l 0,-86.2310138 c 0,-3.386001 2.786126,-5.6435004 6.500501,-5.6435004"
   style="fill:#007dc2;fill-opacity:1;fill-rule:evenodd;stroke:none"
   id="path6851" /><path
   inkscape:connector-curvature="0"
   d="m 11.922877,38.398631 0,-7.651126 36.524755,-15.476379 0,-0.03263 0.03825,0.01625 0.03862,-0.01625 0,0.03263 36.524501,15.476379 0,7.651126 L 48.485877,23.734628 11.922872,38.398631 z"
   style="fill:#ffffff;fill-opacity:1;fill-rule:evenodd;stroke:none"
   id="path6853" /><path
   inkscape:connector-curvature="0"
   d="m 30.344505,48.404632 c -2.826126,0 -5.131001,2.305251 -5.131001,5.131376 0,2.826124 2.304875,5.131 5.131001,5.131 2.8265,0 5.1315,-2.304876 5.1315,-5.131 0,-2.826125 -2.305,-5.131376 -5.1315,-5.131376"
   style="fill:#ffffff;fill-opacity:1;fill-rule:evenodd;stroke:none"
   id="path6855" /><path
   inkscape:connector-curvature="0"
   d="m 78.724883,82.490887 0,-28.771754 c 0,-0.907 -0.742,-1.649375 -1.64912,-1.649375 l -3.29875,0 c -0.90713,0 -1.64938,0.742375 -1.64938,1.649375 l 0,12.461501 -48.563504,0 0,-20.525002 c 0,-0.907 -0.742001,-1.649 -1.649501,-1.649 l -3.298375,0 c -0.9075,0 -1.6495,0.742 -1.6495,1.649 l 0,36.835255 6.597376,0 0,-8.613127 48.563504,0 0,8.613127 6.59725,0 z"
   style="fill:#ffffff;fill-opacity:1;fill-rule:evenodd;stroke:none"
   id="path6857" /><path
   inkscape:connector-curvature="0"
   d="m 70.289263,64.898009 c 0.004,-0.06025 0.006,-0.12225 0.006,-0.18325 l 0,-9.529377 c 0,-1.713499 -1.40175,-3.115624 -3.11525,-3.115624 l -24.151632,0 0,12.828251 27.261132,0 z"
   style="fill:#ffffff;fill-opacity:1;fill-rule:evenodd;stroke:none"
   id="path6859" /><path
   inkscape:connector-curvature="0"
   d="m 38.723006,52.197383 1.63,0 c 0.803625,0 1.460875,0.657625 1.460875,1.46125 l 0,10.104 c 0,0.457501 -0.214375,0.867126 -0.546,1.135376 l -15.682002,0 c -0.24125,-0.2605 -0.390875,-0.608125 -0.390875,-0.989751 l 0,-1.629875 c 0,-0.803625 0.657375,-1.460875 1.461,-1.460875 l 10.605752,0 0,-7.158875 c 0,-0.803625 0.657625,-1.46125 1.46125,-1.46125 z"
   style="fill:#ffffff;fill-opacity:1;fill-rule:evenodd;stroke:none"
   id="path6861" /></svg>