<?xml version="1.0" encoding="UTF-8" standalone="no"?>
<!-- Created with Inkscape (http://www.inkscape.org/) -->

<svg
   xmlns:dc="http://purl.org/dc/elements/1.1/"
   xmlns:cc="http://creativecommons.org/ns#"
   xmlns:rdf="http://www.w3.org/1999/02/22-rdf-syntax-ns#"
   xmlns:svg="http://www.w3.org/2000/svg"
   xmlns="http://www.w3.org/2000/svg"
   xmlns:sodipodi="http://sodipodi.sourceforge.net/DTD/sodipodi-0.dtd"
   xmlns:inkscape="http://www.inkscape.org/namespaces/inkscape"
   version="1.0"
   width="74.778618"
   height="95.337372"
   viewBox="-0.512 -0.12 74.778629 95.337386"
   id="svg6273"
   xml:space="preserve"
   inkscape:version="0.48.2 r9819"
   sodipodi:docname="Colombia SI-17.svg"><metadata
   id="metadata9"><rdf:RDF><cc:Work
       rdf:about=""><dc:format>image/svg+xml</dc:format><dc:type
         rdf:resource="http://purl.org/dc/dcmitype/StillImage" /><dc:title></dc:title></cc:Work></rdf:RDF></metadata><sodipodi:namedview
   pagecolor="#ffffff"
   bordercolor="#666666"
   borderopacity="1"
   objecttolerance="10"
   gridtolerance="10"
   guidetolerance="10"
   inkscape:pageopacity="0"
   inkscape:pageshadow="2"
   inkscape:window-width="1280"
   inkscape:window-height="1004"
   id="namedview7"
   showgrid="false"
   inkscape:zoom="4.5313427"
   inkscape:cx="56.943135"
   inkscape:cy="22.995041"
   inkscape:window-x="-8"
   inkscape:window-y="-8"
   inkscape:window-maximized="1"
   inkscape:current-layer="svg6273"
   fit-margin-top="0"
   fit-margin-left="0"
   fit-margin-right="0"
   fit-margin-bottom="0"
   showguides="true"
   inkscape:guide-bbox="true" />
	<defs
   id="defs6275"><marker
   inkscape:stockid="Arrow1Send"
   orient="auto"
   refY="0"
   refX="0"
   id="Arrow1Send"
   style="overflow:visible"><path
     id="path4011"
     d="M 0,0 5,-5 -12.5,0 5,5 0,0 z"
     style="fill-rule:evenodd;stroke:#000000;stroke-width:1pt;marker-start:none"
     transform="matrix(-0.2,0,0,-0.2,-1.2,0)"
     inkscape:connector-curvature="0" /></marker><marker
   inkscape:stockid="Arrow1Mend"
   orient="auto"
   refY="0"
   refX="0"
   id="Arrow1Mend"
   style="overflow:visible"><path
     id="path4005"
     d="M 0,0 5,-5 -12.5,0 5,5 0,0 z"
     style="fill-rule:evenodd;stroke:#000000;stroke-width:1pt;marker-start:none"
     transform="matrix(-0.4,0,0,-0.4,-4,0)"
     inkscape:connector-curvature="0" /></marker><marker
   inkscape:stockid="Arrow2Send"
   orient="auto"
   refY="0"
   refX="0"
   id="Arrow2Send"
   style="overflow:visible"><path
     id="path4029"
     style="font-size:12px;fill-rule:evenodd;stroke-width:0.625;stroke-linejoin:round"
     d="M 8.7185878,4.0337352 -2.2072895,0.01601326 8.7185884,-4.0017078 c -1.7454984,2.3720609 -1.7354408,5.6174519 -6e-7,8.035443 z"
     transform="matrix(-0.3,0,0,-0.3,0.69,0)"
     inkscape:connector-curvature="0" /></marker><marker
   inkscape:stockid="Arrow2Mend"
   orient="auto"
   refY="0"
   refX="0"
   id="Arrow2Mend"
   style="overflow:visible"><path
     id="path4023"
     style="font-size:12px;fill-rule:evenodd;stroke-width:0.625;stroke-linejoin:round"
     d="M 8.7185878,4.0337352 -2.2072895,0.01601326 8.7185884,-4.0017078 c -1.7454984,2.3720609 -1.7354408,5.6174519 -6e-7,8.035443 z"
     transform="scale(-0.6,-0.6)"
     inkscape:connector-curvature="0" /></marker><inkscape:perspective
   sodipodi:type="inkscape:persp3d"
   inkscape:vp_x="0 : 255 : 1"
   inkscape:vp_y="0 : 1000 : 0"
   inkscape:vp_z="512 : 255 : 1"
   inkscape:persp3d-origin="256 : 170 : 1"
   id="perspective11" />
	
		
		
		
	<inkscape:perspective
   id="perspective3609"
   inkscape:persp3d-origin="0.5 : 0.33333333 : 1"
   inkscape:vp_z="1 : 0.5 : 1"
   inkscape:vp_y="0 : 1000 : 0"
   inkscape:vp_x="0 : 0.5 : 1"
   sodipodi:type="inkscape:persp3d" /><inkscape:perspective
   id="perspective5593"
   inkscape:persp3d-origin="0.5 : 0.33333333 : 1"
   inkscape:vp_z="1 : 0.5 : 1"
   inkscape:vp_y="0 : 1000 : 0"
   inkscape:vp_x="0 : 0.5 : 1"
   sodipodi:type="inkscape:persp3d" /><inkscape:perspective
   id="perspective5629"
   inkscape:persp3d-origin="0.5 : 0.33333333 : 1"
   inkscape:vp_z="1 : 0.5 : 1"
   inkscape:vp_y="0 : 1000 : 0"
   inkscape:vp_x="0 : 0.5 : 1"
   sodipodi:type="inkscape:persp3d" /><inkscape:perspective
   id="perspective5757"
   inkscape:persp3d-origin="0.5 : 0.33333333 : 1"
   inkscape:vp_z="1 : 0.5 : 1"
   inkscape:vp_y="0 : 1000 : 0"
   inkscape:vp_x="0 : 0.5 : 1"
   sodipodi:type="inkscape:persp3d" /><inkscape:perspective
   id="perspective5781"
   inkscape:persp3d-origin="0.5 : 0.33333333 : 1"
   inkscape:vp_z="1 : 0.5 : 1"
   inkscape:vp_y="0 : 1000 : 0"
   inkscape:vp_x="0 : 0.5 : 1"
   sodipodi:type="inkscape:persp3d" /><inkscape:perspective
   id="perspective6453"
   inkscape:persp3d-origin="0.5 : 0.33333333 : 1"
   inkscape:vp_z="1 : 0.5 : 1"
   inkscape:vp_y="0 : 1000 : 0"
   inkscape:vp_x="0 : 0.5 : 1"
   sodipodi:type="inkscape:persp3d" /><inkscape:perspective
   id="perspective6549"
   inkscape:persp3d-origin="0.5 : 0.33333333 : 1"
   inkscape:vp_z="1 : 0.5 : 1"
   inkscape:vp_y="0 : 1000 : 0"
   inkscape:vp_x="0 : 0.5 : 1"
   sodipodi:type="inkscape:persp3d" /><inkscape:perspective
   id="perspective2857"
   inkscape:persp3d-origin="0.5 : 0.33333333 : 1"
   inkscape:vp_z="1 : 0.5 : 1"
   inkscape:vp_y="0 : 1000 : 0"
   inkscape:vp_x="0 : 0.5 : 1"
   sodipodi:type="inkscape:persp3d" /><inkscape:perspective
   id="perspective6613"
   inkscape:persp3d-origin="0.5 : 0.33333333 : 1"
   inkscape:vp_z="1 : 0.5 : 1"
   inkscape:vp_y="0 : 1000 : 0"
   inkscape:vp_x="0 : 0.5 : 1"
   sodipodi:type="inkscape:persp3d" /></defs>
	
<path
   d="m 5.8137455,-0.12000002 62.3530105,0 c 3.388875,0 6.099876,2.19687492 6.099876,5.49187592 l 0,83.9143881 c 0,3.5145 -2.711001,5.931125 -6.099876,5.931125 l -62.3530105,0 C 2.19887,95.217389 -0.512,92.800764 -0.512,89.286264 l 0,-83.9143881 c 0,-3.295001 2.71087,-5.49187592 6.3257455,-5.49187592 z"
   style="fill:#007dc2;fill-opacity:1;fill-rule:evenodd;stroke:none"
   id="path6821"
   inkscape:connector-curvature="0"
   sodipodi:nodetypes="sssssssss" /><path
   inkscape:connector-curvature="0"
   id="path3932"
   style="fill:#ffffff;fill-opacity:1;fill-rule:evenodd;stroke:none"
   d="m 7.3952455,9.1065009 58.9641345,0 0,55.7961341 -58.9641345,0"
   sodipodi:nodetypes="cccc" /><path
   d="m 28.420504,61.476882 5.220001,0 0,-27.160504 0.001,0 c 1.865625,-0.498875 2.795375,-1.841375 2.70575,-4.160126 l -0.9525,-16.039127 -1.82625,-0.0025 0,12.618752 -1.84675,0 0,-12.621252 -0.587126,-0.001 0,-0.0012 -0.426625,7.5e-4 -0.42725,-7.5e-4 0,0.0012 -0.587125,0.001 0,12.621252 -1.84675,0 0,-12.618752 -1.825875,0.0025 -0.952875,16.039127 c -0.08925,2.318751 0.8405,3.661251 2.706,4.160126 l 0.646375,0 0,27.160504 z m 2.31975,-25.713754 0.580126,0 c 0.372375,0 0.67675,0.304 0.67675,0.67675 l 0,19.526878 c 0,0.372375 -0.304375,0.67675 -0.67675,0.67675 l -0.580126,0 c -0.372375,0 -0.676375,-0.304375 -0.676375,-0.67675 l 0,-19.526878 c 0,-0.37275 0.304,-0.67675 0.676375,-0.67675 z"
   style="fill:#000000;fill-opacity:1;fill-rule:evenodd;stroke:#1f1917;stroke-width:0.27000004000000000;stroke-linecap:butt;stroke-linejoin:miter;stroke-miterlimit:10;stroke-opacity:1;stroke-dasharray:none"
   id="path6831"
   inkscape:connector-curvature="0" /><path
   d="m 45.897507,61.476882 5.22,0 0,-45.087882 10e-4,0 -0.03462,0 0,-2.314375 c -4.07125,-0.428376 -6.496,0.791875 -6.936126,4.00425 l 0,19.540254 c 0.119125,1.1605 0.780001,1.973625 1.749751,2.570375 l 0,21.287378 z m 2.320125,-19.317378 0.580125,0 c 0.372375,0 0.67675,0.306125 0.67675,0.6765 l 0,13.130752 c 0,0.370625 -0.306875,0.67675 -0.67675,0.67675 l -0.580125,0 c -0.369875,0 -0.67675,-0.30475 -0.67675,-0.67675 l 0,-13.130752 c 0,-0.372125 0.304375,-0.6765 0.67675,-0.6765 z"
   style="fill:#000000;fill-opacity:1;fill-rule:evenodd;stroke:#1f1917;stroke-width:0.27000004000000000;stroke-linecap:butt;stroke-linejoin:miter;stroke-miterlimit:10;stroke-opacity:1;stroke-dasharray:none"
   id="path6833"
   inkscape:connector-curvature="0" /><path
   d="m 14.357752,84.901761 1.658625,0 c 0.08575,0.759625 0.345126,1.367 0.772876,1.819875 0.428375,0.45675 0.952375,0.682 1.573875,0.682 0.714375,0 1.31175,-0.279875 1.78375,-0.841125 0.471625,-0.557 0.706125,-1.268125 0.706125,-2.128501 0,-0.84475 -0.231375,-1.530625 -0.69625,-2.056875 -0.46375,-0.526125 -1.07325,-0.790875 -1.8265,-0.790875 -0.447875,0 -0.839125,0.09888 -1.174,0.29975 -0.334125,0.197375 -0.598375,0.488 -0.792625,0.868125 l -1.465876,-0.363875 1.10275,-6.939876 5.442876,0 0,1.916125 -4.23675,0 -0.566625,3.194001 c 0.267875,-0.286625 0.5695,-0.501 0.900375,-0.637875 0.331,-0.13675 0.70125,-0.204 1.103375,-0.204 1.10275,0 2.027125,0.4595 2.783625,1.374 0.754375,0.91525 1.1325,2.033875 1.1325,3.359501 0,1.38325 -0.40925,2.540875 -1.226,3.472375 -0.817125,0.9305 -1.844,1.395375 -3.08625,1.395375 -1.13875,0 -2.055125,-0.3975 -2.753126,-1.192 -0.698,-0.793625 -1.07925,-1.866875 -1.13675,-3.226125 z m 9.554252,-0.633501 0,-4.01675 c 0,-0.841875 0.05525,-1.4885 0.16575,-1.9485 0.110625,-0.455625 0.29275,-0.879001 0.547125,-1.264251 0.3915,-0.596625 0.871375,-1.053 1.4375,-1.368 0.56625,-0.31575 1.193125,-0.471625 1.878,-0.471625 0.71225,0 1.358125,0.169 1.9375,0.503875 0.580375,0.336875 1.066125,0.824875 1.458376,1.4655 0.217625,0.36425 0.37525,0.777751 0.474875,1.253251 0.0985,0.472 0.14875,1.058375 0.14875,1.756375 l 0,4.14325 c 0,0.743376 -0.05213,1.354876 -0.154875,1.843876 -0.10125,0.484 -0.2625,0.90425 -0.4825,1.25825 -0.378501,0.6055 -0.861126,1.0705 -1.449626,1.4035 -0.5885,0.32775 -1.23125,0.492875 -1.9325,0.492875 -0.678875,0 -1.30575,-0.155875 -1.878,-0.472 -0.571125,-0.315625 -1.059,-0.77025 -1.470375,-1.367 -0.2375,-0.351125 -0.409625,-0.7745 -0.517,-1.2745 -0.10775,-0.500625 -0.163,-1.14875 -0.163,-1.938126 z m 1.756,0.344001 0,0.20725 c 0,0.433375 0.02238,0.75825 0.0635,0.965625 0.04425,0.20725 0.115875,0.395375 0.221375,0.564375 0.198125,0.34375 0.471625,0.611625 0.819625,0.802625 0.34825,0.19525 0.726375,0.2905 1.134875,0.2905 0.764375,0 1.335875,-0.239125 1.715,-0.721 0.378125,-0.478 0.565125,-1.204 0.565125,-2.18275 l 0,-4.558751 c 0,-0.56625 -0.02188,-0.96175 -0.06338,-1.189125 -0.044,-0.22925 -0.116625,-0.4295 -0.21825,-0.602375 -0.201,-0.350125 -0.474875,-0.621876 -0.824625,-0.818876 -0.351125,-0.19425 -0.738375,-0.29375 -1.156875,-0.29375 -0.4095,0 -0.7855,0.0925 -1.1235,0.2735 -0.34025,0.186 -0.61375,0.446876 -0.817875,0.782751 -0.11375,0.181125 -0.193125,0.400375 -0.243375,0.65875 -0.04638,0.258625 -0.07163,0.647 -0.07163,1.17 l 0,4.651251 z m 7.719501,-0.344001 0,-4.01675 c 0,-0.841875 0.05525,-1.4885 0.16475,-1.9485 0.111625,-0.455625 0.29375,-0.879001 0.5475,-1.264251 0.39225,-0.596625 0.872,-1.053 1.438125,-1.368 0.566625,-0.31575 1.193125,-0.471625 1.87725,-0.471625 0.712251,0 1.358876,0.169 1.938251,0.503875 0.579375,0.336875 1.065125,0.824875 1.458375,1.4655 0.217625,0.36425 0.3745,0.777751 0.474875,1.253251 0.09887,0.472 0.148125,1.058375 0.148125,1.756375 l 0,4.14325 c 0,0.743376 -0.0525,1.354876 -0.154125,1.843876 -0.101375,0.484 -0.262625,0.90425 -0.48375,1.25825 -0.378375,0.6055 -0.859875,1.0705 -1.4485,1.4035 -0.5885,0.32775 -1.23125,0.492875 -1.933251,0.492875 -0.67925,0 -1.305625,-0.155875 -1.87725,-0.472 -0.571125,-0.315625 -1.060125,-0.77025 -1.4715,-1.367 -0.237375,-0.351125 -0.4085,-0.7745 -0.515875,-1.2745 -0.10775,-0.500625 -0.163,-1.14875 -0.163,-1.938126 z m 1.756,0.344001 0,0.20725 c 0,0.433375 0.02238,0.75825 0.06237,0.965625 0.04537,0.20725 0.117,0.395375 0.2215,0.564375 0.199125,0.34375 0.472625,0.611625 0.819875,0.802625 0.348,0.19525 0.726125,0.2905 1.134625,0.2905 0.765376,0 1.335876,-0.239125 1.715001,-0.721 0.378375,-0.478 0.5655,-1.204 0.5655,-2.18275 l 0,-4.558751 c 0,-0.56625 -0.02125,-0.96175 -0.0635,-1.189125 -0.04425,-0.22925 -0.115875,-0.4295 -0.217125,-0.602375 -0.20125,-0.350125 -0.475875,-0.621876 -0.826,-0.818876 -0.351125,-0.19425 -0.737376,-0.29375 -1.156876,-0.29375 -0.40825,0 -0.7845,0.0925 -1.123625,0.2735 -0.33975,0.186 -0.612625,0.446876 -0.81675,0.782751 -0.113625,0.181125 -0.194125,0.400375 -0.243375,0.65875 -0.04713,0.258625 -0.07163,0.647 -0.07163,1.17 l 0,4.651251 z m 18.157753,-0.746626 c 0,-1.252125 -0.152,-2.160625 -0.458875,-2.72475 -0.30575,-0.56725 -0.791625,-0.851125 -1.45625,-0.851125 -0.689251,0 -1.197376,0.283875 -1.521876,0.854 -0.32925,0.570375 -0.49225,1.45375 -0.49225,2.649625 l 0,5.255751 -1.519625,0 0,-10.274126 1.42325,0 0,1.205125 c 0.295625,-0.458875 0.62975,-0.803625 1.00275,-1.029 0.37525,-0.226375 0.800875,-0.34125 1.277376,-0.34125 0.647,0 1.182125,0.14275 1.613625,0.4295 0.4295,0.28375 0.780625,0.733375 1.054125,1.342875 0.27575,-0.596375 0.64,-1.043125 1.09675,-1.332625 0.451375,-0.29375 1.006625,-0.43975 1.66075,-0.43975 1.004876,0 1.811251,0.3795 2.415751,1.134625 0.604875,0.755375 0.9085,1.765625 0.9085,3.028125 l 0,6.276501 -1.609375,0 0,-5.987126 c 0,-0.87625 -0.166125,-1.558 -0.499875,-2.043 -0.331001,-0.486875 -0.797626,-0.72925 -1.391126,-0.72925 -0.693125,0 -1.193,0.258625 -1.493875,0.774625 -0.303625,0.516875 -0.455625,1.39 -0.455625,2.613125 l 0,5.371626 -1.554125,0"
   style="fill:#ffffff;fill-opacity:1;fill-rule:evenodd;stroke:none"
   id="path6837"
   inkscape:connector-curvature="0" /></svg>