<?xml version="1.0" encoding="UTF-8" standalone="no"?>
<!-- Created with Inkscape (http://www.inkscape.org/) -->

<svg
   xmlns:dc="http://purl.org/dc/elements/1.1/"
   xmlns:cc="http://creativecommons.org/ns#"
   xmlns:rdf="http://www.w3.org/1999/02/22-rdf-syntax-ns#"
   xmlns:svg="http://www.w3.org/2000/svg"
   xmlns="http://www.w3.org/2000/svg"
   xmlns:sodipodi="http://sodipodi.sourceforge.net/DTD/sodipodi-0.dtd"
   xmlns:inkscape="http://www.inkscape.org/namespaces/inkscape"
   width="50.400002cm"
   height="60.400002cm"
   viewBox="0 0 504.00002 604"
   version="1.1"
   id="svg8"
   inkscape:version="0.92.2 (5c3e80d, 2017-08-06)"
   sodipodi:docname="77.svg">
  <defs
     id="defs2" />
  <sodipodi:namedview
     id="base"
     pagecolor="#ffffff"
     bordercolor="#666666"
     borderopacity="1.0"
     inkscape:pageopacity="0.0"
     inkscape:pageshadow="2"
     inkscape:zoom="0.175"
     inkscape:cx="1071.9239"
     inkscape:cy="-14.146781"
     inkscape:document-units="cm"
     inkscape:current-layer="layer1"
     showgrid="false"
     units="cm"
     inkscape:window-width="1920"
     inkscape:window-height="1057"
     inkscape:window-x="-8"
     inkscape:window-y="-8"
     inkscape:window-maximized="1" />
  <metadata
     id="metadata5">
    <rdf:RDF>
      <cc:Work
         rdf:about="">
        <dc:format>image/svg+xml</dc:format>
        <dc:type
           rdf:resource="http://purl.org/dc/dcmitype/StillImage" />
        <dc:title></dc:title>
      </cc:Work>
    </rdf:RDF>
  </metadata>
  <g
     inkscape:label="Layer 1"
     inkscape:groupmode="layer"
     id="layer1"
     transform="translate(0,307)">
    <rect
       style="opacity:1;fill:#007dc3;fill-opacity:1;fill-rule:nonzero;stroke:none;stroke-width:38.37693405;stroke-linejoin:round;stroke-miterlimit:4;stroke-dasharray:none;stroke-opacity:1"
       id="rect815"
       width="500"
       height="600"
       x="2"
       y="-304.99997"
       rx="75"
       ry="75" />
    <rect
       style="opacity:1;fill:#ffffff;fill-opacity:1;fill-rule:nonzero;stroke:none;stroke-width:25.1513195;stroke-linejoin:round;stroke-miterlimit:4;stroke-dasharray:none;stroke-opacity:1"
       id="rect817"
       width="350"
       height="350"
       x="77"
       y="-229.99995" />
    <path
       d="m 253.1248,-75.130181 0.6876,-1.23505 -42.2756,-14.686852 -0.9613,0.68626 17.8433,21.275922 h 2.6076 z m -8.2877,15.08503 c 0,0 -4.7581,1.98679 -5.1249,2.09155 -0.3654,0.10481 -0.9403,0.83691 -0.9403,0.83691 l 3.8688,5.27938 c -0.084,-2.88265 0.7452,-5.60289 2.1964,-8.20784 m 27.7235,12.80615 -1.6017,-0.46232 -0.9548,2.34434 -13.0891,-4.01682 0.224,-2.30506 -9.9432,-2.86298 -1.2245,5.83599 21.9766,24.52524 2.3063,-0.38503 4.8629,-14.33588 z m -9.8711,45.3283997 c 1.1892,-0.66532 1.1197,-1.74974 1.679,-2.62333 -0.4898,-3.30696 -1.9934,-5.09075 -4.7228,-5.03707 -1.3123,2.55257 -0.9613,5.10648 3.0438,7.6604 m 13.0982,-2.32864 c -0.6654,-1.19052 -1.7511,-1.1211 -2.6247,-1.68032 -3.3069,0.4898 -5.0907,1.99463 -5.0357,4.72142 2.5526,1.31363 5.1052,0.96392 7.6604,-3.0411 m -2.4361,-13.2016697 c -1.1891,0.66402 -1.1171,1.74843 -1.6777,2.62329 0.4886,3.30435 1.9921,5.0881297 4.7214,5.0370997 1.3137,-2.5539197 0.9627,-5.1078197 -3.0437,-7.6603897 m -13.0969,2.53816 c 0.6654,1.1879 1.7511,1.11846 2.6247,1.67773 3.3043,-0.48983 5.0894,-1.99337 5.0344,-4.72013 -2.5513,-1.3123 -5.1052,-0.96262 -7.6591,3.0424 m 26.5802,1.20362 c -0.034,-0.80022 -0.055,-1.60306 -0.055,-2.41116 0,-7.64598 1.5455,-14.94355 4.3364,-21.5981 -5.7377,-2.46481 -9.7166,-4.1517 -9.7166,-4.1517 l -7.0278,19.07695 c 3.7523,1.76675 6.6244,5.10907 7.756,9.16522 z m 14.5808,-19.55105 c -2.254,5.3147 -3.4995,11.15462 -3.4995,17.27348 0,0.70069 0.019,1.39353 0.05,2.08505 l 34.699,-0.59987 c -0.4689,-1.11059 -0.5043,-2.43729 -0.1048,-3.98274 0.2305,-0.88929 -16.7012,-8.48026 -31.1445,-14.77592 m 40.9894,-27.21537 c -17.3704,0 -32.4698,10.0427 -39.7897,24.61953 l 31.8202,14.74061 c 2.3601,-2.93899 5.3397,-4.54988 9.2229,-4.22771 6.59036,0.36543 9.82528,4.47521 10.76172,11.14548 -1.76809,7.8254097 -6.49212,10.9293597 -13.69282,10.2771497 -2.1636,-0.74526 -7.0108,-3.81777 -7.329,-7.2386897 l -34.936,2.1361097 c 3.362,21.2143803 21.809,37.5252503 43.9427,37.5252503 24.50435,0 44.48889,-19.9845403 44.48889,-44.48888 0,-24.50297 -19.98454,-44.48885 -44.48889,-44.48885 m -181.4616,0 c -24.5043,0 -44.4901,19.98588 -44.4901,44.48885 0,24.5043397 19.9858,44.48888 44.4901,44.48888 24.503,0 44.4889,-19.9845403 44.4889,-44.48888 0,-17.33899 -10.0138,-32.41745 -24.5488,-39.75173 l -16.6999,42.30827 c -7.5281,5.1300597 -11.8881,-1.86239 -5.3802,-4.22639 l 2.3679,-3.32923 12.8992,-35.42844 0.6024,-1.88465 c -4.3259,-1.41183 -8.9413,-2.17668 -13.7295,-2.17668 m 0.165,-11.75447 c 5.8517,0 11.4952,0.90499 16.8047,2.57744 l 1.8834,-4.60748 2.449,-1.43017 2.6915,-8.069012 3.2964,-0.055 1.6096,-2.74379 7.0069,-18.723337 c -1.2521,-1.99337 -1.1512,-3.38688 1.9213,-3.45762 l 6.589,-20.23603 -10.7617,-6.15027 -1.0163,2.43075 -4.7135,-1.44718 -0.4191,-4.4438 -1.2286,-0.87486 c -7.3945,6.04682 -9.4742,3.41567 -2.7267,-1.94755 l -1.4249,-1.01759 c 1.2311,-3.14197 3.1825,-3.64094 5.8542,-1.49696 0.7348,-2.26577 2.7596,-4.38091 4.9062,-5.80719 2.1007,0.29993 3.117,1.31756 3.0555,3.05944 0.1335,1.87289 -2.1597,4.0312 -6.111,6.38608 l 1.9448,0.97438 1.7891,-2.73202 c 4.3534,-1.70917 19.0586,-1.64497 23.6504,-0.2305 1.0896,1.29007 1.218,2.69927 0.385,4.22768 l -18.9486,0.22919 7.367,5.08682 1.3739,-0.70721 4.3259,1.38437 0.7308,2.12821 -1.0294,4.09541 -2.0837,0.0292 -6.8969,17.44246 -0.2462,1.80081 c 1.4381,1.26651 1.1342,2.34965 -0.3706,2.71373 l -0.2882,2.10204 62.3976,22.977197 21.9046,-5.76655 0.5697,-1.64762 c -8.4213,-4.00237 -0.2082,-2.65863 0.9417,-2.73464 l 10.0178,-29.051507 -6.5327,-4.22772 c -4.1046,-0.48325 -9.4023,-0.56971 -15.516,-0.38504 l 0.8867,-2.68224 c 6.0626,-3.30435 12.6242,-3.92384 22.6996,-1.54544 7.2727,-1.19835 13.4571,-1.99071 18.0554,-2.1885 3.582,1.39091 4.6127,3.45235 3.8518,7.18498 -1.4171,0.49244 -1.9541,2.36268 -4.2474,1.47863 l -4.5943,1.59653 -5.3789,1.54544 c 0.1388,2.22905 -2.4583,4.0194 -6.6664,4.36911 l -8.0781,25.197137 c 3.5021,1.88988 3.1616,2.9468 -1.0255,3.16685 l -6.3874,19.743582 -5.1366,0.70067 0.7688,-4.90349 -1.7943,-0.12704 -29.7116,8.33882 -0.8553,3.4602 9.4246,2.86951 0.6797,-1.26645 12.9188,3.35017 0.1362,2.09942 6.2682,1.91087 0.9037,-1.80476 4.8851,1.80476 -0.9011,3.31742 9.4508,4.37831 c 9.1167,-18.70629 28.3325,-31.64865 50.4768,-31.64865 30.90607,0 56.1097,25.20496 56.1097,56.10974 0,30.90609 -25.20363,56.10978 -56.1097,56.10978 -28.2658,0 -51.759,-21.0847 -55.5663,-48.3302103 l -4.7712,0.29077 v 0.004 c -0.8591,7.10508 -6.9387,12.63984 -14.2703,12.63984 -1.243,0 -2.4479,-0.15849 -3.6017,-0.45843 l -6.0469,9.9968903 0.072,0.60376 1.7064,0.38896 c 0.833,0.79368 0.9823,1.82441 0.4519,3.09744 l -4.0889,-0.11001 c -0.8146,2.04704 -3.8701,2.46221 -4.6743,0.38896 h -4.8065 c -0.2777,-0.72816 -0.2344,-1.37648 0.1297,-1.94621 l 1.8571,-2.12953 3.0385,-0.0301 7.4626,-12.5992603 c -3.5571,-2.61935 -5.8752,-6.83524 -5.8752,-11.57763 0,-3.0004997 0.9311,-5.7901497 2.5133,-8.0991397 v -0.16109 l -58.6977,-66.943532 -1.6974,-0.0903 -3.785,7.84894 -4.2264,3.075142 1.0845,2.42951 -2.4321,5.67093 c 18.1169,9.3224 30.5551,28.21993 30.5551,49.93064 0,30.90607 -25.205,56.10979 -56.1111,56.10979 -30.9036,1.3e-4 -56.11,-25.20356 -56.11,-56.10964 0,-30.90479 25.2064,-56.10975 56.1098,-56.10975"
       style="fill:#000000;fill-opacity:1;fill-rule:evenodd;stroke:none;stroke-width:1.30969048"
       id="path6081"
       inkscape:connector-curvature="0" />
  </g>
</svg>
