<?xml version="1.0" encoding="UTF-8" standalone="no"?>
<!-- Created with Inkscape (http://www.inkscape.org/) -->

<svg
   xmlns:dc="http://purl.org/dc/elements/1.1/"
   xmlns:cc="http://creativecommons.org/ns#"
   xmlns:rdf="http://www.w3.org/1999/02/22-rdf-syntax-ns#"
   xmlns:svg="http://www.w3.org/2000/svg"
   xmlns="http://www.w3.org/2000/svg"
   xmlns:sodipodi="http://sodipodi.sourceforge.net/DTD/sodipodi-0.dtd"
   xmlns:inkscape="http://www.inkscape.org/namespaces/inkscape"
   id="svg8357"
   version="1.1"
   inkscape:version="0.91 r13725"
   xml:space="preserve"
   width="496.61377"
   height="208.55376"
   viewBox="0 0 496.61377 208.55376"
   sodipodi:docname="SI-27.svg"><metadata
     id="metadata8363"><rdf:RDF><cc:Work
         rdf:about=""><dc:format>image/svg+xml</dc:format><dc:type
           rdf:resource="http://purl.org/dc/dcmitype/StillImage" /><dc:title></dc:title></cc:Work></rdf:RDF></metadata><defs
     id="defs8361"><clipPath
       clipPathUnits="userSpaceOnUse"
       id="clipPath8373"><path
         d="M 0,792 612,792 612,0 0,0 0,792 Z"
         id="path8375"
         inkscape:connector-curvature="0" /></clipPath><clipPath
       clipPathUnits="userSpaceOnUse"
       id="clipPath8381"><path
         d="m 39.416,23.991 31.636,0 0,47.434 -31.636,0 0,-47.434 z"
         id="path8383"
         inkscape:connector-curvature="0" /></clipPath><clipPath
       clipPathUnits="userSpaceOnUse"
       id="clipPath8407"><path
         d="m -28.715,607.749 64.133,0 0,128.295 -64.133,0 0,-128.295 z"
         id="path8409"
         inkscape:connector-curvature="0" /></clipPath><clipPath
       clipPathUnits="userSpaceOnUse"
       id="clipPath8431"><path
         d="m 161.575,31.63 355.464,0 0,-42.26 -355.464,0 0,42.26 z"
         id="path8433"
         inkscape:connector-curvature="0" /></clipPath><clipPath
       clipPathUnits="userSpaceOnUse"
       id="clipPath8439"><path
         d="m -32720.7,24382.3 65487.7,0 0,-48850 -65487.7,0 0,48850 z"
         id="path8441"
         inkscape:connector-curvature="0" /></clipPath><clipPath
       clipPathUnits="userSpaceOnUse"
       id="clipPath8443"><path
         d="m 136.573,-10.63 0,42.259 445.039,0 0,-42.259 -445.039,0 z"
         id="path8445"
         inkscape:connector-curvature="0" /></clipPath><clipPath
       clipPathUnits="userSpaceOnUse"
       id="clipPath8447"><path
         d="m 136.5732,-10.629923 -1e-5,42.259377 445.03916,1.5e-5 10e-6,-42.259377 -445.03916,-1.5e-5 z"
         id="path8449"
         inkscape:connector-curvature="0" /></clipPath><linearGradient
       x1="0"
       y1="0"
       x2="1"
       y2="0"
       gradientUnits="userSpaceOnUse"
       gradientTransform="matrix(-2e-6,33.796011,45.339154,1.5e-6,359.09323,-5.7800189)"
       spreadMethod="pad"
       id="linearGradient8451"><stop
         style="stop-opacity:1;stop-color:#ffffff"
         offset="0"
         id="stop8453" /><stop
         style="stop-opacity:0;stop-color:#ffffff"
         offset="1"
         id="stop8455" /></linearGradient><mask
       maskUnits="userSpaceOnUse"
       x="0"
       y="0"
       width="1"
       height="1"
       id="mask8457"><g
         id="g8459"><g
           clip-path="url(#clipPath8439)"
           id="g8461"><g
             id="g8463"><g
               clip-path="url(#clipPath8443)"
               id="g8465"><g
                 id="g8467"><g
                   id="g8469"><g
                     clip-path="url(#clipPath8447)"
                     id="g8471"><path
                       d="m 136.573,-10.63 0,42.259 445.039,0 0,-42.259 -445.039,0 z"
                       style="fill:url(#linearGradient8451);stroke:none"
                       id="path8473"
                       inkscape:connector-curvature="0" /></g></g></g></g></g></g></g></mask><clipPath
       clipPathUnits="userSpaceOnUse"
       id="clipPath8481"><path
         d="m 136.57274,-10.629922 0,42.259363 445.03961,1.5e-5 0,-42.259364 -445.03961,-1.4e-5 z"
         id="path8483"
         inkscape:connector-curvature="0" /></clipPath><linearGradient
       x1="0"
       y1="0"
       x2="1"
       y2="0"
       gradientUnits="userSpaceOnUse"
       gradientTransform="matrix(-2e-6,33.796,45.3392,1.5e-6,359.093,-5.78002)"
       spreadMethod="pad"
       id="linearGradient8485"><stop
         style="stop-opacity:1;stop-color:#203e6d"
         offset="0"
         id="stop8487" /><stop
         style="stop-opacity:1;stop-color:#203e6d"
         offset="1"
         id="stop8489" /></linearGradient><clipPath
       clipPathUnits="userSpaceOnUse"
       id="clipPath8503"><path
         d="M 0,792 612,792 612,0 0,0 0,792 Z"
         id="path8505"
         inkscape:connector-curvature="0" /></clipPath><clipPath
       clipPathUnits="userSpaceOnUse"
       id="clipPath8515"><path
         d="M 0,0 612,0 612,792 0,792 0,0 Z"
         id="path8517"
         inkscape:connector-curvature="0" /></clipPath><clipPath
       clipPathUnits="userSpaceOnUse"
       id="clipPath8539"><path
         d="M 0,0 612,0 612,792 0,792 0,0 Z"
         id="path8541"
         inkscape:connector-curvature="0" /></clipPath><clipPath
       clipPathUnits="userSpaceOnUse"
       id="clipPath8551"><path
         d="m 155.055,292.535 361.134,0 0,106.016 -361.134,0 0,-106.016 z"
         id="path8553"
         inkscape:connector-curvature="0" /></clipPath><clipPath
       clipPathUnits="userSpaceOnUse"
       id="clipPath8725"><path
         d="M 0,0 612,0 612,792 0,792 0,0 Z"
         id="path8727"
         inkscape:connector-curvature="0" /></clipPath><clipPath
       clipPathUnits="userSpaceOnUse"
       id="clipPath8741"><path
         d="m 79.881,625.8 175.839,0 0,51.62 -175.839,0 0,-51.62 z"
         id="path8743"
         inkscape:connector-curvature="0" /></clipPath><clipPath
       clipPathUnits="userSpaceOnUse"
       id="clipPath8915"><path
         d="M 0,0 612,0 612,792 0,792 0,0 Z"
         id="path8917"
         inkscape:connector-curvature="0" /></clipPath></defs><sodipodi:namedview
     pagecolor="#ffffff"
     bordercolor="#666666"
     borderopacity="1"
     objecttolerance="10"
     gridtolerance="10"
     guidetolerance="10"
     inkscape:pageopacity="0"
     inkscape:pageshadow="2"
     inkscape:window-width="1309"
     inkscape:window-height="744"
     id="namedview8359"
     showgrid="false"
     fit-margin-top="0"
     fit-margin-left="0"
     fit-margin-right="0"
     fit-margin-bottom="0"
     inkscape:zoom="0.6030303"
     inkscape:cx="211.82626"
     inkscape:cy="175.67376"
     inkscape:window-x="57"
     inkscape:window-y="24"
     inkscape:window-maximized="1"
     inkscape:current-layer="g8365" /><g
     id="g8365"
     inkscape:groupmode="layer"
     inkscape:label="Manual de Se¤alizacion Vial 2015"
     transform="matrix(1.25,0,0,-1.25,-170.67374,527.88001)"><g
       id="g8968"><g
         id="g8535"><g
           clip-path="url(#clipPath8539)"
           id="g8537"><g
             transform="translate(170.953,413.089)"
             id="g8543"><path
               inkscape:connector-curvature="0"
               id="path8545"
               style="fill:none;stroke:#231f20;stroke-width:3.97199988;stroke-linecap:butt;stroke-linejoin:miter;stroke-miterlimit:4;stroke-dasharray:none;stroke-opacity:1"
               d="m 0,0 c 0,0 -25.333,0 -25.333,-25.333 l 0,-98.359 c 0,0 0,-25.333 25.333,-25.333 l 328.339,0 c 0,0 25.333,0 25.333,25.333 l 0,98.359 c 0,0 0,25.333 -25.333,25.333 L 0,0 Z" /></g></g></g><g
         id="g8547"><g
           clip-path="url(#clipPath8551)"
           id="g8549"><text
             id="text8555"
             style="font-variant:normal;font-weight:normal;font-stretch:normal;font-size:11.04349995px;font-family:'Eras Demi ITC';-inkscape-font-specification:ErasITC-Demi;writing-mode:lr-tb;fill:#231f20;fill-opacity:1;fill-rule:nonzero;stroke:none"
             transform="matrix(1,0,0,-1,164.299,47.4471)"><tspan
               id="tspan8557"
               sodipodi:role="line"
               y="0"
               x="0 9.7845411 16.046206 20.154388 24.439266 27.38788 32.710846 35.471722 42.208256 48.944794 55.084976 61.821514 68.558044 71.318924 81.186287 88.011177 94.913361 101.81555 104.74207 111.56696">Matriz 35x35 módulos</tspan></text>
<text
             id="text8559"
             style="font-variant:normal;font-weight:normal;font-stretch:normal;font-size:11.04349995px;font-family:'Eras Demi ITC';-inkscape-font-specification:ErasITC-Demi;writing-mode:lr-tb;fill:#231f20;fill-opacity:1;fill-rule:nonzero;stroke:none"
             transform="matrix(1,0,0,-1,164.299,36.4036)"><tspan
               id="tspan8561"
               sodipodi:role="line"
               y="0"
               x="0 9.7845411 16.609425 23.511612 30.413799 33.340328 40.165211 42.926083 49.662621 55.802807 62.539341 65.300217 70.700485 80.567856">Módulo 1x1 cm.</tspan></text>
<text
             id="text8563"
             style="font-variant:normal;font-weight:normal;font-stretch:normal;font-size:11.04349995px;font-family:'Eras Demi ITC';-inkscape-font-specification:ErasITC-Demi;writing-mode:lr-tb;fill:#231f20;fill-opacity:1;fill-rule:nonzero;stroke:none"
             transform="matrix(1,0,0,-1,427.709,47.2262)"><tspan
               id="tspan8565"
               sodipodi:role="line"
               y="0"
               x="0 9.7845411 16.046206 20.154388 24.439266 27.38788 32.710846 35.471722 42.208256 48.944794 55.084976 61.821514 68.558044 71.318924 81.186287 88.011177 94.913361 101.81555 104.74207 111.56696">Matriz 35x35 módulos</tspan></text>
<text
             id="text8567"
             style="font-variant:normal;font-weight:normal;font-stretch:normal;font-size:11.04349995px;font-family:'Eras Demi ITC';-inkscape-font-specification:ErasITC-Demi;writing-mode:lr-tb;fill:#231f20;fill-opacity:1;fill-rule:nonzero;stroke:none"
             transform="matrix(1,0,0,-1,427.709,36.1827)"><tspan
               id="tspan8569"
               sodipodi:role="line"
               y="0"
               x="0 9.7845411 16.609425 23.511612 30.413799 33.340328 40.165211 42.926083 49.662621 52.522884 59.259422 65.399605 72.136139 74.996407 81.732941 84.49382 89.894089 99.761459">Módulo 1,2x1,2 cm.</tspan></text>
<text
             id="text8571"
             style="font-variant:normal;font-weight:normal;font-stretch:normal;font-size:11.93879986px;font-family:'Eras Demi ITC';-inkscape-font-specification:ErasITC-Demi;writing-mode:lr-tb;fill:#918f90;fill-opacity:1;fill-rule:nonzero;stroke:none"
             transform="matrix(0.73999899,0,0,-1,132.726,99.8867)"><tspan
               id="tspan8573"
               sodipodi:role="line"
               y="0"
               x="0 8.4884872 15.783093 22.194229 32.151188 39.899471 43.409477 52.423271 61.413189 70.426979 73.411682 83.989456 92.979378 100.63215 104.14215 114.71993">VELOCIDAD MÁXIMA</tspan></text>
<text
             id="text8575"
             style="font-variant:normal;font-weight:normal;font-stretch:normal;font-size:11.93879986px;font-family:'Eras Demi ITC';-inkscape-font-specification:ErasITC-Demi;writing-mode:lr-tb;fill:#918f90;fill-opacity:1;fill-rule:nonzero;stroke:none"
             transform="matrix(0.73999899,0,0,-1,226.15267,99.8867)"><tspan
               id="tspan8577"
               sodipodi:role="line"
               y="0"
               x="0 7.0319533 14.32656 21.859943 32.437721 35.947727 42.824474 46.334484 55.348278">PERMITIDA</tspan></text>
<text
             id="text8579"
             style="font-variant:normal;font-weight:normal;font-stretch:normal;font-size:11.93879986px;font-family:'Eras Demi ITC';-inkscape-font-specification:ErasITC-Demi;writing-mode:lr-tb;fill:#244c9c;fill-opacity:1;fill-rule:nonzero;stroke:none"
             transform="matrix(0.73999899,0,0,-1,141.41,89.285)"><tspan
               id="tspan8581"
               sodipodi:role="line"
               y="0"
               x="0 10.577777 17.872383 27.268219 37.225178 44.75856 47.743259 57.700222 60.684921 64.194931 73.29229 82.258331">MENOR O IGUA</tspan></text>
<text
             id="text8583"
             style="font-variant:normal;font-weight:normal;font-stretch:normal;font-size:11.93879986px;font-family:'Eras Demi ITC';-inkscape-font-specification:ErasITC-Demi;writing-mode:lr-tb;fill:#244c9c;fill-opacity:1;fill-rule:nonzero;stroke:none"
             transform="matrix(0.73999899,0,0,-1,208.943,89.285)"><tspan
               id="tspan8585"
               y="0"
               x="0">L</tspan></text>
<text
             id="text8587"
             style="font-variant:normal;font-weight:normal;font-stretch:normal;font-size:11.93879986px;font-family:'Eras Demi ITC';-inkscape-font-specification:ErasITC-Demi;writing-mode:lr-tb;fill:#244c9c;fill-opacity:1;fill-rule:nonzero;stroke:none"
             transform="matrix(0.73999899,0,0,-1,215.507,89.285)"><tspan
               id="tspan8589"
               y="0"
               x="0">A</tspan></text>
<text
             id="text8591"
             style="font-variant:normal;font-weight:normal;font-stretch:normal;font-size:11.93879986px;font-family:'Eras Demi ITC';-inkscape-font-specification:ErasITC-Demi;writing-mode:lr-tb;fill:#244c9c;fill-opacity:1;fill-rule:nonzero;stroke:none"
             transform="matrix(0.73999899,0,0,-1,224.00567,89.285)"><tspan
               id="tspan8593"
               sodipodi:role="line"
               y="0"
               x="0 7.2826681 14.565336 17.550035 25.56097 36.138748 41.260494 50.525002">50 KM/HR</tspan></text>
<text
             id="text8595"
             style="font-variant:normal;font-weight:normal;font-stretch:normal;font-size:11.93879986px;font-family:'Eras Demi ITC';-inkscape-font-specification:ErasITC-Demi;writing-mode:lr-tb;fill:#918f90;fill-opacity:1;fill-rule:nonzero;stroke:none"
             transform="matrix(0.73999899,0,0,-1,391.397,99.8867)"><tspan
               id="tspan8597"
               sodipodi:role="line"
               y="0"
               x="0 8.4884872 15.783093 22.194229 32.151188 39.899471 43.409477 52.423271 61.413189 70.426979 73.411682 83.989456 92.979378 100.63215 104.14215 114.71993">VELOCIDAD MÁXIMA</tspan></text>
<text
             id="text8599"
             style="font-variant:normal;font-weight:normal;font-stretch:normal;font-size:11.93879986px;font-family:'Eras Demi ITC';-inkscape-font-specification:ErasITC-Demi;writing-mode:lr-tb;fill:#918f90;fill-opacity:1;fill-rule:nonzero;stroke:none"
             transform="matrix(0.73999899,0,0,-1,484.82368,99.8867)"><tspan
               id="tspan8601"
               sodipodi:role="line"
               y="0"
               x="0 7.0319533 14.32656 21.859943 32.437721 35.947727 42.824474 46.334484 55.348278">PERMITIDA</tspan></text>
<text
             id="text8603"
             style="font-variant:normal;font-weight:normal;font-stretch:normal;font-size:11.93879986px;font-family:'Eras Demi ITC';-inkscape-font-specification:ErasITC-Demi;writing-mode:lr-tb;fill:#244c9c;fill-opacity:1;fill-rule:nonzero;stroke:none"
             transform="matrix(0.73999899,0,0,-1,408.51,89.285)"><tspan
               id="tspan8605"
               sodipodi:role="line"
               y="0"
               x="0 9.0137939 16.308401 19.2931 26.575769 33.858437 41.869373 52.447147 57.568893 66.833405 74.366783 77.351486">DE 50KM/HR A</tspan></text>
<text
             id="text8607"
             style="font-variant:normal;font-weight:normal;font-stretch:normal;font-size:11.93879986px;font-family:'Eras Demi ITC';-inkscape-font-specification:ErasITC-Demi;writing-mode:lr-tb;fill:#244c9c;fill-opacity:1;fill-rule:nonzero;stroke:none"
             transform="matrix(0.73999899,0,0,-1,474.24868,89.285)"><tspan
               id="tspan8609"
               sodipodi:role="line"
               y="0"
               x="0 7.2826681 14.565336 17.550035 25.56097 36.138748 41.260494 50.525002">60 KM/HR</tspan></text>
<g
             transform="translate(580.169,8.4344)"
             id="g8611"><path
               inkscape:connector-curvature="0"
               id="path8613"
               style="fill:none;stroke:#898c8d;stroke-width:3.31299996;stroke-linecap:butt;stroke-linejoin:miter;stroke-miterlimit:10;stroke-dasharray:none;stroke-opacity:1"
               d="m 0,0 c 0,-1.665 -4.023,-3.015 -8.987,-3.015 l -216.663,0 c -4.965,0 -8.989,1.35 -8.989,3.015 l 0,72.688 c 0,1.665 4.024,3.016 8.989,3.016 l 216.663,0 C -4.023,75.704 0,74.353 0,72.688 L 0,0 Z" /></g><g
             transform="translate(321.503,8.4344)"
             id="g8615"><path
               inkscape:connector-curvature="0"
               id="path8617"
               style="fill:none;stroke:#898c8d;stroke-width:3.31299996;stroke-linecap:butt;stroke-linejoin:miter;stroke-miterlimit:10;stroke-dasharray:none;stroke-opacity:1"
               d="m 0,0 c 0,-1.665 -4.023,-3.015 -8.988,-3.015 l -216.663,0 c -4.966,0 -8.989,1.35 -8.989,3.015 l 0,72.688 c 0,1.665 4.023,3.016 8.989,3.016 l 216.663,0 C -4.023,75.704 0,74.353 0,72.688 L 0,0 Z" /></g><g
             transform="translate(137.278,385.641)"
             id="g8619"><path
               inkscape:connector-curvature="0"
               id="path8621"
               style="fill:#ffffff;fill-opacity:1;fill-rule:evenodd;stroke:none"
               d="m 0,0 c 0,0 -5.132,33.315 26.456,34.959 31.59,1.646 340.746,0 340.746,0 0,0 26.06,2.879 26.851,-30.848 0.786,-33.723 0,-105.289 0,-105.289 0,0 -0.791,-27.555 -26.455,-27.555 l -335.222,0 c 0,0 -32.682,-1.027 -32.682,28.792 C -0.306,-70.125 0,0 0,0" /></g><g
             transform="translate(137.278,385.641)"
             id="g8623"><path
               inkscape:connector-curvature="0"
               id="path8625"
               style="fill:none;stroke:#181817;stroke-width:0.27599999;stroke-linecap:butt;stroke-linejoin:miter;stroke-miterlimit:22.9260006;stroke-dasharray:none;stroke-opacity:1"
               d="m 0,0 c 0,0 -5.132,33.315 26.456,34.959 31.59,1.646 340.746,0 340.746,0 0,0 26.06,2.879 26.851,-30.848 0.786,-33.723 0,-105.289 0,-105.289 0,0 -0.791,-27.555 -26.455,-27.555 l -335.222,0 c 0,0 -32.682,-1.027 -32.682,28.792 C -0.306,-70.125 0,0 0,0 Z" /></g><g
             transform="translate(137.325,385.55)"
             id="g8627"><path
               inkscape:connector-curvature="0"
               id="path8629"
               style="fill:none;stroke:#181817;stroke-width:1.10399997;stroke-linecap:butt;stroke-linejoin:miter;stroke-miterlimit:22.9260006;stroke-dasharray:none;stroke-opacity:1"
               d="m 0,0 c 0,0 -5.135,33.314 26.451,34.96 31.588,1.643 340.747,0 340.747,0 0,0 26.061,2.877 26.85,-30.847 0.792,-33.725 0,-105.286 0,-105.286 0,0 -0.789,-27.559 -26.453,-27.559 l -335.22,0 c 0,0 -32.684,-1.031 -32.684,28.789 C -0.309,-70.124 0,0 0,0 Z" /></g><g
             transform="translate(143.712,382.085)"
             id="g8631"><path
               inkscape:connector-curvature="0"
               id="path8633"
               style="fill:none;stroke:#181817;stroke-width:1.10399997;stroke-linecap:butt;stroke-linejoin:miter;stroke-miterlimit:22.9260006;stroke-dasharray:none;stroke-opacity:1"
               d="m 0,0 c 0,0 -4.96,30.77 25.578,32.288 30.533,1.519 329.406,0 329.406,0 0,0 25.196,2.66 25.956,-28.488 0.766,-31.149 0,-97.245 0,-97.245 0,0 -0.76,-25.45 -25.57,-25.45 l -324.07,0 c 0,0 -31.599,-0.948 -31.599,26.592 C -0.299,-64.765 0,0 0,0 Z" /></g><g
             transform="translate(348.902,348.582)"
             id="g8635"><path
               inkscape:connector-curvature="0"
               id="path8637"
               style="fill:#181817;fill-opacity:1;fill-rule:nonzero;stroke:none"
               d="m 0,0 21.062,0 0,5.542 -15.834,0 0,9.347 9.993,0 0,5.431 -9.993,0 0,8.323 14.75,0 0,5.336 L 0,33.979 0,0 Z m -33.168,-41.646 -5.491,0 0,22.219 5.976,0 c 2.181,0 3.791,-1.392 4.833,-4.184 0.743,-1.981 1.117,-4.295 1.117,-6.922 0,-2.666 -0.429,-5.004 -1.278,-7.032 -1.134,-2.727 -2.85,-4.081 -5.157,-4.081 m 0.813,27.355 -11.369,0 0,-32.686 11.895,0 c 1.398,0 2.907,0.656 4.546,1.961 3.852,3.117 5.781,8.051 5.781,14.81 0,3.132 -0.565,6.122 -1.704,8.952 -1.388,3.46 -3.353,5.634 -5.877,6.505 -0.912,0.304 -2.006,0.458 -3.272,0.458" /></g><g
             transform="translate(228.68,368.709)"
             id="g8639"><path
               inkscape:connector-curvature="0"
               id="path8641"
               style="fill:#181817;fill-opacity:1;fill-rule:nonzero;stroke:none"
               d="m 0,0 0,8.309 6.926,0 c 1.301,0 2.428,-0.371 3.371,-1.114 0.94,-0.753 1.406,-1.766 1.406,-3.056 0,-1.36 -0.523,-2.422 -1.557,-3.189 C 9.196,0.271 8.033,-0.046 6.648,0 L 0,0 Z m -5.253,-20.249 5.253,0 0,14.752 6.441,0 5.497,-14.752 5.866,0 -5.999,15.835 c 1.608,0.791 2.888,1.971 3.846,3.529 0.965,1.56 1.442,3.236 1.442,5.017 0,2.809 -0.974,5.104 -2.929,6.884 -1.96,1.788 -4.353,2.684 -7.176,2.684 l -12.241,-0.034 0,-33.915 z m 64.34,0.225 20.702,0 0,4.84 -15.556,0 0,28.553 -5.146,0 0,-33.393 z m 86.632,-0.003 5.227,0 0,22.807 12.935,-22.807 4.751,0 0,33.694 -5.317,0 0,-21.532 -12.369,21.532 -5.227,0 0,-33.694 z" /></g><g
             transform="translate(193.157,316.026)"
             id="g8643"><path
               inkscape:connector-curvature="0"
               id="path8645"
               style="fill:#181817;fill-opacity:1;fill-rule:nonzero;stroke:none"
               d="M 0,0 3.352,9.122 6.542,0 0,0 Z m -10.553,-14.331 5.501,0 3.228,9.086 10.221,0 3.232,-9.086 5.497,0 -11.267,32.568 -5.145,0 -11.267,-32.568 z" /></g><g
             transform="translate(331.673,301.846)"
             id="g8647"><path
               inkscape:connector-curvature="0"
               id="path8649"
               style="fill:#181817;fill-opacity:1;fill-rule:nonzero;stroke:none"
               d="m 0,0 20.089,0 0,5.284 -15.1,0 0,8.915 9.529,0 0,5.182 -9.529,0 0,7.936 14.065,0 0,5.09 L 0,32.407 0,0 Z" /></g><g
             transform="translate(430.908,368.78)"
             id="g8651"><path
               inkscape:connector-curvature="0"
               id="path8653"
               style="fill:#181817;fill-opacity:1;fill-rule:nonzero;stroke:none"
               d="m 0,0 -0.526,8.392 7.514,0 c 1.324,0 2.456,-0.376 3.407,-1.127 0.952,-0.757 1.424,-1.782 1.424,-3.084 0,-1.375 -0.526,-2.445 -1.573,-3.22 C 9.282,0.273 8.109,-0.048 6.71,0 L 0,0 Z m -5.312,-20.449 5.312,0 0,14.896 6.507,0 5.546,-14.896 5.925,0 -6.054,15.992 c 1.621,0.798 2.917,1.99 3.882,3.561 0.971,1.576 1.454,3.27 1.454,5.068 0,2.838 -0.983,5.155 -2.955,6.953 -1.986,1.806 -4.397,2.71 -7.247,2.71 l -12.37,-0.032 0,-34.252 z m -256.994,-27.202 0,7.976 7.226,0 c 1.309,0 2.378,-0.334 3.228,-1.007 0.934,-0.714 1.4,-1.72 1.4,-2.994 0,-1.391 -0.5,-2.43 -1.499,-3.128 -0.886,-0.61 -2.043,-0.891 -3.45,-0.847 l -0.099,0 -6.806,0 z m -5.011,-19.468 5.011,0 0,14.229 6.611,0 c 2.932,0 5.37,0.789 7.323,2.375 2.129,1.713 3.189,3.998 3.189,6.839 0,1.905 -0.59,3.667 -1.768,5.269 -1.184,1.615 -2.69,2.715 -4.511,3.322 -1.019,0.348 -2.591,0.525 -4.721,0.525 l -11.134,0 0,-32.559 z" /></g><g
             transform="translate(355.018,301.463)"
             id="g8655"><path
               inkscape:connector-curvature="0"
               id="path8657"
               style="fill:#181817;fill-opacity:1;fill-rule:nonzero;stroke:none"
               d="m 0,0 20.303,0 0,4.743 -15.264,0 0,28.013 L 0,32.756 0,0 Z" /></g><g
             transform="translate(219.311,320.936)"
             id="g8659"><path
               inkscape:connector-curvature="0"
               id="path8661"
               style="fill:#181817;fill-opacity:1;fill-rule:nonzero;stroke:none"
               d="m 0,0 -0.501,8.027 7.186,0 c 1.265,0 2.35,-0.36 3.255,-1.076 0.912,-0.73 1.364,-1.708 1.364,-2.953 C 11.304,2.684 10.8,1.656 9.798,0.919 8.883,0.259 7.757,-0.044 6.418,0 L 0,0 Z m -5.074,-19.555 5.074,0 0,14.242 6.221,0 5.312,-14.242 5.665,0 -5.792,15.294 c 1.547,0.76 2.787,1.899 3.71,3.407 0.935,1.502 1.392,3.123 1.392,4.843 0,2.713 -0.94,4.932 -2.829,6.65 -1.896,1.728 -4.202,2.592 -6.933,2.592 l -11.82,-0.031 0,-32.755 z m 207.513,74.253 0,0" /></g><path
             inkscape:connector-curvature="0"
             id="path8663"
             style="fill:#181817;fill-opacity:1;fill-rule:nonzero;stroke:none"
             d="m 278.526,348.648 5.399,0 0,33.729 -5.399,0 0,-33.729 z" /><g
             transform="translate(248.765,315.927)"
             id="g8665"><path
               inkscape:connector-curvature="0"
               id="path8667"
               style="fill:#181817;fill-opacity:1;fill-rule:nonzero;stroke:none"
               d="M 0,0 3.384,9.202 6.605,0 0,0 Z m -10.654,-14.464 5.556,0 3.256,9.171 10.318,0 3.259,-9.171 5.552,0 -11.374,32.869 -5.189,0 -11.378,-32.869 z" /></g><g
             transform="translate(385.821,316.112)"
             id="g8669"><path
               inkscape:connector-curvature="0"
               id="path8671"
               style="fill:#181817;fill-opacity:1;fill-rule:nonzero;stroke:none"
               d="M 0,0 3.335,9.069 6.511,0 0,0 Z m -10.5,-14.26 5.474,0 3.208,9.041 10.172,0 3.211,-9.041 5.479,0 -11.219,32.401 -5.112,0 L -10.5,-14.26 Z" /></g><g
             transform="translate(459.695,315.952)"
             id="g8673"><path
               inkscape:connector-curvature="0"
               id="path8675"
               style="fill:#181817;fill-opacity:1;fill-rule:nonzero;stroke:none"
               d="M 0,0 3.389,9.215 6.617,0 0,0 Z m -10.667,-14.482 5.559,0 3.266,9.182 10.333,0 3.259,-9.182 5.566,0 -11.391,32.912 -5.201,0 -11.391,-32.912 z" /></g><g
             transform="translate(461.842,363.438)"
             id="g8677"><path
               inkscape:connector-curvature="0"
               id="path8679"
               style="fill:#181817;fill-opacity:1;fill-rule:nonzero;stroke:none"
               d="M 0,0 3.481,9.473 6.796,0 0,0 Z m -10.965,-14.891 5.714,0 3.357,9.443 10.618,0 3.359,-9.443 5.713,0 -11.704,33.838 -5.35,0 -11.707,-33.838 z" /></g><g
             transform="translate(285.021,316.013)"
             id="g8681"><path
               inkscape:connector-curvature="0"
               id="path8683"
               style="fill:#181817;fill-opacity:1;fill-rule:nonzero;stroke:none"
               d="M 0,0 3.365,9.149 6.564,0 0,0 Z m -10.59,-14.381 5.523,0 3.24,9.119 10.255,0 3.238,-9.119 5.52,0 -11.308,32.68 -5.16,0 -11.308,-32.68 z" /></g><g
             transform="translate(202.485,363.559)"
             id="g8685"><path
               inkscape:connector-curvature="0"
               id="path8687"
               style="fill:#181817;fill-opacity:1;fill-rule:nonzero;stroke:none"
               d="M 0,0 3.494,9.515 6.825,0 0,0 Z m -11.01,-14.952 5.738,0 3.37,9.482 10.662,0 3.369,-9.482 5.739,0 -11.755,33.978 -5.369,0 -11.754,-33.978 z" /></g><g
             transform="translate(255.602,368.803)"
             id="g8689"><path
               inkscape:connector-curvature="0"
               id="path8691"
               style="fill:#181817;fill-opacity:1;fill-rule:nonzero;stroke:none"
               d="m 0,0 0,8.253 6.877,0 c 1.298,0 2.414,-0.368 3.353,-1.109 0.933,-0.747 1.395,-1.751 1.395,-3.031 0,-1.352 -0.519,-2.406 -1.551,-3.17 C 9.131,0.269 7.98,-0.046 6.602,0 L 0,0 Z m -5.216,-20.108 5.216,0 0,14.648 6.396,0 5.465,-14.648 5.823,0 -5.959,15.726 c 1.599,0.784 2.869,1.955 3.822,3.504 0.959,1.547 1.429,3.213 1.429,4.981 0,2.79 -0.966,5.07 -2.908,6.839 -1.947,1.774 -4.322,2.663 -7.126,2.663 l -12.158,-0.033 0,-33.68 z" /></g><g
             transform="translate(409.507,348.357)"
             id="g8693"><path
               inkscape:connector-curvature="0"
               id="path8695"
               style="fill:#181817;fill-opacity:1;fill-rule:nonzero;stroke:none"
               d="m 0,0 5.386,0 0,29.308 7.971,0 0,4.77 -21.125,0 0,-4.77 7.768,0 L 0,0 Z" /></g><g
             transform="translate(437.941,301.469)"
             id="g8697"><path
               inkscape:connector-curvature="0"
               id="path8699"
               style="fill:#181817;fill-opacity:1;fill-rule:nonzero;stroke:none"
               d="m 0,0 5.157,0 0,28.109 7.656,0 0,4.575 -20.265,0 0,-4.575 7.452,0 L 0,0 Z" /></g><g
             transform="translate(403.861,301.521)"
             id="g8701"><path
               inkscape:connector-curvature="0"
               id="path8703"
               style="fill:#181817;fill-opacity:1;fill-rule:nonzero;stroke:none"
               d="m 0,0 5.078,0 0,22.17 L 17.655,0 l 4.621,0 0,32.757 -5.177,0 0,-20.936 L 5.078,32.757 0,32.757 0,0 Z" /></g><g
             transform="translate(481.074,348.682)"
             id="g8705"><path
               inkscape:connector-curvature="0"
               id="path8707"
               style="fill:#181817;fill-opacity:1;fill-rule:nonzero;stroke:none"
               d="m 0,0 20.926,0 0,4.89 -15.732,0 0,28.858 L 0,33.748 0,0 Z" /></g><g
             transform="translate(494.406,322.019)"
             id="g8709"><path
               inkscape:connector-curvature="0"
               id="path8711"
               style="fill:#181817;fill-opacity:1;fill-rule:nonzero;stroke:none"
               d="m 0,0 c -0.915,-0.656 -2.041,-0.962 -3.383,-0.915 l -6.411,0 -0.508,8.026 7.192,0 c 1.255,0 2.344,-0.361 3.251,-1.082 0.91,-0.724 1.361,-1.7 1.361,-2.95 C 1.502,1.768 1.003,0.742 0,0 m 1.608,-5.179 c 1.545,0.764 2.789,1.901 3.709,3.408 0.935,1.505 1.392,3.125 1.392,4.844 0,2.715 -0.939,4.929 -2.825,6.65 -1.898,1.727 -4.205,2.59 -6.94,2.59 l -11.816,-0.032 0,-32.753 5.078,0 0,14.245 6.213,0 5.313,-14.245 5.664,0 -5.788,15.293 z" /></g><g
             transform="translate(338.474,357.711)"
             id="g8713"><path
               inkscape:connector-curvature="0"
               id="path8715"
               style="fill:#181817;fill-opacity:1;fill-rule:nonzero;stroke:none"
               d="m 0,0 c -0.931,-2.468 -2.69,-3.701 -5.272,-3.701 -2.534,0 -4.372,1.384 -5.535,4.16 -0.852,2.009 -1.275,4.501 -1.275,7.467 0,2.032 0.236,3.966 0.718,5.801 0.634,2.399 1.575,4.034 2.821,4.912 0.893,0.613 2.144,0.917 3.766,0.917 1.79,0 3.418,-1.16 4.876,-3.476 l 4.816,2.101 c -1.873,4.434 -5.275,6.649 -10.187,6.649 -4.258,0 -7.43,-1.828 -9.533,-5.472 -1.699,-2.964 -2.551,-6.778 -2.551,-11.432 0,-4.495 0.852,-8.271 2.551,-11.335 2.117,-3.776 5.245,-5.663 9.372,-5.663 5.172,0 8.628,2.415 10.348,7.238 L 0,0 Z" /></g><g
             transform="translate(183.373,357.754)"
             id="g8717"><path
               inkscape:connector-curvature="0"
               id="path8719"
               style="fill:#181817;fill-opacity:1;fill-rule:nonzero;stroke:none"
               d="m 0,0 c -0.921,-2.438 -2.663,-3.653 -5.213,-3.653 -2.502,0 -4.32,1.366 -5.467,4.108 -0.837,1.984 -1.261,4.446 -1.261,7.375 0,2.01 0.235,3.919 0.711,5.731 0.627,2.371 1.552,3.988 2.783,4.855 0.883,0.606 2.124,0.908 3.723,0.908 1.768,0 3.376,-1.151 4.82,-3.436 l 4.755,2.075 c -1.848,4.381 -5.21,6.57 -10.064,6.57 -4.205,0 -7.337,-1.806 -9.416,-5.407 -1.681,-2.929 -2.519,-6.697 -2.519,-11.296 0,-4.437 0.838,-8.17 2.519,-11.197 2.094,-3.73 5.18,-5.595 9.257,-5.595 5.112,0 8.526,2.384 10.223,7.15 L 0,0 Z" /></g></g></g><g
         id="g8723"
         clip-path="url(#clipPath8725)"><g
           id="g8729"
           transform="translate(168.303,420.304)"><path
             d="m 0,0 c 0,0 -29.764,0 -29.764,-29.764 l 0,-103.315 c 0,0 0,-29.764 29.764,-29.764 l 333.763,0 c 0,0 29.764,0 29.764,29.764 l 0,103.315 c 0,0 0,29.764 -29.764,29.764 L 0,0 Z"
             style="fill:none;stroke:#231f20;stroke-width:4;stroke-linecap:butt;stroke-linejoin:miter;stroke-miterlimit:4;stroke-dasharray:none;stroke-opacity:1"
             id="path8731"
             inkscape:connector-curvature="0" /></g><g
           id="g8733"
           transform="translate(87.6226,684.499)" /></g></g></g></svg>