<?xml version="1.0" encoding="UTF-8" standalone="no"?>
<!-- Created with Inkscape (http://www.inkscape.org/) -->

<svg
   xmlns:dc="http://purl.org/dc/elements/1.1/"
   xmlns:cc="http://creativecommons.org/ns#"
   xmlns:rdf="http://www.w3.org/1999/02/22-rdf-syntax-ns#"
   xmlns:svg="http://www.w3.org/2000/svg"
   xmlns="http://www.w3.org/2000/svg"
   xmlns:sodipodi="http://sodipodi.sourceforge.net/DTD/sodipodi-0.dtd"
   xmlns:inkscape="http://www.inkscape.org/namespaces/inkscape"
   version="1.0"
   width="74.778618"
   height="95.337372"
   viewBox="-0.512 -0.12 74.778629 95.337386"
   id="svg6273"
   xml:space="preserve"
   inkscape:version="0.48.2 r9819"
   sodipodi:docname="Colombia SI-21.svg"><metadata
   id="metadata9"><rdf:RDF><cc:Work
       rdf:about=""><dc:format>image/svg+xml</dc:format><dc:type
         rdf:resource="http://purl.org/dc/dcmitype/StillImage" /><dc:title></dc:title></cc:Work></rdf:RDF></metadata><sodipodi:namedview
   pagecolor="#ffffff"
   bordercolor="#666666"
   borderopacity="1"
   objecttolerance="10"
   gridtolerance="10"
   guidetolerance="10"
   inkscape:pageopacity="0"
   inkscape:pageshadow="2"
   inkscape:window-width="1280"
   inkscape:window-height="1004"
   id="namedview7"
   showgrid="false"
   inkscape:zoom="4.5313427"
   inkscape:cx="22.516253"
   inkscape:cy="22.995041"
   inkscape:window-x="-8"
   inkscape:window-y="-8"
   inkscape:window-maximized="1"
   inkscape:current-layer="svg6273"
   fit-margin-top="0"
   fit-margin-left="0"
   fit-margin-right="0"
   fit-margin-bottom="0"
   showguides="true"
   inkscape:guide-bbox="true" />
	<defs
   id="defs6275"><marker
   inkscape:stockid="Arrow1Send"
   orient="auto"
   refY="0"
   refX="0"
   id="Arrow1Send"
   style="overflow:visible"><path
     id="path4011"
     d="M 0,0 5,-5 -12.5,0 5,5 0,0 z"
     style="fill-rule:evenodd;stroke:#000000;stroke-width:1pt;marker-start:none"
     transform="matrix(-0.2,0,0,-0.2,-1.2,0)"
     inkscape:connector-curvature="0" /></marker><marker
   inkscape:stockid="Arrow1Mend"
   orient="auto"
   refY="0"
   refX="0"
   id="Arrow1Mend"
   style="overflow:visible"><path
     id="path4005"
     d="M 0,0 5,-5 -12.5,0 5,5 0,0 z"
     style="fill-rule:evenodd;stroke:#000000;stroke-width:1pt;marker-start:none"
     transform="matrix(-0.4,0,0,-0.4,-4,0)"
     inkscape:connector-curvature="0" /></marker><marker
   inkscape:stockid="Arrow2Send"
   orient="auto"
   refY="0"
   refX="0"
   id="Arrow2Send"
   style="overflow:visible"><path
     id="path4029"
     style="font-size:12px;fill-rule:evenodd;stroke-width:0.625;stroke-linejoin:round"
     d="M 8.7185878,4.0337352 -2.2072895,0.01601326 8.7185884,-4.0017078 c -1.7454984,2.3720609 -1.7354408,5.6174519 -6e-7,8.035443 z"
     transform="matrix(-0.3,0,0,-0.3,0.69,0)"
     inkscape:connector-curvature="0" /></marker><marker
   inkscape:stockid="Arrow2Mend"
   orient="auto"
   refY="0"
   refX="0"
   id="Arrow2Mend"
   style="overflow:visible"><path
     id="path4023"
     style="font-size:12px;fill-rule:evenodd;stroke-width:0.625;stroke-linejoin:round"
     d="M 8.7185878,4.0337352 -2.2072895,0.01601326 8.7185884,-4.0017078 c -1.7454984,2.3720609 -1.7354408,5.6174519 -6e-7,8.035443 z"
     transform="scale(-0.6,-0.6)"
     inkscape:connector-curvature="0" /></marker><inkscape:perspective
   sodipodi:type="inkscape:persp3d"
   inkscape:vp_x="0 : 255 : 1"
   inkscape:vp_y="0 : 1000 : 0"
   inkscape:vp_z="512 : 255 : 1"
   inkscape:persp3d-origin="256 : 170 : 1"
   id="perspective11" />
	
		
		
		
	<inkscape:perspective
   id="perspective3609"
   inkscape:persp3d-origin="0.5 : 0.33333333 : 1"
   inkscape:vp_z="1 : 0.5 : 1"
   inkscape:vp_y="0 : 1000 : 0"
   inkscape:vp_x="0 : 0.5 : 1"
   sodipodi:type="inkscape:persp3d" /><inkscape:perspective
   id="perspective5593"
   inkscape:persp3d-origin="0.5 : 0.33333333 : 1"
   inkscape:vp_z="1 : 0.5 : 1"
   inkscape:vp_y="0 : 1000 : 0"
   inkscape:vp_x="0 : 0.5 : 1"
   sodipodi:type="inkscape:persp3d" /><inkscape:perspective
   id="perspective5629"
   inkscape:persp3d-origin="0.5 : 0.33333333 : 1"
   inkscape:vp_z="1 : 0.5 : 1"
   inkscape:vp_y="0 : 1000 : 0"
   inkscape:vp_x="0 : 0.5 : 1"
   sodipodi:type="inkscape:persp3d" /><inkscape:perspective
   id="perspective5757"
   inkscape:persp3d-origin="0.5 : 0.33333333 : 1"
   inkscape:vp_z="1 : 0.5 : 1"
   inkscape:vp_y="0 : 1000 : 0"
   inkscape:vp_x="0 : 0.5 : 1"
   sodipodi:type="inkscape:persp3d" /><inkscape:perspective
   id="perspective5781"
   inkscape:persp3d-origin="0.5 : 0.33333333 : 1"
   inkscape:vp_z="1 : 0.5 : 1"
   inkscape:vp_y="0 : 1000 : 0"
   inkscape:vp_x="0 : 0.5 : 1"
   sodipodi:type="inkscape:persp3d" /><inkscape:perspective
   id="perspective6453"
   inkscape:persp3d-origin="0.5 : 0.33333333 : 1"
   inkscape:vp_z="1 : 0.5 : 1"
   inkscape:vp_y="0 : 1000 : 0"
   inkscape:vp_x="0 : 0.5 : 1"
   sodipodi:type="inkscape:persp3d" /><inkscape:perspective
   id="perspective6549"
   inkscape:persp3d-origin="0.5 : 0.33333333 : 1"
   inkscape:vp_z="1 : 0.5 : 1"
   inkscape:vp_y="0 : 1000 : 0"
   inkscape:vp_x="0 : 0.5 : 1"
   sodipodi:type="inkscape:persp3d" /><inkscape:perspective
   id="perspective2857"
   inkscape:persp3d-origin="0.5 : 0.33333333 : 1"
   inkscape:vp_z="1 : 0.5 : 1"
   inkscape:vp_y="0 : 1000 : 0"
   inkscape:vp_x="0 : 0.5 : 1"
   sodipodi:type="inkscape:persp3d" /><inkscape:perspective
   id="perspective6613"
   inkscape:persp3d-origin="0.5 : 0.33333333 : 1"
   inkscape:vp_z="1 : 0.5 : 1"
   inkscape:vp_y="0 : 1000 : 0"
   inkscape:vp_x="0 : 0.5 : 1"
   sodipodi:type="inkscape:persp3d" /></defs>
	
<path
   d="m 5.8137455,-0.12000002 62.3530105,0 c 3.388875,0 6.099876,2.19687492 6.099876,5.49187592 l 0,83.9143881 c 0,3.5145 -2.711001,5.931125 -6.099876,5.931125 l -62.3530105,0 C 2.19887,95.217389 -0.512,92.800764 -0.512,89.286264 l 0,-83.9143881 c 0,-3.295001 2.71087,-5.49187592 6.3257455,-5.49187592 z"
   style="fill:#007dc2;fill-opacity:1;fill-rule:evenodd;stroke:none"
   id="path6821"
   inkscape:connector-curvature="0"
   sodipodi:nodetypes="sssssssss" /><path
   inkscape:connector-curvature="0"
   id="path3932"
   style="fill:#ffffff;fill-opacity:1;fill-rule:evenodd;stroke:none"
   d="m 7.3952455,9.1065009 58.9641345,0 0,55.7961341 -58.9641345,0"
   sodipodi:nodetypes="cccc" /><path
   d="m 24.429004,87.260879 -1.723126,0 0,-11.992252 -2.054,0 0,-1.606625 3.777126,0 0,13.598877 z m 11.258127,-6.751751 4.442,-6.847126 2.055001,0 -4.569751,6.751876 4.456126,6.847001 -2.142751,0 -4.240625,-6.751751 z m -0.06337,6.751751 -1.706125,0 0,-13.598877 1.706125,0 0,13.598877 z m 12.724377,-5.183501 c 0,-1.252125 -0.151625,-2.160625 -0.4585,-2.72475 -0.30688,-0.567375 -0.79263,-0.851125 -1.457756,-0.851125 -0.68775,0 -1.195875,0.28375 -1.52075,0.853875 -0.328875,0.5705 -0.491875,1.4535 -0.491875,2.64975 l 0,5.255751 -1.521125,0 0,-10.274127 1.4245,0 0,1.205001 c 0.29475,-0.458751 0.628875,-0.803876 1.002,-1.029251 0.37625,-0.226125 0.80075,-0.340875 1.278375,-0.340875 0.646001,0 1.181001,0.14275 1.612626,0.429375 0.4305,0.283875 0.781625,0.733501 1.054125,1.343001 0.275625,-0.596375 0.640625,-1.043126 1.09625,-1.332626 0.452875,-0.29375 1.008125,-0.43975 1.661875,-0.43975 1.004875,0 1.811626,0.379125 2.416126,1.1345 0.6045,0.755501 0.9085,1.765626 0.9085,3.027751 l 0,6.277001 -1.610375,0 0,-5.987126 c 0,-0.87625 -0.166251,-1.558 -0.499251,-2.043 -0.331625,-0.486875 -0.797625,-0.72925 -1.39225,-0.72925 -0.692,0 -1.192625,0.258625 -1.492375,0.7745 -0.305125,0.517 -0.45675,1.390125 -0.45675,2.61325 l 0,5.371626 -1.553375,0"
   style="fill:#ffffff;fill-opacity:1;fill-rule:evenodd;stroke:none"
   id="path4399"
   inkscape:connector-curvature="0" /><path
   style="fill:#000000;fill-opacity:1;fill-rule:evenodd;stroke:none"
   d="M 17.21875 14.21875 L 17.21875 33.96875 L 19.59375 34 L 19.5625 57.96875 L 43.4375 57.96875 L 43.46875 37.65625 C 45.3615 37.921251 45.884625 38.305375 46.1875 39.71875 C 46.9575 44.791375 44.420374 53.203626 47.5625 56.8125 C 49.240625 58.742876 55.5665 59.121125 56.4375 54.1875 C 56.99275 51.045249 55.249375 44.882375 54.65625 41.4375 C 53.873874 37.2735 52.72875 26.85825 51.65625 22 C 51.65625 22 51.755629 19.1765 47.84375 19.65625 L 47.84375 22.46875 L 49.15625 22.46875 C 49.20687 24.223125 50.349875 32.621626 51.03125 37.65625 C 51.510625 40.937376 53.279 49.23925 53.53125 53.0625 C 53.657375 55.17 50.087625 56.019 49.40625 54 C 48.459875 51.161124 49.03125 47.81525 49.03125 42.90625 C 49.03125 38.780126 49.615625 35.03125 43.9375 35.03125 L 43.9375 34.625 L 19.84375 34.625 L 19.84375 34.375 L 43.9375 34.375 L 43.9375 34.09375 L 46.78125 34.09375 L 46.78125 14.21875 L 17.21875 14.21875 z M 21.8125 17.625 L 41.90625 17.625 C 42.68825 17.625 43.3125 18.298625 43.3125 19.09375 L 43.3125 29.21875 C 43.3125 30.013875 42.68825 30.65625 41.90625 30.65625 L 21.8125 30.65625 C 21.030125 30.65625 20.40625 30.013875 20.40625 29.21875 L 20.40625 19.09375 C 20.40625 18.298625 21.030125 17.625 21.8125 17.625 z "
   transform="translate(-0.512,-0.12000002)"
   id="path4401" /></svg>