<?xml version="1.0" encoding="UTF-8" standalone="no"?>
<!-- Created with Inkscape (http://www.inkscape.org/) -->

<svg
   xmlns:dc="http://purl.org/dc/elements/1.1/"
   xmlns:cc="http://creativecommons.org/ns#"
   xmlns:rdf="http://www.w3.org/1999/02/22-rdf-syntax-ns#"
   xmlns:svg="http://www.w3.org/2000/svg"
   xmlns="http://www.w3.org/2000/svg"
   xmlns:sodipodi="http://sodipodi.sourceforge.net/DTD/sodipodi-0.dtd"
   xmlns:inkscape="http://www.inkscape.org/namespaces/inkscape"
   version="1.0"
   width="97.99575"
   height="97.969254"
   viewBox="-0.512 -0.12 97.995769 97.969261"
   id="svg6273"
   xml:space="preserve"
   inkscape:version="0.48.2 r9819"
   sodipodi:docname="AJAX1.svg"><metadata
   id="metadata9"><rdf:RDF><cc:Work
       rdf:about=""><dc:format>image/svg+xml</dc:format><dc:type
         rdf:resource="http://purl.org/dc/dcmitype/StillImage" /><dc:title></dc:title></cc:Work></rdf:RDF></metadata><sodipodi:namedview
   pagecolor="#ffffff"
   bordercolor="#666666"
   borderopacity="1"
   objecttolerance="10"
   gridtolerance="10"
   guidetolerance="10"
   inkscape:pageopacity="0"
   inkscape:pageshadow="2"
   inkscape:window-width="1280"
   inkscape:window-height="1004"
   id="namedview7"
   showgrid="false"
   inkscape:zoom="3.9423069"
   inkscape:cx="24.548601"
   inkscape:cy="32.293409"
   inkscape:window-x="-8"
   inkscape:window-y="-8"
   inkscape:window-maximized="1"
   inkscape:current-layer="svg6273"
   fit-margin-top="0"
   fit-margin-left="0"
   fit-margin-right="0"
   fit-margin-bottom="0"
   showguides="true"
   inkscape:guide-bbox="true" />
	<defs
   id="defs6275"><marker
   inkscape:stockid="Arrow1Send"
   orient="auto"
   refY="0"
   refX="0"
   id="Arrow1Send"
   style="overflow:visible"><path
     id="path4011"
     d="M 0,0 5,-5 -12.5,0 5,5 0,0 z"
     style="fill-rule:evenodd;stroke:#000000;stroke-width:1pt;marker-start:none"
     transform="matrix(-0.2,0,0,-0.2,-1.2,0)"
     inkscape:connector-curvature="0" /></marker><marker
   inkscape:stockid="Arrow1Mend"
   orient="auto"
   refY="0"
   refX="0"
   id="Arrow1Mend"
   style="overflow:visible"><path
     id="path4005"
     d="M 0,0 5,-5 -12.5,0 5,5 0,0 z"
     style="fill-rule:evenodd;stroke:#000000;stroke-width:1pt;marker-start:none"
     transform="matrix(-0.4,0,0,-0.4,-4,0)"
     inkscape:connector-curvature="0" /></marker><marker
   inkscape:stockid="Arrow2Send"
   orient="auto"
   refY="0"
   refX="0"
   id="Arrow2Send"
   style="overflow:visible"><path
     id="path4029"
     style="font-size:12px;fill-rule:evenodd;stroke-width:0.625;stroke-linejoin:round"
     d="M 8.7185878,4.0337352 -2.2072895,0.01601326 8.7185884,-4.0017078 c -1.7454984,2.3720609 -1.7354408,5.6174519 -6e-7,8.035443 z"
     transform="matrix(-0.3,0,0,-0.3,0.69,0)"
     inkscape:connector-curvature="0" /></marker><marker
   inkscape:stockid="Arrow2Mend"
   orient="auto"
   refY="0"
   refX="0"
   id="Arrow2Mend"
   style="overflow:visible"><path
     id="path4023"
     style="font-size:12px;fill-rule:evenodd;stroke-width:0.625;stroke-linejoin:round"
     d="M 8.7185878,4.0337352 -2.2072895,0.01601326 8.7185884,-4.0017078 c -1.7454984,2.3720609 -1.7354408,5.6174519 -6e-7,8.035443 z"
     transform="scale(-0.6,-0.6)"
     inkscape:connector-curvature="0" /></marker><inkscape:perspective
   sodipodi:type="inkscape:persp3d"
   inkscape:vp_x="0 : 255 : 1"
   inkscape:vp_y="0 : 1000 : 0"
   inkscape:vp_z="512 : 255 : 1"
   inkscape:persp3d-origin="256 : 170 : 1"
   id="perspective11" />
	
		
		
		
	<inkscape:perspective
   id="perspective3609"
   inkscape:persp3d-origin="0.5 : 0.33333333 : 1"
   inkscape:vp_z="1 : 0.5 : 1"
   inkscape:vp_y="0 : 1000 : 0"
   inkscape:vp_x="0 : 0.5 : 1"
   sodipodi:type="inkscape:persp3d" /><inkscape:perspective
   id="perspective5593"
   inkscape:persp3d-origin="0.5 : 0.33333333 : 1"
   inkscape:vp_z="1 : 0.5 : 1"
   inkscape:vp_y="0 : 1000 : 0"
   inkscape:vp_x="0 : 0.5 : 1"
   sodipodi:type="inkscape:persp3d" /><inkscape:perspective
   id="perspective5629"
   inkscape:persp3d-origin="0.5 : 0.33333333 : 1"
   inkscape:vp_z="1 : 0.5 : 1"
   inkscape:vp_y="0 : 1000 : 0"
   inkscape:vp_x="0 : 0.5 : 1"
   sodipodi:type="inkscape:persp3d" /><inkscape:perspective
   id="perspective5757"
   inkscape:persp3d-origin="0.5 : 0.33333333 : 1"
   inkscape:vp_z="1 : 0.5 : 1"
   inkscape:vp_y="0 : 1000 : 0"
   inkscape:vp_x="0 : 0.5 : 1"
   sodipodi:type="inkscape:persp3d" /><inkscape:perspective
   id="perspective5781"
   inkscape:persp3d-origin="0.5 : 0.33333333 : 1"
   inkscape:vp_z="1 : 0.5 : 1"
   inkscape:vp_y="0 : 1000 : 0"
   inkscape:vp_x="0 : 0.5 : 1"
   sodipodi:type="inkscape:persp3d" /><inkscape:perspective
   id="perspective6453"
   inkscape:persp3d-origin="0.5 : 0.33333333 : 1"
   inkscape:vp_z="1 : 0.5 : 1"
   inkscape:vp_y="0 : 1000 : 0"
   inkscape:vp_x="0 : 0.5 : 1"
   sodipodi:type="inkscape:persp3d" /><inkscape:perspective
   id="perspective6549"
   inkscape:persp3d-origin="0.5 : 0.33333333 : 1"
   inkscape:vp_z="1 : 0.5 : 1"
   inkscape:vp_y="0 : 1000 : 0"
   inkscape:vp_x="0 : 0.5 : 1"
   sodipodi:type="inkscape:persp3d" /><inkscape:perspective
   id="perspective2857"
   inkscape:persp3d-origin="0.5 : 0.33333333 : 1"
   inkscape:vp_z="1 : 0.5 : 1"
   inkscape:vp_y="0 : 1000 : 0"
   inkscape:vp_x="0 : 0.5 : 1"
   sodipodi:type="inkscape:persp3d" /><inkscape:perspective
   id="perspective6613"
   inkscape:persp3d-origin="0.5 : 0.33333333 : 1"
   inkscape:vp_z="1 : 0.5 : 1"
   inkscape:vp_y="0 : 1000 : 0"
   inkscape:vp_x="0 : 0.5 : 1"
   sodipodi:type="inkscape:persp3d" /></defs>
	
<path
   inkscape:connector-curvature="0"
   d="m 5.9885,-0.12000555 85.22689,0 c 3.48225,0 6.268379,2.25812505 6.268379,5.64337565 l 0,86.2310169 c 0,3.610626 -2.786749,6.094876 -6.268379,6.094876 l -85.22689,0 c -3.71375,0 -6.5005,-2.483125 -6.5005,-6.094876 l 0,-86.2310169 c 0,-3.3860006 2.786,-5.64337565 6.5005,-5.64337565"
   style="fill:#007dc2;fill-opacity:1;fill-rule:evenodd;stroke:none"
   id="path3413" /><path
   inkscape:connector-curvature="0"
   d="m 9.2165,45.057503 76.50952,24.65013 c 0.461,0.148125 0.72325,0.64125 0.57862,1.104 l 0,0 c -0.1445,0.46275 -0.64412,0.727125 -1.10437,0.578625 L 8.69063,46.740254 C 8.23038,46.591753 7.9675,46.098878 8.112,45.636128 l 0,0 c 0.14463,-0.463125 0.64313,-0.727125 1.1045,-0.578625"
   style="fill:#ffffff;fill-opacity:1;fill-rule:evenodd;stroke:none"
   id="path3415" /><path
   inkscape:connector-curvature="0"
   d="m 30.40113,22.554623 c 2.08313,0.194625 3.62525,2.052626 3.43075,4.137627 -0.19462,2.08275 -2.05412,3.623 -4.13725,3.4285 -2.08312,-0.19425 -3.62475,-2.052375 -3.43062,-4.1355 0.1945,-2.083001 2.05412,-3.624752 4.13712,-3.430627"
   style="fill:#ffffff;fill-opacity:1;fill-rule:evenodd;stroke:none"
   id="path3419" /><path
   inkscape:connector-curvature="0"
   d="m 25.33138,34.910501 3.21625,13.459628 2.103,-1.420875 -2.62625,-13.878003 c 0.42513,-1.67325 -3.89587,-5.555251 -8.43913,-2.08 -2.89237,1.042125 -11.42262,9.643126 -10.108,11.727627 -0.3855,2.136625 4.85888,3.1865 11.65175,4.453626 l -7.60712,7.076001 c -1.4035,1.2125 0.83625,3.295251 2.3145,1.598375 l 8.80163,-8.764751 c 1.46087,-1.947001 -2.43713,-3.553251 -6.87901,-3.920626 -2.92075,-0.862125 -0.42512,-4.589001 7.57238,-8.251002"
   style="fill:#ffffff;fill-opacity:1;fill-rule:evenodd;stroke:none"
   id="path3423" /><path
   inkscape:connector-curvature="0"
   d="m 77.89814,40.572752 c -1.74575,-1.153 -4.11163,-0.67 -5.26538,1.077126 -1.153,1.745875 -0.6675,4.111 1.07788,5.264001 1.74587,1.153 4.11175,0.67 5.26475,-1.075751 1.15288,-1.745875 0.66863,-4.112375 -1.07725,-5.265376"
   style="fill:#ffffff;fill-opacity:1;fill-rule:evenodd;stroke:none"
   id="path3427" /><path
   inkscape:connector-curvature="0"
   d="m 76.76714,52.351755 -9.77175,7.314501 -1.91438,-1.26 10.739,-9.174752 c 0.71613,-1.571125 6.51613,-1.891 7.88138,3.663126 1.60263,2.62375 4.03125,13.506752 1.70075,14.308502 -1.0375,1.907376 -5.03637,0.08125 -11.12625,-3.185 l 4.37913,7.294251 c 0.49575,1.66425 -1.96863,3.325001 -3.01813,1.129875 l -4.62938,-8.379126 c -2.41437,-5.400376 6.61176,-2.960126 7.66063,-1.701501 2.81725,1.156876 2.04088,-2.1465 -1.901,-10.009876"
   style="fill:#ffffff;fill-opacity:1;fill-rule:evenodd;stroke:none"
   id="path3431" /><path
   inkscape:connector-curvature="0"
   d="m 31.06126,79.070385 32.16438,0 c 0.73387,0 1.37837,-0.791876 1.44462,-1.550501 -0.67212,-1.538875 -11.55537,-11.665627 -17.2775,-17.443378 -5.92513,5.833001 -17.376,16.826878 -17.66475,17.609503 -0.26363,0.714376 0.59987,1.384376 1.33325,1.384376"
   style="fill:#ffffff;fill-opacity:1;fill-rule:evenodd;stroke:none"
   id="path3435" /></svg>