<?xml version="1.0" encoding="UTF-8" standalone="no"?>
<!-- Created with Inkscape (http://www.inkscape.org/) -->

<svg
   xmlns:dc="http://purl.org/dc/elements/1.1/"
   xmlns:cc="http://creativecommons.org/ns#"
   xmlns:rdf="http://www.w3.org/1999/02/22-rdf-syntax-ns#"
   xmlns:svg="http://www.w3.org/2000/svg"
   xmlns="http://www.w3.org/2000/svg"
   xmlns:sodipodi="http://sodipodi.sourceforge.net/DTD/sodipodi-0.dtd"
   xmlns:inkscape="http://www.inkscape.org/namespaces/inkscape"
   width="45.400002cm"
   height="45.400002cm"
   viewBox="0 0 454.00002 454.00001"
   version="1.1"
   id="svg8"
   inkscape:version="0.92.2 (5c3e80d, 2017-08-06)"
   sodipodi:docname="99.svg">
  <defs
     id="defs2">
    <clipPath
       clipPathUnits="userSpaceOnUse"
       id="clipPath1987">
      <path
         d="m 198.985,357.312 h 292.05 v 340.724 h -292.05 z"
         id="path1985"
         inkscape:connector-curvature="0" />
    </clipPath>
  </defs>
  <sodipodi:namedview
     id="base"
     pagecolor="#ffffff"
     bordercolor="#666666"
     borderopacity="1.0"
     inkscape:pageopacity="0.0"
     inkscape:pageshadow="2"
     inkscape:zoom="0.35"
     inkscape:cx="629.23405"
     inkscape:cy="661.33742"
     inkscape:document-units="cm"
     inkscape:current-layer="layer1"
     showgrid="false"
     units="cm"
     inkscape:window-width="1920"
     inkscape:window-height="1057"
     inkscape:window-x="-8"
     inkscape:window-y="-8"
     inkscape:window-maximized="1"
     fit-margin-top="0"
     fit-margin-left="0"
     fit-margin-right="0"
     fit-margin-bottom="0" />
  <metadata
     id="metadata5">
    <rdf:RDF>
      <cc:Work
         rdf:about="">
        <dc:format>image/svg+xml</dc:format>
        <dc:type
           rdf:resource="http://purl.org/dc/dcmitype/StillImage" />
        <dc:title></dc:title>
      </cc:Work>
    </rdf:RDF>
  </metadata>
  <g
     inkscape:label="Layer 1"
     inkscape:groupmode="layer"
     id="layer1"
     transform="translate(-111,492.99995)">
    <rect
       style="opacity:1;fill:#146a50;fill-opacity:1;stroke:none;stroke-width:70.48668671;stroke-linejoin:round;stroke-miterlimit:4;stroke-dasharray:none;stroke-opacity:1"
       id="rect815"
       width="450"
       height="450"
       x="113"
       y="-490.99991"
       rx="30"
       ry="30" />
    <rect
       y="-483.99991"
       x="120"
       height="436"
       width="436"
       id="rect817"
       style="opacity:1;fill:#ffffff;fill-opacity:1;stroke:none;stroke-width:68.29376984;stroke-linejoin:round;stroke-miterlimit:4;stroke-dasharray:none;stroke-opacity:1"
       rx="23"
       ry="23" />
    <rect
       y="-474.99991"
       x="129"
       height="418"
       width="418"
       id="rect819"
       style="opacity:1;fill:#146a50;fill-opacity:1;stroke:none;stroke-width:65.4743042;stroke-linejoin:round;stroke-miterlimit:4;stroke-dasharray:none;stroke-opacity:1"
       rx="14"
       ry="14" />
    <path
       d="m 336.89742,-367.78022 -0.67357,-1.20984 41.4127,-14.38712 0.9417,0.67229 -17.47907,20.84168 h -2.55437 z m 8.11858,14.77716 c 0,0 4.66098,1.94623 5.02022,2.04886 0.35793,0.10267 0.92115,0.81983 0.92115,0.81983 l -3.78984,5.17162 c 0.0821,-2.82382 -0.73,-5.48853 -2.15153,-8.04031 m -27.15771,12.54478 1.56904,-0.45288 0.9353,2.29649 12.82189,-3.93485 -0.21936,-2.25801 9.7402,-2.80455 1.19958,5.71689 -21.52807,24.02469 -2.25929,-0.37717 -4.76362,-14.0433 z m 9.66964,44.40326 c -1.16491,-0.65174 -1.0969,-1.71402 -1.64474,-2.56979 0.47983,-3.23946 1.95267,-4.98684 4.62637,-4.93426 1.28551,2.50048 0.9417,5.00227 -2.98163,7.50405 m -12.83088,-2.28111 c 0.65178,-1.16622 1.71535,-1.09821 2.57107,-1.64602 3.23947,0.4798 4.98688,1.95392 4.93299,4.62506 -2.50049,1.28682 -5.001,0.94425 -7.50406,-2.97904 m 2.38633,-12.93223 c 1.16491,0.65047 1.09437,1.71275 1.64347,2.56975 -0.47856,3.23691 -1.9514,4.98429 -4.62505,4.93429 -1.28683,-2.50179 -0.94301,-5.00356 2.98158,-7.50404 m 12.8296,2.48636 c -0.65174,1.16365 -1.71533,1.09564 -2.57106,1.64348 -3.23691,-0.47983 -4.98557,-1.95268 -4.9317,-4.62378 2.49924,-1.28551 5.00099,-0.94298 7.50276,2.9803 m -26.0377,1.17906 c 0.0335,-0.78389 0.0539,-1.57033 0.0539,-2.36195 0,-7.48993 -1.51389,-14.63857 -4.24789,-21.15731 5.62066,-2.4145 9.51828,-4.06696 9.51828,-4.06696 l 6.88439,18.6876 c -3.67568,1.73069 -6.48922,5.0048 -7.59769,8.97816 z m -14.28317,-19.15204 c 2.20797,5.20624 3.42806,10.92698 3.42806,16.92094 0,0.6864 -0.0182,1.36509 -0.0488,2.04251 l -33.99078,-0.58763 c 0.45932,-1.08793 0.49394,-2.38755 0.10264,-3.90145 -0.22578,-0.87115 16.36034,-8.3072 30.50881,-14.47437 m -40.15283,-26.65991 c 17.01594,0 31.80717,9.83774 38.97762,24.11707 l -31.17078,14.43974 c -2.3119,-2.87899 -5.23064,-4.457 -9.03459,-4.14141 -6.45587,0.35797 -9.62478,4.38387 -10.54211,10.918 1.73199,7.6657 6.35964,10.7063 13.41334,10.0674 2.11945,-0.73004 6.86769,-3.73985 7.17947,-7.09095 l 34.22294,2.09251 c -3.29336,20.78141 -21.36384,36.75938 -43.04589,36.75938 -24.00417,0 -43.58084,-19.57666 -43.58084,-43.58089 0,-24.00287 19.57667,-43.58085 43.58084,-43.58085 m 177.75802,0 c 24.00419,0 43.58216,19.57798 43.58216,43.58085 0,24.00423 -19.57797,43.58089 -43.58216,43.58089 -24.00291,0 -43.58089,-19.57666 -43.58089,-43.58089 0,-16.98509 9.80952,-31.75581 24.04782,-38.94041 l 16.35907,41.44478 c 7.37444,5.02536 11.64542,-1.82437 5.2704,-4.14013 l -2.31959,-3.26128 -12.63588,-34.70536 -0.59017,-1.84619 c 4.23763,-1.38302 8.75876,-2.13226 13.44928,-2.13226 m -0.16166,-11.51457 c -5.73226,0 -11.26054,0.88653 -16.46165,2.52485 l -1.84492,-4.51345 -2.39912,-1.40098 -2.6365,-7.90434 -3.2292,-0.0539 -1.57674,-2.68781 -6.86384,-18.3412 c 1.22649,-1.95267 1.12772,-3.31776 -1.88212,-3.38704 l -6.45456,-19.82302 10.54207,-6.02476 0.99559,2.38115 4.61735,-1.41764 0.41056,-4.3531 1.20343,-0.85703 c 7.24358,5.92344 9.28092,3.34598 2.67111,-1.90776 l 1.39585,-0.99683 c -1.20598,-3.07785 -3.11759,-3.56666 -5.73481,-1.46644 -0.71974,-2.21951 -2.70322,-4.2915 -4.80598,-5.68866 -2.05785,0.29381 -3.05345,1.29068 -2.99315,2.99699 -0.13085,1.83467 2.1156,3.94896 5.98629,6.25574 l -1.90518,0.9545 -1.75254,-2.67624 c -4.26455,-1.67428 -18.66963,-1.6114 -23.16769,-0.2258 -1.06742,1.26372 -1.19314,2.64419 -0.37717,4.1414 l 18.56184,0.2245 -7.21663,4.98302 -1.34581,-0.6928 -4.23764,1.35611 -0.7159,2.08479 1.0084,4.01183 2.04119,0.0284 6.75608,17.08645 0.24119,1.76408 c -1.40869,1.24063 -1.11103,2.30165 0.36309,2.6583 l 0.28225,2.05916 -61.12408,22.50825 -21.45752,-5.64887 -0.55809,-1.61399 c 8.24943,-3.92069 0.20398,-2.60438 -0.92246,-2.67882 l -9.81334,-28.4586 6.39939,-4.14141 c 4.02081,-0.4734 9.21036,-0.55809 15.19924,-0.37717 l -0.86856,-2.62751 c -5.93884,-3.23691 -12.36648,-3.84377 -22.23626,-1.5139 -7.12429,-1.1739 -13.18244,-1.95009 -17.68691,-2.14382 -3.50891,1.36251 -4.51857,3.38188 -3.77318,7.03833 1.38817,0.48238 1.91419,2.31446 4.16064,1.44844 l 4.50064,1.56394 5.2691,1.5139 c -0.13599,2.18357 2.40813,3.93739 6.53027,4.27993 l 7.91329,24.68287 c -3.43061,1.85132 -3.09705,2.88667 1.00457,3.10221 l 6.257,19.34065 5.03176,0.68636 -0.75309,-4.8034 1.75766,-0.12445 29.10522,8.16863 0.8378,3.38958 -9.23219,2.81094 -0.66584,-1.2406 -12.65513,3.2818 -0.13344,2.05657 -6.14026,1.87187 -0.88522,-1.76793 -4.78544,1.76793 0.88268,3.24971 -9.25787,4.28895 c -8.93066,-18.3245 -27.75428,-31.00271 -49.44658,-31.00271 -30.2753,0 -54.96455,24.69053 -54.96455,54.96456 0,30.27531 24.68925,54.96461 54.96455,54.96461 27.68885,0 50.7026,-20.65438 54.43218,-47.34381 l 4.67384,0.28482 0.005,0.004 c 0.84163,6.96007 6.79711,12.38186 13.97912,12.38186 1.21755,0 2.39789,-0.15525 3.52814,-0.44906 l 5.92345,9.79286 -0.0706,0.59144 -1.67165,0.38102 c -0.81598,0.77747 -0.96224,1.78716 -0.44263,3.03421 l 4.00539,-0.10776 c 0.79801,2.00526 3.79115,2.41195 4.57888,0.38102 h 4.7085 c 0.27198,-0.7133 0.22962,-1.34838 -0.12704,-1.90648 l -1.81924,-2.08607 -2.97645,-0.0295 -7.31031,-12.3421 c 3.48454,-2.5659 5.75535,-6.69575 5.75535,-11.34135 0,-2.93925 -0.91217,-5.67197 -2.46199,-7.93383 l -0.004,-0.15781 57.49974,-65.57722 1.66271,-0.0885 3.70773,7.68875 4.14014,3.01239 -1.0623,2.37991 2.38247,5.55519 c -17.74721,9.13214 -29.93148,27.64398 -29.93148,48.9116 0,30.27528 24.69057,54.9646 54.96587,54.9646 30.27292,1.7e-4 54.96483,-24.68913 54.96483,-54.96443 0,-30.27403 -24.69191,-54.96457 -54.96462,-54.96457"
       style="fill:#ffffff;fill-opacity:1;fill-rule:evenodd;stroke:none;stroke-width:1.2829603"
       id="path6081"
       inkscape:connector-curvature="0" />
    <path
       d="m 463.50482,-92.193329 3.38877,-9.227731 3.22962,9.227731 z m -10.68101,14.500082 h 5.56621 l 3.26859,-9.193666 h 10.33841 l 3.27021,9.193666 h 5.5662 L 469.4315,-110.64556 h -5.20575 z m -21.3612,0 h 5.20414 v -28.340863 h 7.71278 v -4.61145 h -20.4316 v 4.61145 h 7.51468 z m -38.37565,-32.952313 v 21.980651 c 0.0276,3.338417 1.00837,6.074432 2.96661,8.204812 2.04104,2.237486 4.75432,3.361159 8.13499,3.361159 3.38385,0 6.12962,-1.162612 8.24214,-3.492705 2.03617,-2.266765 3.06235,-5.096943 3.06235,-8.503577 v -21.55034 h -5.20732 v 21.680269 c 0,1.808841 -0.56996,3.33193 -1.71471,4.582228 -1.13499,1.255118 -2.59637,1.878656 -4.38246,1.878656 -1.92902,0 -3.43747,-0.699848 -4.51078,-2.107648 -0.99535,-1.27786 -1.48411,-2.898345 -1.48411,-4.874498 v -21.159007 z m -25.75588,13.278968 v -8.073258 h 6.72719 c 1.26977,0 2.36094,0.36039 3.27509,1.08302 0.9142,0.72908 1.37047,1.71471 1.37047,2.9666 0,1.32334 -0.50985,2.354454 -1.51495,3.099727 -0.92391,0.66086 -2.05407,0.967779 -3.39853,0.923911 z m -5.10666,19.673345 h 5.10666 v -14.331214 h 6.25629 l 5.34379,14.331214 h 5.69609 l -5.82437,-15.38179 c 1.56204,-0.771239 2.80584,-1.915988 3.73462,-3.43259 0.93851,-1.514945 1.40126,-3.143583 1.40126,-4.874493 0,-2.72786 -0.94664,-4.95891 -2.84476,-6.68821 -1.90628,-1.7374 -4.2315,-2.60612 -6.97401,-2.60612 l -11.89557,0.0322 z m -25.75426,-19.673345 v -8.073258 h 6.72558 c 1.26976,0 2.36089,0.36039 3.27509,1.08302 0.91415,0.72908 1.37042,1.71471 1.37042,2.9666 0,1.32334 -0.50985,2.354454 -1.51495,3.099727 -0.92391,0.66086 -2.05241,0.967779 -3.39849,0.923911 z m -5.10505,19.673345 h 5.10505 v -14.331214 h 6.25794 l 5.34374,14.331214 h 5.6961 l -5.82764,-15.38179 c 1.56042,-0.771239 2.8091,-1.915988 3.73789,-3.43259 0.9385,-1.514945 1.39804,-3.143583 1.39804,-4.874493 0,-2.72786 -0.94665,-4.95891 -2.84643,-6.68821 -1.90467,-1.7374 -4.22662,-2.60612 -6.97238,-2.60612 l -11.89231,0.0322 z m -13.70119,-16.735961 c 0,3.052633 -0.38479,5.595422 -1.15451,7.639732 -1.1204,2.922745 -2.94221,4.382465 -5.47363,4.382465 -2.39177,0 -4.11458,-1.45972 -5.17326,-4.382465 -0.72259,-1.997228 -1.08468,-4.458817 -1.08468,-7.378298 0,-2.87732 0.36223,-5.329159 1.08468,-7.352346 1.05868,-2.98285 2.73602,-4.47345 5.04171,-4.47345 2.5769,0 4.42798,1.36071 5.57595,4.08053 0.79242,1.930612 1.18374,4.429542 1.18374,7.483832 m 5.24309,0.261434 c 0,-4.853412 -0.79242,-8.721146 -2.37719,-11.596806 -1.99722,-3.69081 -5.17326,-5.53535 -9.51517,-5.53535 -4.17626,0 -7.24353,1.89002 -9.19689,5.66685 -1.53769,2.92114 -2.30574,6.665512 -2.30574,11.233101 0,4.742943 0.76805,8.604237 2.30574,11.564314 1.9761,3.888907 5.12617,5.83573 9.45672,5.83573 4.17299,0 7.27276,-1.922474 9.29594,-5.767523 1.55233,-3.007208 2.33659,-6.813258 2.33659,-11.400316 m -52.28304,16.474527 h 20.42998 v -4.773838 h -15.35416 v -28.178475 h -5.07582 z m -13.3992,-8.534413 c -0.94016,2.482714 -2.70839,3.723253 -5.30803,3.723253 -2.5444,0 -4.39549,-1.394817 -5.56459,-4.186016 -0.85409,-2.018304 -1.2844,-4.525377 -1.2844,-7.509843 0,-2.04431 0.23889,-3.989577 0.72259,-5.835744 0.63979,-2.4145 1.58317,-4.05938 2.83833,-4.9443 0.89791,-0.61217 2.16118,-0.92069 3.7882,-0.92069 1.80235,0 3.43747,1.16748 4.90695,3.49757 l 4.84365,-2.11574 c -1.88353,-4.45882 -5.30481,-6.68821 -10.25073,-6.68821 -4.28019,0 -7.47248,1.83806 -9.58499,5.50448 -1.71789,2.98281 -2.56876,6.821362 -2.56876,11.502634 0,4.522154 0.85087,8.32006 2.56876,11.400316 2.12876,3.80123 5.2723,5.701012 9.42587,5.701012 5.20571,0 8.67895,-2.430763 10.40985,-7.284125 z m -31.19219,8.534413 h 5.27231 v -32.955583 h -5.27231 z m -13.40403,-8.534413 c -0.93528,2.482714 -2.70518,3.723253 -5.30476,3.723253 -2.54279,0 -4.39549,-1.394817 -5.56458,-4.186016 -0.85248,-2.018304 -1.2844,-4.525377 -1.2844,-7.509843 0,-2.04431 0.23703,-3.989577 0.72254,-5.835744 0.63817,-2.4145 1.58481,-4.05938 2.83671,-4.9443 0.90118,-0.61217 2.16118,-0.92069 3.78982,-0.92069 1.80073,0 3.43747,1.16748 4.90699,3.49757 l 4.84361,-2.11574 c -1.88353,-4.45882 -5.30476,-6.68821 -10.25069,-6.68821 -4.28024,0 -7.47252,1.83806 -9.5866,5.50448 -1.71471,2.98281 -2.56719,6.821362 -2.56719,11.502634 0,4.522154 0.85248,8.32006 2.56719,11.400316 2.12872,3.80123 5.27391,5.701012 9.42744,5.701012 5.20414,0 8.67894,-2.430763 10.40985,-7.284125 z"
       style="fill:#ffffff;fill-opacity:1;fill-rule:nonzero;stroke:none;stroke-width:1.62374759"
       id="path2134"
       inkscape:connector-curvature="0"
       sodipodi:nodetypes="cccccccccccccccccccccccccscsccscscsccccscscccccccccccsccccccscscccccccccccsccccccscscsccccscscsccccccccccscsccsccscscsccccccccscsccsccscscscc" />
    <path
       inkscape:connector-curvature="0"
       id="path2764"
       style="fill:#ffffff;fill-opacity:1;fill-rule:nonzero;stroke:none;stroke-width:1.62601542"
       d="m 348.11388,-133.99993 h 5.11056 v -22.33496 l 12.67317,22.33496 h 4.65199 v -32.99673 h -5.21136 v 21.08777 l -12.1138,-21.08777 h -5.11056 z m -13.75286,0 h 5.28295 v -33 h -5.28295 z m -28.91101,0 h 5.11385 v -14.45041 h 9.63898 v -5.28129 h -9.63898 v -8.0862 h 15.34307 v -5.17883 h -20.45692 z"
       sodipodi:nodetypes="ccccccccccccccccccccccccccc" />
    <rect
       style="opacity:1;fill:#be141e;fill-opacity:1;fill-rule:nonzero;stroke:none;stroke-width:0.2676028;stroke-opacity:1"
       id="rect2768"
       width="40"
       height="480"
       x="21.012238"
       y="-672.534"
       transform="rotate(45)" />
  </g>
</svg>
