<?xml version="1.0" encoding="UTF-8" standalone="no"?>
<!-- Created with Inkscape (http://www.inkscape.org/) -->

<svg
   xmlns:dc="http://purl.org/dc/elements/1.1/"
   xmlns:cc="http://creativecommons.org/ns#"
   xmlns:rdf="http://www.w3.org/1999/02/22-rdf-syntax-ns#"
   xmlns:svg="http://www.w3.org/2000/svg"
   xmlns="http://www.w3.org/2000/svg"
   xmlns:sodipodi="http://sodipodi.sourceforge.net/DTD/sodipodi-0.dtd"
   xmlns:inkscape="http://www.inkscape.org/namespaces/inkscape"
   width="45.400002cm"
   height="45.400002cm"
   viewBox="0 0 454.00002 454.00001"
   version="1.1"
   id="svg8"
   inkscape:version="0.92.2 (5c3e80d, 2017-08-06)"
   sodipodi:docname="77.svg">
  <defs
     id="defs2">
    <clipPath
       clipPathUnits="userSpaceOnUse"
       id="clipPath1987">
      <path
         d="m 198.985,357.312 h 292.05 v 340.724 h -292.05 z"
         id="path1985"
         inkscape:connector-curvature="0" />
    </clipPath>
  </defs>
  <sodipodi:namedview
     id="base"
     pagecolor="#ffffff"
     bordercolor="#666666"
     borderopacity="1.0"
     inkscape:pageopacity="0.0"
     inkscape:pageshadow="2"
     inkscape:zoom="0.35"
     inkscape:cx="915.98376"
     inkscape:cy="661.33742"
     inkscape:document-units="cm"
     inkscape:current-layer="layer1"
     showgrid="false"
     units="cm"
     inkscape:window-width="1920"
     inkscape:window-height="1057"
     inkscape:window-x="-8"
     inkscape:window-y="-8"
     inkscape:window-maximized="1"
     fit-margin-top="0"
     fit-margin-left="0"
     fit-margin-right="0"
     fit-margin-bottom="0" />
  <metadata
     id="metadata5">
    <rdf:RDF>
      <cc:Work
         rdf:about="">
        <dc:format>image/svg+xml</dc:format>
        <dc:type
           rdf:resource="http://purl.org/dc/dcmitype/StillImage" />
        <dc:title></dc:title>
      </cc:Work>
    </rdf:RDF>
  </metadata>
  <g
     inkscape:label="Layer 1"
     inkscape:groupmode="layer"
     id="layer1"
     transform="translate(-111,492.99995)">
    <rect
       style="opacity:1;fill:#146a50;fill-opacity:1;stroke:none;stroke-width:70.48668671;stroke-linejoin:round;stroke-miterlimit:4;stroke-dasharray:none;stroke-opacity:1"
       id="rect815"
       width="450"
       height="450"
       x="113"
       y="-490.99991"
       rx="30"
       ry="30" />
    <rect
       y="-483.99991"
       x="120"
       height="436"
       width="436"
       id="rect817"
       style="opacity:1;fill:#ffffff;fill-opacity:1;stroke:none;stroke-width:68.29376984;stroke-linejoin:round;stroke-miterlimit:4;stroke-dasharray:none;stroke-opacity:1"
       rx="23"
       ry="23" />
    <rect
       y="-474.99991"
       x="129"
       height="418"
       width="418"
       id="rect819"
       style="opacity:1;fill:#146a50;fill-opacity:1;stroke:none;stroke-width:65.4743042;stroke-linejoin:round;stroke-miterlimit:4;stroke-dasharray:none;stroke-opacity:1"
       rx="14"
       ry="14" />
    <path
       d="m 336.89742,-367.7802 -0.67357,-1.20984 41.4127,-14.38712 0.9417,0.67229 -17.47907,20.84168 h -2.55437 z m 8.11858,14.77716 c 0,0 4.66098,1.94623 5.02022,2.04886 0.35793,0.10267 0.92115,0.81983 0.92115,0.81983 l -3.78984,5.17162 c 0.0821,-2.82382 -0.73,-5.48853 -2.15153,-8.04031 m -27.15771,12.54478 1.56904,-0.45288 0.9353,2.29649 12.82189,-3.93485 -0.21936,-2.25801 9.7402,-2.80455 1.19958,5.71689 -21.52807,24.02469 -2.25929,-0.37717 -4.76362,-14.0433 z m 9.66964,44.40326 c -1.16491,-0.65174 -1.0969,-1.71402 -1.64474,-2.56979 0.47983,-3.23946 1.95267,-4.98684 4.62637,-4.93426 1.28551,2.50048 0.9417,5.00227 -2.98163,7.50405 m -12.83088,-2.28111 c 0.65178,-1.16622 1.71535,-1.09821 2.57107,-1.64602 3.23947,0.4798 4.98688,1.95392 4.93299,4.62506 -2.50049,1.28682 -5.001,0.94425 -7.50406,-2.97904 m 2.38633,-12.93223 c 1.16491,0.65047 1.09437,1.71275 1.64347,2.56975 -0.47856,3.23691 -1.9514,4.98429 -4.62505,4.93429 -1.28683,-2.50179 -0.94301,-5.00356 2.98158,-7.50404 m 12.8296,2.48636 c -0.65174,1.16365 -1.71533,1.09564 -2.57106,1.64348 -3.23691,-0.47983 -4.98557,-1.95268 -4.9317,-4.62378 2.49924,-1.28551 5.00099,-0.94298 7.50276,2.9803 m -26.0377,1.17906 c 0.0335,-0.78389 0.0539,-1.57033 0.0539,-2.36195 0,-7.48993 -1.51389,-14.63857 -4.24789,-21.15731 5.62066,-2.4145 9.51828,-4.06696 9.51828,-4.06696 l 6.88439,18.6876 c -3.67568,1.73069 -6.48922,5.0048 -7.59769,8.97816 z m -14.28317,-19.15204 c 2.20797,5.20624 3.42806,10.92698 3.42806,16.92094 0,0.6864 -0.0182,1.36509 -0.0488,2.04251 l -33.99078,-0.58763 c 0.45932,-1.08793 0.49394,-2.38755 0.10264,-3.90145 -0.22578,-0.87115 16.36034,-8.3072 30.50881,-14.47437 m -40.15283,-26.65991 c 17.01594,0 31.80717,9.83774 38.97762,24.11707 l -31.17078,14.43974 c -2.3119,-2.87899 -5.23064,-4.457 -9.03459,-4.14141 -6.45587,0.35797 -9.62478,4.38387 -10.54211,10.918 1.73199,7.6657 6.35964,10.7063 13.41334,10.0674 2.11945,-0.73004 6.86769,-3.73985 7.17947,-7.09095 l 34.22294,2.09251 c -3.29336,20.78141 -21.36384,36.75938 -43.04589,36.75938 -24.00417,0 -43.58084,-19.57666 -43.58084,-43.58089 0,-24.00287 19.57667,-43.58085 43.58084,-43.58085 m 177.75802,0 c 24.00419,0 43.58216,19.57798 43.58216,43.58085 0,24.00423 -19.57797,43.58089 -43.58216,43.58089 -24.00291,0 -43.58089,-19.57666 -43.58089,-43.58089 0,-16.98509 9.80952,-31.75581 24.04782,-38.94041 l 16.35907,41.44478 c 7.37444,5.02536 11.64542,-1.82437 5.2704,-4.14013 l -2.31959,-3.26128 -12.63588,-34.70536 -0.59017,-1.84619 c 4.23763,-1.38302 8.75876,-2.13226 13.44928,-2.13226 m -0.16166,-11.51457 c -5.73226,0 -11.26054,0.88653 -16.46165,2.52485 l -1.84492,-4.51345 -2.39912,-1.40098 -2.6365,-7.90434 -3.2292,-0.0539 -1.57674,-2.68781 -6.86384,-18.3412 c 1.22649,-1.95267 1.12772,-3.31776 -1.88212,-3.38704 l -6.45456,-19.82302 10.54207,-6.02476 0.99559,2.38115 4.61735,-1.41764 0.41056,-4.3531 1.20343,-0.85703 c 7.24358,5.92344 9.28092,3.34598 2.67111,-1.90776 l 1.39585,-0.99683 c -1.20598,-3.07785 -3.11759,-3.56666 -5.73481,-1.46644 -0.71974,-2.21951 -2.70322,-4.2915 -4.80598,-5.68866 -2.05785,0.29381 -3.05345,1.29068 -2.99315,2.99699 -0.13085,1.83467 2.1156,3.94896 5.98629,6.25574 l -1.90518,0.9545 -1.75254,-2.67624 c -4.26455,-1.67428 -18.66963,-1.6114 -23.16769,-0.2258 -1.06742,1.26372 -1.19314,2.64419 -0.37717,4.1414 l 18.56184,0.2245 -7.21663,4.98302 -1.34581,-0.6928 -4.23764,1.35611 -0.7159,2.08479 1.0084,4.01183 2.04119,0.0284 6.75608,17.08645 0.24119,1.76408 c -1.40869,1.24063 -1.11103,2.30165 0.36309,2.6583 l 0.28225,2.05916 -61.12408,22.50825 -21.45752,-5.64887 -0.55809,-1.61399 c 8.24943,-3.92069 0.20398,-2.60438 -0.92246,-2.67882 l -9.81334,-28.4586 6.39939,-4.14141 c 4.02081,-0.4734 9.21036,-0.55809 15.19924,-0.37717 l -0.86856,-2.62751 c -5.93884,-3.23691 -12.36648,-3.84377 -22.23626,-1.5139 -7.12429,-1.1739 -13.18244,-1.95009 -17.68691,-2.14382 -3.50891,1.36251 -4.51857,3.38188 -3.77318,7.03833 1.38817,0.48238 1.91419,2.31446 4.16064,1.44844 l 4.50064,1.56394 5.2691,1.5139 c -0.13599,2.18357 2.40813,3.93739 6.53027,4.27993 l 7.91329,24.68287 c -3.43061,1.85132 -3.09705,2.88667 1.00457,3.10221 l 6.257,19.34065 5.03176,0.68636 -0.75309,-4.8034 1.75766,-0.12445 29.10522,8.16863 0.8378,3.38958 -9.23219,2.81094 -0.66584,-1.2406 -12.65513,3.2818 -0.13344,2.05657 -6.14026,1.87187 -0.88522,-1.76793 -4.78544,1.76793 0.88268,3.24971 -9.25787,4.28895 c -8.93066,-18.3245 -27.75428,-31.00271 -49.44658,-31.00271 -30.2753,0 -54.96455,24.69053 -54.96455,54.96456 0,30.27531 24.68925,54.96461 54.96455,54.96461 27.68885,0 50.7026,-20.65438 54.43218,-47.34381 l 4.67384,0.28482 0.005,0.004 c 0.84163,6.96007 6.79711,12.38186 13.97912,12.38186 1.21755,0 2.39789,-0.15525 3.52814,-0.44906 l 5.92345,9.79286 -0.0706,0.59144 -1.67165,0.38102 c -0.81598,0.77747 -0.96224,1.78716 -0.44263,3.03421 l 4.00539,-0.10776 c 0.79801,2.00526 3.79115,2.41195 4.57888,0.38102 h 4.7085 c 0.27198,-0.7133 0.22962,-1.34838 -0.12704,-1.90648 l -1.81924,-2.08607 -2.97645,-0.0295 -7.31031,-12.3421 c 3.48454,-2.5659 5.75535,-6.69575 5.75535,-11.34135 0,-2.93925 -0.91217,-5.67197 -2.46199,-7.93383 l -0.004,-0.15781 57.49974,-65.57722 1.66271,-0.0885 3.70773,7.68875 4.14014,3.01239 -1.0623,2.37991 2.38247,5.55519 c -17.74721,9.13214 -29.93148,27.64398 -29.93148,48.9116 0,30.27528 24.69057,54.9646 54.96587,54.9646 30.27292,1.7e-4 54.96483,-24.68913 54.96483,-54.96443 0,-30.27403 -24.69191,-54.96457 -54.96462,-54.96457"
       style="fill:#ffffff;fill-opacity:1;fill-rule:evenodd;stroke:none;stroke-width:1.2829603"
       id="path6081"
       inkscape:connector-curvature="0" />
    <path
       d="m 491.67989,-109.60242 4.15006,-11.29497 3.95533,11.29497 z m -13.07794,17.756861 h 6.81724 l 3.99912,-11.259231 h 12.66428 l 4.00078,11.259231 h 6.8172 l -13.96052,-40.351631 h -6.37432 z m -26.16304,0 h 6.37273 V -126.5481 h 9.44218 v -5.64909 h -25.01537 v 5.64909 h 9.20046 z m -46.98879,-40.351631 v 26.91677 c 0.0276,4.08677 1.23139,7.438593 3.6325,10.045731 2.49359,2.738575 5.81948,4.112714 9.96139,4.112714 4.14353,0 7.5035,-1.419574 10.09439,-4.271695 2.49359,-2.779132 3.74609,-6.2429 3.74609,-10.41401 v -26.38951 h -6.37432 v 26.54849 c 0,2.21453 -0.696,4.07702 -2.09773,5.6134 -1.39685,1.534782 -3.18309,2.295665 -5.36843,2.295665 -2.36054,0 -4.20845,-0.856589 -5.52418,-2.579545 -1.21516,-1.56237 -1.82032,-3.54976 -1.82032,-5.96871 v -25.9093 z m -31.53893,16.25938 v -9.8851 h 8.23677 c 1.55428,0 2.89107,0.4415 4.01218,1.3271 1.11941,0.89393 1.67587,2.09933 1.67587,3.6341 0,1.61913 -0.62296,2.87972 -1.85762,3.79475 -1.12755,0.80958 -2.51143,1.18595 -4.15976,1.12915 z m -6.25261,24.092251 h 6.25261 v -17.547571 h 7.66247 l 6.54306,17.547571 h 6.9778 l -7.13683,-18.837361 c 1.9112,-0.94259 3.43622,-2.34597 4.57674,-4.20032 1.14861,-1.8544 1.7116,-3.84988 1.7116,-5.96871 0,-3.34209 -1.15676,-6.07256 -3.48326,-8.193 -2.33456,-2.12532 -5.17859,-3.18958 -8.53851,-3.18958 l -14.56568,0.0368 z m -31.53733,-24.092251 v -9.8851 h 8.23678 c 1.55422,0 2.89106,0.4415 4.01052,1.3271 1.12107,0.89393 1.67753,2.09933 1.67753,3.6341 0,1.61913 -0.62301,2.87972 -1.85601,3.79475 -1.13077,0.80958 -2.51304,1.18595 -4.16136,1.12915 z m -6.25264,24.092251 h 6.25264 v -17.547571 h 7.66248 l 6.54301,17.547571 h 6.97624 l -7.13683,-18.837361 c 1.91276,-0.94259 3.43778,-2.34597 4.57669,-4.20032 1.15027,-1.8544 1.71325,-3.84988 1.71325,-5.96871 0,-3.34209 -1.15674,-6.07256 -3.48325,-8.193 -2.33622,-2.12532 -5.17698,-3.18958 -8.53856,-3.18958 l -14.56567,0.0368 z m -16.77694,-20.495431 c 0,3.73794 -0.46886,6.85454 -1.40983,9.35784 -1.37579,3.57735 -3.60817,5.366806 -6.70366,5.366806 -2.93002,0 -5.03749,-1.789456 -6.33538,-5.366806 -0.88583,-2.44977 -1.33036,-5.46091 -1.33036,-9.03822 0,-3.51895 0.44471,-6.52357 1.33036,-9.00093 1.29789,-3.65199 3.35022,-5.47714 6.17474,-5.47714 3.1539,0 5.42196,1.66456 6.82696,4.99854 0.96856,2.36216 1.44717,5.42035 1.44717,9.15991 m 6.42133,0.31962 c 0,-5.94112 -0.96852,-10.67684 -2.91052,-14.1974 -2.44655,-4.51828 -6.33377,-6.77991 -11.6535,-6.77991 -5.11047,0 -8.86954,2.31677 -11.25768,6.93889 -1.8852,3.57897 -2.82778,8.16379 -2.82778,13.75613 0,5.8097 0.94258,10.53405 2.82778,14.160062 2.41896,4.763309 6.27698,7.144914 11.57891,7.144914 5.11048,0 8.90518,-2.352401 11.38092,-7.062181 1.90305,-3.679545 2.86187,-8.340615 2.86187,-13.960505 m -64.01885,20.175811 h 25.01537 V -97.6942 h -18.80168 v -34.50299 h -6.21369 z m -16.41028,-10.449701 c -1.14866,3.040345 -3.31453,4.555625 -6.49436,4.555625 -3.1166,0 -5.38466,-1.703465 -6.81725,-5.123445 -1.04481,-2.47413 -1.57047,-5.54364 -1.57047,-9.19559 0,-2.50334 0.29204,-4.88499 0.88262,-7.14497 0.78033,-2.95922 1.93869,-4.97255 3.47512,-6.05632 1.10156,-0.75113 2.64444,-1.12754 4.64158,-1.12754 2.20156,0 4.20846,1.42932 6.0044,4.28144 l 5.93302,-2.58769 c -2.307,-5.46091 -6.49596,-8.18973 -12.54902,-8.18973 -5.24352,0 -9.15347,2.25022 -11.74115,6.74095 -2.09933,3.65362 -3.14414,8.35037 -3.14414,14.08386 0,5.5355 1.04481,10.18687 3.14414,13.960506 2.60879,4.652982 6.45867,6.976189 11.54156,6.976189 6.37433,0 10.62979,-2.973803 12.74861,-8.913325 z m -38.19233,10.449701 h 6.45707 v -40.351631 h -6.45707 z m -16.41028,-10.449701 c -1.15026,3.040345 -3.31453,4.555625 -6.49762,4.555625 -3.1166,0 -5.38306,-1.703465 -6.81559,-5.123445 -1.04482,-2.47413 -1.57208,-5.54364 -1.57208,-9.19559 0,-2.50334 0.29341,-4.88499 0.88418,-7.14497 0.78364,-2.95922 1.94039,-4.97255 3.47512,-6.05632 1.1,-0.75113 2.64609,-1.12754 4.64162,-1.12754 2.20318,0 4.20846,1.42932 6.00441,4.28144 l 5.93464,-2.58769 c -2.30702,-5.46091 -6.49598,-8.18973 -12.5523,-8.18973 -5.24187,0 -9.1502,2.25022 -11.73949,6.74095 -2.10099,3.65362 -3.14415,8.35037 -3.14415,14.08386 0,5.5355 1.04316,10.18687 3.14415,13.960506 2.60713,4.652982 6.45867,6.976189 11.54317,6.976189 6.37432,0 10.62979,-2.973803 12.74862,-8.913325 z"
       style="fill:#ffffff;fill-opacity:1;fill-rule:nonzero;stroke:none;stroke-width:1.62237346"
       id="path1132"
       inkscape:connector-curvature="0"
       sodipodi:nodetypes="cccccccccccccccccccccccccscsccscscsccccscscccccccccccsccccccscscccccccccccsccccccscscsccccscscsccccccccccscsccsccscscsccccccccscsccsccscscscc" />
    <path
       inkscape:connector-curvature="0"
       id="path1784"
       style="fill:#ffffff;fill-opacity:1;fill-rule:nonzero;stroke:none;stroke-width:1.62243748"
       d="m 408.91832,-180.3447 c 0,3.73811 -0.47047,6.85316 -1.41148,9.35983 -1.37585,3.57749 -3.6067,5.36541 -6.70393,5.36541 -2.92686,0 -5.03768,-1.78792 -6.33723,-5.36541 -0.88587,-2.44826 -1.32715,-5.46113 -1.32715,-9.04019 0,-3.51909 0.44105,-6.52382 1.32715,-9.00128 1.29955,-3.65214 3.35196,-5.47736 6.1766,-5.47736 3.15401,0 5.42382,1.66623 6.8256,4.99869 0.97021,2.3623 1.45044,5.42383 1.45044,9.16031 m 6.42164,0.31964 c 0,-5.94141 -0.97021,-10.67565 -2.91069,-14.19635 -2.44824,-4.52012 -6.33397,-6.77852 -11.65556,-6.77852 -5.11068,0 -8.86827,2.31359 -11.25972,6.93751 -1.88368,3.5775 -2.82468,8.16412 -2.82468,13.75502 0,5.80997 0.941,10.53611 2.82468,14.16066 2.41905,4.76506 6.28044,7.14681 11.58096,7.14681 5.1123,0 8.90553,-2.35415 11.38303,-7.06246 1.89986,-3.67969 2.86198,-8.34095 2.86198,-13.96267 m -45.46395,20.17822 h 6.45893 v -40.35327 h -6.45893 z m -16.41258,-10.45172 c -1.1487,3.04042 -3.31305,4.55741 -6.49461,4.55741 -3.11673,0 -5.38648,-1.70353 -6.81748,-5.12204 -1.04485,-2.47584 -1.57052,-5.54547 -1.57052,-9.19921 0,-2.5034 0.29204,-4.88515 0.8826,-7.14682 0.78202,-2.95607 1.94042,-4.96953 3.47526,-6.05333 1.10161,-0.75282 2.64619,-1.12921 4.64176,-1.12921 2.2033,0 4.20863,1.43099 6.00468,4.28322 l 5.93322,-2.5894 c -2.30545,-5.45951 -6.49462,-8.19005 -12.54952,-8.19005 -5.24374,0 -9.15218,2.25031 -11.74162,6.73961 -2.09941,3.65531 -3.14426,8.35392 -3.14426,14.08598 0,5.53737 1.04485,10.18893 3.14426,13.96271 2.6089,4.65152 6.45893,6.97646 11.54206,6.97646 6.37615,0 10.63182,-2.97392 12.74908,-8.91527 z m -38.19379,10.45172 h 6.45727 v -40.35327 h -6.45727 z m -37.79307,0 h 6.24962 v -27.31371 l 15.50077,27.31371 h 5.68662 v -40.35327 h -6.37454 v 25.78868 l -14.81285,-25.78868 h -6.24962 z m -16.81657,0 h 6.46054 v -40.35327 H 260.66 Z"
       sodipodi:nodetypes="ccscscsccccscscsccccccccscsccsccscscscccccccccccccccsccccccc" />
  </g>
</svg>
