<?xml version="1.0" encoding="UTF-8" standalone="no"?>
<!-- Created with Inkscape (http://www.inkscape.org/) -->

<svg
   xmlns:dc="http://purl.org/dc/elements/1.1/"
   xmlns:cc="http://creativecommons.org/ns#"
   xmlns:rdf="http://www.w3.org/1999/02/22-rdf-syntax-ns#"
   xmlns:svg="http://www.w3.org/2000/svg"
   xmlns="http://www.w3.org/2000/svg"
   xmlns:sodipodi="http://sodipodi.sourceforge.net/DTD/sodipodi-0.dtd"
   xmlns:inkscape="http://www.inkscape.org/namespaces/inkscape"
   width="81.945999cm"
   height="81.945999cm"
   viewBox="0 0 819.45999 819.45997"
   version="1.1"
   id="svg8"
   inkscape:version="0.92.2 (5c3e80d, 2017-08-06)"
   sodipodi:docname="66.svg">
  <defs
     id="defs2" />
  <sodipodi:namedview
     id="base"
     pagecolor="#ffffff"
     bordercolor="#666666"
     borderopacity="1.0"
     inkscape:pageopacity="0.0"
     inkscape:pageshadow="2"
     inkscape:zoom="0.15879247"
     inkscape:cx="1760.3847"
     inkscape:cy="1476.5971"
     inkscape:document-units="cm"
     inkscape:current-layer="layer1"
     showgrid="false"
     units="cm"
     inkscape:window-width="1920"
     inkscape:window-height="1057"
     inkscape:window-x="-8"
     inkscape:window-y="-8"
     inkscape:window-maximized="1" />
  <metadata
     id="metadata5">
    <rdf:RDF>
      <cc:Work
         rdf:about="">
        <dc:format>image/svg+xml</dc:format>
        <dc:type
           rdf:resource="http://purl.org/dc/dcmitype/StillImage" />
        <dc:title></dc:title>
      </cc:Work>
    </rdf:RDF>
  </metadata>
  <g
     inkscape:label="Layer 1"
     inkscape:groupmode="layer"
     id="layer1"
     transform="translate(0,522.46001)">
    <rect
       style="fill:#facd00;fill-opacity:1;stroke:none;stroke-width:59.79019928;stroke-miterlimit:4;stroke-dasharray:none;stroke-opacity:1"
       id="rect815"
       width="600"
       height="600"
       x="69.437744"
       y="-89.989288"
       rx="40"
       ry="40"
       transform="rotate(-45)" />
    <rect
       y="-77.989288"
       x="81.437744"
       height="576"
       width="576"
       id="rect12551"
       style="fill:#000000;fill-opacity:1;stroke:none;stroke-width:57.39859009;stroke-miterlimit:4;stroke-dasharray:none;stroke-opacity:1"
       rx="28"
       ry="28"
       transform="rotate(-45)" />
    <rect
       y="-65.989288"
       x="93.437744"
       height="552"
       width="552"
       id="rect12553"
       style="fill:#facd00;fill-opacity:1;stroke:none;stroke-width:55.00698471;stroke-miterlimit:4;stroke-dasharray:none;stroke-opacity:1"
       rx="16"
       ry="16"
       transform="rotate(-45)" />
    <path
       inkscape:connector-curvature="0"
       id="path2528"
       style="fill:#000000;stroke:none;stroke-width:3.13730931;stroke-linecap:butt;stroke-linejoin:miter;stroke-miterlimit:22.9260006;stroke-dasharray:none;stroke-opacity:1"
       d="m 405.76937,-177.1519 -36.01653,-7.40085 v 23.63272 c 0.25844,18.21593 11.93254,33.90699 29.65248,38.64869 l 54.00467,12.69229 c 56.82906,15.23061 96.35384,66.74152 96.35384,125.58169 V 87.19998 H 459.76062 V 16.00264 c 0,-18.5109602 -12.57167,-34.08134 -29.64362,-38.64422 L 376.1169,-35.34726 C 319.319,-50.56014 279.8122,-102.0039 279.75406,-160.79945 v -23.7533 l -36.00754,7.40085 c -1.41226,0.43833 -2.90042,0.67529 -4.4557,0.67529 -8.26786,0 -14.96699,-6.70378 -14.96699,-14.96699 0,-3.17766 0.98813,-6.11837 2.67251,-8.54496 l 97.76154,-148.4681 97.76168,148.468 c 1.68489,2.42669 2.67251,5.3674 2.67251,8.54506 0,8.26321 -6.69913,14.96699 -14.96699,14.96699 -1.55086,0 -3.048,-0.23696 -4.45571,-0.67529 z" />
  </g>
</svg>
