<?xml version="1.0" encoding="UTF-8" standalone="no"?>
<!-- Created with Inkscape (http://www.inkscape.org/) -->

<svg
   xmlns:dc="http://purl.org/dc/elements/1.1/"
   xmlns:cc="http://creativecommons.org/ns#"
   xmlns:rdf="http://www.w3.org/1999/02/22-rdf-syntax-ns#"
   xmlns:svg="http://www.w3.org/2000/svg"
   xmlns="http://www.w3.org/2000/svg"
   xmlns:sodipodi="http://sodipodi.sourceforge.net/DTD/sodipodi-0.dtd"
   xmlns:inkscape="http://www.inkscape.org/namespaces/inkscape"
   width="81.945999cm"
   height="81.945999cm"
   viewBox="0 0 819.45999 819.45997"
   version="1.1"
   id="svg8"
   inkscape:version="0.92.2 (5c3e80d, 2017-08-06)"
   sodipodi:docname="66.svg">
  <defs
     id="defs2" />
  <sodipodi:namedview
     id="base"
     pagecolor="#ffffff"
     bordercolor="#666666"
     borderopacity="1.0"
     inkscape:pageopacity="0.0"
     inkscape:pageshadow="2"
     inkscape:zoom="0.22456647"
     inkscape:cx="1938.6121"
     inkscape:cy="1458.5704"
     inkscape:document-units="cm"
     inkscape:current-layer="layer1"
     showgrid="false"
     units="cm"
     inkscape:window-width="1920"
     inkscape:window-height="1057"
     inkscape:window-x="-8"
     inkscape:window-y="-8"
     inkscape:window-maximized="1" />
  <metadata
     id="metadata5">
    <rdf:RDF>
      <cc:Work
         rdf:about="">
        <dc:format>image/svg+xml</dc:format>
        <dc:type
           rdf:resource="http://purl.org/dc/dcmitype/StillImage" />
        <dc:title></dc:title>
      </cc:Work>
    </rdf:RDF>
  </metadata>
  <g
     inkscape:label="Layer 1"
     inkscape:groupmode="layer"
     id="layer1"
     transform="translate(0,522.46001)">
    <rect
       style="fill:#facd00;fill-opacity:1;stroke:none;stroke-width:59.79019928;stroke-miterlimit:4;stroke-dasharray:none;stroke-opacity:1"
       id="rect815"
       width="600"
       height="600"
       x="69.437744"
       y="-89.989288"
       rx="40"
       ry="40"
       transform="rotate(-45)" />
    <rect
       y="-77.989288"
       x="81.437744"
       height="576"
       width="576"
       id="rect12551"
       style="fill:#000000;fill-opacity:1;stroke:none;stroke-width:57.39859009;stroke-miterlimit:4;stroke-dasharray:none;stroke-opacity:1"
       rx="28"
       ry="28"
       transform="rotate(-45)" />
    <rect
       y="-65.989288"
       x="93.437744"
       height="552"
       width="552"
       id="rect12553"
       style="fill:#facd00;fill-opacity:1;stroke:none;stroke-width:55.00698471;stroke-miterlimit:4;stroke-dasharray:none;stroke-opacity:1"
       rx="16"
       ry="16"
       transform="rotate(-45)" />
    <path
       inkscape:connector-curvature="0"
       id="path6711"
       style="fill:#000000;stroke:none;stroke-width:3.16629744;stroke-linecap:butt;stroke-linejoin:miter;stroke-miterlimit:10;stroke-dasharray:none;stroke-opacity:1"
       d="m 453.00516,-266.10626 -25.32149,28.37705 v 0.11296 l 29.81192,17.04486 c 48.79644,27.76998 81.66824,80.14004 81.66824,140.26877 v 181.3026 h -93.00051 l 0.10043,-181.3026 c 0,-25.41889 -13.88302,-47.67612 -34.50156,-59.4157 -0.10041,0 -28.07157,-16.43818 -30.6267,-17.96599 v 0.10044 l -10.81862,34.39977 c -0.19959,1.12973 -0.50965,2.1477 -1.01804,3.16618 l -0.30504,0.71303 c -0.20838,0.31005 -0.31006,0.61128 -0.51341,0.81468 -4.18915,7.45744 -13.6793,10.01258 -21.02588,5.7215 -3.06895,-1.73594 -5.30976,-4.38847 -6.53629,-7.45291 L 257.82383,-282.13235 441.1591,-292.951 c 3.06894,-0.20329 6.23076,0.40799 9.09145,2.04596 7.34672,4.2823 9.90199,13.78114 5.6153,21.12787 -0.81971,1.43027 -1.73594,2.65694 -2.86081,3.67551 z" />
  </g>
</svg>
