<?xml version="1.0" encoding="UTF-8" standalone="no"?>
<!-- Created with Inkscape (http://www.inkscape.org/) -->

<svg
   xmlns:dc="http://purl.org/dc/elements/1.1/"
   xmlns:cc="http://creativecommons.org/ns#"
   xmlns:rdf="http://www.w3.org/1999/02/22-rdf-syntax-ns#"
   xmlns:svg="http://www.w3.org/2000/svg"
   xmlns="http://www.w3.org/2000/svg"
   xmlns:sodipodi="http://sodipodi.sourceforge.net/DTD/sodipodi-0.dtd"
   xmlns:inkscape="http://www.inkscape.org/namespaces/inkscape"
   width="81.945999cm"
   height="81.945999cm"
   viewBox="0 0 819.45999 819.45997"
   version="1.1"
   id="svg8"
   inkscape:version="0.92.2 (5c3e80d, 2017-08-06)"
   sodipodi:docname="66.svg">
  <defs
     id="defs2" />
  <sodipodi:namedview
     id="base"
     pagecolor="#ffffff"
     bordercolor="#666666"
     borderopacity="1.0"
     inkscape:pageopacity="0.0"
     inkscape:pageshadow="2"
     inkscape:zoom="0.1767767"
     inkscape:cx="1723.6423"
     inkscape:cy="1124.9829"
     inkscape:document-units="cm"
     inkscape:current-layer="layer1"
     showgrid="false"
     units="cm"
     inkscape:window-width="1920"
     inkscape:window-height="1057"
     inkscape:window-x="-8"
     inkscape:window-y="-8"
     inkscape:window-maximized="1" />
  <metadata
     id="metadata5">
    <rdf:RDF>
      <cc:Work
         rdf:about="">
        <dc:format>image/svg+xml</dc:format>
        <dc:type
           rdf:resource="http://purl.org/dc/dcmitype/StillImage" />
        <dc:title></dc:title>
      </cc:Work>
    </rdf:RDF>
  </metadata>
  <g
     inkscape:label="Layer 1"
     inkscape:groupmode="layer"
     id="layer1"
     transform="translate(0,522.46)">
    <rect
       style="fill:#facd00;fill-opacity:1;stroke:none;stroke-width:59.79019928;stroke-miterlimit:4;stroke-dasharray:none;stroke-opacity:1"
       id="rect815"
       width="600"
       height="600"
       x="69.437729"
       y="-89.989304"
       rx="40"
       ry="40"
       transform="rotate(-45)" />
    <rect
       y="-77.989304"
       x="81.437729"
       height="576"
       width="576"
       id="rect12551"
       style="fill:#000000;fill-opacity:1;stroke:none;stroke-width:57.39859009;stroke-miterlimit:4;stroke-dasharray:none;stroke-opacity:1"
       rx="28"
       ry="28"
       transform="rotate(-45)" />
    <rect
       y="-65.989304"
       x="93.437729"
       height="552"
       width="552"
       id="rect12553"
       style="fill:#facd00;fill-opacity:1;stroke:none;stroke-width:55.00698471;stroke-miterlimit:4;stroke-dasharray:none;stroke-opacity:1"
       rx="16"
       ry="16"
       transform="rotate(-45)" />
    <path
       style="fill:#000000;fill-opacity:1;fill-rule:evenodd;stroke:none;stroke-width:10.35730553"
       d="m 449.2301,-305.40172 v 11.13782 h 107.7903 0.1173 l 0.2936,0.0109 h 0.021 l 0.03,0.0109 c 0.1203,0 0.2376,-3.7e-4 0.3844,0.0289 h 0.021 l 0.059,0.0109 0.029,0.0109 h 0.03 l 0.1173,0.0295 0.059,0.0103 0.3318,0.0884 0.059,0.0202 0.021,0.0109 0.029,0.0109 0.058,0.0201 0.059,0.0212 0.3199,0.14676 0.011,0.0109 0.029,0.0201 0.058,0.0295 h 0.011 l 0.029,0.0207 0.059,0.0207 v 0.0109 l 0.1173,0.0584 0.058,0.0295 0.021,0.0207 0.059,0.0295 0.021,0.0103 0.029,0.0295 0.2935,0.20568 0.021,0.0103 c 0.1409,0.0998 0.2873,0.24697 0.4341,0.39377 l 0.029,0.0584 0.029,0.0294 0.059,0.0295 0.029,0.0584 0.021,0.0294 0.058,0.0589 0.011,0.0294 0.059,0.0584 0.021,0.0212 0.059,0.0589 0.011,0.0289 0.059,0.0589 0.01,0.0207 0.059,0.0589 0.011,0.0207 0.029,0.0584 0.021,0.0212 c 0.088,0.12918 0.1463,0.24636 0.2051,0.3638 l 28.7425,47.34387 0.058,0.0879 0.021,0.0212 0.088,0.14676 0.021,0.0207 0.01,0.0104 v 0.0109 l 0.059,0.0589 v 0.01 l 0.029,0.0295 0.011,0.0207 0.01,0.0207 0.021,0.0295 0.011,0.0207 0.011,0.0295 0.01,0.0104 0.011,0.0109 0.011,0.0295 0.01,0.0202 0.011,0.0212 0.011,0.0207 0.011,0.0104 0.01,0.0207 0.011,0.0295 0.011,0.0207 v 0.0109 l 0.01,0.0207 0.03,0.0589 0.011,0.0295 0.029,0.0584 v 0.0295 l 0.029,0.0584 0.011,0.0295 0.021,0.0589 0.011,0.0289 0.03,0.0589 0.01,0.0295 0.011,0.0589 0.021,0.0289 0.02,0.0589 0.011,0.0295 0.021,0.0584 v 0.0294 l 0.021,0.0589 0.011,0.0295 0.01,0.0584 0.011,0.0295 0.011,0.0878 v 0.0295 l 0.021,0.0589 v 0.0289 l 0.011,0.0589 v 0.0294 l 0.011,0.0879 0.021,0.3731 23.0368,265.147135 H 205.73 l 23.0359,-265.147115 0.021,-0.3731 0.011,-0.0879 v -0.0294 l 0.011,-0.0589 v -0.0289 l 0.021,-0.0589 v -0.0295 l 0.011,-0.0879 0.011,-0.0295 0.01,-0.0584 0.011,-0.0295 0.021,-0.0589 v -0.0294 l 0.021,-0.0584 0.01,-0.0295 0.021,-0.0589 0.021,-0.0289 0.011,-0.0589 0.01,-0.0295 0.029,-0.0589 0.011,-0.0289 0.021,-0.0589 0.011,-0.0295 0.029,-0.0584 v -0.0295 l 0.029,-0.0584 0.011,-0.0295 0.029,-0.0589 0.01,-0.0207 v -0.0109 l 0.011,-0.0207 0.011,-0.0295 0.01,-0.0207 0.011,-0.0103 0.011,-0.0207 0.011,-0.0212 0.01,-0.0202 0.011,-0.0295 0.011,-0.0109 0.01,-0.0103 0.011,-0.0295 0.011,-0.0207 0.021,-0.0295 0.01,-0.0207 0.011,-0.0207 0.029,-0.0295 v -0.01 l 0.059,-0.0589 v -0.0108 l 0.01,-0.0104 0.021,-0.0207 0.088,-0.14676 0.021,-0.0212 0.058,-0.0879 28.7424,-47.34388 c 0.059,-0.11744 0.1171,-0.23462 0.2052,-0.3638 l 0.021,-0.0212 0.029,-0.0584 0.011,-0.0207 0.059,-0.0589 0.01,-0.0207 0.059,-0.0589 0.01,-0.0289 0.059,-0.0589 0.021,-0.0212 0.059,-0.0584 0.011,-0.0294 0.058,-0.0589 0.021,-0.0295 0.029,-0.0584 0.059,-0.0295 0.029,-0.0294 0.03,-0.0584 c 0.1468,-0.1468 0.2931,-0.29396 0.4341,-0.39377 l 0.021,-0.0103 0.2936,-0.20568 0.03,-0.0295 0.021,-0.0103 0.059,-0.0295 0.021,-0.0207 0.058,-0.0295 0.1173,-0.0584 v -0.0109 l 0.059,-0.0207 0.03,-0.0207 h 0.011 l 0.058,-0.0295 0.03,-0.0202 0.011,-0.0109 0.3198,-0.14676 0.059,-0.0212 0.058,-0.0201 0.03,-0.0109 0.021,-0.0109 0.059,-0.0201 0.3318,-0.0884 0.059,-0.0103 0.1173,-0.0295 h 0.029 l 0.029,-0.0109 0.059,-0.0109 h 0.021 c 0.1476,-0.0293 0.2649,-0.029 0.3853,-0.029 l 0.029,-0.0109 h 0.021 l 0.2935,-0.0109 h 0.1173 107.7903 v -11.13782 z m -8.7586,8.40001 h -61.4826 v 23.22183 c 7.24,-2.01992 14.77,-3.35565 22.517,-3.90467 l 0.2992,-0.0207 1.1601,-0.0589 0.2936,-0.0212 0.2992,-0.0207 0.2935,-0.0109 h 0.01 l 0.2935,-0.0103 0.2935,-0.0212 0.2935,-0.0109 0.2936,-0.0103 0.2935,-0.0109 0.294,-0.0207 0.2936,-0.0109 0.2935,-0.0109 h 0.2992 l 0.294,-0.0109 0.2935,-0.0103 h 0.2936 l 0.2935,-0.0109 h 0.2992 l 0.294,-0.0108 h 0.2935 0.2993 0.2935 l 0.5663,0.004 0.5664,-0.004 h 0.2935 0.2993 0.2935 l 0.294,0.0108 h 0.2992 l 0.2935,0.0109 h 0.2936 l 0.2935,0.0103 0.294,0.0109 h 0.2992 l 0.2936,0.0109 0.2935,0.0109 0.294,0.0207 0.2935,0.0109 0.2936,0.0103 0.2935,0.0109 0.2935,0.0212 0.2935,0.0103 h 0.01 l 0.2935,0.0109 0.2993,0.0207 0.2935,0.0212 1.1601,0.0589 0.2992,0.0207 c 7.747,0.54902 15.277,1.88475 22.517,3.90467 z m -29.3677,27.75541 h -0.021 -0.2641 -0.5493 -0.539 -0.539 -0.5493 -0.2641 -0.021 l -0.264,0.0103 -0.8284,0.0109 -0.2346,0.0109 h -0.029 l -1.0863,0.0294 -0.2056,0.0103 h -0.058 l -0.2936,0.0109 -1.004,0.0589 h -0.059 l -0.2641,0.0207 -0.9953,0.0589 -0.088,0.0103 c -9.2901,0.59012 -18.249,2.40449 -26.7203,5.27203 l -0.1178,0.0295 c -9.2282,3.13851 -17.8659,7.50938 -25.7271,12.94701 l -0.1473,0.11731 -0.1468,0.0884 -0.021,0.0202 -0.264,0.20567 -0.059,0.0295 c -2.1432,1.49145 -4.226,3.08629 -6.2456,4.73305 l -0.03,0.0295 -0.7866,0.64285 -0.059,0.0589 -0.088,0.0589 -0.1467,0.14676 -0.4672,0.39326 -0.1467,0.14676 -0.01,0.0212 -0.1468,0.1173 -0.1468,0.14677 -0.1467,0.14675 -0.1468,0.14677 -0.1473,0.14676 -0.1173,0.0884 -0.029,0.0289 -0.1473,0.14676 -0.1467,0.14676 -0.1468,0.14728 -0.1467,0.14676 -0.1468,0.14676 -0.058,0.0584 -0.1178,0.0884 -0.1468,0.14676 -0.1468,0.14676 -0.1467,0.14676 -0.1468,0.14676 -0.1467,0.14676 v 0.0109 l -0.1468,0.14676 -0.1468,0.14676 -0.1467,0.14676 -0.1468,0.14677 -0.1468,0.14676 -0.2997,0.29352 -0.1467,0.14676 -0.1468,0.14676 -0.021,0.0109 -0.4258,0.41393 -0.1467,0.14676 -0.1468,0.14676 -0.1468,0.14677 -0.1472,0.14675 -0.1173,0.11783 -0.029,0.0289 -0.1473,0.14676 -0.1468,0.14728 -0.1467,0.14676 -0.1468,0.14676 -0.1468,0.14676 -0.059,0.0584 -0.088,0.0884 -0.1467,0.14676 -0.1468,0.14676 -0.1467,0.14676 -0.1468,0.14676 -0.1468,0.14677 -0.059,0.0589 -0.059,0.0589 -0.1467,0.14676 -0.1468,0.14676 -0.2935,0.2992 -0.1468,0.14677 -0.088,0.0884 -0.058,0.0584 -0.4139,0.44648 -0.1468,0.14676 -0.1473,0.14676 -0.088,0.11731 -0.03,0.0295 -0.1467,0.14676 -0.6635,0.7369 -0.029,0.0294 -0.8077,0.91003 -1.3033,1.49138 0.088,-0.0879 -0.1468,0.17622 -0.059,0.0584 -0.021,0.0212 -0.01,0.0207 -0.021,0.0207 -0.021,0.0207 -0.022,0.0207 c -6.267,7.37153 -11.5073,15.63703 -15.5463,24.56491 l -0.059,0.1173 -0.4667,1.05679 -0.03,0.0884 -0.6516,1.54409 -0.029,0.0884 -0.021,0.0879 -0.021,0.0295 -0.03,0.0584 -0.4873,1.18029 -0.088,0.20567 -0.058,0.17621 -0.029,0.0589 -0.059,0.14677 -0.059,0.1757 -0.3318,0.86919 -0.029,0.0884 c -0.2642,0.71342 -0.5287,1.41787 -0.7783,2.13424 l -0.059,0.17622 -0.01,0.0294 -0.059,0.20515 -0.3317,0.98392 -0.058,0.20516 -0.2057,0.59014 -0.059,0.20568 -0.059,0.20567 -0.021,0.0289 -0.029,0.14676 -0.059,0.20567 -0.059,0.20567 -0.058,0.20516 -0.059,0.20567 -0.059,0.20567 -0.021,0.0584 -0.03,0.11783 -0.059,0.20515 -0.058,0.20567 -0.059,0.20567 -0.059,0.20516 -0.058,0.20567 -0.029,0.11731 -0.021,0.0884 -0.059,0.20567 -0.058,0.20516 -0.059,0.20567 -0.059,0.20567 -0.058,0.20516 -0.029,0.14676 -0.01,0.0589 -0.059,0.20567 -0.059,0.20567 -0.058,0.20516 -0.059,0.20567 -0.059,0.20567 -0.4873,1.83193 -0.2056,0.81907 -0.1174,0.41393 c -1.8848,7.8407 -2.8892,16.05405 -2.8887,24.49514 l 0.01,178.968915 h 17.4114 V -164.36899 c -4e-4,-48.02791 38.8667,-86.98552 86.8594,-87.13473 47.9927,0.14921 86.8598,39.10682 86.8598,87.13473 V 14.598385 h 17.4108 l 0.01,-178.968925 c 6e-4,-8.44109 -1.0038,-16.65444 -2.8887,-24.49514 l -0.1173,-0.41393 -0.2057,-0.81907 -0.4873,-1.83193 -0.059,-0.20567 -0.059,-0.20567 -0.058,-0.20516 -0.059,-0.20567 -0.059,-0.20567 -0.01,-0.0589 -0.029,-0.14677 -0.058,-0.20515 -0.059,-0.20567 -0.059,-0.20567 -0.058,-0.20516 -0.059,-0.20567 -0.021,-0.0884 -0.03,-0.11731 -0.058,-0.20567 -0.059,-0.20516 -0.059,-0.20567 -0.058,-0.20567 -0.059,-0.20516 -0.029,-0.11782 -0.021,-0.0584 -0.059,-0.20567 -0.059,-0.20567 -0.058,-0.20516 -0.059,-0.20567 -0.059,-0.20567 -0.029,-0.14676 -0.021,-0.0289 -0.059,-0.20567 -0.059,-0.20568 -0.2056,-0.59014 -0.058,-0.20516 -0.3318,-0.98392 -0.059,-0.20515 -0.01,-0.0294 -0.059,-0.17622 c -0.2496,-0.71637 -0.514,-1.42082 -0.7782,-2.13424 l -0.029,-0.0884 -0.3318,-0.8692 -0.059,-0.1757 -0.059,-0.14676 -0.029,-0.0589 -0.058,-0.17621 -0.088,-0.20568 -0.4873,-1.18029 -0.03,-0.0584 -0.021,-0.0295 -0.021,-0.0879 -0.029,-0.0884 -0.6517,-1.54409 -0.029,-0.0884 -0.4666,-1.05678 -0.059,-0.11731 c -4.039,-8.92787 -9.2795,-17.19338 -15.5466,-24.56491 l -0.021,-0.0207 -0.021,-0.0207 -0.021,-0.0207 -0.01,-0.0207 -0.021,-0.0212 -0.059,-0.0584 -0.1467,-0.17622 0.088,0.0879 -1.3033,-1.49138 -0.8077,-0.91002 -0.029,-0.0294 -0.6635,-0.73691 -0.1468,-0.14676 -0.029,-0.0295 -0.088,-0.11731 -0.1473,-0.14676 -0.1467,-0.14676 -0.414,-0.44648 -0.058,-0.0584 -0.088,-0.0884 -0.1467,-0.14676 -0.2936,-0.29921 -0.1467,-0.14676 -0.1468,-0.14676 -0.059,-0.0589 -0.059,-0.0589 -0.1467,-0.14676 -0.1468,-0.14676 -0.1468,-0.14676 -0.1467,-0.14677 -0.1468,-0.14676 -0.088,-0.0884 -0.059,-0.0584 -0.1467,-0.14676 -0.1468,-0.14676 -0.1468,-0.14676 -0.1467,-0.14728 -0.1473,-0.14676 -0.029,-0.0289 -0.1173,-0.11782 -0.1473,-0.14676 -0.1467,-0.14676 -0.1468,-0.14677 -0.1468,-0.14676 -0.4258,-0.41392 -0.021,-0.0109 -0.1467,-0.14677 -0.1468,-0.14676 -0.2997,-0.29352 -0.1468,-0.14676 -0.1467,-0.14676 -0.1468,-0.14676 -0.1468,-0.14676 -0.1467,-0.14676 v -0.0109 l -0.1468,-0.14677 -0.1467,-0.14676 -0.1468,-0.14676 -0.1468,-0.14676 -0.1467,-0.14676 -0.1179,-0.0884 -0.058,-0.0584 -0.1467,-0.14676 -0.1468,-0.14676 -0.1467,-0.14728 -0.1468,-0.14676 -0.1473,-0.14676 -0.029,-0.0289 -0.1173,-0.0884 -0.1473,-0.14676 -0.1467,-0.14676 -0.1468,-0.14676 -0.1468,-0.14676 -0.1467,-0.11731 -0.01,-0.0212 -0.1468,-0.14676 -0.4671,-0.39326 -0.1468,-0.14676 -0.088,-0.0589 -0.059,-0.0589 -0.7865,-0.64285 -0.029,-0.0295 c -2.0196,-1.64676 -4.1024,-3.24159 -6.2456,-4.73305 l -0.059,-0.0295 -0.2641,-0.20567 -0.021,-0.0201 -0.1467,-0.0884 -0.1473,-0.1173 c -7.8612,-5.43764 -16.4989,-9.80851 -25.7271,-12.94702 l -0.1179,-0.0295 c -8.4718,-2.86758 -17.4307,-4.68194 -26.7209,-5.27206 l -0.088,-0.0103 -0.9953,-0.0589 -0.2641,-0.0207 h -0.059 l -1.004,-0.0589 -0.2936,-0.0109 h -0.058 l -0.2056,-0.0103 -1.0863,-0.0295 h -0.03 l -0.2346,-0.0109 -0.8283,-0.0109 z"
       id="path1379"
       inkscape:connector-curvature="0"
       sodipodi:nodetypes="ccccccccccccccccccccccccccccccccccccccccccccccccccccccccccccccccccccccccccccccccccccccccccccccccccccccccccccccccccccccccccccccccccccccccccccccccccccccccccccccccccccccccccccccccccccccccccccccccccccccccccccccccccccccccccccccccccccccccccccccccccccccccccccccccccccccccccccccccccccccccccccccccccccccccccccccccccccccccccccccccccccccccccccccccccccccccccccccccccccccccccccccccccccccccccccccccccccccccccccccccccccccccccccccccccccccccccccccccccccccccccccccccccccscsccccccccccccccccccccccccccccccccccccccccccccccccccccccccccccccccccccccccccccccccccccccccccccccccccccccccccccccccccccccccccccccccccccccccccccccccccccccccccccccccccccc" />
    <path
       inkscape:connector-curvature="0"
       id="path3762"
       style="fill:#facd00;fill-opacity:1;fill-rule:evenodd;stroke:none;stroke-width:10.35071087"
       d="M 296.1969,-26.255855 H 218.608 l -3.4778,40.55429 h 81.1494 V -1.1863657 Z m -0.1467,-53.378478 h -72.8381 l -3.8401,44.673718 h 76.8128 z m -0.1467,-53.378767 h -68.1078 l -3.8298,44.673707 h 72.0719 z m -0.029,-8.70476 -0.1174,-33.42247 -63.4188,-10.80615 -3.809,44.22862 z m -62.8288,-52.96478 64.9507,10.48545 c 1.2,-6.89358 3.0326,-13.57002 5.4239,-19.97684 l -66.5967,-31.23865 z m 137.0848,-90.9412 v 14.87392 c -7.5352,2.79324 -14.667,6.36574 -21.3432,10.61983 l -17.203,-25.49375 z m -96.096,0 h 47.0438 l 20.2151,30.68969 c -4.1816,3.15705 -8.1355,6.60398 -11.8413,10.30941 -1.1178,1.11786 -2.2034,2.25629 -3.2709,3.41582 z m -34.7577,41.78572 24.0138,-39.53969 57.2496,48.78285 c -5.403,6.87304 -10.04,14.3772 -13.7663,22.40948 z"
       sodipodi:nodetypes="cccccccccccccccccccccccccccccccccccccccccc" />
    <path
       sodipodi:nodetypes="cccccccccccccccccccccccccccccccccccccccccc"
       d="m 523.2646,-26.255855 h 77.5889 l 3.4777,40.55429 H 523.1818 V -1.1863657 Z m 0.1467,-53.378478 h 72.838 l 3.8401,44.673718 h -76.8128 z m 0.1467,-53.378767 h 68.1077 l 3.8299,44.673707 h -72.072 z m 0.029,-8.70476 0.1174,-33.42247 63.4188,-10.80615 3.809,44.22862 z m 62.8288,-52.96478 -64.9507,10.48545 c -1.2,-6.89358 -3.0327,-13.57002 -5.4239,-19.97684 l 66.5967,-31.23865 z m -137.0849,-90.9412 v 14.87392 c 7.5353,2.79324 14.6671,6.36574 21.3432,10.61983 l 17.203,-25.49375 z m 96.096,0 h -47.0438 l -20.2151,30.68969 c 4.1816,3.15705 8.1356,6.60398 11.8413,10.30941 1.1179,1.11786 2.2035,2.25629 3.2709,3.41582 z m 34.7578,41.78572 -24.0138,-39.53969 -57.2497,48.78285 c 5.4031,6.87304 10.0401,14.3772 13.7663,22.40948 z"
       style="fill:#facd00;fill-opacity:1;fill-rule:evenodd;stroke:none;stroke-width:10.35071087"
       id="path3770"
       inkscape:connector-curvature="0" />
  </g>
</svg>
