<?xml version="1.0" encoding="UTF-8" standalone="no"?>
<!-- Created with Inkscape (http://www.inkscape.org/) -->

<svg
   xmlns:dc="http://purl.org/dc/elements/1.1/"
   xmlns:cc="http://creativecommons.org/ns#"
   xmlns:rdf="http://www.w3.org/1999/02/22-rdf-syntax-ns#"
   xmlns:svg="http://www.w3.org/2000/svg"
   xmlns="http://www.w3.org/2000/svg"
   xmlns:sodipodi="http://sodipodi.sourceforge.net/DTD/sodipodi-0.dtd"
   xmlns:inkscape="http://www.inkscape.org/namespaces/inkscape"
   width="81.945999cm"
   height="122.946cm"
   viewBox="0 0 819.46 1229.46"
   version="1.1"
   id="svg8"
   inkscape:version="0.92.2 (5c3e80d, 2017-08-06)"
   sodipodi:docname="Colombia_road_sign_SP-47B.svg">
  <defs
     id="defs2" />
  <sodipodi:namedview
     id="base"
     pagecolor="#ffffff"
     bordercolor="#666666"
     borderopacity="1.0"
     inkscape:pageopacity="0.0"
     inkscape:pageshadow="2"
     inkscape:zoom="0.14686064"
     inkscape:cx="447.40564"
     inkscape:cy="2091.9454"
     inkscape:document-units="cm"
     inkscape:current-layer="layer1"
     showgrid="false"
     units="cm"
     inkscape:window-width="1920"
     inkscape:window-height="1057"
     inkscape:window-x="-8"
     inkscape:window-y="-8"
     inkscape:window-maximized="1"
     fit-margin-top="0"
     fit-margin-left="0"
     fit-margin-right="0"
     fit-margin-bottom="0"
     inkscape:measure-start="0,0"
     inkscape:measure-end="0,0" />
  <metadata
     id="metadata5">
    <rdf:RDF>
      <cc:Work
         rdf:about="">
        <dc:format>image/svg+xml</dc:format>
        <dc:type
           rdf:resource="http://purl.org/dc/dcmitype/StillImage" />
        <dc:title></dc:title>
      </cc:Work>
    </rdf:RDF>
  </metadata>
  <g
     inkscape:label="Layer 1"
     inkscape:groupmode="layer"
     id="layer1"
     transform="translate(-170.88723,2669.0658)">
    <path
       style="opacity:1;fill:none;fill-opacity:1;stroke:#a0ff32;stroke-width:79.99999237;stroke-linejoin:round;stroke-miterlimit:4;stroke-dasharray:none;stroke-opacity:1"
       d="m 580.61723,-2627.0658 367.73,367.73 v 367.73 h -735.46 v -367.73 z"
       id="rect5664"
       inkscape:connector-curvature="0"
       sodipodi:nodetypes="cccccc" />
    <path
       sodipodi:nodetypes="cccccc"
       inkscape:connector-curvature="0"
       id="path5667"
       d="m 580.61723,-2627.0658 367.73,367.73 v 367.73 h -735.46 v -367.73 z"
       style="opacity:1;fill:none;fill-opacity:1;stroke:#000000;stroke-width:55.99999619;stroke-linejoin:round;stroke-miterlimit:4;stroke-dasharray:none;stroke-opacity:1" />
    <path
       style="opacity:1;fill:#a0ff32;fill-opacity:1;stroke:#a0ff32;stroke-width:31.99999809;stroke-linejoin:round;stroke-miterlimit:4;stroke-dasharray:none;stroke-opacity:1"
       d="m 580.61723,-2627.0658 367.73,367.73 v 367.73 h -735.46 v -367.73 z"
       id="path5669"
       inkscape:connector-curvature="0"
       sodipodi:nodetypes="cccccc" />
    <path
       d="m 687.95353,-2332.0389 42.7323,15.087 12.5712,26.805 -25.972,12.5678 z m -298.278,72.0567 -15.0787,62.8452 -37.7061,15.9118 c -17.7781,11.9594 -3.1714,33.5201 10.8933,26.8165 l 46.9214,-19.2714 16.7566,-31.002 13.4046,36.0278 -35.1911,37.7025 13.4082,14.2486 -29.3277,51.1033 0.8373,86.3063 c -0.5969,18.1572 30.7918,18.9944 35.1947,2.5141 v -72.9002 l 46.9179,-53.6184 19.2715,62.8338 61.1631,43.5729 c 20.5844,7.4928 34.1771,-16.9926 21.7829,-28.4869 l -52.7811,-37.7024 v -52.7884 l 29.3239,-15.9201 -23.4569,-32.6723 62.0002,-38.547 -3.3484,-10.0559 31.839,-15.0787 13.4046,-28.4868 25.1349,51.1064 -49.4401,104.7363 v 118.986 c 3.0939,25.8725 40.8294,24.7583 45.251,1.6662 v -109.7695 l 61.1593,-81.2647 v 94.2151 l 59.4927,88.4409 c 23.2321,29.25 55.0195,1.6118 45.2473,-20.1046 l -52.7848,-79.5975 10.8932,-100.5476 -9.2191,-13.401 103.0511,-52.7915 -36.0246,-72.8939 -44.4102,17.5978 -25.9757,-42.7292 -92.9948,-26.8123 -60.3296,37.7024 -15.9196,87.1352 -25.1349,14.2445 -14.2417,-25.1345 -32.6798,20.1087 -71.2193,-46.921 c 0,0 -47.7512,34.3574 -46.0807,32.6755"
       style="fill:#000000;fill-opacity:1;fill-rule:evenodd;stroke:none;stroke-width:3.68763494"
       id="path6488"
       inkscape:connector-curvature="0"
       sodipodi:nodetypes="cccccccccccccccccccccccccccccccccccccccccccccccccccccc" />
    <circle
       style="opacity:1;fill:#000000;fill-opacity:1;stroke:none;stroke-width:39.44151306;stroke-linejoin:round;stroke-miterlimit:4;stroke-dasharray:none;stroke-opacity:1"
       id="path7248"
       cx="598.33716"
       cy="-2410.3555"
       r="43.849998" />
    <circle
       cy="-2317.8057"
       cx="386.38724"
       id="circle7259"
       style="opacity:1;fill:#000000;fill-opacity:1;stroke:none;stroke-width:31.66114616;stroke-linejoin:round;stroke-miterlimit:4;stroke-dasharray:none;stroke-opacity:1"
       r="35.199997" />
    <path
       d="m 453.61903,-2067.2058 h -10.9018 l 8,-9.26 z m 309.9982,-26.8 h 94.73 v 26.8 h -78.23 l -16.5,-25 z m -107.4048,0 h 27.8025 v 20.7 l 4.1032,6.1 h -38.0009 v -18.7047 z m -136.5952,0 h 58.1 v 26.8 h -53.4 l -4.7,-3.4 z m -216.7295,0 h 71.1295 l -13.84,24.3 v 2.5 h -57.2935 z"
       style="fill:#000000;fill-opacity:1;fill-rule:evenodd;stroke:none;stroke-width:3.00057936"
       id="path1500"
       inkscape:connector-curvature="0"
       sodipodi:nodetypes="ccccccccccccccccccccccccccccc" />
    <path
       d="m 410.61723,-1906.9058 h 340 v -26.8 h -340 z"
       style="fill:#000000;fill-opacity:1;fill-rule:evenodd;stroke:none;stroke-width:3.02854347"
       id="path1502"
       inkscape:connector-curvature="0" />
    <rect
       style="opacity:1;fill:#a0ff32;fill-opacity:1;stroke:none;stroke-width:58.9592514;stroke-linejoin:round;stroke-miterlimit:4;stroke-dasharray:none;stroke-opacity:1"
       id="rect4179"
       width="400"
       height="400"
       x="380.61722"
       y="-1841.6058"
       rx="30"
       ry="30" />
    <rect
       ry="20"
       rx="20"
       y="-1831.6058"
       x="390.61722"
       height="380"
       width="380"
       id="rect4190"
       style="opacity:1;fill:#000000;fill-opacity:1;stroke:none;stroke-width:56.01128769;stroke-linejoin:round;stroke-miterlimit:4;stroke-dasharray:none;stroke-opacity:1" />
    <rect
       style="opacity:1;fill:#a0ff32;fill-opacity:1;stroke:none;stroke-width:53.06332397;stroke-linejoin:round;stroke-miterlimit:4;stroke-dasharray:none;stroke-opacity:1"
       id="rect4201"
       width="360"
       height="360"
       x="400.61722"
       y="-1821.6058"
       rx="10"
       ry="10" />
    <path
       style="fill:#000000;fill-opacity:1;fill-rule:evenodd;stroke:none;stroke-width:5.45359898"
       d="m 639.12192,-1770.8212 -98.8536,98.8537 -21.13997,-32.217 c -0.75738,-1.4345 -1.72838,-2.7757 -2.92798,-3.9701 -6.40561,-6.4056 -16.78043,-6.4081 -23.18363,0 -2.46116,2.447 -3.96984,5.5023 -4.54175,8.6817 l -38.85778,188.8671 188.86711,-38.8578 c 3.1794,-0.5719 6.2333,-2.0819 8.6818,-4.5416 6.4056,-6.4057 6.4056,-16.7781 0,-23.1837 -1.197,-1.197 -2.5357,-2.1706 -3.9702,-2.928 l -32.2169,-21.1399 98.8537,-98.8537 z"
       id="path4203"
       inkscape:connector-curvature="0"
       sodipodi:nodetypes="cccccccccccccc" />
  </g>
</svg>
