<?xml version="1.0" encoding="UTF-8" standalone="no"?>
<!-- Created with Inkscape (http://www.inkscape.org/) -->

<svg
   xmlns:dc="http://purl.org/dc/elements/1.1/"
   xmlns:cc="http://creativecommons.org/ns#"
   xmlns:rdf="http://www.w3.org/1999/02/22-rdf-syntax-ns#"
   xmlns:svg="http://www.w3.org/2000/svg"
   xmlns="http://www.w3.org/2000/svg"
   xmlns:sodipodi="http://sodipodi.sourceforge.net/DTD/sodipodi-0.dtd"
   xmlns:inkscape="http://www.inkscape.org/namespaces/inkscape"
   width="81.945999cm"
   height="81.945999cm"
   viewBox="0 0 819.46 819.45998"
   version="1.1"
   id="svg8"
   inkscape:version="0.92.2 (5c3e80d, 2017-08-06)"
   sodipodi:docname="Colombia_road_sign_SP-47A.svg">
  <defs
     id="defs2" />
  <sodipodi:namedview
     id="base"
     pagecolor="#ffffff"
     bordercolor="#666666"
     borderopacity="1.0"
     inkscape:pageopacity="0.0"
     inkscape:pageshadow="2"
     inkscape:zoom="0.16"
     inkscape:cx="939.187"
     inkscape:cy="775.8207"
     inkscape:document-units="cm"
     inkscape:current-layer="layer1"
     showgrid="false"
     units="cm"
     inkscape:window-width="1920"
     inkscape:window-height="1057"
     inkscape:window-x="-8"
     inkscape:window-y="-8"
     inkscape:window-maximized="1"
     fit-margin-top="0"
     fit-margin-left="0"
     fit-margin-right="0"
     fit-margin-bottom="0"
     inkscape:measure-start="0,0"
     inkscape:measure-end="0,0" />
  <metadata
     id="metadata5">
    <rdf:RDF>
      <cc:Work
         rdf:about="">
        <dc:format>image/svg+xml</dc:format>
        <dc:type
           rdf:resource="http://purl.org/dc/dcmitype/StillImage" />
        <dc:title></dc:title>
      </cc:Work>
    </rdf:RDF>
  </metadata>
  <g
     inkscape:label="Layer 1"
     inkscape:groupmode="layer"
     id="layer1"
     transform="translate(-170.88723,2259.0658)">
    <path
       style="opacity:1;fill:none;fill-opacity:1;stroke:#a0ff32;stroke-width:79.99999237;stroke-linejoin:round;stroke-miterlimit:4;stroke-dasharray:none;stroke-opacity:1"
       d="m 580.61724,-2217.0658 367.72999,367.73 v 367.73 h -735.46 v -367.73 z"
       id="rect5664"
       inkscape:connector-curvature="0"
       sodipodi:nodetypes="cccccc" />
    <path
       sodipodi:nodetypes="cccccc"
       inkscape:connector-curvature="0"
       id="path5667"
       d="m 580.61723,-2217.0658 367.73,367.73 v 367.73 h -735.46 v -367.73 z"
       style="opacity:1;fill:none;fill-opacity:1;stroke:#000000;stroke-width:55.99999619;stroke-linejoin:round;stroke-miterlimit:4;stroke-dasharray:none;stroke-opacity:1" />
    <path
       style="opacity:1;fill:#a0ff32;fill-opacity:1;stroke:#a0ff32;stroke-width:31.99999809;stroke-linejoin:round;stroke-miterlimit:4;stroke-dasharray:none;stroke-opacity:1"
       d="m 580.61723,-2217.0658 367.73,367.73 v 367.73 h -735.46 v -367.73 z"
       id="path5669"
       inkscape:connector-curvature="0"
       sodipodi:nodetypes="cccccc" />
    <path
       d="m 687.95352,-1922.0389 42.73233,15.087 12.57115,26.805 -25.97197,12.5678 z m -298.27803,72.0567 -15.07865,62.8452 -37.70614,15.9118 c -17.77807,11.9594 -3.17137,33.5201 10.89332,26.8165 l 46.92142,-19.2714 16.75659,-31.002 13.40459,36.0278 -35.19113,37.7025 13.40825,14.2486 -29.32775,51.1033 0.8373,86.3063 c -0.59688,18.1572 30.79181,18.9944 35.19478,2.5141 v -72.9002 l 46.91787,-53.6184 19.27151,62.8338 61.16309,43.5729 c 20.58443,7.4928 34.17707,-16.9926 21.78288,-28.4869 l -52.78113,-37.7024 -0.003,-52.7884 29.32397,-15.9201 -23.45695,-32.6723 62.00019,-38.547 -3.34835,-10.0559 31.839,-15.0787 13.40459,-28.4868 25.13488,51.1064 -49.4401,104.7363 v 118.986 c 3.09392,25.8725 40.82944,24.7583 45.25101,1.6662 v -109.7695 l 61.15933,-81.2647 v 94.2151 l 59.49269,88.4409 c 23.23209,29.25 55.01946,1.6118 45.24725,-20.1046 l -52.78481,-79.5975 10.89322,-100.5476 -9.21904,-13.401 103.05102,-52.7915 -36.02455,-72.8939 -44.41017,17.5978 -25.97573,-42.7292 -92.99478,-26.8123 -60.32967,37.7024 -15.91951,87.1352 -25.13498,14.2445 -14.24168,-25.1345 -32.67975,20.1087 -71.21932,-46.921 c 0,0 -47.7512,34.3574 -46.08069,32.6755"
       style="fill:#000000;fill-opacity:1;fill-rule:evenodd;stroke:none;stroke-width:3.68763494"
       id="path6488"
       inkscape:connector-curvature="0"
       sodipodi:nodetypes="cccccccccccccccccccccccccccccccccccccccccccccccccccccc" />
    <circle
       style="opacity:1;fill:#000000;fill-opacity:1;stroke:none;stroke-width:39.44151306;stroke-linejoin:round;stroke-miterlimit:4;stroke-dasharray:none;stroke-opacity:1"
       id="path7248"
       cx="598.33722"
       cy="-2000.3557"
       r="43.849998" />
    <circle
       cy="-1907.8058"
       cx="386.38724"
       id="circle7259"
       style="opacity:1;fill:#000000;fill-opacity:1;stroke:none;stroke-width:31.66114616;stroke-linejoin:round;stroke-miterlimit:4;stroke-dasharray:none;stroke-opacity:1"
       r="35.199997" />
    <path
       d="m 453.61906,-1657.2058 h -10.90183 l 8,-9.26 z m 309.99818,-26.8 h 94.72999 v 26.8 h -78.22999 l -16.5,-25 z m -107.40479,0 h 27.80248 v 20.7 l 4.10317,6.1 h -38.00086 v -18.7047 z m -136.59521,0 h 58.1 v 26.8 h -53.4 l -4.7,-3.4 z m -216.72948,0 h 71.12947 l -13.84,24.3 0.003,2.5 h -57.29352 z"
       style="fill:#000000;fill-opacity:1;fill-rule:evenodd;stroke:none;stroke-width:3.00057936"
       id="path1500"
       inkscape:connector-curvature="0"
       sodipodi:nodetypes="ccccccccccccccccccccccccccccc" />
    <path
       d="m 410.61724,-1496.9058 h 340.00001 v -26.8 H 410.61724 Z"
       style="fill:#000000;fill-opacity:1;fill-rule:evenodd;stroke:none;stroke-width:3.02854347"
       id="path1502"
       inkscape:connector-curvature="0" />
  </g>
</svg>
