<?xml version="1.0" encoding="UTF-8" standalone="no"?>
<!-- Created with Inkscape (http://www.inkscape.org/) -->

<svg
   xmlns:dc="http://purl.org/dc/elements/1.1/"
   xmlns:cc="http://creativecommons.org/ns#"
   xmlns:rdf="http://www.w3.org/1999/02/22-rdf-syntax-ns#"
   xmlns:svg="http://www.w3.org/2000/svg"
   xmlns="http://www.w3.org/2000/svg"
   xmlns:sodipodi="http://sodipodi.sourceforge.net/DTD/sodipodi-0.dtd"
   xmlns:inkscape="http://www.inkscape.org/namespaces/inkscape"
   width="81.945999cm"
   height="122.946cm"
   viewBox="0 0 819.45999 1229.4599"
   version="1.1"
   id="svg8"
   inkscape:version="0.92.2 (5c3e80d, 2017-08-06)"
   sodipodi:docname="Colombia_road_sign_SP-46B.svg">
  <defs
     id="defs2" />
  <sodipodi:namedview
     id="base"
     pagecolor="#ffffff"
     bordercolor="#666666"
     borderopacity="1.0"
     inkscape:pageopacity="0.0"
     inkscape:pageshadow="2"
     inkscape:zoom="0.15879247"
     inkscape:cx="520.78703"
     inkscape:cy="2297.0592"
     inkscape:document-units="cm"
     inkscape:current-layer="layer1"
     showgrid="false"
     units="cm"
     inkscape:window-width="1920"
     inkscape:window-height="1057"
     inkscape:window-x="-8"
     inkscape:window-y="-8"
     inkscape:window-maximized="1"
     fit-margin-top="0"
     fit-margin-left="0"
     fit-margin-right="0"
     fit-margin-bottom="0" />
  <metadata
     id="metadata5">
    <rdf:RDF>
      <cc:Work
         rdf:about="">
        <dc:format>image/svg+xml</dc:format>
        <dc:type
           rdf:resource="http://purl.org/dc/dcmitype/StillImage" />
        <dc:title></dc:title>
      </cc:Work>
    </rdf:RDF>
  </metadata>
  <g
     inkscape:label="Layer 1"
     inkscape:groupmode="layer"
     id="layer1"
     transform="translate(-463.72993,1374.46)">
    <rect
       style="fill:#a0ff32;fill-opacity:1;stroke:none;stroke-width:59.79019928;stroke-miterlimit:4;stroke-dasharray:none;stroke-opacity:1"
       id="rect815"
       width="600"
       height="600"
       x="999.79932"
       y="-364.53772"
       rx="40"
       ry="40"
       transform="rotate(-45)" />
    <rect
       y="-352.53778"
       x="1011.7993"
       height="576"
       width="576"
       id="rect12551"
       style="fill:#000000;fill-opacity:1;stroke:none;stroke-width:57.39859009;stroke-miterlimit:4;stroke-dasharray:none;stroke-opacity:1"
       rx="28"
       ry="28"
       transform="rotate(-45)" />
    <rect
       y="-340.53778"
       x="1023.7991"
       height="552"
       width="552"
       id="rect12553"
       style="fill:#a0ff32;fill-opacity:1;stroke:none;stroke-width:55.00698471;stroke-miterlimit:4;stroke-dasharray:none;stroke-opacity:1"
       rx="16"
       ry="16"
       transform="rotate(-45)" />
    <path
       d="m 839.59955,-1112.1158 -34.32101,69.3166 -51.81741,16.1526 c -15.44451,7.9424 -8.98128,27.95163 6.05436,22.8816 l 62.58766,-14.132 26.91776,-34.9981 26.9204,69.31903 -51.82006,90.17728 -28.26407,102.96569 c -5.65857,17.1996 21.48321,30.90715 30.95661,8.74691 l 28.26406,-98.92684 51.81748,-53.83558 47.7838,158.14492 c 9.7781,15.27258 33.20389,3.88001 30.28474,-9.41876 l -31.63105,-176.99539 c 6.87467,-4.93201 9.32761,-18.06929 4.03627,-26.91773 l -42.39613,-99.59863 45.09126,19.5171 19.51457,51.8201 c 7.72095,15.1762 27.18601,6.2288 22.20711,-8.7496 l -20.86346,-63.262 -88.15917,-39.7036 z"
       style="fill:#000000;fill-opacity:1;fill-rule:evenodd;stroke:none;stroke-width:2.6040225"
       id="path1755"
       inkscape:connector-curvature="0"
       sodipodi:nodetypes="ccccccccccccccccccccccc" />
    <circle
       style="fill:#000000;fill-opacity:1;stroke:none;stroke-width:17.46869278;stroke-miterlimit:4;stroke-dasharray:none;stroke-opacity:1"
       id="path2407"
       cx="848.62988"
       cy="-1163.8999"
       r="34.299999" />
    <path
       d="m 989.45648,-844.00001 h 84.00712 v -20 h -87.60378 z m -129.19666,0 h 57.9 l -6,-20 h -46.1 z m -186.79999,0 h 121.6 l 5.5,-20 h -127.1 z"
       style="fill:#000000;fill-opacity:1;fill-rule:evenodd;stroke:none;stroke-width:2.99593306"
       id="path1751"
       inkscape:connector-curvature="0"
       sodipodi:nodetypes="ccccccccccccccc" />
    <path
       inkscape:connector-curvature="0"
       id="path2331"
       style="fill:#000000;fill-opacity:1;fill-rule:evenodd;stroke:none;stroke-width:2.99590993"
       d="m 748.45983,-724.00001 h 250 v -20 h -250 z"
       sodipodi:nodetypes="ccccc" />
    <rect
       style="opacity:1;fill:#a0ff32;fill-opacity:1;stroke:none;stroke-width:58.9592514;stroke-linejoin:round;stroke-miterlimit:4;stroke-dasharray:none;stroke-opacity:1"
       id="rect4179"
       width="400"
       height="400"
       x="673.45984"
       y="-547.00006"
       rx="30.000002"
       ry="30.000002" />
    <rect
       ry="20"
       rx="20"
       y="-537.00006"
       x="683.45984"
       height="380"
       width="380"
       id="rect4190"
       style="opacity:1;fill:#000000;fill-opacity:1;stroke:none;stroke-width:56.01128387;stroke-linejoin:round;stroke-miterlimit:4;stroke-dasharray:none;stroke-opacity:1" />
    <rect
       style="opacity:1;fill:#a0ff32;fill-opacity:1;stroke:none;stroke-width:53.06332016;stroke-linejoin:round;stroke-miterlimit:4;stroke-dasharray:none;stroke-opacity:1"
       id="rect4201"
       width="359.99997"
       height="359.99997"
       x="693.45984"
       y="-527.00006"
       rx="10"
       ry="10" />
    <path
       style="fill:#000000;fill-opacity:1;fill-rule:evenodd;stroke:none;stroke-width:5.45359898"
       d="m 931.96459,-476.2154 -98.8536,98.85369 -21.13996,-32.21699 c -0.75739,-1.4345 -1.72838,-2.7757 -2.92798,-3.9701 -6.40561,-6.4056 -16.78043,-6.4081 -23.18363,0 -2.46116,2.447 -3.96984,5.5023 -4.54175,8.6817 l -38.85778,188.86707 188.8671,-38.85779 c 3.1794,-0.5719 6.2333,-2.0819 8.6818,-4.5416 6.40559,-6.40569 6.40559,-16.7781 0,-23.1837 -1.197,-1.197 -2.5357,-2.1706 -3.9702,-2.928 l -32.2169,-21.1399 98.85361,-98.85368 z"
       id="path4203"
       inkscape:connector-curvature="0"
       sodipodi:nodetypes="cccccccccccccc" />
  </g>
</svg>
