<?xml version="1.0" encoding="UTF-8" standalone="no"?>
<!-- Created with Inkscape (http://www.inkscape.org/) -->

<svg
   xmlns:dc="http://purl.org/dc/elements/1.1/"
   xmlns:cc="http://creativecommons.org/ns#"
   xmlns:rdf="http://www.w3.org/1999/02/22-rdf-syntax-ns#"
   xmlns:svg="http://www.w3.org/2000/svg"
   xmlns="http://www.w3.org/2000/svg"
   xmlns:sodipodi="http://sodipodi.sourceforge.net/DTD/sodipodi-0.dtd"
   xmlns:inkscape="http://www.inkscape.org/namespaces/inkscape"
   width="81.945999cm"
   height="81.945999cm"
   viewBox="0 0 819.45999 819.45997"
   version="1.1"
   id="svg8"
   inkscape:version="0.92.2 (5c3e80d, 2017-08-06)"
   sodipodi:docname="66.svg">
  <defs
     id="defs2" />
  <sodipodi:namedview
     id="base"
     pagecolor="#ffffff"
     bordercolor="#666666"
     borderopacity="1.0"
     inkscape:pageopacity="0.0"
     inkscape:pageshadow="2"
     inkscape:zoom="0.15879247"
     inkscape:cx="2142.5986"
     inkscape:cy="1352.1516"
     inkscape:document-units="cm"
     inkscape:current-layer="layer1"
     showgrid="false"
     units="cm"
     inkscape:window-width="1920"
     inkscape:window-height="1057"
     inkscape:window-x="-8"
     inkscape:window-y="-8"
     inkscape:window-maximized="1" />
  <metadata
     id="metadata5">
    <rdf:RDF>
      <cc:Work
         rdf:about="">
        <dc:format>image/svg+xml</dc:format>
        <dc:type
           rdf:resource="http://purl.org/dc/dcmitype/StillImage" />
        <dc:title></dc:title>
      </cc:Work>
    </rdf:RDF>
  </metadata>
  <g
     inkscape:label="Layer 1"
     inkscape:groupmode="layer"
     id="layer1"
     transform="translate(0,522.46)">
    <rect
       style="fill:#facd00;fill-opacity:1;stroke:none;stroke-width:59.79019928;stroke-miterlimit:4;stroke-dasharray:none;stroke-opacity:1"
       id="rect815"
       width="600"
       height="600"
       x="69.437729"
       y="-89.989304"
       rx="40"
       ry="40"
       transform="rotate(-45)" />
    <rect
       y="-77.989304"
       x="81.437729"
       height="576"
       width="576"
       id="rect12551"
       style="fill:#000000;fill-opacity:1;stroke:none;stroke-width:57.39859009;stroke-miterlimit:4;stroke-dasharray:none;stroke-opacity:1"
       rx="28"
       ry="28"
       transform="rotate(-45)" />
    <rect
       y="-65.989296"
       x="93.437729"
       height="552"
       width="552"
       id="rect12553"
       style="fill:#facd00;fill-opacity:1;stroke:none;stroke-width:55.00698471;stroke-miterlimit:4;stroke-dasharray:none;stroke-opacity:1"
       rx="16"
       ry="16"
       transform="rotate(-45)" />
    <path
       d="m 282.32923,-96.798859 c -0.6379,-1.585253 16.46877,-3.955421 36.12289,0.017 -8.4531,56.918708 72.77327,58.012402 68.20957,96.24793466 C 376.53349,40.413425 337.61784,45.267771 345.39677,109.44703 317.83189,104.71856 287.07867,92.067269 274.89787,90.140475 265.62067,26.95605 317.96074,41.294338 325.95246,-0.23730684 333.51564,-40.474466 273.87901,-39.884131 282.32923,-96.802838"
       style="fill:#000000;fill-opacity:1;fill-rule:evenodd;stroke:none;stroke-width:2.99651146"
       id="path1707"
       inkscape:connector-curvature="0" />
    <path
       d="m 482.28939,-82.427613 c -0.6744,-1.330424 10.8773,-8.270402 31.6731,-4.944212 -8.9416,47.665457 77.8734,58.216164 73.043,90.2399177 C 576.28689,37.151182 510.63639,64.251613 518.86479,118 c -29.1591,-3.96136 -50.62,-14.51803 -63.5051,-16.13317 -9.8135,-52.906464 65.0843,-69.734867 73.5405,-104.5123056 8.0006,-33.6958034 -55.5524,-32.1196504 -46.6108,-79.7821374"
       style="fill:#000000;fill-opacity:1;fill-rule:evenodd;stroke:none;stroke-width:2.99651146"
       id="path1711"
       inkscape:connector-curvature="0" />
    <path
       style="fill:#000000;fill-opacity:1;fill-rule:evenodd;stroke:none;stroke-width:3.83291459"
       d="m 421.81413,-320.45343 c -22.67984,-2.35781 -45.45393,-3.74133 -68.34701,-4.07016 -9.11928,0.84914 -17.28145,4.55087 -24.48089,11.15151 -13.19265,13.13143 -24.75169,26.65451 -33.33295,40.90267 -10.65896,17.69901 -27.26152,50.02005 -30.31169,69.35893 -1.03986,6.59279 -1.8938,13.80244 -2.62542,21.4914 -1.53097,5.93316 -0.60717,9.13124 2.7697,9.50984 l -3.34156,31.79275 c -1.16744,11.1075 6.83467,20.98928 17.94216,22.15673 l 11.49429,1.20809 0.67866,0.0713 c 10.94293,1.15015 20.69618,-6.60001 22.09914,-17.45109 0.0667,-0.40427 0.12308,-0.81227 0.16644,-1.22486 l 2.10511,-20.02875 c 28.76214,4.97899 57.60195,9.22875 86.55934,12.3556 28.97446,2.96208 58.06776,4.80129 87.23648,5.91107 l -2.10511,20.02876 c -0.0434,0.41259 -0.073,0.8234 -0.0918,1.23271 -0.88387,10.90563 7.04501,20.514269 17.98793,21.664409 l 0.67867,0.0713 11.49428,1.2081 c 11.10762,1.16746 20.9894,-6.83465 22.15684,-17.942149 l 3.34156,-31.79275 c 3.38166,0.33179 4.95032,-2.60436 4.68637,-8.72618 0.88299,-7.67304 1.54673,-14.90269 1.90027,-21.56761 1.03726,-19.55045 -8.48302,-54.61711 -15.22934,-74.14549 -5.43127,-15.72093 -13.92576,-31.35173 -24.10006,-46.93912 -5.66966,-7.95324 -12.8843,-13.27114 -21.62776,-15.99772 -22.46107,-4.43809 -45.02481,-7.81974 -67.69924,-10.22889 -10e-4,-10e-5 -10e-4,-10e-5 -0.002,-2.1e-4 -10e-4,-1e-4 -10e-4,-1e-4 -0.002,-2.1e-4 z m -1.27743,12.17304 c 22.71159,2.34667 45.37197,5.63421 67.89012,9.81238 3.26135,1.49515 5.93822,3.56883 8.02041,6.34672 l 29.59395,65.58915 c 1.67378,4.9394 0.19088,7.20502 -4.41203,6.84845 -33.68193,-5.75832 -71.21102,-10.8439 -108.84441,-14.84299 -37.64257,-3.91275 -75.40924,-6.74106 -109.55247,-8.11144 -4.57623,-0.6082 -5.55578,-3.13264 -2.89162,-7.6161 l 42.58423,-58.00293 c 2.61423,-2.28427 5.66375,-3.75608 9.1647,-4.54049 22.89476,0.59493 45.74383,2.09059 68.44699,4.51724 z"
       id="path6543"
       inkscape:connector-curvature="0"
       sodipodi:nodetypes="cccccccsscscscccscscsscccccccscccccccccccc" />
    <path
       style="fill:#facd00;fill-opacity:1;stroke:none;stroke-width:21.27864456;stroke-linejoin:miter;stroke-miterlimit:4;stroke-dasharray:none;stroke-opacity:1"
       d="m 380.15046,-199.55225 c -1.5868,-0.16678 -2.9984,0.97661 -3.16517,2.5633 l -2.14766,20.4336 -55.63763,-5.84775 0.79025,-7.51869 c 0.16678,-1.5868 -0.97617,-2.99835 -2.56297,-3.16513 l -39.59822,-4.16194 c -1.5868,-0.16678 -2.99835,0.97628 -3.16513,2.56308 l -0.9784,9.30883 c -0.16678,1.5868 0.97627,2.99836 2.56307,3.16514 l 259.21228,27.2443 c 1.58669,0.16677 2.99859,-0.97624 3.16537,-2.56304 l 0.9784,-9.30884 c 0.16678,-1.5868 -0.97662,-2.99839 -2.56331,-3.16516 l -39.59799,-4.16191 c -1.58681,-0.16678 -2.99836,0.97627 -3.16514,2.56307 l -0.79025,7.5187 -55.63754,-5.84775 2.14766,-20.4336 c 0.16677,-1.58669 -0.97625,-2.99858 -2.56306,-3.16536 z"
       id="rect6591"
       inkscape:connector-curvature="0" />
    <path
       id="path6595"
       d="m 279.7107,-215.15035 39.59788,4.16191 c 1.5868,0.16678 2.72996,1.57846 2.56318,3.16526 l -0.97839,9.30873 c -0.16678,1.5868 -1.57846,2.72996 -3.16526,2.56318 l -39.59788,-4.16191 c -1.58681,-0.16678 -2.72996,-1.57846 -2.56318,-3.16526 l 0.97839,-9.30873 c 0.16678,-1.5868 1.57845,-2.72996 3.16526,-2.56318 z"
       style="fill:#facd00;fill-opacity:1;stroke:none;stroke-width:21.27864456;stroke-linejoin:miter;stroke-miterlimit:4;stroke-dasharray:none;stroke-opacity:1"
       inkscape:connector-curvature="0" />
    <path
       inkscape:connector-curvature="0"
       style="fill:#facd00;fill-opacity:1;stroke:none;stroke-width:21.27864456;stroke-linejoin:miter;stroke-miterlimit:4;stroke-dasharray:none;stroke-opacity:1"
       d="m 538.92298,-187.90604 -39.59788,-4.1619 c -1.58679,-0.16678 -2.99848,0.97638 -3.16526,2.56318 l -0.97839,9.30872 c -0.16678,1.5868 0.97638,2.99849 2.56318,3.16527 l 39.59788,4.1619 c 1.58681,0.16678 2.99848,-0.97638 3.16526,-2.56318 l 0.97839,-9.30872 c 0.16678,-1.5868 -0.97637,-2.99849 -2.56318,-3.16527 z"
       id="path2387" />
  </g>
</svg>
