<?xml version="1.0" encoding="UTF-8" standalone="no"?>
<!-- Created with Inkscape (http://www.inkscape.org/) -->

<svg
   xmlns:dc="http://purl.org/dc/elements/1.1/"
   xmlns:cc="http://creativecommons.org/ns#"
   xmlns:rdf="http://www.w3.org/1999/02/22-rdf-syntax-ns#"
   xmlns:svg="http://www.w3.org/2000/svg"
   xmlns="http://www.w3.org/2000/svg"
   xmlns:sodipodi="http://sodipodi.sourceforge.net/DTD/sodipodi-0.dtd"
   xmlns:inkscape="http://www.inkscape.org/namespaces/inkscape"
   width="81.945999cm"
   height="81.945999cm"
   viewBox="0 0 819.45997 819.46"
   version="1.1"
   id="svg8"
   inkscape:version="0.92.2 (5c3e80d, 2017-08-06)"
   sodipodi:docname="66.svg">
  <defs
     id="defs2" />
  <sodipodi:namedview
     id="base"
     pagecolor="#ffffff"
     bordercolor="#666666"
     borderopacity="1.0"
     inkscape:pageopacity="0.0"
     inkscape:pageshadow="2"
     inkscape:zoom="0.13770285"
     inkscape:cx="2824.6518"
     inkscape:cy="1125.2273"
     inkscape:document-units="cm"
     inkscape:current-layer="layer1"
     showgrid="false"
     units="cm"
     inkscape:window-width="1920"
     inkscape:window-height="1057"
     inkscape:window-x="-8"
     inkscape:window-y="-8"
     inkscape:window-maximized="1"
     fit-margin-top="0"
     fit-margin-left="0"
     fit-margin-right="0"
     fit-margin-bottom="0" />
  <metadata
     id="metadata5">
    <rdf:RDF>
      <cc:Work
         rdf:about="">
        <dc:format>image/svg+xml</dc:format>
        <dc:type
           rdf:resource="http://purl.org/dc/dcmitype/StillImage" />
        <dc:title></dc:title>
      </cc:Work>
    </rdf:RDF>
  </metadata>
  <g
     inkscape:label="Layer 1"
     inkscape:groupmode="layer"
     id="layer1"
     transform="translate(-343.30708,1097.46)">
    <rect
       style="fill:#facd00;fill-opacity:1;stroke:none;stroke-width:59.79019928;stroke-miterlimit:4;stroke-dasharray:none;stroke-opacity:1"
       id="rect815"
       width="600"
       height="600"
       x="718.77887"
       y="-253.82094"
       rx="40"
       ry="40"
       transform="rotate(-45)" />
    <rect
       y="-241.82094"
       x="730.77887"
       height="576"
       width="576"
       id="rect12551"
       style="fill:#000000;fill-opacity:1;stroke:none;stroke-width:57.39859009;stroke-miterlimit:4;stroke-dasharray:none;stroke-opacity:1"
       rx="28"
       ry="28"
       transform="rotate(-45)" />
    <rect
       y="-229.82094"
       x="742.77887"
       height="552"
       width="552"
       id="rect12553"
       style="fill:#facd00;fill-opacity:1;stroke:none;stroke-width:55.00698471;stroke-miterlimit:4;stroke-dasharray:none;stroke-opacity:1"
       rx="16"
       ry="16"
       transform="rotate(-45)" />
    <path
       d="m 840.77096,-948.00008 -2.8103,20.56143 8.95,7.16197 0.05,20.97663 32.6959,57.09775 1.2041,22.90225 11.9781,19.5 12.2819,39.4 7.4929,21.99829 18.6001,17.70171 -31.953,52.70001 -58,69.99999 h -30.347 l -5.0763,-13.7478 -14.8273,13.7478 h -87.6548 l -10.1645,-11.0628 -11.8547,11.0628 h -165.3754 l 30,30.00001 h 410.8103 L 1088.771,-700.00005 Z"
       style="fill:#000000;fill-opacity:1;fill-rule:evenodd;stroke:none;stroke-width:2.99663734"
       id="path1783"
       inkscape:connector-curvature="0"
       sodipodi:nodetypes="ccccccccccccccccccccccc" />
    <path
       d="m 838.30626,-890.20249 9.4604,12.08847 v 19.44523 l -19.4451,-12.61292 z"
       style="fill:#000000;fill-opacity:1;fill-rule:evenodd;stroke:none;stroke-width:2.99663734"
       id="path1787"
       inkscape:connector-curvature="0" />
    <path
       d="m 866.68446,-811.89435 3.1555,19.97265 -13.1403,-1.05187 z"
       style="fill:#000000;fill-opacity:1;fill-rule:evenodd;stroke:none;stroke-width:2.99663734"
       id="path1791"
       inkscape:connector-curvature="0" />
    <path
       d="m 856.96636,-723.07701 1.9059,12.08848 -7.9501,-0.63793 z"
       style="fill:#000000;fill-opacity:1;fill-rule:evenodd;stroke:none;stroke-width:2.99663734"
       id="path1795"
       inkscape:connector-curvature="0" />
    <path
       d="m 853.02276,-770.90332 c 3.4821,0 6.308,2.5891 6.308,5.78351 0,3.19143 -2.8259,5.78052 -6.308,5.78052 -3.482,0 -6.3109,-2.58909 -6.3109,-5.78052 0,-3.19441 2.8289,-5.78351 6.3109,-5.78351"
       style="fill:#000000;fill-opacity:1;fill-rule:evenodd;stroke:none;stroke-width:2.99663734"
       id="path1799"
       inkscape:connector-curvature="0" />
    <path
       d="m 873.51976,-750.93076 c 3.4792,0 6.308,2.58612 6.308,5.7835 0,3.19144 -2.8288,5.77756 -6.308,5.77756 -3.482,0 -6.3078,-2.58612 -6.3078,-5.77756 0,-3.19738 2.8258,-5.7835 6.3078,-5.7835"
       style="fill:#000000;fill-opacity:1;fill-rule:evenodd;stroke:none;stroke-width:2.99663734"
       id="path1803"
       inkscape:connector-curvature="0" />
    <path
       d="m 895.59296,-723.60137 c 3.4822,0 6.308,2.58613 6.308,5.78053 0,3.19441 -2.8258,5.78045 -6.308,5.78045 -3.482,0 -6.3078,-2.58604 -6.3078,-5.78045 0,-3.1944 2.8258,-5.78053 6.3078,-5.78053"
       style="fill:#000000;fill-opacity:1;fill-rule:evenodd;stroke:none;stroke-width:2.99663734"
       id="path1807"
       inkscape:connector-curvature="0" />
    <path
       d="m 875.23986,-709.93675 c 2.694,0 4.8756,2.00179 4.8756,4.46805 0,2.46618 -2.1816,4.465 -4.8756,4.465 -2.694,0 -4.8755,-1.99882 -4.8755,-4.465 0,-2.46626 2.1815,-4.46805 4.8755,-4.46805"
       style="fill:#000000;fill-opacity:1;fill-rule:evenodd;stroke:none;stroke-width:2.99663734"
       id="path1811"
       inkscape:connector-curvature="0" />
    <path
       d="m 865.25506,-681.55856 c 2.694,0 4.8696,2.00179 4.8696,4.46798 0,2.46627 -2.1756,4.465 -4.8696,4.465 -2.697,0 -4.8754,-1.99873 -4.8754,-4.465 0,-2.46619 2.1784,-4.46798 4.8754,-4.46798"
       style="fill:#000000;fill-opacity:1;fill-rule:evenodd;stroke:none;stroke-width:2.99663734"
       id="path1815"
       inkscape:connector-curvature="0" />
    <path
       d="m 845.80996,-661.06155 c 2.6879,0 4.8695,1.99874 4.8695,4.46798 0,2.46626 -2.1816,4.465 -4.8695,4.465 -2.694,0 -4.8756,-1.99874 -4.8756,-4.465 0,-2.46924 2.1816,-4.46798 4.8756,-4.46798"
       style="fill:#000000;fill-opacity:1;fill-rule:evenodd;stroke:none;stroke-width:2.99663734"
       id="path1819"
       inkscape:connector-curvature="0" />
    <path
       d="m 835.29766,-630.05535 c 2.688,0 4.8696,1.99873 4.8696,4.46797 0,2.46627 -2.1816,4.465 -4.8696,4.465 -2.6939,0 -4.8755,-1.99873 -4.8755,-4.465 0,-2.46924 2.1816,-4.46797 4.8755,-4.46797"
       style="fill:#000000;fill-opacity:1;fill-rule:evenodd;stroke:none;stroke-width:2.99663734"
       id="path1823"
       inkscape:connector-curvature="0" />
    <path
       d="m 861.57226,-641.09196 c 2.694,0 4.8755,1.99873 4.8755,4.46797 0,2.46627 -2.1815,4.465 -4.8755,4.465 -2.688,0 -4.8696,-1.99873 -4.8696,-4.465 0,-2.46924 2.1816,-4.46797 4.8696,-4.46797"
       style="fill:#000000;fill-opacity:1;fill-rule:evenodd;stroke:none;stroke-width:2.99663734"
       id="path1827"
       inkscape:connector-curvature="0" />
    <path
       d="m 875.23986,-662.11638 c 2.694,0 4.8756,2.00179 4.8756,4.47094 0,2.46627 -2.1816,4.46806 -4.8756,4.46806 -2.694,0 -4.8755,-2.00179 -4.8755,-4.46806 0,-2.46915 2.1815,-4.47094 4.8755,-4.47094"
       style="fill:#000000;fill-opacity:1;fill-rule:evenodd;stroke:none;stroke-width:2.99663734"
       id="path1831"
       inkscape:connector-curvature="0" />
    <path
       style="fill:#000000;fill-opacity:1;fill-rule:evenodd;stroke:none;stroke-width:3.30056047"
       d="m 667.70488,-788.2998 c -19.635,0.023 -39.2631,0.8873 -58.8982,2.6663 -7.7333,1.548 -14.3901,5.4528 -19.9615,11.7536 -10.1161,12.4331 -18.798,25.0546 -24.8644,38.0291 -7.5352,16.11669 -18.8443,45.29059 -19.7157,62.12681 -0.2971,5.73962 -0.3795,11.99077 -0.3139,18.64139 -0.7771,5.21893 0.3019,7.87459 3.2279,7.89486 v 27.52786 c 0,9.61746 7.7424,17.35987 17.3599,17.35987 h 9.9523 0.5876 c 9.475,0 17.13,-7.51508 17.3548,-16.93414 0.021,-0.35222 0.033,-0.7067 0.033,-1.06394 v -17.34196 c 25.0798,1.67508 50.1606,2.71865 75.2409,2.79 25.0801,-0.0713 50.161,-1.11492 75.2408,-2.79 v 17.34196 c 0,0.35724 0.012,0.71172 0.032,1.06394 0.2247,9.41906 7.8798,16.93414 17.3547,16.93414 h 0.5877 9.9523 c 9.6176,0 17.36,-7.74241 17.36,-17.35987 v -27.52786 c 2.9259,-0.0203 4.005,-2.67593 3.2279,-7.89486 0.066,-6.65062 -0.017,-12.90177 -0.3139,-18.64139 -0.8715,-16.83622 -12.1809,-46.01012 -19.7162,-62.12681 -6.0663,-12.9745 -14.7479,-25.596 -24.8641,-38.0291 -5.5713,-6.3008 -12.2286,-10.2056 -19.9619,-11.7536 -19.635,-1.779 -39.2628,-2.644 -58.8978,-2.6663 -10e-4,0 -10e-4,0 0,0 0,0 0,0 0,0 z m 0,10.5399 c 19.6613,-0.034 39.3634,0.7411 59.0238,2.2924 2.9276,0.9869 5.4067,2.5218 7.4399,4.7134 l 31.2479,53.50628 c 1.8779,4.0794 0.812,6.15315 -3.162,6.26209 -29.3634,-1.89966 -61.9608,-2.8769 -94.5497,-2.91429 -32.589,0.0374 -65.1867,1.01463 -94.55,2.91429 -3.9738,-0.10894 -5.0399,-2.18269 -3.1619,-6.26209 l 31.2479,-53.50628 c 2.0332,-2.1916 4.5124,-3.7265 7.4399,-4.7134 19.6605,-1.5513 39.3629,-2.327 59.0241,-2.2924 z"
       id="path6543"
       inkscape:connector-curvature="0"
       sodipodi:nodetypes="cccccccsscscscccscscsscccccccscccccccccccc" />
    <path
       style="fill:#facd00;fill-opacity:1;stroke:none;stroke-width:18.32324982;stroke-linejoin:miter;stroke-miterlimit:4;stroke-dasharray:none;stroke-opacity:1"
       d="m 642.90678,-681.10251 c -1.3739,0 -2.4799,1.10627 -2.4799,2.4801 v 17.69251 h -48.174 v -6.51009 c 0,-1.37393 -1.1058,-2.4799 -2.4798,-2.4799 h -34.2862 c -1.374,0 -2.4799,1.10597 -2.4799,2.4799 v 8.06007 c 0,1.37394 1.1059,2.47991 2.4799,2.47991 h 224.4398 c 1.3738,0 2.4801,-1.10597 2.4801,-2.47991 v -8.06007 c 0,-1.37393 -1.1063,-2.4799 -2.4801,-2.4799 h -34.286 c -1.374,0 -2.4799,1.10597 -2.4799,2.4799 v 6.51009 h -48.174 v -17.69251 c 0,-1.37383 -1.106,-2.4801 -2.4799,-2.4801 z"
       id="rect6591"
       inkscape:connector-curvature="0" />
    <path
       id="path6595"
       d="m 555.48698,-685.41996 h 34.2859 c 1.374,0 2.48,1.10607 2.48,2.47999 v 8.05999 c 0,1.37394 -1.106,2.48 -2.48,2.48 h -34.2859 c -1.374,0 -2.48,-1.10606 -2.48,-2.48 v -8.05999 c 0,-1.37392 1.106,-2.47999 2.48,-2.47999 z"
       style="fill:#facd00;fill-opacity:1;stroke:none;stroke-width:18.32324982;stroke-linejoin:miter;stroke-miterlimit:4;stroke-dasharray:none;stroke-opacity:1"
       inkscape:connector-curvature="0" />
    <path
       inkscape:connector-curvature="0"
       style="fill:#facd00;fill-opacity:1;stroke:none;stroke-width:18.32324982;stroke-linejoin:miter;stroke-miterlimit:4;stroke-dasharray:none;stroke-opacity:1"
       d="m 745.64068,-685.41996 h 34.286 c 1.3739,0 2.48,1.10607 2.48,2.47999 v 8.05999 c 0,1.37394 -1.1061,2.48 -2.48,2.48 h -34.286 c -1.3739,0 -2.48,-1.10606 -2.48,-2.48 v -8.05999 c 0,-1.37392 1.1061,-2.47999 2.48,-2.47999 z"
       id="path6633" />
  </g>
</svg>
