<?xml version="1.0" encoding="UTF-8" standalone="no"?>
<!-- Created with Inkscape (http://www.inkscape.org/) -->

<svg
   xmlns:dc="http://purl.org/dc/elements/1.1/"
   xmlns:cc="http://creativecommons.org/ns#"
   xmlns:rdf="http://www.w3.org/1999/02/22-rdf-syntax-ns#"
   xmlns:svg="http://www.w3.org/2000/svg"
   xmlns="http://www.w3.org/2000/svg"
   xmlns:sodipodi="http://sodipodi.sourceforge.net/DTD/sodipodi-0.dtd"
   xmlns:inkscape="http://www.inkscape.org/namespaces/inkscape"
   width="81.945999cm"
   height="81.945999cm"
   viewBox="0 0 819.45999 819.45997"
   version="1.1"
   id="svg8"
   inkscape:version="0.92.2 (5c3e80d, 2017-08-06)"
   sodipodi:docname="66.svg">
  <defs
     id="defs2" />
  <sodipodi:namedview
     id="base"
     pagecolor="#ffffff"
     bordercolor="#666666"
     borderopacity="1.0"
     inkscape:pageopacity="0.0"
     inkscape:pageshadow="2"
     inkscape:zoom="0.15879247"
     inkscape:cx="1709.3948"
     inkscape:cy="1466.5814"
     inkscape:document-units="cm"
     inkscape:current-layer="layer1"
     showgrid="false"
     units="cm"
     inkscape:window-width="1920"
     inkscape:window-height="1057"
     inkscape:window-x="-8"
     inkscape:window-y="-8"
     inkscape:window-maximized="1" />
  <metadata
     id="metadata5">
    <rdf:RDF>
      <cc:Work
         rdf:about="">
        <dc:format>image/svg+xml</dc:format>
        <dc:type
           rdf:resource="http://purl.org/dc/dcmitype/StillImage" />
        <dc:title></dc:title>
      </cc:Work>
    </rdf:RDF>
  </metadata>
  <g
     inkscape:label="Layer 1"
     inkscape:groupmode="layer"
     id="layer1"
     transform="translate(0,522.46)">
    <rect
       style="fill:#facd00;fill-opacity:1;stroke:none;stroke-width:59.79019928;stroke-miterlimit:4;stroke-dasharray:none;stroke-opacity:1"
       id="rect815"
       width="600"
       height="600"
       x="69.437729"
       y="-89.989296"
       rx="40"
       ry="40"
       transform="rotate(-45)" />
    <rect
       y="-77.989296"
       x="81.437729"
       height="576"
       width="576"
       id="rect12551"
       style="fill:#000000;fill-opacity:1;stroke:none;stroke-width:57.39859009;stroke-miterlimit:4;stroke-dasharray:none;stroke-opacity:1"
       rx="28"
       ry="28"
       transform="rotate(-45)" />
    <rect
       y="-65.989296"
       x="93.437721"
       height="552"
       width="552"
       id="rect12553"
       style="fill:#facd00;fill-opacity:1;stroke:none;stroke-width:55.00698471;stroke-miterlimit:4;stroke-dasharray:none;stroke-opacity:1"
       rx="16"
       ry="16"
       transform="rotate(-45)" />
    <path
       d="m 411.88693,-191.25047 1.31782,-2.367 -81.02232,-28.14782 -1.8424,1.31529 34.19712,40.77591 h 4.99753 z m -15.88368,28.91091 c 0,0 -9.11902,3.80774 -9.82186,4.00853 -0.70029,0.20086 -1.80221,1.60396 -1.80221,1.60396 l 7.4147,10.11807 c -0.16061,-5.52469 1.42821,-10.73809 4.20937,-15.73056 m 53.13298,24.54337 -3.06974,-0.88605 -1.82989,4.49299 -25.08552,-7.69836 0.42917,-4.41771 -19.05632,-5.48698 -2.34692,11.18485 42.11879,47.00336 4.42023,-0.73791 9.31983,-27.47516 z m -18.91827,86.87324 c 2.27911,-1.27511 2.14604,-3.35343 3.21788,-5.02771 -0.93877,-6.33786 -3.82033,-9.75656 -9.05131,-9.65366 -2.51505,4.89207 -1.84239,9.78673 5.83343,14.68137 m 25.10311,-4.46292 c -1.27519,-2.28164 -3.356,-2.1486 -5.03019,-3.22037 -6.3379,0.93873 -9.75664,3.82276 -9.6512,9.04873 4.89211,2.51763 9.78426,1.84741 14.68139,-5.82836 m -4.66876,-25.30139 c -2.2791,1.27262 -2.14109,3.35092 -3.21539,5.02761 0.93629,6.33291 3.81784,9.75158 9.04872,9.65376 2.51765,-4.89465 1.84497,-9.78929 -5.83333,-14.68137 m -25.10061,4.86448 c 1.2751,2.27663 3.35598,2.14357 5.03019,3.21539 6.3329,-0.93876 9.75407,-3.82034 9.64868,-9.04625 -4.88967,-2.51505 -9.78423,-1.8449 -14.67887,5.83086 m 50.94174,2.30678 c -0.0655,-1.53366 -0.10546,-3.07231 -0.10546,-4.62106 0,-14.65376 2.96187,-28.63977 8.31083,-41.39344 -10.99659,-4.72387 -18.62214,-7.95686 -18.62214,-7.95686 l -13.46903,36.56157 c 7.19133,3.38602 12.69589,9.79168 14.86458,17.56541 z m 27.94447,-37.47021 c -4.31981,10.18581 -6.70687,21.3782 -6.70687,33.10515 0,1.34291 0.0356,2.67075 0.0954,3.99608 l 66.50161,-1.14968 c -0.89863,-2.12848 -0.96637,-4.67113 -0.20079,-7.63302 0.44172,-1.70437 -32.00837,-16.2527 -59.68929,-28.31853 m 78.55743,-52.15906 c -33.29102,0 -62.22948,19.24716 -76.25816,47.18408 l 60.98438,28.2508 c 4.52316,-5.63264 10.23354,-8.71996 17.67582,-8.10251 12.63065,0.70035 18.83051,8.57687 20.62523,21.36063 -3.38858,14.99763 -12.4424,20.94645 -26.24269,19.69646 -4.14662,-1.42827 -13.43635,-7.31686 -14.04634,-13.87315 l -66.95582,4.09393 c 6.44333,40.65799 41.79749,71.9182397 84.21758,71.9182397 46.96321,0 85.26419,-38.3009597 85.26419,-85.2642697 0,-46.96067 -38.30098,-85.26421 -85.26419,-85.26421 m -347.77652,0 c -46.96327,0 -85.26678,38.30354 -85.26678,85.26421 0,46.96331 38.30351,85.2642697 85.26678,85.2642697 46.96073,0 85.26427,-38.3009597 85.26427,-85.2642697 0,-33.23067 -19.19194,-62.129 -47.0486,-76.18537 l -32.00587,81.08507 c -14.42781,9.83191 -22.78381,-3.56932 -10.31134,-8.10001 l 4.53819,-6.38057 24.72161,-67.89966 1.15463,-3.612 c -8.29076,-2.70582 -17.13616,-4.17167 -26.31296,-4.17167 m 0.31625,-22.5278 c 11.21496,0 22.03081,1.73446 32.20659,4.93976 l 3.60951,-8.83038 4.69378,-2.74097 5.15819,-15.46452 6.31781,-0.10539 3.08483,-5.25858 13.42883,-35.88383 c -2.39957,-3.82031 -2.20633,-6.49106 3.68229,-6.6266 l 12.62809,-38.78296 -20.62514,-11.78721 -1.94784,4.65862 -9.03366,-2.77354 -0.80323,-8.51668 -2.35447,-1.67675 c -14.17178,11.589 -18.15774,6.54629 -5.22591,-3.73244 l -2.73095,-1.95028 c 2.35946,-6.02168 6.09947,-6.97802 11.21994,-2.86903 1.40815,-4.34235 5.28875,-8.39615 9.40272,-11.12963 4.0261,0.57483 5.97394,2.52516 5.85596,5.86352 0.25601,3.58942 -4.13908,7.72595 -11.71193,12.23908 l 3.72741,1.86745 3.42879,-5.23596 c 8.34341,-3.27566 36.52638,-3.15264 45.32666,-0.44178 2.08835,2.47244 2.33434,5.17327 0.73791,8.1025 l -36.3155,0.43922 14.11906,9.74907 2.63303,-1.35542 8.29077,2.65316 1.40061,4.07883 -1.97288,7.84898 -3.99352,0.0556 -13.21799,33.42897 -0.47188,3.45133 c 2.75604,2.42725 2.17367,4.50309 -0.71037,5.20088 l -0.55222,4.02866 119.58684,44.03649 41.98079,-11.0518 1.0919,-3.1577 c -16.1397,-7.67068 -0.39909,-5.09536 1.80475,-5.24101 l 19.19941,-55.67812 -12.52016,-8.10249 c -7.86657,-0.92619 -18.01971,-1.09189 -29.73671,-0.73792 l 1.69931,-5.14062 c 11.61911,-6.33289 24.19453,-7.5202 43.50435,-2.96189 13.93841,-2.29669 25.79094,-3.81528 34.60376,-4.19429 6.86503,2.66568 8.84039,6.6165 7.38206,13.7702 -2.7159,0.94376 -3.74505,4.52814 -8.14014,2.83382 l -8.80531,3.0598 -10.30879,2.96189 c 0.26606,4.27206 -4.7114,7.70333 -12.77621,8.37351 l -15.48204,48.29105 c 6.71185,3.62204 6.05927,5.64764 -1.96541,6.06934 l -12.24156,37.83921 -9.84444,1.34284 1.47339,-9.39768 -3.4388,-0.24346 -56.9432,15.98157 -1.63913,6.63161 18.06241,5.49949 1.30271,-2.42718 24.75923,6.4207 0.26108,4.02361 12.01318,3.66223 1.7319,-3.45889 9.36253,3.45889 -1.72692,6.35794 18.11265,8.39115 c 17.47249,-35.85116 54.30014,-60.65558 96.74027,-60.65558 59.23243,0 107.53595,48.30606 107.53595,107.53601 0,59.23243 -48.30352,107.53606 -107.53595,107.53606 -54.17215,0 -99.19764,-40.40946 -106.49441,-92.6263 l -9.14417,0.55725 -0.009,0.008 c -1.6466,13.61711 -13.29827,24.22462 -27.34959,24.22462 -2.38207,0 -4.69136,-0.30374 -6.90267,-0.87858 l -11.58898,19.15935 0.13804,1.15714 3.27051,0.74545 c 1.59645,1.52108 1.88259,3.4965 0.866,5.93631 l -7.83639,-0.21085 c -1.56128,3.9232097 -7.41725,4.7189097 -8.9584,0.74546 h -9.21192 c -0.53213,-1.39554 -0.44923,-2.63806 0.24855,-3.72995 l 3.55927,-4.08131 5.82331,-0.0576 14.30234,-24.14684 c -6.81738,-5.02008 -11.26011,-13.09997 -11.26011,-22.18889 0,-5.75055 1.7846,-11.09699 4.81677,-15.52224 l 0.008,-0.30875 -112.49595,-128.29923 -3.25305,-0.17319 -7.25402,15.04276 -8.10001,5.89359 2.07833,4.65623 -4.66119,10.86851 c 34.72171,17.86666 58.55975,54.08434 58.55975,95.69358 0,59.23241 -48.30614,107.53607 -107.53857,107.53607 C 176.30874,29.40025 128,-18.90339 128,-78.13581 c 0,-59.22995 48.30874,-107.53602 107.5361,-107.53602"
       style="fill:#000000;fill-opacity:1;fill-rule:evenodd;stroke:none;stroke-width:2.51006055"
       id="path6081"
       inkscape:connector-curvature="0" />
  </g>
</svg>
