<?xml version="1.0" encoding="UTF-8" standalone="no"?>
<!-- Created with Inkscape (http://www.inkscape.org/) -->

<svg
   xmlns:dc="http://purl.org/dc/elements/1.1/"
   xmlns:cc="http://creativecommons.org/ns#"
   xmlns:rdf="http://www.w3.org/1999/02/22-rdf-syntax-ns#"
   xmlns:svg="http://www.w3.org/2000/svg"
   xmlns="http://www.w3.org/2000/svg"
   xmlns:sodipodi="http://sodipodi.sourceforge.net/DTD/sodipodi-0.dtd"
   xmlns:inkscape="http://www.inkscape.org/namespaces/inkscape"
   width="81.945999cm"
   height="81.945999cm"
   viewBox="0 0 819.46 819.45998"
   version="1.1"
   id="svg8"
   inkscape:version="0.92.2 (5c3e80d, 2017-08-06)"
   sodipodi:docname="66.svg">
  <defs
     id="defs2" />
  <sodipodi:namedview
     id="base"
     pagecolor="#ffffff"
     bordercolor="#666666"
     borderopacity="1.0"
     inkscape:pageopacity="0.0"
     inkscape:pageshadow="2"
     inkscape:zoom="0.22456647"
     inkscape:cx="2139.2592"
     inkscape:cy="2053.965"
     inkscape:document-units="cm"
     inkscape:current-layer="layer1"
     showgrid="false"
     units="cm"
     inkscape:window-width="1920"
     inkscape:window-height="1057"
     inkscape:window-x="-8"
     inkscape:window-y="-8"
     inkscape:window-maximized="1" />
  <metadata
     id="metadata5">
    <rdf:RDF>
      <cc:Work
         rdf:about="">
        <dc:format>image/svg+xml</dc:format>
        <dc:type
           rdf:resource="http://purl.org/dc/dcmitype/StillImage" />
        <dc:title></dc:title>
      </cc:Work>
    </rdf:RDF>
  </metadata>
  <g
     inkscape:label="Layer 1"
     inkscape:groupmode="layer"
     id="layer1"
     transform="translate(0,522.46004)">
    <rect
       style="fill:#facd00;fill-opacity:1;stroke:none;stroke-width:59.79019928;stroke-miterlimit:4;stroke-dasharray:none;stroke-opacity:1"
       id="rect815"
       width="600"
       height="600"
       x="69.437737"
       y="-89.989304"
       rx="40"
       ry="40"
       transform="rotate(-45)" />
    <rect
       y="-77.989304"
       x="81.437737"
       height="576"
       width="576"
       id="rect12551"
       style="fill:#000000;fill-opacity:1;stroke:none;stroke-width:57.39859009;stroke-miterlimit:4;stroke-dasharray:none;stroke-opacity:1"
       rx="28"
       ry="28"
       transform="rotate(-45)" />
    <rect
       y="-65.989304"
       x="93.437729"
       height="552"
       width="552"
       id="rect12553"
       style="fill:#facd00;fill-opacity:1;stroke:none;stroke-width:55.00698471;stroke-miterlimit:4;stroke-dasharray:none;stroke-opacity:1"
       rx="16"
       ry="16"
       transform="rotate(-45)" />
    <path
       d="m 371.43145,-136.53603 -123.3206,-145.10918 h 37.62274 l 93.80679,145.10918 z"
       style="fill:#000000;fill-opacity:1;fill-rule:evenodd;stroke:none;stroke-width:2.99663734"
       id="path1723"
       inkscape:connector-curvature="0" />
    <path
       d="M 424.92743,-34.464616 548.24811,110.64158 H 510.62529 L 416.82156,-34.464616 Z"
       style="fill:#000000;fill-opacity:1;fill-rule:evenodd;stroke:none;stroke-width:2.99663734"
       id="path1727"
       inkscape:connector-curvature="0" />
    <path
       d="m 416.64173,-142.99382 80.55857,-93.36924 h -37.61977 l -47.95219,96.4618 z"
       style="fill:#000000;fill-opacity:1;fill-rule:evenodd;stroke:none;stroke-width:2.99663734"
       id="path1731"
       inkscape:connector-curvature="0" />
    <path
       d="m 379.71715,-28.009796 -80.55857,93.36923 h 37.62274 l 47.94922,-96.46485 z"
       style="fill:#000000;fill-opacity:1;fill-rule:evenodd;stroke:none;stroke-width:2.99663734"
       id="path1735"
       inkscape:connector-curvature="0" />
    <path
       d="m 375.02738,-286.00541 h 33.6613 l -14.12323,157.66818 -5.8704,2.03169 z"
       style="fill:#000000;fill-opacity:1;fill-rule:evenodd;stroke:none;stroke-width:2.99663734"
       id="path1739"
       inkscape:connector-curvature="0" />
    <path
       d="m 421.3315,114.9987 h -33.66121 l 14.12611,-157.665086 5.86743,-2.03169 z"
       style="fill:#000000;fill-opacity:1;fill-rule:evenodd;stroke:none;stroke-width:2.99663734"
       id="path1743"
       inkscape:connector-curvature="0" />
    <path
       d="m 222.15696,-145.84658 c -19.67296,-2.84384 -36.10947,-3.40422 -44.4102,1.28554 -11.12045,6.0622 -22.12411,9.06778 -16.59833,20.77868 2.98766,1.10274 8.31569,2.02269 15.24092,2.8198 l 47.28692,7.24887 z m 8.04598,0.27861 4.77964,34.12866 54.99134,8.94198 c 0.49437,-4.33614 0.10533,-8.65725 -1.16578,-12.96349 -25.43539,-26.87078 -39.00121,-27.09554 -58.6052,-30.10715 m 117.00968,76.884664 c -8.33964,-1.25259 -16.16681,4.53091 -17.41642,12.87361 -1.25258,8.33964 4.53092,16.16383 12.87353,17.41642 8.34261,1.24961 16.16689,-4.53092 17.41642,-12.87353 1.25267,-8.33964 -4.53092,-16.16689 -12.87353,-17.4165 m -199.63595,-23.69438 c -8.3427,-1.24962 -16.1669,4.53694 -17.41948,12.87658 -1.24961,8.33964 4.53389,16.16384 12.87658,17.41345 8.33964,1.25258 16.16384,-4.52497 17.41642,-12.87056 1.24962,-8.33963 -4.53388,-16.16689 -12.87352,-17.41947 M 81.458835,-115.07424 c 0.554691,-8.85508 2.58307,-16.57734 5.83141,-23.36174 1.52534,-3.71588 3.580991,-5.79556 6.17009,-6.24806 l 4.91155,-0.42557 c 6.880215,-0.19792 14.482705,-0.0255 22.804425,0.50967 l 2.79585,-0.54874 c 18.2075,-5.47779 34.14666,-11.36025 45.07539,-12.24121 l 3.60792,-0.81546 c 7.4377,-1.4054 19.79281,-0.84519 35.51919,1.06078 22.39686,2.35839 41.73717,5.71156 54.34406,11.25535 l 3.75776,2.11264 2.39729,2.10364 c 12.57393,8.59438 24.64439,17.73708 35.98366,27.69499 1.59117,-0.11043 2.7149,0.6082 3.61989,1.70806 3.06258,0.26332 5.98729,1.03079 8.77116,2.28346 9.77502,2.22647 30.86841,9.60718 32.1599,8.94189 1.91787,-0.99189 7.23987,-4.68067 8.92703,3.122554 3.27527,-4.875544 8.26472,-3.110484 7.90515,3.11345 8.29462,-6.496694 6.23591,3.2334 6.67643,3.02367 4.50994,-2.2026 8.02798,-0.43152 7.38376,4.0994 4.48598,-1.58523 6.22105,0.017 5.20215,4.80656 l 1.72309,1.42341 c 0.62349,1.4144 0.87501,2.67599 0.7577,3.78179 l 1.19261,5.15415 3.27536,2.76892 1.76505,8.92397 -4.09039,13.33809 c 1.39937,0.0595 -1.26168,3.01458 -4.84861,4.90246 -5.34595,1.31256 -11.44715,1.43539 -17.65019,0.64982 l 0.78829,-3.08355 -3.63493,-0.94985 c -6.89228,20.24226 -39.2919,16.63426 -40.82921,-2.71201 l -9.45139,-1.61215 -147.45558,-17.46144 c -7.60241,18.84883 -40.86812,14.63255 -44.31124,-7.03609 l -4.90246,-0.92597 -0.77894,0.47654 c -6.37089,-1.66618 -12.85858,-2.55317 -19.427215,-2.91274 l 0.0764,-2.14857 c -5.54965,-0.7577 -11.003479,-2.1755 -16.307559,-4.56388 -1.70805,-0.97685 -2.999631,-3.09544 -2.493191,-5.52578 -0.38989,-4.78863 -1.4624,-7.11398 -2.97865,-11.066594 -0.416219,-2.75686 -0.017,-5.38792 1.198651,-7.9021 1.02485,-1.97783 2.53813,-3.88364 4.53992,-5.71461"
       style="fill:#000000;fill-opacity:1;fill-rule:evenodd;stroke:none;stroke-width:2.99663734"
       id="path1755"
       inkscape:connector-curvature="0" />
    <path
       d="m 466.05633,-72.147326 c -10.1227,1.35749 -17.27261,10.72495 -15.91215,20.84765 1.35741,10.12261 10.72198,17.27261 20.84459,15.91214 10.12559,-1.36054 17.27559,-10.72197 15.91512,-20.84765 -1.35749,-10.12567 -10.72495,-17.27261 -20.84756,-15.91214 m 217.90946,-24.48555 c -10.12568,1.35749 -17.27567,10.72198 -15.91512,20.84468 1.36046,10.12558 10.72189,17.27558 20.84756,15.91511 10.12567,-1.36046 17.27261,-10.72495 15.91512,-20.85062 -1.36046,-10.11964 -10.72495,-17.26964 -20.84756,-15.90917 m -27.71887,-84.840774 c -1.87896,0.34148 -2.4153,1.40243 -2.19062,2.8768 2.56217,10.34432 5.69669,20.18534 9.15476,29.75055 0.75176,1.87591 1.98081,2.90679 3.91057,2.70301 13.52683,-1.81899 27.0117,-3.92858 40.45164,-6.40079 2.88283,-0.4587 3.97054,-2.00179 3.24834,-4.62988 -3.42511,-8.37259 -8.45346,-16.19679 -16.63128,-22.93923 -1.51931,-1.77703 -3.50606,-2.48121 -5.81654,-2.44528 z m -144.21623,53.29518 c -6.29589,8.76521 -0.50372,8.08795 -0.50372,8.08795 l 65.10495,-10.2305 c -0.21576,-12.69081 -0.14101,-25.77109 0.53939,-39.24704 -0.034,-1.30347 -1.27951,-1.78 -3.7428,-1.43233 -34.30848,4.25519 -55.1022,34.05977 -61.39808,42.82192 m 77.57992,-4.01251 58.23671,-9.05885 c -1.95388,-11.41113 -4.42006,-23.8562 -8.63337,-37.29011 -0.15885,-1.24358 -0.88699,-1.91489 -2.28338,-1.90291 -15.41472,1.18369 -30.94334,3.66491 -46.8255,6.23599 -1.29752,0.27013 -2.25645,0.98595 -2.60107,2.28347 -0.41623,10.31442 0.47993,24.06304 2.10661,39.73241 m -165.5372,93.222374 c -2.64006,0.14356 -11.40518,-9.49632 -13.78455,-17.95879 l -1.89086,0.38055 -0.68295,-8.09992 1.0398,-0.38055 -1.47131,-1.74407 c 0.22765,-2.06168 1.88491,-4.31516 4.96838,-6.75739 -0.017,-0.69229 0.008,-1.39045 0.0849,-2.09761 l -2.71787,-6.94027 5.16018,-2.10661 -0.34742,-4.91749 4.90849,0.0425 c 0.11043,-0.13167 0.23105,-0.26333 0.35082,-0.39584 l -0.29645,-6.01124 5.76855,0.74581 c 0.007,-0.007 0.017,-0.008 0.017,-0.017 l 0.32958,-5.837444 5.76549,0.4553 0.63199,-5.72361 5.24708,1.54029 0.65322,-5.88238 6.82636,2.3194 c 5.75351,-3.2334 12.31017,-6.54171 19.69691,-9.91892 l 5.76549,-2.71192 -2.04069,-2.06771 8.73819,-3.3502 c 18.61813,-15.14799 37.50289,-28.32723 56.60647,-39.8673 8.02203,-4.71372 17.1288,-8.19583 27.32039,-10.44625 5.41493,-2.77793 12.03445,-4.99837 19.37319,-7.11704 32.46562,-6.5536 64.63453,-10.74593 91.55032,-10.35332 3.39216,-0.1614 7.29381,0.0679 11.71082,0.68635 l 18.80993,0.70078 3.04456,3.46411 c 10.34143,8.60033 16.42759,17.86594 25.09086,34.49425 l 2.70598,1.3964 c 4.28517,11.17447 6.43681,22.63368 7.12001,34.29056 l 2.56208,2.23853 c 3.76685,5.62465 5.76261,13.35295 5.17819,24.152824 -1.63016,4.75568 -5.10624,7.6984 -10.43724,8.82212 l -16.67028,3.20638 -5.93937,1.44439 c -1.17172,30.23915 -40.2239,39.05218 -54.55677,11.83976 l -7.54855,-0.923 -149.35238,19.7269 -6.69453,0.57507 c -8.99889,23.10708 -39.52566,27.74587 -52.70481,6.43077 0,0 -17.25163,2.52913 -19.89169,2.67302"
       style="fill:#000000;fill-opacity:1;fill-rule:evenodd;stroke:none;stroke-width:2.99663734"
       id="path1759"
       inkscape:connector-curvature="0" />
  </g>
</svg>
