<?xml version="1.0" encoding="UTF-8" standalone="no"?>
<!-- Created with Inkscape (http://www.inkscape.org/) -->

<svg
   xmlns:dc="http://purl.org/dc/elements/1.1/"
   xmlns:cc="http://creativecommons.org/ns#"
   xmlns:rdf="http://www.w3.org/1999/02/22-rdf-syntax-ns#"
   xmlns:svg="http://www.w3.org/2000/svg"
   xmlns="http://www.w3.org/2000/svg"
   xmlns:sodipodi="http://sodipodi.sourceforge.net/DTD/sodipodi-0.dtd"
   xmlns:inkscape="http://www.inkscape.org/namespaces/inkscape"
   width="90.400002cm"
   height="90.400002cm"
   viewBox="0 0 9040.0002 9039.9996"
   version="1.1"
   id="svg4496"
   inkscape:version="0.92.1 r15371"
   sodipodi:docname="66.svg">
  <defs
     id="defs4490" />
  <sodipodi:namedview
     id="base"
     pagecolor="#ffffff"
     bordercolor="#666666"
     borderopacity="1.0"
     inkscape:pageopacity="0.0"
     inkscape:pageshadow="2"
     inkscape:zoom="0.1767767"
     inkscape:cx="2172.2913"
     inkscape:cy="1313.4575"
     inkscape:document-units="cm"
     inkscape:current-layer="layer1"
     showgrid="false"
     units="cm"
     inkscape:window-width="1920"
     inkscape:window-height="1057"
     inkscape:window-x="-8"
     inkscape:window-y="-8"
     inkscape:window-maximized="1" />
  <metadata
     id="metadata4493">
    <rdf:RDF>
      <cc:Work
         rdf:about="">
        <dc:format>image/svg+xml</dc:format>
        <dc:type
           rdf:resource="http://purl.org/dc/dcmitype/StillImage" />
        <dc:title></dc:title>
      </cc:Work>
    </rdf:RDF>
  </metadata>
  <g
     inkscape:label="Layer 1"
     inkscape:groupmode="layer"
     id="layer1"
     transform="translate(0,6070)">
    <circle
       style="fill:#be141e;fill-opacity:1;stroke:none;stroke-width:1933.07995605;stroke-linejoin:miter;stroke-miterlimit:4;stroke-dasharray:none;stroke-opacity:1"
       id="path5041"
       cx="4520"
       cy="-1549.9999"
       r="4500" />
    <circle
       r="3600"
       cy="-1549.9999"
       cx="4520"
       id="circle5043"
       style="fill:#ffffff;fill-opacity:1;stroke:none;stroke-width:1546.46398926;stroke-linejoin:miter;stroke-miterlimit:4;stroke-dasharray:none;stroke-opacity:1" />
    <path
       d="m 1643.5558,-2506.9717 464.9656,-247.5866 c 30.3065,-14.6177 50.0979,-37.6808 59.3773,-69.3214 l 7.8433,-83.909 c 12.0816,-32.3747 32.508,-37.3811 61.4124,-15.0861 l 449.546,522.5416 c 29.8392,20.3921 59.7104,28.1684 89.5496,23.3628 l 283.75,-0.6722 90,88.5478 h -309.4009 c -17.8899,9.4793 -23.1635,25.3655 -15.7536,47.6616 l 302.6571,328.5899 c 122.4578,-4.6387 239.6089,-16.7876 348.2489,-40.8186 l 4.0558,-0.9045 1142.8926,1141.87944 0.031,7.03843 8.5111,815.4179295 H 4472.9715 L 4415.4636,-601.68595 c -11.9493,-208.5019 -55.4718,-299.78663 -120.5552,-310.9676 L 3965.8503,9.6691115 3801.6381,10.00024 3978.3,-803.74876 c 37.4477,-152.66296 -14.553,-300.08734 -98.8942,-445.60824 -197.1875,173.5245 -469.0717,249.55509 -831.0389,207.9352 L 3118.3907,8.6653365 2969.232,8.2679815 2699.4169,-1083.2064 l -46.7601,-57.207 -306.696,188.14274 c -35.4456,17.69018 -45.5245,43.15555 -39.5839,69.32283 l 187.9753,237.63995 -128.5658,108.93995 -336.3998,-406.0226 c -30.5733,-38.3833 -23.9979,-74.69657 19.7915,-108.90757 l 415.4694,-465.4331 -158.2706,-663.4557 -138.4782,-148.5585 c -23.9647,-26.802 -72.7608,-23.6305 -138.5121,0 l -128.633,59.4434 c 7.7098,72.6276 -28.6035,99.027 -108.7734,79.2012 -21.027,10.5143 -69.2897,4.2403 -88.1133,-25.1977 l -60.3111,-133.2387 c -31.4078,-52.8348 -31.4078,-105.6707 0,-158.4385"
       style="fill:#000000;fill-opacity:1;fill-rule:evenodd;stroke:none;stroke-width:33.37637329;stroke-opacity:1"
       id="path4780"
       inkscape:connector-curvature="0"
       sodipodi:nodetypes="cccccccccccccccccccccccccccccccccccccccccccc" />
    <path
       d="m 4235.2641,-2474.4292 c 12.5832,-53.4691 90.4833,-36.2804 90.9177,59.2097 l 334.6977,2.5361 352.8223,-176.695 211.1719,-264.173 79.1026,-59.4434 128.6319,-59.4095 c 65.6511,-15.0201 105.2359,4.7717 118.6867,59.4095 l 207.7678,306.996 v 59.4094 l 89.0821,108.941 c 47.9607,47.8614 62.2129,153.3632 39.5499,297.0821 l 1632.3052,128.7333 -102.1318,1069.1454 -352.8875,-19.49156 C 6901.8026,-1744.0549 5950.2093,-2008.0949 5386.2152,-1322.3441 l -3.4737,4.0149 -222.1393,-219.1579 10.1015,-0.6014 83.6411,-5.1733 69.457,-389.3691 c -49.4972,-12.85 -85.8776,-22.4293 -148.3913,59.4094 l -145.521,194.2178 -4.8301,6.539 -127.2577,-130.6304 2.787,-5.342 c 73.3948,-149.3592 171.1876,-271.0166 304.4262,-351.921 l 217.681,-178.2633 -89.049,-247.5526 -237.4053,138.6117 -277.0243,138.6127 -429.2174,0.899 -156.7896,-154.9827 z"
       style="fill:#000000;fill-opacity:1;fill-rule:evenodd;stroke:none;stroke-width:33.37637329;stroke-opacity:1"
       id="path4788"
       inkscape:connector-curvature="0"
       sodipodi:nodetypes="cccccccccccccccccccccccccccccccccc" />
    <path
       d="m 4923.3519,-3112.2856 h 151.4283 c 11.3145,81.0043 81.205,143.6851 165.2462,143.6851 83.975,0 153.7321,-62.6808 165.0465,-143.6851 h 96.6244 l -23.1633,-38.0154 -61.245,-38.0164 -59.1097,-101.4303 -194.1505,-57.0411 -50.6987,40.153 -16.8888,65.4846 -75.9976,61.2444 -75.9985,23.2969 z"
       style="fill:#000000;fill-opacity:1;fill-rule:evenodd;stroke:none;stroke-width:33.37637329;stroke-opacity:1"
       id="path4796"
       inkscape:connector-curvature="0" />
    <path
       d="m 6179.3714,-1294.4747 c -207.0337,0 -381.4921,143.8188 -428.9202,336.73467 l -1.0428,4.55172 530.3393,531.73903 4.9929,-1.4347 c 192.6822,-47.52835 336.4339,-222.18636 336.4339,-429.35346 0,-243.58146 -198.4563,-442.23726 -441.8031,-442.23726"
       style="fill:#000000;fill-opacity:1;fill-rule:evenodd;stroke:none;stroke-width:33.37637329;stroke-opacity:1"
       id="path4804"
       inkscape:connector-curvature="0"
       sodipodi:nodetypes="cccccsc" />
    <path
       d="m 6179.3714,-1665.6202 c -306.6289,0 -574.5404,171.5548 -712.7857,423.7137 l -5.7406,10.5193 188.4593,186.0544 3.8554,-9.7668 c 81.6713,-211.2721 286.9367,-361.7667 526.2116,-361.7667 310.7339,0 564.1274,253.6273 564.1274,564.5949 0,239.50946 -150.4273,444.9404 -361.4658,526.71288 l -4.8846,1.74615 187.6005,187.51452 3.8583,-2.45276 c 251.9242,-138.37877 423.3456,-406.558 423.3456,-713.52079 0,-448.0105 -365.0043,-813.3488 -812.5814,-813.3488"
       style="fill:#000000;fill-opacity:1;fill-rule:evenodd;stroke:none;stroke-width:33.37637329;stroke-opacity:1"
       id="path4812"
       inkscape:connector-curvature="0"
       sodipodi:nodetypes="cccccssccccsc" />
    <rect
       y="-1899.8927"
       x="3842.1382"
       height="8000"
       width="900"
       id="rect5552"
       style="opacity:0.98999999;fill:#be141e;fill-opacity:1;stroke:none;stroke-width:151.0378418;stroke-linejoin:miter;stroke-miterlimit:4;stroke-dasharray:none;stroke-opacity:1"
       transform="rotate(-45)" />
  </g>
</svg>
