<?xml version="1.0" encoding="UTF-8" standalone="no"?>
<!-- Created with Inkscape (http://www.inkscape.org/) -->

<svg
   xmlns:dc="http://purl.org/dc/elements/1.1/"
   xmlns:cc="http://creativecommons.org/ns#"
   xmlns:rdf="http://www.w3.org/1999/02/22-rdf-syntax-ns#"
   xmlns:svg="http://www.w3.org/2000/svg"
   xmlns="http://www.w3.org/2000/svg"
   xmlns:sodipodi="http://sodipodi.sourceforge.net/DTD/sodipodi-0.dtd"
   xmlns:inkscape="http://www.inkscape.org/namespaces/inkscape"
   width="90.400002cm"
   height="90.400002cm"
   viewBox="0 0 9040.0001 9039.9995"
   version="1.1"
   id="svg30"
   inkscape:version="0.92.2 (5c3e80d, 2017-08-06)"
   sodipodi:docname="66.svg">
  <defs
     id="defs24" />
  <sodipodi:namedview
     id="base"
     pagecolor="#ffffff"
     bordercolor="#666666"
     borderopacity="1.0"
     inkscape:pageopacity="0.0"
     inkscape:pageshadow="2"
     inkscape:zoom="0.12374369"
     inkscape:cx="1451.2933"
     inkscape:cy="1169.6052"
     inkscape:document-units="cm"
     inkscape:current-layer="layer1"
     showgrid="false"
     units="cm"
     inkscape:window-width="1920"
     inkscape:window-height="1057"
     inkscape:window-x="-8"
     inkscape:window-y="-8"
     inkscape:window-maximized="1"
     fit-margin-top="0"
     fit-margin-left="0"
     fit-margin-right="0"
     fit-margin-bottom="0" />
  <metadata
     id="metadata27">
    <rdf:RDF>
      <cc:Work
         rdf:about="">
        <dc:format>image/svg+xml</dc:format>
        <dc:type
           rdf:resource="http://purl.org/dc/dcmitype/StillImage" />
        <dc:title></dc:title>
      </cc:Work>
    </rdf:RDF>
  </metadata>
  <g
     inkscape:label="Layer 1"
     inkscape:groupmode="layer"
     id="layer1"
     transform="translate(4.1549385e-8,6069.9999)">
    <circle
       id="path32"
       cx="4520"
       cy="-1549.9999"
       style="fill:#be141e;fill-opacity:1;stroke:none;stroke-width:7.43594885"
       r="4500" />
    <circle
       style="fill:#ffffff;fill-opacity:1;stroke:none;stroke-width:4.06587029"
       id="path5072"
       cx="4520"
       cy="-1549.9999"
       r="3600" />
    <path
       style="fill:#000000;fill-opacity:1;fill-rule:evenodd;stroke:none;stroke-width:41.52322388"
       d="m 2689.9746,-2809.9997 c -247.0222,0.2798 -493.9564,11.1627 -740.9786,33.5437 -97.2895,19.4753 -181.0366,68.6004 -251.1289,147.8681 -127.2675,156.4172 -236.4909,315.2041 -312.8108,478.4306 -94.7972,202.7591 -237.0728,569.7862 -248.0362,781.5969 -3.7378,72.2082 -4.7741,150.8518 -3.9495,234.521 -9.776,65.6574 3.7985,99.0674 40.6095,99.3225 v 346.31856 c 0,120.9941 97.4046,218.3987 218.3987,218.3987 h 125.2072 7.3927 c 119.2013,0 215.5065,-94.5446 218.3343,-213.0427 0.2611,-4.4311 0.4061,-8.8907 0.4061,-13.385 v -218.1733 c 315.521,21.0736 631.0531,34.2023 946.5803,35.1 315.5247,-0.8977 631.058,-14.0264 946.578,-35.1 v 218.1733 c 0,4.4943 0.1461,8.9539 0.4074,13.385 2.8265,118.4981 99.133,213.0427 218.3343,213.0427 h 7.3926 125.2073 c 120.9953,0 218.3999,-97.4046 218.3999,-218.3987 v -346.31856 c 36.8098,-0.2552 50.3855,-33.6651 40.6095,-99.3225 0.8246,-83.6692 -0.2117,-162.3128 -3.9495,-234.521 -10.9634,-211.8107 -153.244,-578.8378 -248.0424,-781.5969 -76.3186,-163.2265 -185.5384,-322.0134 -312.8071,-478.4306 -70.091,-79.2677 -153.8434,-128.3928 -251.1329,-147.8681 -247.0209,-22.381 -493.9514,-33.2639 -740.9736,-33.5437 -0.014,0 -0.014,0 -0.026,0 -0.014,0 -0.014,0 -0.026,0 z m 0.026,132.5987 c 247.3515,-0.4358 495.2168,9.3241 742.5584,28.8402 36.8309,12.4156 68.0197,31.7262 93.5987,59.2973 l 393.1175,673.1445 c 23.6265,51.3216 10.2155,77.4108 -39.78,78.7812 -369.4093,-23.8989 -779.5059,-36.1931 -1189.4959,-36.6636 -409.9914,0.4705 -820.0916,12.7647 -1189.5019,36.6636 -49.9931,-1.3704 -63.4053,-27.4596 -39.7788,-78.7812 l 393.1199,-673.1445 c 25.5791,-27.5711 56.7679,-46.8817 93.5988,-59.2973 247.3416,-19.5161 495.2106,-29.276 742.5621,-28.8402 z"
       id="path6543"
       inkscape:connector-curvature="0"
       sodipodi:nodetypes="cccccccsscscscccscscsscccccccscccccccccccc" />
    <path
       style="fill:#ffffff;fill-opacity:1;stroke:none;stroke-width:230.51856995;stroke-linejoin:miter;stroke-miterlimit:4;stroke-dasharray:none;stroke-opacity:1"
       d="m 2377.9983,-1460.4829 c -17.285,0 -31.1988,13.9174 -31.1988,31.2012 v 222.5833 h -606.0609 v -81.9011 c 0,-17.285 -13.9125,-31.1987 -31.1975,-31.1987 h -431.3435 c -17.285,0 -31.1988,13.9137 -31.1988,31.1987 v 101.4011 c 0,17.285 13.9138,31.1987 31.1988,31.1987 h 2823.6001 c 17.2838,0 31.2012,-13.9137 31.2012,-31.1987 v -101.4011 c 0,-17.285 -13.9174,-31.1987 -31.2012,-31.1987 h -431.341 c -17.2851,0 -31.1988,13.9137 -31.1988,31.1987 v 81.9011 H 3033.198 v -222.5833 c 0,-17.2838 -13.9137,-31.2012 -31.1988,-31.2012 z"
       id="rect6591"
       inkscape:connector-curvature="0" />
    <path
       id="path6595"
       d="m 1278.1988,-1514.7994 h 431.3398 c 17.2851,0 31.2,13.915 31.2,31.2 v 101.4 c 0,17.285 -13.9149,31.2 -31.2,31.2 h -431.3398 c -17.285,0 -31.2,-13.915 -31.2,-31.2 v -101.4 c 0,-17.285 13.915,-31.2 31.2,-31.2 z"
       style="fill:#ffffff;fill-opacity:1;stroke:none;stroke-width:230.51856995;stroke-linejoin:miter;stroke-miterlimit:4;stroke-dasharray:none;stroke-opacity:1"
       inkscape:connector-curvature="0" />
    <path
       inkscape:connector-curvature="0"
       style="fill:#ffffff;fill-opacity:1;stroke:none;stroke-width:230.51856995;stroke-linejoin:miter;stroke-miterlimit:4;stroke-dasharray:none;stroke-opacity:1"
       d="m 3670.4567,-1514.7994 h 431.341 c 17.285,0 31.2,13.915 31.2,31.2 v 101.4 c 0,17.285 -13.915,31.2 -31.2,31.2 h -431.341 c -17.2838,0 -31.2,-13.915 -31.2,-31.2 v -101.4 c 0,-17.285 13.9162,-31.2 31.2,-31.2 z"
       id="path6633" />
    <path
       sodipodi:nodetypes="cccccccsscscscccscscsscccccccscccccccccccc"
       inkscape:connector-curvature="0"
       id="path5546"
       d="m 6349.9757,-2809.9997 c -247.0222,0.2798 -493.9564,11.1627 -740.9786,33.5437 -97.2895,19.4753 -181.0366,68.6004 -251.1289,147.8681 -127.2675,156.4172 -236.4909,315.2041 -312.8108,478.4306 -94.7972,202.7591 -237.0728,569.7862 -248.0362,781.5969 -3.7378,72.2082 -4.7741,150.8518 -3.9495,234.521 -9.776,65.6574 3.7985,99.0674 40.6095,99.3225 v 346.31856 c 0,120.9941 97.4046,218.3987 218.3987,218.3987 h 125.2072 7.3927 c 119.2013,0 215.5065,-94.5446 218.3343,-213.0427 0.2611,-4.4311 0.4061,-8.8907 0.4061,-13.385 v -218.1733 c 315.521,21.0736 631.0531,34.2023 946.5803,35.1 315.5247,-0.8977 631.058,-14.0264 946.578,-35.1 v 218.1733 c 0,4.4943 0.1461,8.9539 0.4074,13.385 2.8265,118.4981 99.133,213.0427 218.3343,213.0427 h 7.3926 125.2073 c 120.9953,0 218.3999,-97.4046 218.3999,-218.3987 v -346.31856 c 36.8098,-0.2552 50.3855,-33.6651 40.6095,-99.3225 0.8246,-83.6692 -0.2117,-162.3128 -3.9495,-234.521 -10.9634,-211.8107 -153.244,-578.8378 -248.0424,-781.5969 -76.3186,-163.2265 -185.5384,-322.0134 -312.8071,-478.4306 -70.091,-79.2677 -153.8434,-128.3928 -251.1329,-147.8681 -247.0209,-22.381 -493.9514,-33.2639 -740.9736,-33.5437 -0.014,0 -0.014,0 -0.026,0 -0.014,0 -0.014,0 -0.026,0 z m 0.026,132.5987 c 247.3515,-0.4358 495.2168,9.3241 742.5584,28.8402 36.8309,12.4156 68.0197,31.7262 93.5987,59.2973 l 393.1175,673.1445 c 23.6265,51.3216 10.2155,77.4108 -39.78,78.7812 -369.4093,-23.8989 -779.5059,-36.1931 -1189.4959,-36.6636 -409.9914,0.4705 -820.0916,12.7647 -1189.5019,36.6636 -49.9931,-1.3704 -63.4053,-27.4596 -39.7788,-78.7812 l 393.1199,-673.1445 c 25.5791,-27.5711 56.7679,-46.8817 93.5988,-59.2973 247.3416,-19.5161 495.2106,-29.276 742.5621,-28.8402 z"
       style="fill:#000000;fill-opacity:1;fill-rule:evenodd;stroke:none;stroke-width:41.52322388" />
    <path
       inkscape:connector-curvature="0"
       id="path5548"
       d="m 6037.9994,-1460.4829 c -17.285,0 -31.1988,13.9174 -31.1988,31.2012 v 222.5833 h -606.0609 v -81.9011 c 0,-17.285 -13.9125,-31.1987 -31.1975,-31.1987 h -431.3435 c -17.285,0 -31.1988,13.9137 -31.1988,31.1987 v 101.4011 c 0,17.285 13.9138,31.1987 31.1988,31.1987 h 2823.6001 c 17.2838,0 31.2012,-13.9137 31.2012,-31.1987 v -101.4011 c 0,-17.285 -13.9174,-31.1987 -31.2012,-31.1987 h -431.341 c -17.2851,0 -31.1988,13.9137 -31.1988,31.1987 v 81.9011 h -606.0599 v -222.5833 c 0,-17.2838 -13.9137,-31.2012 -31.1988,-31.2012 z"
       style="fill:#ffffff;fill-opacity:1;stroke:none;stroke-width:230.51856995;stroke-linejoin:miter;stroke-miterlimit:4;stroke-dasharray:none;stroke-opacity:1" />
    <path
       inkscape:connector-curvature="0"
       style="fill:#ffffff;fill-opacity:1;stroke:none;stroke-width:230.51856995;stroke-linejoin:miter;stroke-miterlimit:4;stroke-dasharray:none;stroke-opacity:1"
       d="m 4938.1999,-1514.7994 h 431.3398 c 17.2851,0 31.2,13.915 31.2,31.2 v 101.4 c 0,17.285 -13.9149,31.2 -31.2,31.2 h -431.3398 c -17.285,0 -31.2,-13.915 -31.2,-31.2 v -101.4 c 0,-17.285 13.915,-31.2 31.2,-31.2 z"
       id="path5550" />
    <path
       id="path5552"
       d="m 7330.4578,-1514.7994 h 431.341 c 17.285,0 31.2,13.915 31.2,31.2 v 101.4 c 0,17.285 -13.915,31.2 -31.2,31.2 h -431.341 c -17.2838,0 -31.2,-13.915 -31.2,-31.2 v -101.4 c 0,-17.285 13.9162,-31.2 31.2,-31.2 z"
       style="fill:#ffffff;fill-opacity:1;stroke:none;stroke-width:230.51856995;stroke-linejoin:miter;stroke-miterlimit:4;stroke-dasharray:none;stroke-opacity:1"
       inkscape:connector-curvature="0" />
    <rect
       y="-1899.892"
       x="3842.1379"
       height="7999.9995"
       width="899.99994"
       id="rect5567"
       style="fill:#be141e;fill-opacity:1;stroke:none;stroke-width:2.67677784"
       transform="rotate(-45)" />
  </g>
</svg>
