<?xml version="1.0" encoding="UTF-8" standalone="no"?>
<!-- Created with Inkscape (http://www.inkscape.org/) -->

<svg
   xmlns:dc="http://purl.org/dc/elements/1.1/"
   xmlns:cc="http://creativecommons.org/ns#"
   xmlns:rdf="http://www.w3.org/1999/02/22-rdf-syntax-ns#"
   xmlns:svg="http://www.w3.org/2000/svg"
   xmlns="http://www.w3.org/2000/svg"
   xmlns:sodipodi="http://sodipodi.sourceforge.net/DTD/sodipodi-0.dtd"
   xmlns:inkscape="http://www.inkscape.org/namespaces/inkscape"
   width="90.199997cm"
   height="90.199997cm"
   viewBox="0 0 9019.9997 9019.9992"
   version="1.1"
   id="svg4496"
   inkscape:version="0.92.1 r15371"
   sodipodi:docname="66.svg">
  <defs
     id="defs4490" />
  <sodipodi:namedview
     id="base"
     pagecolor="#ffffff"
     bordercolor="#666666"
     borderopacity="1.0"
     inkscape:pageopacity="0.0"
     inkscape:pageshadow="2"
     inkscape:zoom="0.12374369"
     inkscape:cx="2053.2424"
     inkscape:cy="1083.4043"
     inkscape:document-units="cm"
     inkscape:current-layer="layer1"
     showgrid="false"
     units="cm"
     inkscape:window-width="1920"
     inkscape:window-height="1057"
     inkscape:window-x="-8"
     inkscape:window-y="-8"
     inkscape:window-maximized="1"
     showguides="false" />
  <metadata
     id="metadata4493">
    <rdf:RDF>
      <cc:Work
         rdf:about="">
        <dc:format>image/svg+xml</dc:format>
        <dc:type
           rdf:resource="http://purl.org/dc/dcmitype/StillImage" />
        <dc:title></dc:title>
      </cc:Work>
    </rdf:RDF>
  </metadata>
  <g
     inkscape:label="Layer 1"
     inkscape:groupmode="layer"
     id="layer1"
     transform="translate(0,6049.9999)">
    <circle
       style="fill:#be141e;fill-opacity:1;stroke:none;stroke-width:1933.07995605;stroke-linejoin:miter;stroke-miterlimit:4;stroke-dasharray:none;stroke-opacity:1"
       id="path5041"
       cx="4520"
       cy="-1550.0006"
       r="4500" />
    <circle
       r="3600"
       cy="-1550.0006"
       cx="4520"
       id="circle5043"
       style="fill:#ffffff;fill-opacity:1;stroke:none;stroke-width:1546.46398926;stroke-linejoin:miter;stroke-miterlimit:4;stroke-dasharray:none;stroke-opacity:1" />
    <path
       d="m 4683.7404,-742.46696 -715.293,116.59139 140.1431,1500.87506 -232.8821,-1.36827 -391.1726,-1520.99033 -634.3298,229.21214 407.3522,384.401044 -159.2919,176.070996 -584.2233,-376.09374 1.9017,-326.08921 692.008,-545.65982 -309.4425,-1203.7425 -306.1725,-169.4992 -180.9088,6.4715 -180.541,53.0417 -86.1338,77.6276 -176.872,-1.0682 -147.8821,-177.9055 1.3674,-233.0498 c 0,0 458.4923,-293.9967 524.5441,-328.8899 l 9.7257,-5.3855 2388.2156,2334.36539 z"
       style="fill:#000000;fill-opacity:1;fill-rule:evenodd;stroke:none;stroke-width:33.35943985"
       id="path5561"
       inkscape:connector-curvature="0"
       sodipodi:nodetypes="ccccccccccccccccccccccc" />
    <path
       d="m 5597.4214,142.11352 285.2596,185.86222 -40.0999,91.3002 -198.0216,436.77518 -215.8694,-1.30118 163.8621,-687.57111 z"
       style="fill:#000000;fill-opacity:1;fill-rule:evenodd;stroke:none;stroke-width:33.35943985"
       id="path5569"
       inkscape:connector-curvature="0"
       sodipodi:nodetypes="ccccccc" />
    <path
       d="m 4286.1963,-2431.5892 -30.7167,6.9806 1938.0427,1921.39635 55.3766,-109.31963 166.8304,122.12898 38.4972,248.16151 358.213,358.5467 3.4694,-595.0326 -156.455,-299.10023 c 64.0829,-595.43268 199.1887,-937.33368 -76.1595,-1280.56888 l 120.9612,-14.2449 c 80.7627,6.972 109.8188,73.5581 142.9781,228.1455 l 332.7937,1181.55854 c 39.8645,92.90543 163.7286,226.7771 389.9725,169.99919 L 7103.8347,-1958.518 c -125.6986,-312.8788 -505.729,-371.8578 -661.9845,-228.4791 -113.4888,-75.4932 -276.5831,-148.0152 -648.6749,-86.6341 l -605.6406,108.2179 1.8345,-316.8814 -189.1149,-1081.7808 c -32.9928,-72.0557 -101.0123,-97.3426 -194.9523,-84.9987 l -540.5562,108.6173 -207.8297,520.575 -222.2071,155.5878 83.9987,84.1331 89.7708,86.1009 214.4679,-63.9839 141.0433,-241.4222 127.2325,522.5418 z"
       style="fill:#000000;fill-opacity:1;fill-rule:evenodd;stroke:none;stroke-width:33.35943985"
       id="path5577"
       inkscape:connector-curvature="0"
       sodipodi:nodetypes="cccccccccccccccccccccccccccccc" />
    <path
       d="m 3909.9999,-3984.8468 159.5415,0.9353 c 0.095,166.5791 135.3247,302.9386 301.9708,303.9059 166.6451,0.9673 303.4384,-133.757 305.4721,-300.337 l 15.378,0.1 c 4.5356,-191.1953 -29.487,-357.7074 -284.926,-382.7251 -130.4553,-66.5116 -369.516,-26.484 -339.3624,304.973 l -157.5729,-0.9364 z"
       style="fill:#000000;fill-opacity:1;fill-rule:evenodd;stroke:none;stroke-width:33.35585785"
       id="path5585"
       inkscape:connector-curvature="0" />
    <rect
       y="-1899.8933"
       x="3842.1387"
       height="8000"
       width="900"
       id="rect6330"
       style="fill:#be141e;fill-opacity:1;stroke:none;stroke-width:190.8039093;stroke-linejoin:miter;stroke-miterlimit:4;stroke-dasharray:none;stroke-opacity:1"
       transform="rotate(-45)" />
  </g>
</svg>
