<?xml version="1.0" encoding="UTF-8" standalone="no"?>
<!-- Created with Inkscape (http://www.inkscape.org/) -->

<svg
   xmlns:dc="http://purl.org/dc/elements/1.1/"
   xmlns:cc="http://creativecommons.org/ns#"
   xmlns:rdf="http://www.w3.org/1999/02/22-rdf-syntax-ns#"
   xmlns:svg="http://www.w3.org/2000/svg"
   xmlns="http://www.w3.org/2000/svg"
   xmlns:sodipodi="http://sodipodi.sourceforge.net/DTD/sodipodi-0.dtd"
   xmlns:inkscape="http://www.inkscape.org/namespaces/inkscape"
   width="90.400002cm"
   height="90.400002cm"
   viewBox="0 0 9040.0001 9039.9997"
   version="1.1"
   id="svg4496"
   inkscape:version="0.92.1 r15371"
   sodipodi:docname="66.svg">
  <defs
     id="defs4490" />
  <sodipodi:namedview
     id="base"
     pagecolor="#ffffff"
     bordercolor="#666666"
     borderopacity="1.0"
     inkscape:pageopacity="0.0"
     inkscape:pageshadow="2"
     inkscape:zoom="0.175"
     inkscape:cx="1838.0514"
     inkscape:cy="1444.3512"
     inkscape:document-units="cm"
     inkscape:current-layer="layer1"
     showgrid="false"
     units="cm"
     inkscape:window-width="1920"
     inkscape:window-height="1057"
     inkscape:window-x="-8"
     inkscape:window-y="-8"
     inkscape:window-maximized="1"
     fit-margin-top="0"
     fit-margin-left="0"
     fit-margin-right="0"
     fit-margin-bottom="0" />
  <metadata
     id="metadata4493">
    <rdf:RDF>
      <cc:Work
         rdf:about="">
        <dc:format>image/svg+xml</dc:format>
        <dc:type
           rdf:resource="http://purl.org/dc/dcmitype/StillImage" />
        <dc:title></dc:title>
      </cc:Work>
    </rdf:RDF>
  </metadata>
  <g
     inkscape:label="Layer 1"
     inkscape:groupmode="layer"
     id="layer1"
     transform="translate(-2237.093,11069.924)">
    <circle
       style="fill:#be141e;fill-opacity:1;stroke:none;stroke-width:1933.07995605;stroke-linejoin:miter;stroke-miterlimit:4;stroke-dasharray:none;stroke-opacity:1"
       id="path5041"
       cx="6757.0928"
       cy="-6549.9238"
       r="4500" />
    <circle
       r="3600"
       cy="-6549.9238"
       cx="6757.0928"
       id="circle5043"
       style="fill:#ffffff;fill-opacity:1;stroke:none;stroke-width:1546.46398926;stroke-linejoin:miter;stroke-miterlimit:4;stroke-dasharray:none;stroke-opacity:1" />
    <path
       d="m 6782.6678,-7125.7994 15.6229,-28.0615 -960.5445,-333.7011 -21.8421,15.5933 405.4173,483.411 h 59.2472 z m -188.3059,342.7479 c 0,0 -108.1091,45.1419 -116.4414,47.5223 -8.3019,2.3813 -21.3655,19.0155 -21.3655,19.0155 l 87.9033,119.9529 c -1.9038,-65.4969 16.932,-127.3034 49.9036,-186.4907 m 629.9078,290.9692 -36.3929,-10.5043 -21.6936,53.2658 -297.3969,-91.2665 5.0881,-52.3733 -225.9186,-65.0499 -27.8235,132.5999 499.3316,557.2394 52.4029,-8.7481 110.4895,-325.7267 z m -224.2821,1029.9091 c 27.0196,-15.1168 25.4423,-39.756 38.1491,-59.6049 -11.1295,-75.1375 -45.2912,-115.667 -107.3061,-114.4473 -29.8167,57.9972 -21.8421,116.0247 69.157,174.0522 m 297.6052,-52.909 c -15.1176,-27.0501 -39.7864,-25.4727 -59.6344,-38.1786 -75.1375,11.1285 -115.6679,45.3198 -114.4178,107.2756 57.9972,29.8471 115.9952,21.9012 174.0522,-69.097 m -55.3493,-299.9562 c -27.0197,15.0873 -25.3833,39.7265 -38.1196,59.6041 11.0999,75.0784 45.2617,115.6079 107.2756,114.4481 29.8472,-58.0275 21.8726,-116.055 -69.156,-174.0522 m -297.5757,57.6699 c 15.1167,26.9901 39.7863,25.4128 59.6344,38.1196 75.0784,-11.1295 115.6375,-45.2912 114.3882,-107.2462 -57.9685,-29.8167 -115.9951,-21.8716 -174.0226,69.1266 m 603.9299,27.3478 c -0.776,-18.1821 -1.2501,-36.4232 -1.2501,-54.7842 0,-173.7248 35.1141,-339.5334 98.5275,-490.732 -130.3679,-56.003 -220.7714,-94.331 -220.7714,-94.331 l -159.6794,433.4485 c 85.2555,40.1424 150.5137,116.0837 176.2242,208.2435 z m 331.2904,-444.2211 c -51.2127,120.7559 -79.512,253.4453 -79.512,392.4719 0,15.9206 0.4218,31.6624 1.1312,47.3747 l 788.397,-13.6296 c -10.6537,-25.234 -11.4567,-55.378 -2.3804,-90.4921 5.2366,-20.2057 -379.469,-192.6806 -707.635,-335.7249 m 931.3225,-618.3617 c -394.6752,0 -737.7496,228.1809 -904.0641,559.3819 l 722.9888,334.9218 c 53.6234,-66.7765 121.3219,-103.3777 209.5525,-96.0577 149.7402,8.3028 223.2413,101.6815 244.5183,253.2369 -40.1727,177.8016 -147.5083,248.3267 -311.1151,233.5077 -49.1596,-16.9328 -159.2922,-86.7435 -166.5237,-164.4706 l -793.7821,48.5346 c 76.3876,482.0132 495.5223,852.6134 998.4254,852.6134 556.7636,0 1010.8335,-454.0699 1010.8335,-1010.8344 0,-556.7333 -454.0699,-1010.8336 -1010.8335,-1010.8336 m -4122.9981,0 c -556.7639,0 -1010.8639,454.1003 -1010.8639,1010.8336 0,556.7645 454.1,1010.8344 1010.8639,1010.8344 556.7341,0 1010.8344,-454.0699 1010.8344,-1010.8344 0,-393.9599 -227.5263,-736.5585 -557.7758,-903.2012 l -379.4394,961.2886 c -171.0461,116.5603 -270.1091,-42.3152 -122.2441,-96.0281 l 53.8016,-75.6436 293.0823,-804.9715 13.6886,-42.8213 c -98.2896,-32.0783 -203.1545,-49.4565 -311.9484,-49.4565 m 3.7494,-267.074 c 132.9567,0 261.182,20.5625 381.819,58.5623 l 42.7918,-104.6869 55.6463,-32.4949 61.1519,-183.3368 74.8996,-1.2493 36.5717,-62.3421 159.2028,-425.4139 c -28.4477,-45.2911 -26.1567,-76.9536 43.6548,-78.5605 l 149.7098,-459.7839 -244.5174,-139.7411 -23.0922,55.2295 -107.0968,-32.8813 -9.5226,-100.9678 -27.9129,-19.8784 c -168.0109,137.3911 -215.2658,77.6082 -61.955,-44.2494 l -32.376,-23.1209 c 27.972,-71.3889 72.3109,-82.7267 133.0157,-34.0133 16.6941,-51.4801 62.6998,-99.5389 111.4722,-131.9453 47.7306,6.8148 70.8229,29.9366 69.4243,69.5137 3.035,42.554 -49.0702,91.5938 -138.8486,145.0983 l 44.1895,22.1391 40.6493,-62.0739 c 98.9138,-38.834 433.0317,-37.3756 537.3617,-5.2374 24.7582,29.3115 27.6743,61.3307 8.7482,96.0576 l -430.5315,5.2071 167.3858,115.5784 31.2153,-16.0691 98.2897,31.4541 16.6047,48.3557 -23.3892,93.0522 -47.3443,0.6579 -156.7034,396.3107 -5.5943,40.9167 c 32.6738,28.7759 25.7696,53.3856 -8.4217,61.658 l -6.5466,47.761 1417.7389,522.0662 497.6952,-131.0224 12.9447,-37.4355 c -191.341,-90.9383 -4.7313,-60.4071 21.3959,-62.1338 l 227.6149,-660.0814 -148.4302,-96.0576 c -93.2606,-10.9802 -213.6293,-12.9447 -352.5379,-8.7482 l 20.1459,-60.9436 c 137.7478,-75.0784 286.8334,-89.1542 515.7575,-35.1141 165.2441,-27.228 305.7595,-45.2313 410.238,-49.7247 81.3872,31.6025 104.8058,78.4407 87.517,163.25 -32.198,11.1885 -44.3987,53.6826 -96.5039,33.5958 l -104.3899,36.2748 -122.2136,35.1141 c 3.154,50.6467 -55.8554,91.3255 -151.466,99.2706 l -183.5443,572.5054 c 79.571,42.9403 71.8343,66.9545 -23.3006,71.954 l -145.1278,448.5955 -116.7087,15.9198 17.4676,-111.4123 -40.7682,-2.8865 -675.0793,189.4667 -19.4322,78.6195 214.1355,65.1983 15.444,-28.7751 293.5285,76.1194 3.0949,47.7011 142.4201,43.4169 20.5321,-41.0061 110.9956,41.0061 -20.4731,75.3753 214.731,99.4799 c 207.1418,-425.0267 643.7449,-719.0908 1146.8859,-719.0908 702.2187,0 1274.872,572.6833 1274.872,1274.8726 0,702.2187 -572.6533,1274.8734 -1274.872,1274.8734 -642.2275,0 -1176.0186,-479.0669 -1262.5243,-1098.1135 l -108.4068,6.6064 -0.1096,0.093 c -19.5208,161.4348 -157.655,287.1903 -324.2377,287.1903 -28.2403,0 -55.6176,-3.601 -81.8334,-10.4158 l -137.391,227.14 1.6364,13.7182 38.7733,8.8375 c 18.9261,18.0328 22.3187,41.4523 10.2665,70.3767 l -92.9029,-2.4994 c -18.5094,46.5109 -87.9337,55.944 -106.2044,8.8376 h -109.2107 c -6.3086,-16.5448 -5.3259,-31.2752 2.9465,-44.2199 l 42.1963,-48.3852 69.0371,-0.6833 169.5587,-286.2683 c -80.822,-59.5146 -133.4923,-155.304 -133.4923,-263.0563 0,-68.1742 21.1572,-131.558 57.1047,-184.0208 l 0.093,-3.6601 -1333.6744,-1521.0273 -38.5658,-2.0531 -85.9986,178.3364 -96.0282,69.8705 24.6393,55.2009 -55.2599,128.8495 c 411.6366,211.8149 694.244,641.1866 694.244,1134.477 0,702.2187 -572.6842,1274.8734 -1274.9029,1274.8734 -702.1655,8e-4 -1274.8805,-572.6538 -1274.8805,-1274.8725 0,-702.1893 572.715,-1274.8727 1274.8738,-1274.8727"
       style="fill:#000000;fill-opacity:1;fill-rule:evenodd;stroke:none;stroke-width:29.75754738"
       id="path6081"
       inkscape:connector-curvature="0" />
    <rect
       y="-3853.5088"
       x="8959.4824"
       height="7999.9995"
       width="900"
       id="rect12015"
       style="fill:#be141e;fill-opacity:1;stroke:none;stroke-width:146.94926453;stroke-linejoin:miter;stroke-miterlimit:4;stroke-dasharray:none;stroke-opacity:1"
       transform="rotate(-45)" />
  </g>
</svg>
