<?xml version="1.0" encoding="UTF-8" standalone="no"?>
<!-- Created with Inkscape (http://www.inkscape.org/) -->

<svg
   xmlns:dc="http://purl.org/dc/elements/1.1/"
   xmlns:cc="http://creativecommons.org/ns#"
   xmlns:rdf="http://www.w3.org/1999/02/22-rdf-syntax-ns#"
   xmlns:svg="http://www.w3.org/2000/svg"
   xmlns="http://www.w3.org/2000/svg"
   xmlns:sodipodi="http://sodipodi.sourceforge.net/DTD/sodipodi-0.dtd"
   xmlns:inkscape="http://www.inkscape.org/namespaces/inkscape"
   width="90.400002cm"
   height="90.400002cm"
   viewBox="0 0 9040.0002 9039.9996"
   version="1.1"
   id="svg30"
   inkscape:version="0.92.2 (5c3e80d, 2017-08-06)"
   sodipodi:docname="SR-30-45.svg">
  <defs
     id="defs24" />
  <sodipodi:namedview
     id="base"
     pagecolor="#ffffff"
     bordercolor="#666666"
     borderopacity="1.0"
     inkscape:pageopacity="0.0"
     inkscape:pageshadow="2"
     inkscape:zoom="0.12374369"
     inkscape:cx="1044.8319"
     inkscape:cy="779.63389"
     inkscape:document-units="cm"
     inkscape:current-layer="layer1"
     showgrid="false"
     units="cm"
     inkscape:window-width="1920"
     inkscape:window-height="1001"
     inkscape:window-x="-9"
     inkscape:window-y="-9"
     inkscape:window-maximized="1"
     inkscape:measure-start="0,0"
     inkscape:measure-end="0,0" />
  <metadata
     id="metadata27">
    <rdf:RDF>
      <cc:Work
         rdf:about="">
        <dc:format>image/svg+xml</dc:format>
        <dc:type
           rdf:resource="http://purl.org/dc/dcmitype/StillImage" />
        <dc:title></dc:title>
      </cc:Work>
    </rdf:RDF>
  </metadata>
  <g
     inkscape:label="Layer 1"
     inkscape:groupmode="layer"
     id="layer1"
     transform="translate(0,6069.9998)">
    <circle
       id="path32"
       cx="4520"
       cy="-1549.9999"
       style="fill:#be141e;fill-opacity:1;stroke:none;stroke-width:7.43594885"
       r="4500" />
    <circle
       style="fill:#ffffff;fill-opacity:1;stroke:none;stroke-width:4.06587029"
       id="path5072"
       cx="4520"
       cy="-1549.9999"
       r="3600" />
    <path
       d="m 3349.1173,-1053.3041 v -1682.8535 l -1158.4042,1682.8535 z m 0,1314.35841 V -632.52064 H 1743.452 V -1053.3041 L 3432.7489,-3472.362 h 371.3781 v 2419.0579 h 289.5875 v 420.78346 H 3804.127 v 893.57495 z"
       style="fill:#000000;stroke:#000000;stroke-width:126.31684875;stroke-linecap:butt;stroke-linejoin:miter;stroke-miterlimit:22.9260006;stroke-dasharray:none;stroke-opacity:1"
       id="path281"
       inkscape:connector-curvature="0" />
    <path
       d="m 4977.7213,-690.08111 569.771,-75.06983 c 15.9618,165.1547 64.6605,296.26185 144.5404,392.51288 79.8794,97.1451 172.3049,145.31363 276.4583,145.31363 119.3742,0 220.7811,-62.38041 303.5565,-186.3359 82.6254,-124.93829 124.3469,-312.97142 124.3469,-563.56512 0,-234.59835 -40.9785,-411.19095 -123.678,-528.71435 -81.9583,-117.7894 -188.8601,-176.6839 -320.185,-176.6839 -163.9906,0 -311.3509,93.8391 -441.7856,279.9978 l -464.1318,-86.4218 140.0852,-1992.9513 h 1512.361 v 686.6314 h -925.8877 l -89.53,650.8813 c 127.9115,-82.0416 257.7527,-122.9751 391.0074,-122.9751 253.6702,0 468.8833,118.5948 644.8248,354.7992 176.3876,237.1875 264.8047,544.9784 264.8047,922.92453 0,314.6716 -70.9699,596.45537 -213.2833,843.3833 -194.5759,338.17575 -463.4627,506.63913 -807.9236,506.63913 -276.0884,0 -500.2851,-94.64254 -674.0003,-284.375589 C 5115.4308,-114.0925 5011.128,-369.24361 4977.7213,-690.08111 Z"
       style="fill:#000000;stroke:#000000;stroke-width:69.88659668;stroke-linecap:butt;stroke-linejoin:miter;stroke-miterlimit:22.9260006;stroke-dasharray:none;stroke-opacity:1"
       id="path297"
       inkscape:connector-curvature="0"
       sodipodi:nodetypes="cccscscscccccccscscscc" />
  </g>
</svg>
