<?xml version="1.0" encoding="UTF-8" standalone="no"?>
<!-- Created with Inkscape (http://www.inkscape.org/) -->

<svg
   xmlns:dc="http://purl.org/dc/elements/1.1/"
   xmlns:cc="http://creativecommons.org/ns#"
   xmlns:rdf="http://www.w3.org/1999/02/22-rdf-syntax-ns#"
   xmlns:svg="http://www.w3.org/2000/svg"
   xmlns="http://www.w3.org/2000/svg"
   xmlns:sodipodi="http://sodipodi.sourceforge.net/DTD/sodipodi-0.dtd"
   xmlns:inkscape="http://www.inkscape.org/namespaces/inkscape"
   width="90.400002cm"
   height="90.400002cm"
   viewBox="0 0 9040.0002 9039.9996"
   version="1.1"
   id="svg30"
   inkscape:version="0.92.2 (5c3e80d, 2017-08-06)"
   sodipodi:docname="SR-30-40.svg">
  <defs
     id="defs24" />
  <sodipodi:namedview
     id="base"
     pagecolor="#ffffff"
     bordercolor="#666666"
     borderopacity="1.0"
     inkscape:pageopacity="0.0"
     inkscape:pageshadow="2"
     inkscape:zoom="0.12374369"
     inkscape:cx="1044.8319"
     inkscape:cy="779.63389"
     inkscape:document-units="cm"
     inkscape:current-layer="layer1"
     showgrid="false"
     units="cm"
     inkscape:window-width="1920"
     inkscape:window-height="1001"
     inkscape:window-x="-9"
     inkscape:window-y="-9"
     inkscape:window-maximized="1"
     inkscape:measure-start="0,0"
     inkscape:measure-end="0,0" />
  <metadata
     id="metadata27">
    <rdf:RDF>
      <cc:Work
         rdf:about="">
        <dc:format>image/svg+xml</dc:format>
        <dc:type
           rdf:resource="http://purl.org/dc/dcmitype/StillImage" />
        <dc:title></dc:title>
      </cc:Work>
    </rdf:RDF>
  </metadata>
  <g
     inkscape:label="Layer 1"
     inkscape:groupmode="layer"
     id="layer1"
     transform="translate(0,6069.9998)">
    <circle
       id="path32"
       cx="4520"
       cy="-1549.9999"
       style="fill:#be141e;fill-opacity:1;stroke:none;stroke-width:7.43594885"
       r="4500" />
    <circle
       style="fill:#ffffff;fill-opacity:1;stroke:none;stroke-width:4.06587029"
       id="path5072"
       cx="4520"
       cy="-1549.9999"
       r="3600" />
    <path
       d="m 6632.6906,-1539.1755 c 0,323.9472 -32.9448,600.84965 -99.1095,830.08839 -102.5486,354.48632 -272.225,532.14048 -508.8927,532.14048 -237.4241,0 -406.0692,-191.96077 -505.1787,-573.95734 -61.5576,-240.17544 -91.89,-528.42663 -91.89,-865.02843 0,-964.0707 199.0457,-1446.2085 597.0687,-1446.2085 405.381,0 608.0022,508.0681 608.0022,1522.9654 m 524.9186,-88.3806 c 0,-1311.3332 -373.1925,-1966.5203 -1117.6533,-1966.5203 -759.66,0 -1139.9376,655.1871 -1139.9376,1966.5203 0,1329.28378 380.2776,1993.41165 1139.9376,1993.41165 744.4608,0 1117.6533,-664.12787 1117.6533,-1993.41165"
       style="fill:#000000;fill-opacity:1;fill-rule:nonzero;stroke:none;stroke-width:68.77864075"
       id="path1196"
       inkscape:connector-curvature="0" />
    <path
       d="m 3434.6435,-1053.3041 v -1682.8535 l -1158.4042,1682.8535 z m 0,1314.35841 V -632.52064 H 1828.9782 V -1053.3041 L 3518.2751,-3472.362 h 371.3781 v 2419.0579 h 289.5875 v 420.78346 h -289.5875 v 893.57495 z"
       style="fill:#000000;stroke:#000000;stroke-width:126.31684875;stroke-linecap:butt;stroke-linejoin:miter;stroke-miterlimit:22.9260006;stroke-dasharray:none;stroke-opacity:1"
       id="path281"
       inkscape:connector-curvature="0" />
  </g>
</svg>
