<?xml version="1.0" encoding="UTF-8" standalone="no"?>
<!-- Created with Inkscape (http://www.inkscape.org/) -->

<svg
   xmlns:dc="http://purl.org/dc/elements/1.1/"
   xmlns:cc="http://creativecommons.org/ns#"
   xmlns:rdf="http://www.w3.org/1999/02/22-rdf-syntax-ns#"
   xmlns:svg="http://www.w3.org/2000/svg"
   xmlns="http://www.w3.org/2000/svg"
   xmlns:sodipodi="http://sodipodi.sourceforge.net/DTD/sodipodi-0.dtd"
   xmlns:inkscape="http://www.inkscape.org/namespaces/inkscape"
   width="90.400002cm"
   height="90.400002cm"
   viewBox="0 0 9040.0002 9039.9996"
   version="1.1"
   id="svg30"
   inkscape:version="0.92.2 (5c3e80d, 2017-08-06)"
   sodipodi:docname="SR-30-80.svg">
  <defs
     id="defs24" />
  <sodipodi:namedview
     id="base"
     pagecolor="#ffffff"
     bordercolor="#666666"
     borderopacity="1.0"
     inkscape:pageopacity="0.0"
     inkscape:pageshadow="2"
     inkscape:zoom="0.12374369"
     inkscape:cx="1044.8319"
     inkscape:cy="779.63389"
     inkscape:document-units="cm"
     inkscape:current-layer="layer1"
     showgrid="false"
     units="cm"
     inkscape:window-width="1920"
     inkscape:window-height="1001"
     inkscape:window-x="-9"
     inkscape:window-y="-9"
     inkscape:window-maximized="1"
     inkscape:measure-start="0,0"
     inkscape:measure-end="0,0" />
  <metadata
     id="metadata27">
    <rdf:RDF>
      <cc:Work
         rdf:about="">
        <dc:format>image/svg+xml</dc:format>
        <dc:type
           rdf:resource="http://purl.org/dc/dcmitype/StillImage" />
        <dc:title></dc:title>
      </cc:Work>
    </rdf:RDF>
  </metadata>
  <g
     inkscape:label="Layer 1"
     inkscape:groupmode="layer"
     id="layer1"
     transform="translate(0,6069.9998)">
    <circle
       id="path32"
       cx="4520"
       cy="-1549.9999"
       style="fill:#be141e;fill-opacity:1;stroke:none;stroke-width:7.43594885"
       r="4500" />
    <circle
       style="fill:#ffffff;fill-opacity:1;stroke:none;stroke-width:4.06587029"
       id="path5072"
       cx="4520"
       cy="-1549.9999"
       r="3600" />
    <path
       inkscape:connector-curvature="0"
       id="path3933"
       style="font-style:normal;font-weight:bold;font-size:34.62578583px;line-height:125%;font-family:Arial;-inkscape-font-specification:'Arial Bold';letter-spacing:0px;word-spacing:0px;fill:#000000;fill-opacity:1;stroke:none;stroke-width:151.00457764"
       d="m 2535.6266,-1744.6732 c -162.5385,-89.3625 -280.714,-212.2393 -354.5263,-368.6303 -73.8137,-156.3859 -110.7206,-327.8303 -110.7206,-514.334 0,-318.602 85.3698,-581.8397 256.1095,-789.714 170.7383,-207.8664 413.4262,-311.8015 728.0651,-311.8058 311.6529,0 553.596,103.9394 725.828,311.8058 172.2279,207.8743 258.3439,471.112 258.3452,789.714 0,198.1599 -39.5184,374.4612 -118.5485,528.9042 -79.0341,154.4485 -190.1264,272.4684 -333.2769,354.0601 181.9214,95.1953 320.2271,234.0993 414.9186,416.7125 94.6875,182.617 142.0325,393.40141 142.0352,632.35406 0,394.37214 -96.5555,714.919824 -289.6613,961.64427 -193.1083,246.72496 -449.9626,370.08727 -770.5628,370.08727 -298.2354,0 -546.5155,-101.99253 -744.8404,-305.97759 -234.115,-240.896346 -351.1713,-571.15777 -351.1713,-990.78514 0,-231.18174 43.99,-443.42327 131.9687,-636.72507 87.9788,-193.2982 226.6576,-342.4015 416.0378,-447.3103 z m 129.7316,-824.6829 c 0,163.1911 35.4145,290.4388 106.2463,381.7436 70.829,91.3104 165.1461,136.9641 282.9498,136.9615 119.292,0 214.727,-46.1369 286.3049,-138.4184 71.5752,-92.2762 107.3628,-220.0097 107.3641,-383.2008 0,-153.4713 -35.4172,-276.3479 -106.2462,-368.6303 -70.8317,-92.2753 -164.4026,-138.4148 -280.7127,-138.4184 -120.7857,0 -216.9668,46.6288 -288.542,139.8755 -71.5766,93.2537 -107.3655,216.6161 -107.3642,370.0873 z m -58.1563,1830.03833 c 0,225.35605 44.3617,401.17165 133.0879,527.44732 88.7235,126.277218 199.4428,189.415318 332.159,189.414798 129.7302,5.2e-4 237.0944,-60.70923 322.0924,-182.129578 84.9955,-121.41898 127.4932,-296.74887 127.4958,-525.99038 0,-200.09818 -43.2465,-360.85769 -129.7329,-482.27909 -86.489,-121.4179 -196.0903,-182.1277 -328.8026,-182.1298 -153.5926,0 -268.0399,68.9685 -343.3433,206.8993 -75.3047,137.9345 -112.9563,287.52351 -112.9563,448.76743 z" />
    <path
       inkscape:connector-curvature="0"
       id="path3935"
       style="font-style:normal;font-weight:bold;font-size:34.62578583px;line-height:125%;font-family:Arial;-inkscape-font-specification:'Arial Bold';letter-spacing:0px;word-spacing:0px;fill:#000000;fill-opacity:1;stroke:none;stroke-width:151.00457764"
       d="m 5929.6554,-3750.5389 c 317.6182,0 565.8984,147.6504 744.8404,442.9391 213.236,349.6923 319.854,929.5924 319.8567,1739.702 0,808.17108 -107.3669,1389.04259 -322.0925,1742.61609 -177.4524,291.40751 -424.9864,437.111 -742.6046,437.111 -319.1118,0 -576.3392,-159.78823 -771.682,-479.36502 -195.3429,-319.57611 -293.015,-889.27693 -293.015,-1709.10427 0,-804.2814 107.3642,-1383.2101 322.0938,-1736.7879 177.4484,-291.4032 424.9824,-437.1067 742.6032,-437.111 z m 0,678.979 c -76.0508,0 -143.8992,31.5727 -203.5452,94.7075 -59.6474,63.1418 -105.8732,176.3048 -138.6789,339.4895 -43.2451,211.7591 -64.8664,568.247 -64.8664,1069.4651 0,501.2222 19.3854,845.56841 58.1563,1033.03919 38.7696,187.47284 87.6057,312.29226 146.5082,374.45843 58.8999,62.167547 126.3752,93.250887 202.426,93.250377 76.0482,5.1e-4 143.8966,-31.56853 203.5453,-94.707487 59.6447,-63.1374 105.8719,-176.30044 138.6788,-339.48946 43.2426,-209.81214 64.8638,-565.32885 64.8665,-1066.55105 0,-501.2181 -19.3868,-845.5641 -58.1564,-1033.0392 -38.7722,-187.4687 -87.6083,-312.7736 -146.5068,-375.9154 -58.9038,-63.1348 -126.3792,-94.7038 -202.4274,-94.7075 z" />
  </g>
</svg>
