<?xml version="1.0" encoding="UTF-8" standalone="no"?>
<!-- Created with Inkscape (http://www.inkscape.org/) -->

<svg
   xmlns:dc="http://purl.org/dc/elements/1.1/"
   xmlns:cc="http://creativecommons.org/ns#"
   xmlns:rdf="http://www.w3.org/1999/02/22-rdf-syntax-ns#"
   xmlns:svg="http://www.w3.org/2000/svg"
   xmlns="http://www.w3.org/2000/svg"
   xmlns:sodipodi="http://sodipodi.sourceforge.net/DTD/sodipodi-0.dtd"
   xmlns:inkscape="http://www.inkscape.org/namespaces/inkscape"
   width="90.400002cm"
   height="90.400002cm"
   viewBox="0 0 9040.0002 9039.9996"
   version="1.1"
   id="svg30"
   inkscape:version="0.92.2 (5c3e80d, 2017-08-06)"
   sodipodi:docname="66.svg">
  <defs
     id="defs24" />
  <sodipodi:namedview
     id="base"
     pagecolor="#ffffff"
     bordercolor="#666666"
     borderopacity="1.0"
     inkscape:pageopacity="0.0"
     inkscape:pageshadow="2"
     inkscape:zoom="0.175"
     inkscape:cx="3299.6176"
     inkscape:cy="1964.2298"
     inkscape:document-units="cm"
     inkscape:current-layer="layer1"
     showgrid="false"
     units="cm"
     inkscape:window-width="1920"
     inkscape:window-height="1057"
     inkscape:window-x="-8"
     inkscape:window-y="-8"
     inkscape:window-maximized="1" />
  <metadata
     id="metadata27">
    <rdf:RDF>
      <cc:Work
         rdf:about="">
        <dc:format>image/svg+xml</dc:format>
        <dc:type
           rdf:resource="http://purl.org/dc/dcmitype/StillImage" />
        <dc:title></dc:title>
      </cc:Work>
    </rdf:RDF>
  </metadata>
  <g
     inkscape:label="Layer 1"
     inkscape:groupmode="layer"
     id="layer1"
     transform="translate(0,6069.9998)">
    <circle
       id="path32"
       cx="4520"
       cy="-1549.9999"
       style="fill:#be141e;fill-opacity:1;stroke:none;stroke-width:7.43594885"
       r="4500" />
    <circle
       style="fill:#ffffff;fill-opacity:1;stroke:none;stroke-width:4.06587029"
       id="path5072"
       cx="4520"
       cy="-1549.9999"
       r="3600" />
    <path
       d="M 6784.9999,635.89499 H 6424.9162 V -138.4087 c 0,-163.90033 -7.8466,-269.72255 -23.244,-317.96626 -15.2642,-47.77908 -40.6933,-85.36003 -75.1946,-112.1803 -34.5681,-26.29069 -76.1895,-39.99809 -124.7302,-39.99809 -62.5134,0 -118.6041,19.03828 -168.0383,57.01793 -49.4024,38.54022 -83.5733,88.80337 -101.9499,151.7807 -18.3765,62.84443 -27.5812,178.93271 -27.5812,348.527647 V 635.89499 H 5544.0614 V -881.09073 h 334.2896 v 222.90374 c 119.0348,-171.7143 268.7304,-257.57194 448.9544,-257.57194 79.2015,0 152.2448,16.12554 217.8705,47.84502 65.6595,32.15115 115.5912,72.67983 149.2319,122.37942 33.8069,49.73257 57.3484,105.85619 70.4943,168.63567 13.5418,62.97633 20.0978,152.74096 20.0978,269.72355 z M 4155.2153,-122.81375 c 0,150.623594 31.9513,265.68367 96.2865,345.68084 63.9382,79.9632 143.1396,119.96179 237.241,119.96179 94.1023,0 172.8401,-39.99859 236.1822,-119.96179 63.9373,-79.99717 95.9233,-196.017504 95.9233,-348.66054 0,-148.20546 -31.986,-262.76992 -95.9233,-342.73312 -63.3421,-79.9632 -142.0799,-119.96129 -236.1822,-119.96129 -94.1014,0 -173.3028,39.99809 -237.241,119.96129 -64.3352,79.9632 -96.2865,195.55487 -96.2865,345.71282 m -369.2555,-21.48839 c 0,-133.14011 29.7334,-262.40521 88.3732,-387.16879 59.1035,-124.33191 142.6759,-219.957 250.751,-285.31849 108.1079,-65.82513 228.8641,-98.96951 362.3345,-98.96951 205.6201,0 374.6195,74.66529 506.2699,223.83201 131.6494,149.23167 197.3089,337.43522 197.3089,565.10726 0,229.2938 -66.5201,419.38559 -199.0312,570.57064 -133.0733,151.21894 -300.2181,226.24925 -501.898,226.24925 -125.1939,0 -243.7642,-31.25764 -357.1375,-94.10227 C 4019.5582,513.01945 3933.4365,420.87207 3874.333,299.42043 3815.6931,178.03474 3785.9598,30.225977 3785.9598,-144.30214 M 2812.3927,635.89499 V -1103.8956 H 2255 v -354.521 h 1493.4117 v 354.521 H 3192.2111 V 635.89499 Z m 2524.79,-4385.07219 c -43.3419,0 -82.3476,15.6949 -116.3853,46.3552 -34.1382,31.1579 -60.9244,86.7849 -79.6651,166.7481 -24.5027,103.9017 -37.2177,278.4648 -37.2177,524.1489 0,245.7841 11.4236,414.5846 33.3104,506.2358 22.2172,92.1158 50.2621,153.0397 83.9365,183.8659 34.1372,30.1987 72.6793,45.7596 116.0212,45.7596 43.707,0 82.646,-15.5609 116.7503,-46.7199 34.1701,-30.7932 60.9245,-86.3202 79.6979,-166.3164 24.4698,-102.9425 37.1839,-277.0409 37.1839,-522.825 0,-245.6841 -11.3897,-414.4517 -33.3094,-506.5345 -22.251,-91.6841 -50.263,-153.2046 -84.036,-184.3625 -34.0387,-30.6603 -72.5797,-46.3552 -116.2867,-46.3552 m 0,-333.0976 c 182.3761,0 324.6878,72.7778 427.0675,217.506 122.0807,171.2516 183.3363,455.5109 183.3363,852.8438 0,395.943 -61.7522,680.7979 -184.6606,854.3997 -101.6185,142.8416 -243.3671,214.0966 -425.7432,214.0966 -182.5414,0 -330.0181,-78.1087 -442.0333,-235.1223 -112.0481,-156.4831 -168.0065,-435.9081 -168.0065,-837.7446 0,-394.4861 61.6537,-678.2818 184.6945,-851.321 101.4853,-142.9076 243.2009,-214.6582 425.3453,-214.6582 M 4412.19,-2352.1199 v 373.0637 H 3149.4314 c 13.9399,-140.9541 54.633,-274.5908 123.3055,-400.9092 68.3082,-126.3193 203.5008,-293.4642 404.7837,-502.2308 162.7747,-168.1701 262.1079,-282.8015 298.8946,-342.7331 49.4343,-82.909 74.3668,-164.8926 74.3668,-245.8161 0,-89.268 -21.4222,-157.9399 -64.7979,-206.2496 -43.2105,-48.2427 -102.8105,-72.1822 -178.9991,-72.1822 -75.2284,0 -134.6633,25.3294 -179.3632,75.5926 -44.1369,50.7268 -70.0296,134.564 -77.0164,251.5786 l -358.7584,-39.9661 c 21.3227,-220.8174 88.406,-379.3209 201.249,-475.9052 112.8094,-96.0228 253.7967,-144.3975 423.0937,-144.3975 185.555,0 331.2439,56.1566 437.1329,167.3767 105.9557,111.6837 158.8674,250.1537 158.8674,415.9086 0,94.0683 -15.2641,183.8329 -45.4283,269.094 -30.2965,85.394 -78.3407,174.5951 -143.9674,267.7701 -43.8722,61.9171 -122.5771,151.0852 -235.9495,267.2394 -113.7038,116.0543 -185.8855,193.5344 -216.0834,231.646 -30.2638,37.9786 -55.0968,75.03 -73.9698,111.1201 z"
       style="fill:#000000;fill-opacity:1;fill-rule:evenodd;stroke:none;stroke-width:33.11112976"
       id="path285"
       inkscape:connector-curvature="0" />
  </g>
</svg>
