<?xml version="1.0" encoding="UTF-8" standalone="no"?>
<!-- Created with Inkscape (http://www.inkscape.org/) -->

<svg
   xmlns:dc="http://purl.org/dc/elements/1.1/"
   xmlns:cc="http://creativecommons.org/ns#"
   xmlns:rdf="http://www.w3.org/1999/02/22-rdf-syntax-ns#"
   xmlns:svg="http://www.w3.org/2000/svg"
   xmlns="http://www.w3.org/2000/svg"
   xmlns:sodipodi="http://sodipodi.sourceforge.net/DTD/sodipodi-0.dtd"
   xmlns:inkscape="http://www.inkscape.org/namespaces/inkscape"
   width="90.400002cm"
   height="90.400002cm"
   viewBox="0 0 9040.0002 9039.9996"
   version="1.1"
   id="svg4496"
   inkscape:version="0.92.2 (5c3e80d, 2017-08-06)"
   sodipodi:docname="Colombia_road_sign_SR-23.svg">
  <defs
     id="defs4490" />
  <sodipodi:namedview
     id="base"
     pagecolor="#ffffff"
     bordercolor="#666666"
     borderopacity="1.0"
     inkscape:pageopacity="0.0"
     inkscape:pageshadow="2"
     inkscape:zoom="0.12374369"
     inkscape:cx="1387.149"
     inkscape:cy="1686.7119"
     inkscape:document-units="cm"
     inkscape:current-layer="layer1"
     showgrid="false"
     units="cm"
     inkscape:window-width="1920"
     inkscape:window-height="1057"
     inkscape:window-x="-8"
     inkscape:window-y="-8"
     inkscape:window-maximized="1" />
  <metadata
     id="metadata4493">
    <rdf:RDF>
      <cc:Work
         rdf:about="">
        <dc:format>image/svg+xml</dc:format>
        <dc:type
           rdf:resource="http://purl.org/dc/dcmitype/StillImage" />
        <dc:title></dc:title>
      </cc:Work>
    </rdf:RDF>
  </metadata>
  <g
     inkscape:label="Layer 1"
     inkscape:groupmode="layer"
     id="layer1"
     transform="translate(0,6070)">
    <circle
       style="opacity:0.98999999;fill:#be141e;fill-opacity:1;stroke:none;stroke-width:1933.07995605;stroke-linejoin:miter;stroke-miterlimit:4;stroke-dasharray:none;stroke-opacity:1"
       id="path5041"
       cx="4520"
       cy="-1549.9999"
       r="4500" />
    <circle
       r="3600"
       cy="-1549.9999"
       cx="4520"
       id="circle5043"
       style="opacity:0.98999999;fill:#ffffff;fill-opacity:1;stroke:none;stroke-width:1546.46398926;stroke-linejoin:miter;stroke-miterlimit:4;stroke-dasharray:none;stroke-opacity:1" />
    <path
       d="m 5998.5426,-944.46946 c -11.7514,-51.1247 -17.979,-104.32584 -17.979,-159.03394 0,-125.3199 32.7105,-243.0392 89.963,-345.0557 h 428.8585 c -136.3347,82.5643 -205.0377,190.0039 -205.0377,342.1757 -9.877,102.4851 43.7596,185.98774 107.4411,278.52794 z m 688.069,-865.04904 c 102.3845,0 199.7808,21.7965 287.6351,61.0366 73.1561,34.1507 142.5292,80.5208 203.2971,137.6062 132.5849,128.3328 215.1159,308.2259 215.1159,507.3723 0,389.95274 -316.1281,706.01364 -706.0481,706.01364 -314.6551,0 -581.2304,-205.8415 -672.3324,-490.1621 l 597.3684,172.2265 c 205.9753,19.8539 469.5714,-73.6246 469.5714,-386.03654 0,-220.773 -171.1549,-396.7829 -395.8126,-396.7829 h -584.278 c 126.9264,-187.8624 341.8411,-311.2737 585.4832,-311.2737 m -893.6761,271.5979 -41.6499,-20.0217 h -81.5601 l -100.5101,-354.1283 141.2907,-138.2768 c 45.7345,84.539 124.2814,166.0661 256.6652,121.3359 l 223.72,-85.5113 23.7712,36.4941 c -182.5381,98.7028 -330.625,253.0161 -421.727,440.1081 m -3131.7143,-49.0161 c 128.3996,127.4294 207.8166,303.9409 207.8166,499.1351 0,388.48084 -314.9217,703.33584 -703.3024,703.33584 -388.5468,0 -703.4694,-314.855 -703.4694,-703.33584 0,-109.1814 24.9092,-212.4709 69.2725,-304.6094 l 0.1326,-0.3987 c 2.2096,-4.4199 4.3184,-8.8398 6.6958,-13.2256 116.7486,-228.1399 354.2293,-384.2948 628.1039,-384.2948 120.8335,0 234.4674,30.3664 333.8727,83.8364 l -144.0021,297.7123 c -190.0045,-126.2902 -562.0792,-32.8436 -566.0302,336.251 1.0051,143.23114 114.4055,291.45174 252.5813,343.14694 29.8986,59.6626 151.2,110.4535 185.0494,16.907 134.3596,-20.8911 259.6452,-125.3529 295.4706,-253.6856 141.2565,-5.9588 108.4454,-181.03234 17.9792,-176.07684 l -42.7556,-117.3176 z m 254.0543,-995.5594 -302.3002,560.4067 c -135.3305,-64.9199 -286.9992,-101.381 -447.2399,-101.381 -571.9561,0 -1035.7354,463.6785 -1035.7354,1035.6688 0,571.95644 463.7793,1035.601841 1035.7354,1035.601841 571.9561,0 1035.6016,-463.645401 1035.6016,-1035.601841 0,-310.1345 -136.3346,-588.3617 -352.3539,-778.1328 l 25.5118,-29.2292 278.6294,-533.1851 c 195.9313,131.3127 289.3767,353.091 353.0905,578.9206 22.9011,57.654 145.2408,102.4851 129.2374,44.7981 l -5.9258,-70.6787 167.036,-12.9238 37.8004,93.4795 c -148.0869,198.9436 -164.0569,707.2522 77.7431,707.2522 96.392,0 151.2008,-51.7272 183.041,-125.2849 54.6407,67.5979 161.1102,128.2658 354.0614,154.1794 l 433.6464,44.7311 c 153.1759,15.93674 272.5355,-16.9079 404.9192,-62.6424 l 379.9767,198.91054 h 6.1935 l -0.7402,-3.0468 42.8893,-9.5083 c 97.6308,446.1672 494.9839,780.207 970.5146,780.207 548.6536,0 993.4488,-444.8617 993.4488,-993.54824 0,-548.7209 -444.7952,-993.5838 -993.4488,-993.5838 -115.5102,0 -226.4326,19.787 -329.5537,56.0142 l -15.7032,-44.8981 c 7.4332,-2.6461 14.8663,-5.1903 22.2984,-7.6006 104.1935,-65.9581 175.3737,-141.5573 242.0343,-239.2888 31.8744,-55.6785 24.877,-131.3117 -20.8244,-176.0769 l 535.1265,-44.7631 44.7646,-119.3602 -68.6365,-89.5293 -560.9745,47.712 -74.6964,-110.3555 370.0665,-101.4459 c 165.1948,-42.8226 304.3756,-25.9146 477.5057,5.9268 134.2258,15.9357 277.4906,12.9558 381.9848,-13.9301 -121.3345,-26.8169 -227.8048,-63.6468 -337.2542,-102.4182 -40.7796,-100.4756 -49.6857,-146.244 -122.3055,-144.2694 l -219.8365,9.9769 c -57.7889,-16.907 -121.3688,-10.9802 -180.0943,0.9723 l -532.1816,103.5244 c -14.8653,-35.8925 -42.7889,-94.5168 -155.1508,-65.7243 l -1105.1078,260.5838 c -200.9538,41.8502 -367.1196,-43.727 -474.4602,-143.1982 -152.2049,-172.0927 -372.0404,-282.5132 -362.1303,-154.1814 -83.5352,-109.4152 -200.9197,-169.1118 -327.1771,-175.0386 10.882,-26.9189 6.931,-64.719 -14.0282,-89.5613 79.551,-14.9324 79.551,-116.3803 28.8943,-142.2619 l -159.1349,-76.5376 c -33.8495,-62.7084 -119.3606,-75.5982 -164.0912,-32.8446 -69.6407,34.7543 -211.9346,41.7853 -206.9794,103.4235 l 24.9092,48.7813 -451.6246,180.9643 115.4086,448.68 -24.9435,66.6287 -26.8852,5.9917 -18.8162,31.8064 11.9858,27.8562 -20.9251,34.8203 c -506.4011,-224.7912 -1082.3415,-83.5676 -1380.7579,272.5362 -43.7255,48.7154 -32.7106,148.2536 22.9009,104.4947 397.9891,-333.2701 925.2147,-411.8512 1305.0574,-222.8166"
       style="fill:#000000;fill-opacity:1;fill-rule:evenodd;stroke:none;stroke-width:33.48102188"
       id="path8911"
       inkscape:connector-curvature="0" />
  </g>
</svg>
