<?xml version="1.0" encoding="UTF-8" standalone="no"?>
<!-- Created with Inkscape (http://www.inkscape.org/) -->

<svg
   xmlns:dc="http://purl.org/dc/elements/1.1/"
   xmlns:cc="http://creativecommons.org/ns#"
   xmlns:rdf="http://www.w3.org/1999/02/22-rdf-syntax-ns#"
   xmlns:svg="http://www.w3.org/2000/svg"
   xmlns="http://www.w3.org/2000/svg"
   xmlns:sodipodi="http://sodipodi.sourceforge.net/DTD/sodipodi-0.dtd"
   xmlns:inkscape="http://www.inkscape.org/namespaces/inkscape"
   width="90.400002cm"
   height="90.400002cm"
   viewBox="0 0 904.00002 903.99999"
   version="1.1"
   id="svg8"
   inkscape:version="0.92.2 (5c3e80d, 2017-08-06)"
   sodipodi:docname="11 Colombia.svg">
  <defs
     id="defs2">
    <clipPath
       clipPathUnits="userSpaceOnUse"
       id="clipPath1987">
      <path
         d="m 198.985,357.312 h 292.05 v 340.724 h -292.05 z"
         id="path1985"
         inkscape:connector-curvature="0" />
    </clipPath>
  </defs>
  <sodipodi:namedview
     id="base"
     pagecolor="#ffffff"
     bordercolor="#666666"
     borderopacity="1.0"
     inkscape:pageopacity="0.0"
     inkscape:pageshadow="2"
     inkscape:zoom="0.175"
     inkscape:cx="2642.5341"
     inkscape:cy="1679.7101"
     inkscape:document-units="cm"
     inkscape:current-layer="layer1"
     showgrid="false"
     units="cm"
     inkscape:window-width="1920"
     inkscape:window-height="1057"
     inkscape:window-x="-8"
     inkscape:window-y="-8"
     inkscape:window-maximized="1" />
  <metadata
     id="metadata5">
    <rdf:RDF>
      <cc:Work
         rdf:about="">
        <dc:format>image/svg+xml</dc:format>
        <dc:type
           rdf:resource="http://purl.org/dc/dcmitype/StillImage" />
        <dc:title></dc:title>
      </cc:Work>
    </rdf:RDF>
  </metadata>
  <g
     inkscape:label="Layer 1"
     inkscape:groupmode="layer"
     id="layer1"
     transform="translate(0,607.00001)">
    <rect
       style="opacity:1;fill:#5f321a;fill-opacity:1;stroke:none;stroke-width:140.97337341;stroke-linejoin:round;stroke-miterlimit:4;stroke-dasharray:none;stroke-opacity:1"
       id="rect815"
       width="900"
       height="900"
       x="2"
       y="-605"
       rx="45"
       ry="45" />
    <rect
       y="-587"
       x="20"
       height="864"
       width="864"
       id="rect817"
       style="opacity:1;fill:#ffffff;fill-opacity:1;stroke:none;stroke-width:135.33444214;stroke-linejoin:round;stroke-miterlimit:4;stroke-dasharray:none;stroke-opacity:1"
       rx="27"
       ry="27" />
    <rect
       y="-569"
       x="38"
       height="828"
       width="828"
       id="rect819"
       style="opacity:1;fill:#5f321a;fill-opacity:1;stroke:none;stroke-width:129.69551086;stroke-linejoin:round;stroke-miterlimit:4;stroke-dasharray:none;stroke-opacity:1"
       rx="9"
       ry="9" />
    <path
       d="m 583.20366,-254.14328 c 40.8539,-15.58223 62.42826,-26.86398 78.54119,-18.77584 l -2.03257,2.65386 c 6.73106,-2.65386 36.64686,19.17388 34.94297,36.64687 h 4.40597 c -8.073,-24.54788 -27.18661,-34.94905 -30.58531,-38.28441 -3.04889,-3.05497 -3.39263,-5.374 -4.05915,-10.1207 -0.64199,2.03257 -3.01265,7.06573 -3.01265,7.06573 -1.34502,-6.04949 -7.88306,-8.70327 -27.20174,-11.51692 3.15746,1.40528 6.05248,5.46743 6.05248,5.46743 -3.96264,-0.87152 -11.4204,-1.45051 -17.98863,0.58471 0.52146,-2.65986 1.30279,-12.43982 -3.01273,-14.75884 8.81492,-4.31253 24.5388,-18.10335 27.69327,-51.79483 -4.01692,15.29868 -23.77585,43.02812 -26.72823,47.18977 -1.11583,-4.3516 13.84809,-32.0901 4.8975,-51.20669 -0.73004,3.29312 -5.48256,22.16241 -8.04291,24.39408 -2.50607,2.18037 -1.05847,8.03076 -0.34108,14.3698 0.69071,6.3451 -0.82066,10.12378 -2.70508,2.86494 -1.83356,-7.31912 -12.49102,-34.37006 -17.57557,-39.59019 -0.17781,4.11036 3.10318,14.41204 0.82322,15.33784 4.36673,5.371 1.46264,12.34031 -0.95597,7.69917 -2.42162,-4.69849 -10.11771,-10.46153 -13.36861,-11.517 1.80637,4.54162 22.5123,24.82526 17.72636,38.90561 12.14421,1.25757 21.04659,17.71431 4.20388,21.87904 -17.75047,4.40289 -48.65242,31.11908 -61.03496,21.53513 4.84929,7.94341 16.12806,9.82519 39.35801,0.97111"
       style="fill:#ffffff;fill-opacity:1;fill-rule:nonzero;stroke:none;stroke-width:3.01570964;stroke-opacity:1"
       id="path1099"
       inkscape:connector-curvature="0" />
    <path
       d="m 620.9272,38.31721 v 0.04276 l -0.30176,0.129935 c -0.25304,0.126518 -0.51291,0.256453 -0.76936,0.400915 V 38.8053 l -41.00461,16.842796 v 0.009 c 0,0 -0.007,0.009 -0.0257,0.009 l -0.42486,0.175245 -0.007,-0.08552 c -4.29432,0.877504 -8.58267,1.384166 -12.87409,1.384166 -37.88031,0.04276 -75.66112,-36.04077 -113.52331,-39.846545 -2.11703,-0.199184 -4.23107,-0.343656 -6.36314,-0.325702 -40.16328,-0.04276 -80.45913,40.235591 -120.6224,40.172247 -40.44973,-0.02568 -80.90245,-39.994354 -121.34911,-40.018453 -31.55641,0.02568 -63.11881,39.994344 -94.66018,40.018453 v 39.725932 c 31.55641,-0.04276 63.11283,-39.837483 94.67523,-40.009401 40.44973,-0.108564 80.88433,39.994354 121.33406,40.009401 40.16327,-0.06834 80.32945,-40.48589 120.49571,-40.178312 2.17431,0 4.33356,0.120533 6.48983,0.325692 37.72653,3.766629 75.44698,39.786288 113.15548,39.85262 5.17191,-0.01708 10.33475,-0.720633 15.50973,-1.966232 L 618.34076,79.28879 c 20.84458,-10.738923 41.70122,-22.430925 62.54889,-22.430925 38.03709,-0.108564 76.0652,40.111981 114.10837,40.142164 V 57.141425 C 756.95485,57.115747 718.92674,17.14707 680.88965,17.122872 660.90452,17.148552 640.92239,27.949338 620.9283,38.311286"
       style="fill:#ffffff;fill-opacity:1;fill-rule:nonzero;stroke:none;stroke-width:3.01570964;stroke-opacity:1"
       id="path1103"
       inkscape:connector-curvature="0" />
    <path
       d="m 624.12988,-22.352811 v 0.183787 l -1.48975,0.590698 c -0.18122,0.09322 -0.35304,0.18123 -0.54026,0.274407 v -0.05985 l -45.9292,18.2872298 0.0171,0.2384991 c -3.57063,0.6240412 -7.11414,0.9681169 -10.66962,0.9681169 -37.88032,0.059847 -75.66113,-36.0468448 -113.52341,-39.8375728 -2.11395,-0.214571 -4.23098,-0.343646 -6.36313,-0.331687 -40.16319,-0.05125 -80.45914,40.2296065 -120.6224,40.1692598 C 284.55956,-1.8956005 244.10684,-41.849151 203.65711,-41.879324 172.10369,-41.853647 140.54129,-1.8940319 109,-1.8699232 V 37.859085 c 31.55941,-0.04276 63.11275,-39.8405695 94.67215,-40.0094802 40.44974,-0.1239604 80.88741,39.9913572 121.33706,40.0094802 40.16326,-0.07693 80.32953,-40.4980282 120.49271,-40.1783209 2.17739,0 4.33356,0.1060063 6.49282,0.3376714 37.72653,3.745508 75.44708,39.7620895 113.15548,39.8404805 4.09232,0 8.16961,-0.446236 12.2468,-1.251504 L 621.16398,18.77557 v 0.03417 C 641.06164,8.5080704 660.97735,-2.1434113 680.89016,-2.1524733 718.92426,-2.2764237 756.95537,37.968489 794.99555,37.977541 V -1.8719914 c -38.04018,-0.025677 -76.07129,-39.9793076 -114.10539,-40.0094906 -18.92058,0.009 -37.8321,9.695506 -56.76174,19.52975"
       style="fill:#ffffff;fill-opacity:1;fill-rule:nonzero;stroke:none;stroke-width:3.01570964;stroke-opacity:1"
       id="path1107"
       inkscape:connector-curvature="0" />
    <path
       d="m 687.7192,-158.19851 c -3.48017,-2.06274 -9.33971,-5.91383 -13.26611,-8.16353 -6.98137,-3.80885 -10.60028,-5.52778 -18.35964,-9.98803 -11.47785,-7.3704 -24.18002,-11.74919 -44.73507,-13.4923 -48.29056,2.71414 -54.48486,2.6207 -87.89885,14.57197 -8.55865,4.58985 -23.44418,19.97607 -26.91828,15.40426 4.07429,-10.81441 9.65635,-26.17643 10.93494,-41.5565 2.78655,-33.586 -3.86304,-42.39792 -13.50735,-53.22123 -14.37886,-16.17327 -32.34646,-28.25423 -46.81286,-19.76201 -7.36733,4.33964 -13.83605,14.02907 -18.46512,31.28201 2.90109,3.79672 3.12122,11.19431 6.86673,13.17559 -4.02599,-1.15798 -5.73287,-5.0242 -8.61284,-8.80288 -3.06403,7.01762 -17.15644,26.57446 -16.53214,30.14208 9.23106,7.15328 26.23064,-17.32826 36.74337,-21.04967 0.5394,-0.1932 1.06762,-0.34108 1.57727,-0.41032 l 1.10669,1.53197 c 4.05916,0 10.93503,-3.00966 14.3669,-7.70516 3.42887,1.58625 26.87903,-3.01872 24.59308,26.16429 -2.88903,36.77962 -42.8804,40.77244 -36.08897,83.87296 1.46263,9.32758 2.66583,23.0159 6.85168,26.586523 -2.52112,-0.515473 -5.04223,-0.928883 -7.56642,-1.188243 -2.11096,-0.21115 -4.22799,-0.34108 -6.36314,-0.33168 -40.16319,-0.0513 -80.45913,40.235677 -120.62231,40.181395 -40.44973,-0.02568 -80.90245,-39.985295 -121.3492,-40.009475 -31.55333,0.0257 -63.11581,39.97024 -94.6571,40.009475 v 39.722855 c 31.55641,-0.04276 63.10975,-39.846555 94.67215,-40.009401 40.44973,-0.105996 80.88442,39.991357 121.33415,40.009401 40.16318,-0.07693 80.33243,-40.494952 120.49562,-40.181309 2.17439,-0.002 4.33356,0.117966 6.48983,0.329119 37.72653,3.757647 75.45006,39.780293 113.15847,39.852619 3.10617,0 6.21234,-0.265005 9.33066,-0.747998 l 49.58128,-19.801161 c 18.95068,-9.807058 37.87724,-19.451269 56.825,-19.460331 38.0371,-0.117966 76.06522,40.124039 114.10838,40.136088 v -39.849622 c -30.75422,-0.02568 -61.49931,-26.128056 -92.24148,-36.140282 10.20815,-1.378181 17.23782,-11.130963 11.67986,-33.190893 -1.01633,-3.98077 -0.8716,-4.6955 -2.82578,-8.75158 -1.95111,-4.05308 -7.78356,-10.1931 -11.01333,-12.90724 0.33167,-5.63336 5.23225,-85.7909 8.42886,-116.29183 4.68038,-3.0489 24.69269,-12.97051 28.94478,-18.48623 5.47957,-7.11712 31.16438,-34.89785 37.61198,-47.05112 -14.19191,16.70396 -61.13146,51.06197 -63.50486,55.08188 -2.36733,4.07121 -4.69841,7.74739 -4.36673,5.4193 0.49153,-3.48016 -0.0932,-7.78961 0.34707,-9.43921 4.01992,-2.99461 27.063,-26.7644 28.55573,-29.57206 3.92349,-7.49701 8.71242,-29.90682 9.37887,-37.64806 -1.63447,11.08575 -35.18122,52.21995 -36.18849,54.87382 -0.97709,2.71713 -2.70816,-0.0872 -2.42461,-4.44819 1.01924,-16.10993 -8.77277,-31.27287 -8.32039,-38.56788 1.92101,-7.16532 -1.45359,-1.45358 -3.10318,0.91376 -0.3351,-2.02959 -4.83715,-13.88733 -2.70807,-18.48633 2.37331,-5.03317 10.74799,-2.32809 18.48931,-1.69482 8.3716,0.72406 12.19858,2.47291 16.54718,1.11284 4.41803,-1.30586 18.1455,-10.0665 26.91828,-12.72337 8.75757,-2.71106 3.67003,-2.71106 -0.34109,-1.69481 -4.01999,1.01333 -31.26388,4.35168 -40.32611,4.01093 -9.09541,-0.33168 -1.68875,-1.01632 1.66473,-2.66592 3.37758,-1.68875 20.75406,-20.61238 30.22943,-23.85421 5.04223,-1.74306 3.40169,-2.85887 -1.96931,-2.3764 -9.88245,0.92279 -22.65096,8.28118 -28.70345,10.99528 -6.0465,2.65079 -8.04598,8.70335 -12.44588,12.09898 -4.35767,3.34143 -1.88477,-0.91973 -0.19576,-3.58266 1.65567,-2.70808 5.57001,-7.50312 5.38913,-12.09895 -0.15645,-3.0519 14.21302,-24.2011 15.76312,-26.9122 2.91014,-5.12977 1.94511,-5.80827 -1.35409,-1.01331 -1.7461,2.56034 -17.90733,19.40604 -21.24568,24.09849 -3.38365,4.69555 -3.06094,3.3897 -3.06094,7.40965 0,12.97358 3.01872,7.83783 -5.60618,18.92357 -2.30706,2.99761 -3.33236,1.69182 -1.34502,-1.35409 2.03258,-3.00358 2.71714,-7.06881 1.68876,-7.7473 1.35109,-1.30586 9.29141,-34.69878 9.29141,-37.41288 0,-2.66295 0,-6.04955 -1.30578,0.3411 -1.351,6.38725 -9.77697,31.60461 -14.13463,35.33199 -4.33963,3.67918 -0.34365,6.04352 1.36305,8.37161 -2.04762,2.02958 -1.36305,8.08214 -1.02231,11.42049 -4.68037,-2.32808 -4.68037,-14.42716 -4.68037,-16.45674 0,0 -1.70688,0 -4.0772,2.02958 -2.32518,1.99342 -0.96811,-1.01624 -2.32518,-2.02958 1.01334,-1.01624 4.35169,-4.35468 4.01094,-6.04949 -10.05137,2.37032 -28.55274,-17.46996 -32.27106,-20.86566 -3.67918,-3.33545 -4.35468,-1.97835 -1.31185,0.6847 3.00059,2.7111 36.19147,35.18429 37.31637,39.68676 -1.1249,0.87452 -18.63711,-6.04958 -30.58838,-8.41989 -17.18952,-3.33844 -31.94537,-14.08337 -40.03052,-20.13282 3.39871,4.35465 23.03701,22.55144 26.23064,24.82524 8.08214,5.70875 27.19866,12.77757 42.7025,18.48632 15.44042,5.71474 12.096,11.76432 13.78783,14.47239 -2.03266,-1.34801 -4.7468,-1.69183 -6.39032,-1.01325 9.68643,3.39263 17.3403,22.89827 15.77517,43.70969 l -9.78903,130.39321 c -0.27782,2.98864 -0.0769,0.52146 -0.23251,2.60259"
       style="fill:#ffffff;fill-opacity:1;fill-rule:nonzero;stroke:none;stroke-width:3.01570964;stroke-opacity:1"
       id="path1111"
       inkscape:connector-curvature="0" />
  </g>
</svg>
