<?xml version="1.0" encoding="UTF-8" standalone="no"?>
<!-- Created with Inkscape (http://www.inkscape.org/) -->

<svg
   xmlns:dc="http://purl.org/dc/elements/1.1/"
   xmlns:cc="http://creativecommons.org/ns#"
   xmlns:rdf="http://www.w3.org/1999/02/22-rdf-syntax-ns#"
   xmlns:svg="http://www.w3.org/2000/svg"
   xmlns="http://www.w3.org/2000/svg"
   xmlns:sodipodi="http://sodipodi.sourceforge.net/DTD/sodipodi-0.dtd"
   xmlns:inkscape="http://www.inkscape.org/namespaces/inkscape"
   width="90.400002cm"
   height="90.400002cm"
   viewBox="0 0 904.00003 903.99998"
   version="1.1"
   id="svg8"
   inkscape:version="0.92.2 (5c3e80d, 2017-08-06)"
   sodipodi:docname="66.svg">
  <defs
     id="defs2">
    <clipPath
       clipPathUnits="userSpaceOnUse"
       id="clipPath1987">
      <path
         d="m 198.985,357.312 h 292.05 v 340.724 h -292.05 z"
         id="path1985"
         inkscape:connector-curvature="0" />
    </clipPath>
  </defs>
  <sodipodi:namedview
     id="base"
     pagecolor="#ffffff"
     bordercolor="#666666"
     borderopacity="1.0"
     inkscape:pageopacity="0.0"
     inkscape:pageshadow="2"
     inkscape:zoom="0.061871843"
     inkscape:cx="7658.9686"
     inkscape:cy="-1146.1821"
     inkscape:document-units="cm"
     inkscape:current-layer="layer1"
     showgrid="false"
     units="cm"
     inkscape:window-width="1920"
     inkscape:window-height="1057"
     inkscape:window-x="-8"
     inkscape:window-y="-8"
     inkscape:window-maximized="1"
     fit-margin-top="0"
     fit-margin-left="0"
     fit-margin-right="0"
     fit-margin-bottom="0" />
  <metadata
     id="metadata5">
    <rdf:RDF>
      <cc:Work
         rdf:about="">
        <dc:format>image/svg+xml</dc:format>
        <dc:type
           rdf:resource="http://purl.org/dc/dcmitype/StillImage" />
        <dc:title></dc:title>
      </cc:Work>
    </rdf:RDF>
  </metadata>
  <g
     inkscape:label="Layer 1"
     inkscape:groupmode="layer"
     id="layer1"
     transform="translate(1099.2917,710.56228)">
    <rect
       style="opacity:1;fill:#5f321a;fill-opacity:1;stroke:none;stroke-width:140.97337341;stroke-linejoin:round;stroke-miterlimit:4;stroke-dasharray:none;stroke-opacity:1"
       id="rect815"
       width="900"
       height="900"
       x="-1097.2917"
       y="-708.56226"
       rx="45"
       ry="45" />
    <rect
       y="-690.56226"
       x="-1079.2917"
       height="864"
       width="864"
       id="rect817"
       style="opacity:1;fill:#ffffff;fill-opacity:1;stroke:none;stroke-width:135.33444214;stroke-linejoin:round;stroke-miterlimit:4;stroke-dasharray:none;stroke-opacity:1"
       rx="27"
       ry="27" />
    <rect
       y="-672.56226"
       x="-1061.2917"
       height="828"
       width="828"
       id="rect819"
       style="opacity:1;fill:#5f321a;fill-opacity:1;stroke:none;stroke-width:129.69551086;stroke-linejoin:round;stroke-miterlimit:4;stroke-dasharray:none;stroke-opacity:1"
       rx="9"
       ry="9" />
    <path
       d="m -416.26097,-601.46062 -17.9627,2.5902 -2.0801,5.558 -69.6713,7.2696 -10.2222,10.0411 -66.1996,13.3436 c -2.2612,-8.4077 -25.1448,-4.0393 -23.8436,4.4802 l -17.7273,6.9346 0.2533,8.5859 22.0504,6.3397 27.4212,83.0544 -71.3378,-25.9509 c -13.9144,-9.4977 -19.9432,1.6604 -34.2198,-5.5428 -15.9672,-7.2033 -19.3636,-4.6281 -34.3165,8.4681 -2.708,8.1905 -18.6843,18.3462 -20.0337,43.5604 -2.0408,42.5823 10.1859,110.385 13.5913,141.4952 0.3261,11.792 -7.8221,43.56054 -7.8221,55.34948 0.3415,73.70169 -1.3615,147.05611 -16.9846,178.83359 -7.8251,21.609624 26.1562,40.607884 58.4287,27.517744 8.8456,-20.652614 19.7078,-155.907634 26.8476,-155.907634 6.4455,0 -7.481,148.037244 -4.4137,153.278124 19.3635,15.40267 69.6441,20.317501 58.0846,-29.150964 l 3.0642,-142.14428 -42.4645,-98.91286 6.4455,-104.4768 88.0023,14.7324 c 26.1834,18.2405 49.6949,-15.9914 30.6514,-38.5581 l -56.3668,-102.611 61.1307,3.7706 12.8547,9.2833 67.6728,-0.1421 5.102,8.121 14.7265,4.1178 c 12.4864,-5.9714 9.7663,-83.6701 -0.6615,-93.3278"
       style="fill:#ffffff;fill-opacity:1;fill-rule:evenodd;stroke:none;stroke-width:3.01895022"
       id="path1095-5"
       inkscape:connector-curvature="0" />
    <path
       d="m -450.09167,-438.96225 -101.2,74.7 V -17.662259 H -901.29165 V 84.33777 l 472.59998,-3e-5 -21.4,-105.499999 z"
       style="fill:#ffffff;fill-opacity:1;fill-rule:evenodd;stroke:none;stroke-width:3.01895022"
       id="path1103-6"
       inkscape:connector-curvature="0"
       sodipodi:nodetypes="cccccccc" />
    <circle
       style="opacity:1;fill:#ffffff;fill-opacity:1;stroke:none;stroke-width:11.65650749;stroke-linejoin:round;stroke-miterlimit:4;stroke-dasharray:none;stroke-opacity:1"
       id="path1883"
       cx="-667.19171"
       cy="-529.46228"
       r="42.799999" />
  </g>
</svg>
