<?xml version="1.0" encoding="UTF-8" standalone="no"?>
<!-- Created with Inkscape (http://www.inkscape.org/) -->

<svg
   xmlns:dc="http://purl.org/dc/elements/1.1/"
   xmlns:cc="http://creativecommons.org/ns#"
   xmlns:rdf="http://www.w3.org/1999/02/22-rdf-syntax-ns#"
   xmlns:svg="http://www.w3.org/2000/svg"
   xmlns="http://www.w3.org/2000/svg"
   xmlns:sodipodi="http://sodipodi.sourceforge.net/DTD/sodipodi-0.dtd"
   xmlns:inkscape="http://www.inkscape.org/namespaces/inkscape"
   width="90.400002cm"
   height="90.400002cm"
   viewBox="0 0 904.00002 903.99999"
   version="1.1"
   id="svg8"
   inkscape:version="0.92.2 (5c3e80d, 2017-08-06)"
   sodipodi:docname="66.svg">
  <defs
     id="defs2">
    <clipPath
       clipPathUnits="userSpaceOnUse"
       id="clipPath1987">
      <path
         d="m 198.985,357.312 h 292.05 v 340.724 h -292.05 z"
         id="path1985"
         inkscape:connector-curvature="0" />
    </clipPath>
  </defs>
  <sodipodi:namedview
     id="base"
     pagecolor="#ffffff"
     bordercolor="#666666"
     borderopacity="1.0"
     inkscape:pageopacity="0.0"
     inkscape:pageshadow="2"
     inkscape:zoom="0.175"
     inkscape:cx="785.39127"
     inkscape:cy="1679.7101"
     inkscape:document-units="cm"
     inkscape:current-layer="layer1"
     showgrid="false"
     units="cm"
     inkscape:window-width="1920"
     inkscape:window-height="1057"
     inkscape:window-x="-8"
     inkscape:window-y="-8"
     inkscape:window-maximized="1" />
  <metadata
     id="metadata5">
    <rdf:RDF>
      <cc:Work
         rdf:about="">
        <dc:format>image/svg+xml</dc:format>
        <dc:type
           rdf:resource="http://purl.org/dc/dcmitype/StillImage" />
        <dc:title></dc:title>
      </cc:Work>
    </rdf:RDF>
  </metadata>
  <g
     inkscape:label="Layer 1"
     inkscape:groupmode="layer"
     id="layer1"
     transform="translate(0,607.00001)">
    <rect
       style="opacity:1;fill:#5f321a;fill-opacity:1;stroke:none;stroke-width:140.97337341;stroke-linejoin:round;stroke-miterlimit:4;stroke-dasharray:none;stroke-opacity:1"
       id="rect815"
       width="900"
       height="900"
       x="2"
       y="-605"
       rx="45"
       ry="45" />
    <rect
       y="-587"
       x="20"
       height="864"
       width="864"
       id="rect817"
       style="opacity:1;fill:#ffffff;fill-opacity:1;stroke:none;stroke-width:135.33444214;stroke-linejoin:round;stroke-miterlimit:4;stroke-dasharray:none;stroke-opacity:1"
       rx="27"
       ry="27" />
    <rect
       y="-569"
       x="38"
       height="828"
       width="828"
       id="rect819"
       style="opacity:1;fill:#5f321a;fill-opacity:1;stroke:none;stroke-width:129.69551086;stroke-linejoin:round;stroke-miterlimit:4;stroke-dasharray:none;stroke-opacity:1"
       rx="9"
       ry="9" />
    <path
       d="m 393.05774,-325.76505 c -4.24585,-8.1194 -10.26202,-16.04211 -21.87076,-18.93524 -17.19813,-3.7828 -30.39866,8.77007 -35.6704,14.93756 -7.08143,9.13628 -10.80975,18.68107 -12.83733,28.42865 -39.25657,-7.99536 -78.29518,-15.09798 -115.7057,-15.37035 -18.57813,0.0772 -32.97405,2.27875 -41.25688,7.5535 -6.25525,4.17928 -7.96508,9.78387 -5.14461,16.82599 6.69712,13.05522 17.48267,22.59997 29.41516,31.16733 23.74702,17.34645 49.35819,31.81195 75.83483,44.97003 42.4038,-36.52378 84.81979,-73.05361 127.23569,-109.57747"
       style="fill:#ffffff;fill-opacity:1;fill-rule:evenodd;stroke:none;stroke-width:3.02625036"
       id="path1163"
       inkscape:connector-curvature="0" />
    <path
       d="m 261.12532,-202.94776 c 46.21387,-39.78612 92.43676,-79.57212 138.65673,-119.36433 3.44386,-2.72972 7.21756,-2.5663 11.3151,0.4658 3.1564,3.35611 3.71631,7.24785 0.47181,11.95668 -47.09145,40.57597 -94.17388,81.1489 -141.25932,121.72792 -3.84936,10.59486 -7.91962,21.214 -19.06538,32.16297 -8.47952,8.17689 -17.06199,15.19783 -26.32832,14.15076 -6.66683,-0.47181 -13.00083,-3.48624 -18.60241,-12.13527 -3.08975,-6.13121 -3.28954,-12.28051 -0.62622,-18.4269 4.57269,-7.78648 10.19245,-14.4987 17.37373,-19.63729 10.9187,-8.06803 23.90735,-10.93988 38.06419,-10.9006"
       style="fill:#ffffff;fill-opacity:1;fill-rule:evenodd;stroke:none;stroke-width:3.02625036"
       id="path1167"
       inkscape:connector-curvature="0" />
    <path
       d="m 405.09917,-152.67264 c 46.22297,-39.78912 92.44286,-79.58734 138.65674,-119.37347 3.44995,-2.73271 7.22666,-2.57229 11.32119,0.46925 3.1564,3.34701 3.70713,7.24784 0.46322,11.95367 -47.08543,40.57602 -94.17688,81.15194 -141.25632,121.72187 -3.83727,10.60704 -7.9227,21.217 -19.06228,32.16906 -8.48262,8.173891 -17.062,15.191746 -26.32541,14.147679 -6.67285,-0.465803 -13.00684,-3.483156 -18.60841,-12.123099 -3.08375,-6.1463 -3.29555,-12.29269 -0.62022,-18.43899 4.56059,-7.78956 10.19245,-14.49569 17.36764,-19.63129 10.92178,-8.07403 23.91344,-10.94589 38.06419,-10.8945"
       style="fill:#ffffff;fill-opacity:1;fill-rule:evenodd;stroke:none;stroke-width:3.02625036"
       id="path1171"
       inkscape:connector-curvature="0" />
    <path
       d="m 535.79991,-108.73751 c 46.21689,-39.79821 92.43385,-79.58134 138.65674,-119.37955 3.43177,-2.72664 7.20556,-2.56021 11.3061,0.48124 3.1594,3.34402 3.71322,7.24184 0.46923,11.94157 -47.08544,40.58203 -94.16479,81.14895 -141.25932,121.730978 -3.84336,10.607037 -7.90461,21.213994 -19.05629,32.166059 -8.47961,8.173884 -17.05899,15.194748 -26.32841,14.147672 -6.67283,-0.465802 -13.00984,-3.480147 -18.60841,-12.123183 -3.07774,-6.143299 -3.30163,-12.292604 -0.62021,-18.438901 4.5575,-7.783559 10.19845,-14.495779 17.36764,-19.640389 10.92478,-8.061936 23.90434,-10.936876 38.07328,-10.885406"
       style="fill:#ffffff;fill-opacity:1;fill-rule:evenodd;stroke:none;stroke-width:3.02625036"
       id="path1175"
       inkscape:connector-curvature="0" />
    <path
       d="m 296.38713,-201.41944 c 32.28101,14.74386 65.85427,28.61925 100.36865,41.86208 1.94891,-0.06 3.90392,-0.11838 5.85884,-0.17843 45.06387,-38.81171 90.13083,-77.61733 135.19469,-116.4289 -3.45295,-13.53947 -13.86021,-25.33273 -29.36978,-25.55971 -14.00544,0.18787 -24.38849,7.41127 -33.11319,17.81852 -5.22328,5.96478 -8.59757,12.9856 -11.14568,20.46952 -23.86497,-7.51411 -47.67855,-14.44426 -71.47094,-20.94459 -32.1055,27.65381 -64.211,55.30766 -96.32259,82.9616"
       style="fill:#ffffff;fill-opacity:1;fill-rule:evenodd;stroke:none;stroke-width:3.02625036"
       id="path1179"
       inkscape:connector-curvature="0" />
    <path
       d="m 567.92351,-104.52194 c 31.83923,-27.42086 63.68746,-54.84172 95.52369,-82.26558 39.73156,18.52365 75.74099,38.29117 105.48898,60.10736 20.31224,16.16324 26.82166,26.64917 27.06383,34.56586 -0.94722,9.039437 -9.42983,13.687705 -21.32603,16.35994 -11.92339,2.55112 -34.88659,2.302944 -68.85626,-0.735163 -48.68032,-5.810373 -93.98627,-16.036108 -137.89421,-28.032157"
       style="fill:#ffffff;fill-opacity:1;fill-rule:evenodd;stroke:none;stroke-width:3.02625036"
       id="path1183"
       inkscape:connector-curvature="0" />
    <path
       d="m 131.75911,-217.3436 c -3.80699,9.84442 -7.61406,19.69786 -11.42405,29.54529 5.5562,50.96508 57.91338,55.44392 80.01103,37.4559 -2.92033,-5.06595 -3.95231,-11.00045 -3.08983,-17.80041 -30.06275,9.11208 -64.33804,-8.77008 -65.49715,-49.20078"
       style="fill:#ffffff;fill-opacity:1;fill-rule:evenodd;stroke:none;stroke-width:3.02625036"
       id="path1187"
       inkscape:connector-curvature="0" />
    <path
       d="m 252.37944,-147.2102 c 7.71391,-6.909 12.8525,-13.79064 16.82591,-20.66327 3.12921,5.64695 6.26434,11.294 9.39354,16.92585 4.15801,4.93582 8.31911,9.86554 12.48021,14.79534 2.05787,1.01679 4.11872,2.02758 6.17959,3.05347 2.21219,0.6142 4.42137,1.22867 6.64265,1.85206 2.28483,0.18787 4.57569,0.3783 6.86662,0.57475 2.28176,-0.24535 4.5696,-0.48382 6.85444,-0.72058 2.19701,-0.65968 4.40318,-1.32253 6.60027,-1.98829 2.03968,-1.05317 4.07326,-2.11834 6.11602,-3.1806 2.82347,-1.20749 5.64095,-2.40279 8.46743,-3.60428 2.9869,-0.68713 5.97988,-1.383 8.96677,-2.06386 3.05956,-0.15183 6.12511,-0.28738 9.19076,-0.43921 -9.75058,8.79726 -16.05729,18.08178 -16.02401,28.97628 -9.45102,1.23778 -18.50856,3.66484 -26.69153,8.7217 -11.32729,7.689722 -25.69593,8.373582 -37.42261,-2.86286 -8.14369,-13.13087 -16.29638,-26.26175 -24.44606,-39.37752"
       style="fill:#ffffff;fill-opacity:1;fill-rule:evenodd;stroke:none;stroke-width:3.02625036"
       id="path1191"
       inkscape:connector-curvature="0" />
    <path
       d="m 405.23531,-106.14702 3.85545,6.651659 4.9177,5.913311 5.83157,5.00238 6.59418,3.970484 7.16009,2.802293 13.93286,1.976104 14.057,-0.693124 13.66351,-3.353108 -2.05186,4.633159 -1.2074,4.91772 -0.35428,5.053843 0.52929,5.041662 1.39809,4.872332 -10.57368,4.557512 -11.20924,2.599495 -11.49979,0.574746 -11.40895,-1.51005 -10.95807,-3.510427 -9.03033,-5.456341 -7.98628,-6.978573 -7.82585,-9.86253 -5.5532,-11.17296 9.43885,-7.371887 z"
       style="fill:#ffffff;fill-opacity:1;fill-rule:evenodd;stroke:none;stroke-width:3.02625036"
       id="path1195"
       inkscape:connector-curvature="0" />
    <path
       d="m 528.02244,-53.895778 8.03774,-8.476522 6.7606,-9.520599 5.41397,10.313493 7.1238,9.214864 8.63694,7.822931 9.06363,1.879261 9.27542,0.187869 9.14838,-1.479852 8.7186,-3.117033 8.08012,-4.391078 8.69142,-2.983897 9.05152,-1.516136 9.19376,0.01714 9.06054,1.531235 5.3474,2.478541 4.91762,3.244164 4.38808,3.946211 3.74352,4.56059 4.02186,11.802348 6.25225,10.794655 8.21325,9.3873732 9.88372,7.61104951 11.16686,5.55319339 12.02633,3.2864533 13.84512,-0.3088234 11.85381,-2.1667995 1.77341,-0.3302696 13.03703,-4.62106739 12.15646,-6.64564681 -9.65073,29.0610373 -27.42086,11.814535 -9.06062,2.953612 -8.59757,1.119731 -8.67021,-0.396319 -8.46436,-1.918634 -7.98935,-3.365201 -7.29323,-4.739108 -7.01185,-6.267345 -5.91022,-7.317495 -4.63626,-8.1799699 -3.25926,-8.8245478 -1.10154,-5.4078753 -2.12744,-5.084133 -3.07164,-4.599882 -3.90392,-3.906929 -4.55752,-3.086744 -5.69232,-2.720621 -6.08883,-1.649272 -6.29771,-0.535293 -6.27034,0.614208 -18.442,5.507816 -17.66119,7.68063 -4.75729,2.296938 -5.11132,1.404185 -5.25355,0.465803 -4.70883,-0.44178 -5.64095,-1.494951 -5.31112,-2.765999 -3.67076,-2.729715 -3.59827,-3.873562 -9.77777,-15.312865 z"
       style="fill:#ffffff;fill-opacity:1;fill-rule:evenodd;stroke:none;stroke-width:3.02625036"
       id="path1199"
       inkscape:connector-curvature="0" />
    <path
       d="m 108,-145.59121 9.8717,-25.02107 2.66607,10.71599 4.70282,9.99575 5.74681,7.80467 1.31644,1.5676 7.64132,6.97548 9.45094,5.72871 10.38007,3.77979 12.92508,-0.9775 12.52267,-3.34701 11.6904,-5.59249 10.45872,-7.66852 4.46675,3.10493 4.963,2.22127 5.28692,1.26797 5.43516,0.26937 5.38969,-0.75061 5.15679,-1.72803 4.74511,-2.65097 2.47245,-1.68864 5.00847,3.67385 4.20648,4.56969 3.25926,5.29593 2.1819,5.81337 1.02288,6.1252 1.7976,5.78618 2.86894,5.32921 3.83727,4.68765 5.09622,4.103617 4.87825,2.657065 5.77408,1.830875 6.01317,0.693124 26.60378,-2.992899 25.5476,-8.013552 2.62687,4.760304 3.45896,4.188372 4.17928,3.474062 4.75421,2.65106 5.15979,1.715835 5.38069,0.732587 5.43506,-0.269351 5.28084,-1.277064 4.47883,12.204846 6.66384,11.160778 8.62476,9.732391 10.29229,7.946984 11.58456,5.88603 11.83863,1.283149 11.8901,-0.671688 11.61483,-2.590402 11.04274,-4.466746 10.15917,-6.200859 3.7888,3.994687 4.47584,3.229055 5.00238,2.318043 5.3474,1.346715 5.50171,0.324264 5.46544,-0.726591 5.24446,-1.740119 4.80877,-2.678241 2.43007,-1.658366 7.50811,9.054526 5.80438,10.225735 3.9402,11.070022 2.56922,4.699732 3.35611,4.1490091 4.05215,3.4771401 4.62716,2.6873444 5.02657,1.80668231 5.27783,0.8715584 5.3383,-0.093544 46.48015,-10.45262521 7.30232,-0.3028181 7.23276,1.0167863 6.93919,2.3181335 6.40056,3.5195203 5.66214,4.630161 4.72393,5.5652949 4.00068,10.818839 5.9164,9.892808 7.65035,8.627848 9.09691,7.084429 10.24983,5.280831 11.03682,3.301634 11.47251,1.216497 11.49062,-0.913852 11.13058,-3.023268 10.39214,-5.008468 9.27852,-6.842348 -7.81685,27.977683 -10.00475,6.39756 -10.97926,4.512126 -11.62083,2.454266 -11.86291,0.336271 -11.73578,-1.800595 -11.21834,-3.864548 -10.34368,-5.83156 -9.1332,-7.58386 -7.62924,-9.090819 -5.85876,-10.322499 -3.9281,-11.203237 -4.52732,-5.419972 -5.52591,-4.436548 -6.27035,-3.286453 -6.78187,-1.991293 -7.05114,-0.62965 -7.02695,0.744598 -30.48952,12.722293 -11.74178,2.487635 -11.99613,0.21446 -6.72122,-2.03967 -6.20687,-3.274444 -5.47453,-4.372901 -4.56352,-5.317119 -3.47723,-6.0979206 -10.98826,-26.5069204 -2.73572,-4.046061 -3.47114,-3.428774 -4.58179,-2.902134 -4.01578,-1.646275 -4.79967,-0.938131 -4.40618,0.009 -5.25965,0.971409 -4.51512,1.879261 -4.05215,2.708529 -20.23959,11.003449 -10.95198,3.573993 -11.42112,1.5494228 -11.5028,-0.560168 -11.21825,-2.6328638 -10.46482,-5.991975 -9.23304,-7.762293 -7.69281,-9.287602 -5.91623,-10.510195 -3.9523,-11.399851 -2.79628,-4.630161 -3.52862,-4.121728 -4.14901,-3.483235 -4.65735,-2.763002 -5.04776,-1.967019 -5.29902,-1.113639 -12.97955,0.859467 -12.62253,3.144214 -11.85682,5.335306 -5.65604,3.837267 -6.27344,2.681249 -6.68202,1.428387 -6.83326,0.13039 -6.7213,-1.189306 -6.37629,-2.448171 -5.78918,-3.613375 -4.99938,-4.663448 -4.00068,-5.532008 -15.81222,-35.189235 -2.82647,-3.83427 -3.51052,-3.23807 -4.05515,-2.49973 -4.45766,-1.69765 -4.21857,-0.73517 -5.24146,0.0172 -6.62145,1.08345 -6.3551,2.13042 -5.94059,3.09894 -5.37159,4.01277 -4.67855,4.79967 -9.23004,5.24147 -10.05623,3.416578 -10.51929,1.488945 -10.60095,-0.511271 -9.45402,-4.926722 -8.09222,-6.06464 -7.79558,-8.02255 -6.01016,-8.80645 -4.49393,-9.67183 z"
       style="fill:#ffffff;fill-opacity:1;fill-rule:evenodd;stroke:none;stroke-width:3.02625036"
       id="path1203"
       inkscape:connector-curvature="0" />
    <path
       d="m 434.24796,-145.88476 c 4.37908,1.53733 8.76108,3.07165 13.14307,4.60897 11.98094,3.9705 23.95881,7.9349 35.93368,11.91139 14.88918,4.56359 29.77527,9.13619 44.66745,13.69979 1.7674,-0.0429 3.54981,-0.0909 5.31411,-0.13897 42.93344,-36.97474 85.86687,-73.94639 128.8154,-110.93023 -1.52523,-9.75358 -5.7257,-18.37242 -13.80882,-25.3449 -9.64163,-6.85744 -20.40601,-7.63516 -32.26283,-2.30294 -15.37634,7.61706 -23.13872,20.45748 -28.76448,34.75955 -15.59433,-5.9345 -31.15828,-11.8841 -46.72232,-17.8216 -35.43741,30.5167 -70.87475,61.03949 -106.31526,91.5592"
       style="fill:#ffffff;fill-opacity:1;fill-rule:evenodd;stroke:none;stroke-width:3.02625036"
       id="path1207"
       inkscape:connector-curvature="0" />
    <circle
       style="opacity:1;fill:#ffffff;fill-opacity:1;stroke:none;stroke-width:6.96132755;stroke-linejoin:round;stroke-miterlimit:4;stroke-dasharray:none;stroke-opacity:1"
       id="path1978"
       cx="371"
       cy="-381.74997"
       r="28" />
    <circle
       r="28"
       cy="-336.09995"
       cx="510.70001"
       id="circle1989"
       style="opacity:1;fill:#ffffff;fill-opacity:1;stroke:none;stroke-width:6.96132755;stroke-linejoin:round;stroke-miterlimit:4;stroke-dasharray:none;stroke-opacity:1" />
    <circle
       style="opacity:1;fill:#ffffff;fill-opacity:1;stroke:none;stroke-width:6.96132755;stroke-linejoin:round;stroke-miterlimit:4;stroke-dasharray:none;stroke-opacity:1"
       id="circle2000"
       cx="634.85004"
       cy="-291.49997"
       r="28" />
  </g>
</svg>
