<?xml version="1.0" encoding="UTF-8" standalone="no"?>
<!-- Created with Inkscape (http://www.inkscape.org/) -->

<svg
   xmlns:dc="http://purl.org/dc/elements/1.1/"
   xmlns:cc="http://creativecommons.org/ns#"
   xmlns:rdf="http://www.w3.org/1999/02/22-rdf-syntax-ns#"
   xmlns:svg="http://www.w3.org/2000/svg"
   xmlns="http://www.w3.org/2000/svg"
   xmlns:sodipodi="http://sodipodi.sourceforge.net/DTD/sodipodi-0.dtd"
   xmlns:inkscape="http://www.inkscape.org/namespaces/inkscape"
   width="90.400002cm"
   height="90.400002cm"
   viewBox="0 0 904.00002 903.99999"
   version="1.1"
   id="svg8"
   inkscape:version="0.92.2 (5c3e80d, 2017-08-06)"
   sodipodi:docname="66.svg">
  <defs
     id="defs2">
    <clipPath
       clipPathUnits="userSpaceOnUse"
       id="clipPath1987">
      <path
         d="m 198.985,357.312 h 292.05 v 340.724 h -292.05 z"
         id="path1985"
         inkscape:connector-curvature="0" />
    </clipPath>
  </defs>
  <sodipodi:namedview
     id="base"
     pagecolor="#ffffff"
     bordercolor="#666666"
     borderopacity="1.0"
     inkscape:pageopacity="0.0"
     inkscape:pageshadow="2"
     inkscape:zoom="0.175"
     inkscape:cx="785.39127"
     inkscape:cy="1679.7101"
     inkscape:document-units="cm"
     inkscape:current-layer="layer1"
     showgrid="false"
     units="cm"
     inkscape:window-width="1920"
     inkscape:window-height="1057"
     inkscape:window-x="-8"
     inkscape:window-y="-8"
     inkscape:window-maximized="1" />
  <metadata
     id="metadata5">
    <rdf:RDF>
      <cc:Work
         rdf:about="">
        <dc:format>image/svg+xml</dc:format>
        <dc:type
           rdf:resource="http://purl.org/dc/dcmitype/StillImage" />
        <dc:title></dc:title>
      </cc:Work>
    </rdf:RDF>
  </metadata>
  <g
     inkscape:label="Layer 1"
     inkscape:groupmode="layer"
     id="layer1"
     transform="translate(0,607.00001)">
    <rect
       style="opacity:1;fill:#5f321a;fill-opacity:1;stroke:none;stroke-width:140.97337341;stroke-linejoin:round;stroke-miterlimit:4;stroke-dasharray:none;stroke-opacity:1"
       id="rect815"
       width="900"
       height="900"
       x="0"
       y="-603"
       rx="45"
       ry="45" />
    <rect
       y="-585"
       x="18"
       height="864"
       width="864"
       id="rect817"
       style="opacity:1;fill:#ffffff;fill-opacity:1;stroke:none;stroke-width:135.33444214;stroke-linejoin:round;stroke-miterlimit:4;stroke-dasharray:none;stroke-opacity:1"
       rx="27"
       ry="27" />
    <rect
       y="-567"
       x="36"
       height="828"
       width="828"
       id="rect819"
       style="opacity:1;fill:#5f321a;fill-opacity:1;stroke:none;stroke-width:129.69551086;stroke-linejoin:round;stroke-miterlimit:4;stroke-dasharray:none;stroke-opacity:1"
       rx="9"
       ry="9" />
    <path
       d="m 694.97624,-413.04145 c 35.99095,16.56762 72.28638,7.28864 95.02377,-8.35914 -3.57643,-15.87706 -12.32761,-31.47058 -32.51093,-46.4308 -10.35848,-6.26638 -22.54737,-11.32049 -41.23187,-12.04721 H 179.7894 l -13.01823,1.87865 -12.48747,4.14945 -11.56171,6.28746 -10.26506,8.22956 -8.64263,9.92119 -6.76094,11.28733 -4.64998,12.31557 L 110,-412.8786 v 518.24462 l 3.66687,14.23658 6.26335,13.30466 10.67519,13.80235 8.67879,8.16316 12.40609,7.90681 13.6666,5.43709 14.43251,2.78335 h 558.97296 l 14.24564,-8.07871 12.7287,-10.3072 10.84102,-12.28848 H 338.16142 C 320.6228,136.333 307.86692,127.08423 305.62629,106.29485 298.407,51.791309 291.18772,-2.7271833 283.96245,-57.227733 c 0.73598,-7.363964 -10.38567,-14.468769 -16.54346,-4.092101 -1.24237,2.647642 -0.82061,17.722548 -1.22734,26.585281 l -3.57343,20.011405 -6.70367,19.4203129 -10.38259,19.6947081 -6.48646,8.518942 -6.48655,8.519022 C 223.10811,25.643311 213.64529,9.8386722 204.18846,-5.9448565 197.94314,-23.257216 191.6979,-40.569656 185.45267,-57.879128 c -2.98841,-28.349385 -5.9799,-56.701872 -8.97138,-85.048252 -0.8172,-8.65167 -12.33369,-9.93628 -14.63459,-0.70515 -6.82419,25.48155 -15.38245,55.468514 -23.07214,83.199672 -2.86172,-67.732832 -5.72653,-135.456662 -8.59134,-203.192482 l 9.67097,-10.60876 7.49068,-12.24323 5.03295,-13.44043 2.15317,-12.71359 -0.0855,-15.78655 c -2.86181,-25.23128 9.01652,-40.91532 29.60382,-47.2963 13.37109,-6.41714 20.69894,-17.35159 25.84053,-29.92662 4.87916,-22.66805 19.18805,-31.19904 37.77604,-33.30398 19.2273,-0.06 38.45459,-0.11789 57.68198,-0.17524 12.95188,7.84961 18.16878,18.965 18.09946,32.29372 0.57871,45.62875 1.16399,91.2544 1.73996,136.88304 4.33038,13.02131 20.72911,13.02131 24.54079,0 2.70496,-53.14647 5.41897,-106.29893 8.12393,-159.44549 6.4986,-23.12953 32.99638,-16.36251 34.78464,0 3.45283,12.46633 6.65238,24.93275 10.1082,37.40817 0.99816,12.90063 2.00239,25.79526 3.00055,38.69898 1.68269,11.9627 15.65077,12.58692 19.55298,1.85448 l 0.5069,-19.36602 3.42265,-17.17676 6.49254,-16.25991 4.6681,-7.40322 4.67119,-7.40633 11.88739,-12.86446 14.01639,-10.48806 15.70805,-7.7531 16.82999,-4.77667 c 3.18741,9.34832 6.35985,18.69654 9.53522,28.04796 1.38718,9.77343 2.75924,19.54386 4.1494,29.31429 -0.44364,9.86704 -0.89259,19.72789 -1.35393,29.58584 2.80446,15.08989 18.61816,10.36458 20.13194,1.46854 0.62401,-12.65026 1.2364,-25.29452 1.85161,-37.95098 2.17719,-11.80594 4.34242,-23.60888 6.51364,-35.41492 12.82222,-22.10718 39.70603,-26.22636 60.59798,-7.60524 6.65229,15.5061 13.32878,31.00612 19.9962,46.51522 3.58858,16.4832 7.17407,32.97229 10.7717,49.45839 0.38637,16.87224 0.75651,33.74128 1.14288,50.60742 5.07824,7.7621 14.89093,7.21021 19.0524,-1.64647 -0.0171,-8.05153 -0.0171,-16.09416 -0.0257,-24.14269 1.36,-7.92494 2.71701,-15.85888 4.07402,-23.78992 2.68084,-7.58406 5.37076,-15.17131 8.05161,-22.75547 3.9293,-7.01429 7.8586,-14.04047 11.79089,-21.05786 5.06311,-6.25119 10.12931,-12.50249 15.19243,-18.75379"
       style="fill:#ffffff;fill-opacity:1;fill-rule:evenodd;stroke:none;stroke-width:3.01557469"
       id="path1091"
       inkscape:connector-curvature="0" />
    <path
       d="m 489.54324,-101.62302 c 11.14551,-4.53839 22.29418,-9.08587 33.4367,-13.63345 5.24108,-2.33104 10.50321,-2.11693 15.75335,-0.15635 15.57846,9.67092 31.18103,19.338946 46.77461,29.009869 3.02159,2.231429 5.22596,4.767575 6.86036,7.517822 6.02512,13.159884 12.06836,26.316871 18.09348,39.476815 1.8516,4.107277 2.98242,8.362258 -1.02526,13.645573 -2.5934,3.38342 -6.33576,4.680166 -10.88326,4.547409 -3.49505,-0.539379 -6.26933,-1.975206 -8.20838,-4.472099 -5.90749,-12.963946 -11.82106,-25.930909 -17.7436,-38.888881 -8.11495,-4.824821 -16.26299,-9.646745 -24.39599,-14.471666 -1.2575,-0.117991 -2.31601,0.144466 -3.1845,0.805153 4.40577,17.363781 8.83565,34.727463 13.2474,52.088068 14.19435,40.125313 28.37965,80.235421 42.56186,120.357657 1.98726,5.557709 3.9534,11.11234 5.91955,16.68218 2.11394,6.38996 0.15131,12.19198 -5.91955,17.41793 -5.20792,3.46189 -11.07618,4.06504 -17.83712,0.50946 -2.6447,-1.87262 -5.17476,-4.17052 -7.02935,-9.55633 -12.61108,-31.153927 -25.23728,-62.295799 -37.85144,-93.434604 -1.59225,-3.93229 -3.19348,-7.861583 -4.78274,-11.793873 -1.19108,-2.674867 -3.18741,-2.662728 -5.54865,-1.429413 -7.87364,18.168875 -15.75634,36.337659 -23.63306,54.503457 -8.35917,19.188138 -16.74545,38.379283 -25.12574,57.555293 -4.77368,6.25736 -10.48217,7.86466 -16.81186,6.29959 -4.9908,-1.64961 -8.4255,-5.0632 -10.28608,-10.22889 -1.29375,-3.33521 -0.52742,-6.6735 0.53083,-10.0087 16.24189,-42.332606 32.48974,-84.674272 48.73162,-127.022002 0.0683,-1.923914 0.13848,-3.841854 0.21456,-5.771842 -3.24169,-10.394641 -6.48946,-20.783328 -9.75234,-31.175081 -0.27781,-1.378021 -1.79424,-1.69163 -2.23456,0.560779 -0.0428,0.183829 -0.14446,0.37695 -0.20516,0.588154 -2.51801,7.716837 -5.05405,15.430716 -7.57513,23.147593 -0.68129,2.590326 -1.76706,5.020889 -5.66619,6.317546 -13.05447,4.821974 -26.0968,9.64087 -39.1422,14.4537033 -3.67294,1.9148625 -7.69576,2.7079463 -12.96693,-0.5188683 -3.7333,-3.087914 -5.37983,-6.797101 -4.94259,-11.172689 1.11877,-5.967851 3.93229,-7.988275 6.99318,-9.438799 11.69439,-4.695211 23.38876,-9.387426 35.0952,-14.076673 1.19417,-1.311782 2.40645,-2.620467 3.60062,-3.926255 4.26097,-13.742044 8.48586,-27.480891 12.73477,-41.225932 3.33521,-6.004026 7.30674,-10.584674 12.20402,-13.081554"
       style="fill:#ffffff;fill-opacity:1;fill-rule:evenodd;stroke:none;stroke-width:3.01557469"
       id="path1095"
       inkscape:connector-curvature="0" />
    <path
       d="m 490.97863,-113.45015 c 14.16418,0 25.71684,-11.54957 25.71684,-25.71672 0,-14.16416 -11.55266,-25.71383 -25.71684,-25.71383 -14.15811,0 -25.71981,11.54967 -25.71981,25.71383 0,14.16715 11.5617,25.71672 25.71981,25.71672"
       style="fill:#ffffff;fill-opacity:1;fill-rule:evenodd;stroke:none;stroke-width:3.01557469"
       id="path1099"
       inkscape:connector-curvature="0" />
  </g>
</svg>
